<svg id="Layer_1" data-name="Layer 1" xmlns="http://www.w3.org/2000/svg" xmlns:xlink="http://www.w3.org/1999/xlink" viewBox="0 0 30 30"><defs><style>.cls-1{fill:none;}.cls-2{clip-path:url(#clip-path);}.cls-3{clip-path:url(#clip-path-2);}.cls-4{fill:#fff;}.cls-5{clip-path:url(#clip-path-4);}.cls-6{fill:#964a25;fill-rule:evenodd;}</style><clipPath id="clip-path" transform="translate(-50 -46.71)"><rect class="cls-1" x="50" y="46.71" width="30" height="30"/></clipPath><clipPath id="clip-path-2" transform="translate(-50 -46.71)"><rect class="cls-1" x="50" y="46.71" width="30" height="37.5"/></clipPath><clipPath id="clip-path-4" transform="translate(-50 -46.71)"><rect class="cls-1" x="51.48" y="53.24" width="27" height="17.25"/></clipPath></defs><g id="Domains_of_Knowledge" data-name="Domains of Knowledge"><g class="cls-2"><g class="cls-3"><rect class="cls-4" width="30" height="30"/></g><g class="cls-2"><rect class="cls-4" width="30" height="30"/></g><g class="cls-5"><path class="cls-6" d="M62.5,57.14c.18,0,.11.16.29.12,0,.17,0,.32-.18.29,0-.08,0-.17,0-.18s-.13.23-.24.3.14.06.12.18c-.41.11-.13-.58.06-.71Z" transform="translate(-50 -46.71)"/><path class="cls-6" d="M62.79,57.67c.21.22.51.35.52.77a2,2,0,0,1-.52-.77Z" transform="translate(-50 -46.71)"/><path class="cls-6" d="M63.14,58.62c-.33.08-.43-.54-.59-.83A.85.85,0,0,1,63.14,58.62Z" transform="translate(-50 -46.71)"/><path class="cls-6" d="M76,61.52c0-.09.52-.15.46,0C76.25,61.59,76.19,61.47,76,61.52Z" transform="translate(-50 -46.71)"/><path class="cls-6" d="M76.73,62.23c.32.17.39,1.33-.11,1.36A2.27,2.27,0,0,0,76.73,62.23Z" transform="translate(-50 -46.71)"/><path class="cls-6" d="M76.38,62.28c.17,0,.15.09.29.06a2.91,2.91,0,0,1-.23,1.25A1.53,1.53,0,0,1,76.38,62.28Z" transform="translate(-50 -46.71)"/><path class="cls-6" d="M58.26,70a9.31,9.31,0,0,0,1.1-.11,3,3,0,0,1-1.86-.6c.2.3.55.43.76.71Zm-1.57,0c.28-.09.59.2.69-.06-.37-.16-.37-.69-.63-1A4.57,4.57,0,0,1,56.69,69.92Zm16.44-2.67c-.25.43-.41.84-.64,1.25s-.6.65-.52,1.18c1-.22,1.22-1.28,1.33-2.43ZM75,69.62a10.37,10.37,0,0,1-.64-1.78c0-.28-.07-.4-.06-.65h-.52a18.23,18.23,0,0,1-.52,2.25c-.1.28-.43.34-.47.59A10.7,10.7,0,0,1,74.41,70c0-.25.37-.16.64-.17.06-.09.06-.15-.06-.18Zm-.41.41c.25,0,.66.08.81-.06C75.24,69.71,74.76,69.83,74.58,70Zm.81-3.19c0,.42-.4.33-.58.53a3.15,3.15,0,0,0,.7,2.25c.44,0,.64-.3.93-.47a5.56,5.56,0,0,0-.7-2.31Zm1.17-.06c-.07.13-.37,0-.53.06.06.69.63,1.37.58,2.37-.19.25-.63.26-.81.53a2,2,0,0,0,1.51.23c-.23-1-.29-2.58-.75-3.19Zm-3.43,0s-.07,0-.06.12V67c.69-.12,1.52.21,2-.06a7.86,7.86,0,0,0-1.92-.18Zm-.87,0a8.65,8.65,0,0,1-1,2.66,20.57,20.57,0,0,0-2.09.53h2.61c-.25-1.2,1.14-2,1.11-3.13-.13-.11-.43,0-.64-.06ZM57,67.55c.06.63.22,1.29.46,1.42a5.74,5.74,0,0,1-.23-1.18c0-.43.12-.94-.12-1.13-.21.09-.15.56-.11.89Zm-.41.41a10.71,10.71,0,0,1-.06-1.3h-.29A3.06,3.06,0,0,0,56.57,68ZM55.12,66.6a16.51,16.51,0,0,1-.58,3,2.11,2.11,0,0,0,.64.06c.1.1-.09.23.17.24a8.91,8.91,0,0,1,1.16,0c.37-1.27-.33-2.25-.52-3.32ZM54,66.6c-.42.78-.67,1.72-1,2.55.32.13.68.21,1,.35a5.91,5.91,0,0,0,.64-2.84c-.11-.1-.39,0-.59-.06Zm16.33-.35v.23c.14,0,.4.12.52,0v-.29C70.68,66.2,70.44,66.15,70.34,66.25Zm-12.67-.12c-.45.3-.23,2.72-.05,3s1.24.52,1.86.53c.21,0,.16.3.4.29,2.75-.1,6.21-.06,8.95,0,.63-.44,1.74-.4,2.44-.76A9.09,9.09,0,0,0,72,66.84a13.71,13.71,0,0,1-1.69-.06c-.24,0-.1-.45-.35-.47-3.86-.23-9,.06-12.32-.18Zm-3.36.06c-.1,0-.21,0-.18.12a7.34,7.34,0,0,0,2.38.12c.27,0,.66.25.7-.18a9.6,9.6,0,0,0-2.9-.06Zm-1.11,0c-.29.21-.21.64-.29,1.06a13.58,13.58,0,0,1-.81,2.61c.6,0,1.2,0,1.8,0,.37,0,.82.2,1.1-.06a6,6,0,0,1-2.26-.59,9.7,9.7,0,0,1,.4-1.19c.2-.46.39-.86.58-1.24a1.84,1.84,0,0,0,.24-.59c-.21,0-.57-.13-.76,0ZM70.69,66c1.08-.12,2-.4,2.15-1.48a10.28,10.28,0,0,1-2.15,0V66Zm-4.13-1.42c-2.1,0-4.54-.12-7-.12s-5.4,0-7.55,0c-.26.23,0,.94-.12,1.36,6.29.12,12.07.14,17.26.18V64.59A16.81,16.81,0,0,0,66.56,64.59Zm4.13-.29a4.27,4.27,0,0,0,1.16,0c.39,0,.94.1,1.1-.11,0-.45-.52-.18-.81-.18s-1-.1-1.39-.06A.39.39,0,0,1,70.69,64.3ZM68.31,64c-2.32.08-4.23,0-6.28,0-3,0-6.46-.16-10.11-.12q-.06,0-.06.12v.12c2.72.28,5.64.13,8.55.18,1.57,0,3.08,0,4.53,0,1.07,0,2.12.12,3.25.11.34,0,.85,0,1-.23-.09-.45-.65-.19-.87-.18Zm7-1.48c-.17-.15-.25-.38-.58-.35a3.91,3.91,0,0,0-.12,1.47c.53.39,1.13,0,1.74.24a.22.22,0,0,1,0,.3c.35,0,0-.34.18-.42s.14.17.35.12a1.34,1.34,0,0,0,.17-1.71,2.09,2.09,0,0,1-1.16-.24c0,.28-.33.27-.41.3.12.05,0,.33-.17.29Zm-4.59,1.3c.66,0,1.37,0,2.15.06,0-1.14-1.17-1.61-2.15-2C70.77,62.73,70.69,63.23,70.75,63.82Zm-14.41-2a4.84,4.84,0,0,0,.41.77c.11.25.06.73.46.71a3.16,3.16,0,0,0-.93-1.54s.07,0,.06.06Zm13.36,0c-.12.91,0,2.17-.06,3.31,0,.27-.16.75.12.89.14-1.36,0-3,.12-4.38H69.7Zm-13.36.77c.09.3,0,.86.46.83A2.84,2.84,0,0,0,56,61.69C56.07,62,56.24,62.25,56.34,62.58Zm-.47.71c.12,0,.43.15.53,0a9.61,9.61,0,0,1-.53-1.72H55.7C55.71,62.2,55.85,62.69,55.87,63.29Zm14.64-1.6c.19.09.35-.27.12-.23-.38.32-.28.87-.29,1.53s-.06,1.54-.06,2.37c0,.25-.16.72.18.71,0-1.44.09-2.94.05-4.38Zm-.11-.23c-.26-.07-.19.2-.41.17,0,1.08,0,2.44,0,3.49,0,.33-.14.79.12.95.17-1.52-.1-3.24.29-4.61ZM55.35,63.29h.41a4.36,4.36,0,0,1-.12-1.77c0-.05,0-.07-.11-.06A5.82,5.82,0,0,0,55.35,63.29Zm10.92-1.72c.15,0,.29,0,.29-.11s-.29-.17-.34,0C66.26,61.47,66.28,61.51,66.27,61.57ZM55,62.46c0,.25-.12.74.18.77,0-.62.16-1.41.17-1.95A4.45,4.45,0,0,0,55,62.46ZM75.34,61.4a.43.43,0,0,0,.29.47c.2,0,.07-.24.29-.18s.44.38.93.3a4.57,4.57,0,0,0-.18-1,9.58,9.58,0,0,1-1.33.36Zm-.53.12c0-.15-.18-.36-.23-.24.22.22-.13.68.06.89.12-.34.51,0,.75-.24-.28-.36-.52-1.08-.87-1.18.1.21.4.53.29.77ZM70.17,61c.16-.14.48-.14.52-.41C70.46,60.67,70.07,60.86,70.17,61Zm-14.12-.35c.3,0,.36.19.7.12.16.08-.13.26.11.23C57.11,60.66,56.09,60.56,56.05,60.69Zm16.73.23c-.65.24-1.58.26-1.68.95,1,.29,1.92.85,2,2A2,2,0,0,1,71,66.13c.08.18,0,.17,0,.41,1,.06,1.94-.07,2.9-.06a13.17,13.17,0,0,0,2.56.12c.3-.06.45-.34.76-.35a2.92,2.92,0,0,0,.87-2,2.54,2.54,0,0,0-.82-2.13,2.72,2.72,0,0,1,.18,1.36c-.1.42-.58.58-.76.88-.55.16-1-.43-1.62-.23a6.88,6.88,0,0,0-.88-.65c-.28-.24-.5-.59-.87-.71C72.9,62.1,72,62,71.5,61.4a11.23,11.23,0,0,1,2.79,1.83c0-.16.38-.2.18-.35a.43.43,0,0,1-.12.17c0-.61.38-1.36.06-1.89-.2.47-.13,1.41-.53,1.72.07-.55.4-1.14.29-1.66-.24.43-.27,1.06-.63,1.36,0-.64.4-.93.52-1.48-.27-.08-.49.08-.58-.24a.69.69,0,0,1,.58-.29c-.06.14-.29.1-.29.29a.45.45,0,0,0,.52-.23c-.38-.13.11-.07.06-.36a12.14,12.14,0,0,0-1.57.65ZM51.86,60c0,1.21,0,2.55,0,3.6,2.09.07,4.11.16,5.64.18a4,4,0,0,0,1.74-.18,3.36,3.36,0,0,0,1.69.18c3,0,5,0,8.19,0a13.6,13.6,0,0,0,.06-2.25c-.72-.23-1.58.14-2.21,0-3,.64-6.58,1.81-9.82,2a13.51,13.51,0,0,1-1.8,0,4.11,4.11,0,0,1-2-.71c-.76-.69-.65-2.1-1.34-3,0,.08-.09.1-.12.18Zm1.63.35h.58a.63.63,0,0,0-.35-.59C53.73,60.08,53.43,60.05,53.49,60.39Zm6.39-.47a4.19,4.19,0,0,0-2-.24c-.77.08-1.3.73-1.86.83.27.12,1.05,0,1.1.35.08.58-.76.28-1.16.12a5.18,5.18,0,0,1,1.39,2.31,18.4,18.4,0,0,0,3.49-.47c-.27-1-.66-1.93-1-2.9Zm16.44-.24c-.14-.17-.14-.49-.4-.53a4,4,0,0,1-.64,1.06c-.19.18-.41.21-.58.42.67.07.91-.81,1.33-1.19a2.34,2.34,0,0,1-.93,1.25c-.1.06-.29-.06-.29.17.67,0,1.14-.69,1.51-1.18Zm-1.16,1.24c-.08,0-.21,0-.17.12s.05.07.11.06c.44,0,.92-.45,1.28-.71-.17.54-.76.64-1.22.89.5.12.85-.39,1.51-.3a4.2,4.2,0,0,0-.35-1.12,2.35,2.35,0,0,1-1.16,1.06ZM53.61,62.34a1.08,1.08,0,0,0,1.28.77A2.43,2.43,0,0,1,55.53,61s-.15.23,0,.24,0-.32-.06-.41a4,4,0,0,0-1,2.24c-.24-.06,0-.28-.06-.53-.14,0-.28.26-.41.06.17-.25.32-.35.53-.3,0-.18.1-.2.06-.41-.37,0-.66.39-.93.3.15-.56,1.11-.29,1.22-.89-.6,0-1,.46-1.4.41.35-.61,1.6-.3,1.86-1A2.9,2.9,0,0,1,54.54,59c-.31,0-.23.39-.18.59.12.45.52.77.58,1.07s-.31.11-.52.17c-.4.12-.88.48-1.1.3a3.93,3.93,0,0,1,1.45-.47c0-.28-.29-.42-.41-.65s0-.55-.29-.71c-.31.42.24.71.24,1.18a1.62,1.62,0,0,0-1,.18,2.05,2.05,0,0,0,.29,1.65Zm17.2-2.24a2.51,2.51,0,0,0,.11-1.25h-.17a5,5,0,0,0,.06,1.25Zm-15.75.11s.14,0,.17.06.16.54.35.36a2.47,2.47,0,0,1-.64-1.84h-.17A2.28,2.28,0,0,0,55.06,60.21Zm10.17,1.31c.22-.44,1-.4,1.45-.24-.71-.84-1.47.07-2,.29-.9.37-2,.06-3.08.42A6.12,6.12,0,0,1,61,59.86c0-.22.17-.43.18-.65.07-1.42-1-1.88-2.21-1.89a7.36,7.36,0,0,0-3.83,1.36,1.49,1.49,0,0,0,.58,1.71c.67-.12,1.13-.73,1.8-.89s1.35.11,2.26,0a26.31,26.31,0,0,1,1.28,3.26,30.88,30.88,0,0,0,4.24-1.13c.22,0,.66,0,.53-.17s.08-.1,0-.12-.48.3-.64.18Zm10-2c-.15.38-.72.33-.81.77.36.19.78-.16,1-.47.59-.9.37-1.08-.11-1.83a3.67,3.67,0,0,0-1.22-1.37H74C74.37,57.69,75.16,58.29,75.28,59.56ZM62.44,59c.1-.1.07-.32.17-.41s0,.21.06.29a.35.35,0,0,0,.12-.17c.16.07,0,.26-.06.35.3-.15.91-.61,1-1.06a1.19,1.19,0,0,0-1.4-1.48c.28-.43,1.14,0,1.34.23a1.93,1.93,0,0,1,.29.83c0,1-.86,1.34-1.28,1.84-.16,0,0-.28-.12-.24-.13.21-.22.48-.58.47a.9.9,0,0,0-.52-.88c-.12.13.06.28,0,.53a3.22,3.22,0,0,0,.29,2.54c.86-.27,2.1-.15,3-.41a1.62,1.62,0,0,1,2.21-.3c0,.22-.11.28-.17.42a12.58,12.58,0,0,1,2.55-.18c.12,1,.06,2.65.06,3.9,0,.3-.21.65.06.83.13-1.75,0-3,.17-4.73.12-.18.3-.29.41-.48-.43-.7-.93-1.33-1.39-2,.7-.3,1.38-.71,2.2-1a2.67,2.67,0,0,1,.7-.18c.29,0,.44.36.7.53.5.34,1.55.42,1.8,1.07-.29-.05-.43-.34-.7-.48s-.68-.17-1-.35-.46-.44-.76-.59A23.74,23.74,0,0,0,68.89,59a17.13,17.13,0,0,0,1.33,1.72c.15-.11.16-.36.41-.36,0-.45-.35-1.48.29-1.65.52.25.06,1.07.06,1.53,0,.12,0,.26-.18.24,1.47.39,2.52-.62,3.43-1.18-.33-.48-.67-1.23-1.1-1.78-.22-.28-.82-.73-.29-1.18,0,.22-.1.25-.06.47a28.84,28.84,0,0,1,1.57,2.43,3.94,3.94,0,0,1-3.55,1.42c.2.25.35.19.64.29,0,.13,0,.16,0,.24a20.28,20.28,0,0,0,3.66-1.48,5.6,5.6,0,0,0-1.22-2.78v-.35c-.34-.66-1.39,0-1.57-.83-.09-.38.38-.77.29-1.3a1.07,1.07,0,0,0-.76-.71c-.34-.06-.91,0-1,.47-.33-.12-.46.33-.53.65a4.06,4.06,0,0,1,1.51-.24c.13.14.23.78,0,.89s-.06-.12,0-.29-.27,0-.18-.18.15.08.18-.12-.42-.13-.58-.12a2.3,2.3,0,0,0-.64.18c.18.15.69-.14.87,0-.17.38-1,.08-1.11.53.09.2.49,0,.29.42.18,0,.23-.19.35-.06s-.22.12-.17.35c.34.19.57-.19,1-.12.08,0,0-.07,0-.17.16.06.39.07.4.29s-.11,0-.23-.06-.13.27-.17.42a2.45,2.45,0,0,0-1.11.35c-.69.91-2,1.17-2.79,2a6.26,6.26,0,0,0,1.46,1.66c.15.14.46.26.46.53a9.84,9.84,0,0,1-1.22-1c-.29-.44-.8-.65-.93-1.25.64-.77,1.66-1,2.44-1.59.49-.36.87-.9,1.57-.89-.28-.19-.61.09-.87.12a1.12,1.12,0,0,0-.7-.59c-.14-.2.07-.46.12-.65A1.48,1.48,0,0,1,72,53.53a1.27,1.27,0,0,1,.81,1c0,.46-.37.73-.29,1.24a7.38,7.38,0,0,1,2,.88,10,10,0,0,1,2,2.84s0,.13,0,.18.19.25.23.36a14.59,14.59,0,0,1,.35,1.77c.2.22.48.2.7.42a3.5,3.5,0,0,1,.52,2.66,2.57,2.57,0,0,1-1.45,1.83A12,12,0,0,1,77.43,70c.45.11.86-.28.87.18-.25.27-.69.07-1,.06a11,11,0,0,0-1.62,0c-.37,0-.2.07-.53,0s-1.82,0-2.44-.06c-.79-.06-1.57.09-2.32.06-.16,0-.3-.11-.47-.12-.9,0-1.79.1-2.67.06-1.89-.08-3.67-.07-5.46-.06-.82,0-2,.13-2.91.06-.07,0-.29,0-.29-.12a8.37,8.37,0,0,1-1.39.12c-1.36,0-3-.1-4.42-.06A2.53,2.53,0,0,1,51.52,70c0-.27.16-.11.34-.11a5.11,5.11,0,0,0,.64-2.61c.26-.21.25-.7.41-1a10,10,0,0,0-1.22-.12c0-2.23,0-4.23.06-6.68,1.18.41.86,2.35,1.74,3.07-.75-.94-.16-2.7.47-3.31a13,13,0,0,1,3.19-1.72c.17-.06.34-.2.47-.23a5.85,5.85,0,0,1,1.1-.06,1.81,1.81,0,0,1,.93,0,4.85,4.85,0,0,1,.58.12c.38.13.51.4.76.35.45-.1.53-1.4,1.27-1.24-.13.26-.4.23-.58.47s-.16.88-.64,1c0,.3.22.45.29.71.54-.1.59.31.82.53.17-.08.11-.4.23-.53.28,0,0,.23.06.41Z" transform="translate(-50 -46.71)"/></g></g></g></svg>