<svg id="Layer_1" data-name="Layer 1" xmlns="http://www.w3.org/2000/svg" xmlns:xlink="http://www.w3.org/1999/xlink" viewBox="0 0 30 30"><defs><style>.cls-1{fill:none;}.cls-2{clip-path:url(#clip-path);}.cls-3{clip-path:url(#clip-path-2);}.cls-4{fill:#fff;}.cls-5{clip-path:url(#clip-path-4);}.cls-6{fill:#964a25;}</style><clipPath id="clip-path" transform="translate(-149.96 -46.63)"><rect class="cls-1" x="149.96" y="46.63" width="30" height="30"/></clipPath><clipPath id="clip-path-2" transform="translate(-149.96 -46.63)"><rect class="cls-1" x="149.96" y="46.63" width="30" height="37.5"/></clipPath><clipPath id="clip-path-4" transform="translate(-149.96 -46.63)"><rect class="cls-1" x="154.83" y="49.63" width="22.5" height="26.25"/></clipPath></defs><g id="Egyptology"><g class="cls-2"><g class="cls-3"><rect class="cls-4" width="30" height="30"/></g><g class="cls-2"><rect class="cls-4" width="30" height="30"/></g><g class="cls-5"><path class="cls-6" d="M164.18,52.42a.11.11,0,0,1,.08,0s0,0-.06,0S164.14,52.43,164.18,52.42Zm-.06.2a.21.21,0,0,1,.14,0c.13,0,.12,0,0,.06s-.11,0-.09,0Zm-.93.09a.17.17,0,0,1,.07-.09.22.22,0,0,0,.06-.13c0-.05,0-.08,0-.08s0,.19,0,.27-.14.09-.14,0Zm.44.33c.12-.07.1-.32,0-.4s-.1-.08,0-.14a1.19,1.19,0,0,0,.09-.15c0-.06,0-.07.07,0s0,.08,0,.15,0,.13,0,.2.07.43-.09.43-.07,0,0-.05Zm-4.23.23c-.05,0-.1,0-.1-.06s.27,0,.33,0,0,.05-.23,0Zm3.1.07s0,0,.06,0,.15-.31,0-.39-.09-.07-.09-.09.19,0,.23.07a.47.47,0,0,1,0,.43c-.09.07-.18.09-.18,0Zm-3,.14a.26.26,0,0,1-.15-.06s.23,0,.27,0,0,0-.12,0Zm3.53.08c.12-.11.12-.19,0-.3s-.11-.14,0-.08.11.08.11.12,0,.07.09.06.2-.24,0-.42-.06-.07,0,0,.19.48,0,.48a.19.19,0,0,0-.13.11c0,.07-.1.13-.14.13s-.08,0,0-.07Zm-3.71,0-.1,0h.1a.65.65,0,0,1,.2,0c.08,0,.08,0,0,0a.75.75,0,0,1-.2,0Zm2.91.09a.3.3,0,0,0,0-.41c-.05,0-.08-.08-.06-.09s.24.19.24.31-.07.27-.16.27-.06,0,0-.08Zm-2.94.26c-.05,0-.1,0-.1-.05s.07,0,.14,0c.24.07.21.1,0,.05Zm3.37,0a.29.29,0,0,0,0-.41c-.05,0-.08-.08-.06-.1s.24.19.24.3-.11.29-.18.29,0,0,0-.08Zm.29.37s0,0,.07,0,.15-.13.15-.25a.33.33,0,0,0-.12-.2c-.12-.11-.08-.14.07,0s.09.1.09.25a.35.35,0,0,1-.05.22c-.09.07-.21.1-.21,0Zm-.68,0c.11-.08.1-.33,0-.36s-.12-.09,0-.09.21.16.21.25-.08.26-.16.26-.07,0,0-.06Zm-3,.06a.27.27,0,0,1-.13-.09s0,0,.1,0,.25.17,0,.08Zm1.6-.33s-.11,0-.11.11,0,.06.07,0,0-.09,0-.1Zm0,.35a.12.12,0,0,0,0-.13s0,0,0,0a.16.16,0,0,1,0,.09s0,0,0-.23a.55.55,0,0,1,0-.24s.13-.08.13-.16,0-.07,0,0a.94.94,0,0,1,0,.47.1.1,0,0,0,0,.1c0,.09,0,.22,0,.22s0,0,0-.11Zm2.41.25.13-.08a.21.21,0,0,0,.11-.18c0-.11,0-.15-.12-.23s-.17-.19,0-.22.12-.22,0-.34-.07-.07,0-.07.22.38.06.48-.08.07,0,.07a.21.21,0,0,1,.14.11c.09.13.18.13.25,0s0-.12,0-.25,0-.23.05-.07a.31.31,0,0,1,0,.41.33.33,0,0,1-.13.09s0,0,0,.06a.32.32,0,0,1-.26.24c-.05,0-.08,0-.07,0Zm-2.91,0c0-.06,0-.1.05-.1s0,0,0,.08a.18.18,0,0,1,0,.11S160.38,54.71,160.38,54.64ZM159,55a.45.45,0,0,1,.18-.07c.09,0,.11,0,.06,0s-.29.11-.24.06Zm4.81,0a.29.29,0,0,0,0-.41s0-.07,0-.07.14.14.14.3-.07.25-.17.25,0,0,0-.07Zm-.9.09a.24.24,0,0,1,.11-.06c.09,0,.11-.07.11-.19a.31.31,0,0,0-.09-.24c-.05,0-.08-.1-.06-.12s.23.21.23.34-.13.29-.23.29-.07,0-.07,0Zm-.63,0c.11-.06.1-.33,0-.36s-.08,0-.08-.06.11,0,.17,0a.27.27,0,0,0,.33,0,.26.26,0,0,0,0-.37c-.13-.12-.12-.17,0-.1a.33.33,0,0,1,.16.37.26.26,0,0,1-.28.23c-.07,0-.09,0-.09.09s-.08.25-.17.25-.07,0,0-.05Zm-2.17.14c0-.09,0-.12,0-.08a.19.19,0,0,1,0,.15s0,0,0-.07Zm.1.14a.79.79,0,0,0,0-.17c0-.06,0-.1.05-.1s.06.17,0,.27,0,.07-.06.07,0,0,0-.07Zm2.43,0c.08,0,.14-.07.14-.09a.34.34,0,0,0-.18-.23c-.1,0-.1,0,0,0s.31.25.18.37a.23.23,0,0,1-.16,0c-.1,0-.1,0,0-.06Zm.62.08a.35.35,0,0,1,.13-.08.24.24,0,0,0,0-.4c-.13-.13-.07-.17.07,0a.29.29,0,0,1,0,.45c-.1.09-.24.14-.24.08Zm-2.6,0a2.94,2.94,0,0,1,0-.61.66.66,0,0,0,0-.18c0-.17,0-.2.14-.17a.16.16,0,0,1,.1.24s0,.09,0,.1a1.84,1.84,0,0,1,0,.34c0,.24,0,.33,0,.33s-.07-.21,0-.29,0-.06,0-.07,0-.14,0-.28,0-.32-.09-.21a2.23,2.23,0,0,0,0,.42,2.71,2.71,0,0,1,0,.41s0,0,0,0Zm.47.11a.19.19,0,0,0,0-.14s0-.07,0-.08.06-.22,0-.26-.07,0,0-.11.08-.07,0-.19-.06-.14,0-.16a.39.39,0,0,0,0-.24c0-.44,0-.5,0-.49s.13.39.11.93a1.3,1.3,0,0,0,0,.25l0,.29c0,.2,0,.26,0,.26s-.05,0,0-.06Zm-2.08,0s0-.09.09-.14.13-.09.17-.06,0,.24-.08.24,0-.07,0-.1a.12.12,0,0,0,0-.08s0,0-.08,0-.08.1-.06.12,0,0,0,0a.08.08,0,0,1-.07,0Zm4.8,0a.27.27,0,0,0,0-.39c0-.05-.05-.1,0-.1s.18.23.18.36a.17.17,0,0,1-.09.15c-.13.07-.21,0-.1,0Zm-2.44,0c0-.07,0-.1,0-.17s-.07-.09,0-.11.06-.18,0-.24,0-.06,0-.12.09-.15,0-.23-.09-.07,0-.13a.17.17,0,0,0,0-.28c-.07,0-.07,0,0-.12s.1-.16,0-.24-.09-.07,0-.15,0-.22,0-.22a0,0,0,0,1,0,0c0-.06.07,0,.15,0a.16.16,0,0,1,.05.17.5.5,0,0,0,0,.23c.06.1.07.14,0,.21a.14.14,0,0,0,0,.17c0,.06,0,.1,0,.19s0,.13,0,.18a.29.29,0,0,1,0,.2.28.28,0,0,0,0,.18.24.24,0,0,1,0,.16,2.65,2.65,0,0,0,0,.27c0,.12,0,.14-.06.14s-.09,0,0-.08Zm.26.11c.1-.08.1-.19,0-.25l-.09-.06.09-.06c.09-.07.09-.07,0-.23s-.08-.15,0-.15.2.28.14.37a.1.1,0,0,0,0,.12.27.27,0,0,1,0,.17c0,.09,0,.13-.13.13s-.1,0,0,0Zm.32,0c-.07-.05-.07-.05,0-.1s.09,0,.09,0a.3.3,0,0,0,0,.11c0,.08,0,.09-.13,0Zm.66.1s0,0,.07-.06.08-.14,0-.24-.09-.09,0-.07l.1,0s0,0,.06.11.15.13.24,0a.35.35,0,0,0-.08-.43l-.1-.06h.1c.2,0,.26.42.08.58a.34.34,0,0,1-.17.1.15.15,0,0,0-.1,0c0,.05-.15.06-.15,0Zm-.24,0s0-.06,0-.1a.1.1,0,0,0-.14-.06c-.09,0-.09,0,0,0a.31.31,0,0,1,.12-.07c.07,0,0-.21-.06-.29s-.08-.09,0-.09.27.34.15.41,0,0,0,.07.06.2,0,.2,0,0,0,0Zm1.11.16a0,0,0,0,1,0,0c.06,0,.06-.2,0-.31a.41.41,0,0,0-.14-.12c-.09,0-.09,0,0,0s.28.27.22.43-.13.16-.13.07Zm-.39,0a.22.22,0,0,0-.08-.1c-.07,0-.07-.06,0-.06a.16.16,0,0,1,.12.08c.06.1.06.13,0,.13a0,0,0,0,1,0,0Zm.77.18c.16-.14.17-.2.05-.36s-.07-.11-.05-.11.18.18.18.31a.35.35,0,0,1-.25.29s0,0,.07-.13ZM163,57.5l-.15,0c-.1,0-.11,0-.07,0s.26.06.22,0Zm.47.23a4.69,4.69,0,0,0-.56-.18c-.26-.07-.34-.1-.28-.12s.07,0,0-.06l-.39-.11c-.42-.13-1.48-.37-1.88-.43a2.36,2.36,0,0,1-.43-.09s0,0,0,0l.48.07c.31,0,1.42.3,1.83.42.62.19.78.24,1.06.34s.51.2.42.23a.61.61,0,0,1-.25-.05Zm-1.78.4s-.05,0-.08,0,0,0,0,0S161.73,58.14,161.71,58.13Zm-1.21,0,.29-.06-.27,0a1.46,1.46,0,0,0-.39.08c-.09.06-.09.06,0,0l.39-.08Zm2.2.32a2.21,2.21,0,0,0-.45-.13l-.51-.11s-.07,0-.06,0,.83.24,1,.28c0,0,0,0,0,0Zm.75.35-.17-.07-.28-.09a6.09,6.09,0,0,0-2.13-.44,3.28,3.28,0,0,0-1.07.25c-.05.06-.24,0-.24,0s0-.19.15-.24A2.87,2.87,0,0,1,161,58a4.89,4.89,0,0,1,2,.42,7,7,0,0,0,.77.23c.08,0,.08,0,0,.06s0,.07,0,.08-.19,0-.27,0Zm-.41.4a5.83,5.83,0,0,0-2.2-.52,1.28,1.28,0,0,0-.64.17c-.2.1-.28.12-.23.07a1.66,1.66,0,0,1,.34-.2,1.28,1.28,0,0,1,.66-.12,3.2,3.2,0,0,1,1.12.24l1,.33c.15,0,.24.08.19.08a1.14,1.14,0,0,1-.26,0Zm3.65-.42c-.06-.1-.12-.16-.19-.16s0,.06.09.14.18.17.1,0Zm-.65.91a.93.93,0,0,1-.21-.56,1.19,1.19,0,0,1,.26-.68.89.89,0,0,1,.6.24,3.22,3.22,0,0,1,.32,1s0,0,0,0,0,0-.05,0-.07-.09-.11-.22c-.15-.44-.23-.58-.41-.68s-.32-.12-.29,0,.07.41,0,.32,0-.07,0,0,0,.09,0-.07l0-.19,0,.19c0,.17,0,.18-.07.09s0-.1,0,0a.9.9,0,0,0,.21.53.36.36,0,0,1,.08.18s-.07,0-.12-.14ZM160.81,59a.53.53,0,0,0-.18,0s0,0,.08,0,.14,0,.1,0Zm.82.08h-.09s0,0,0,0S161.64,59.12,161.63,59.1Zm.4.67a.33.33,0,0,1,.17,0,1.41,1.41,0,0,0,.52-.21,7.08,7.08,0,0,0-1-.29c-.11,0-.12,0-.12.09s0,.11,0,.11,0,0,0-.12,0-.12-.25-.15-.26,0-.29,0-.05.09,0,.18.07.07.15,0,.1,0,.08,0-.24.1-.32,0a.3.3,0,0,1-.06-.18c0-.13-.1-.17-.14,0-.17.41.36.68.71.37.05,0,.08,0,.08,0s-.22.19-.43.19a.35.35,0,0,1-.34-.11.37.37,0,0,1-.12-.31c0-.21,0-.22-.34-.13a.82.82,0,0,0-.47.23c-.13.15-.06.22.2.22a3.74,3.74,0,0,1,.92.15,2.64,2.64,0,0,0,1.06,0Zm-1.15.14c-.38-.09-.4-.1-.32-.14s0-.05-.07-.05a2.48,2.48,0,0,1-.77-.07s0-.09,0-.2.19-.24.51-.32c.11,0,.19-.06.18-.07a.46.46,0,0,0-.2,0c-.28.07-.25,0,0-.07a3.26,3.26,0,0,1,1.64.11,6.09,6.09,0,0,0,1.51.35.74.74,0,0,1,.3.05c0,.06-.4.08-.67,0s-.24,0-.35,0a4.36,4.36,0,0,1-1.31.35,1.84,1.84,0,0,1-.52-.05Zm5.62.54c0-.08,0-.09-.07,0s0,.06,0,.06a.12.12,0,0,0,.08,0Zm-.56.07s0,0,0,.06,0,.08,0,.05a.21.21,0,0,0,0-.11Zm-.09,0s0,0,0,0,0,.08,0,.05a.09.09,0,0,0,0-.1Zm-.1.28c-.08,0-.07-.25,0-.32a.55.55,0,0,0,.16-.45c0-.09,0-.11,0-.06a.54.54,0,0,1,.05.26.67.67,0,0,0,0,.25s0,0,0-.14,0-.2,0-.15a.25.25,0,0,1,0,.16c0,.05,0,.09,0,.09s0-.08,0-.18l0-.18.06.19.06.19V60.3c0-.12,0-.17,0-.13,0,.2.06.22.1.15a.3.3,0,0,0,0-.17c0-.07,0,0,0,0l.06.15,0-.21a2.68,2.68,0,0,0-.09-.85c0-.06,0-.07,0,0a1.74,1.74,0,0,1,.09,1.09c-.06.17-.15.25-.29.25a.49.49,0,0,0-.27.15c-.17.15-.19.15-.29.12Zm.94-.18a2,2,0,0,0,.23-.64.8.8,0,0,1,.08-.3c.09,0-.1.7-.28,1s-.22.3,0-.07Zm-7.56.31s0-.06,0,0a.11.11,0,0,1,0,.08s0,0,0-.05Zm-.34.17s0-.06,0,0,0,.07,0,.08,0,0,0-.05Zm-.13,0s0-.06,0,0,0,.07,0,.08,0,0,0-.05Zm.39,0c0-.06,0-.08,0-.05a.11.11,0,0,1,0,.11s0,0,0-.06Zm.12,0s0-.08,0-.08,0,0,0,.08,0,.09,0,.09,0,0,0-.09Zm-.23,0a.59.59,0,0,1,0-.14s0,0,0,.06S159,61.35,158.94,61.23Zm-.1.41a.37.37,0,0,0-.2-.14c-.07,0-.06,0,0,0s.32.13.32.24-.06.05-.16-.08Zm.3.31c-.1,0,0-.08.1-.06s.15,0,.19-.08a.34.34,0,0,0,0-.2c0-.07,0-.09,0-.08a.38.38,0,0,1,0,.38.28.28,0,0,1-.31,0Zm7.25.35s0-.06,0,0,0,.07,0,.08S166.39,62.34,166.39,62.3Zm-.11.39s0-.06.06,0,0,0,0,.08-.05,0,0,0Zm2,.27a8.94,8.94,0,0,0-1.13-.49c-.32-.11-.57-.23-.47-.23a5.91,5.91,0,0,1,1.13.45,5.16,5.16,0,0,0,.66.27.15.15,0,0,1,.09,0c0,.07-.12,0-.28,0Zm-.78.1c-.72-.4-.82-.46-.82-.49a13.75,13.75,0,0,1,1.23.69c.07.07,0,0-.41-.2Zm-2.42.19a1.17,1.17,0,0,1-.25-.15,1.61,1.61,0,0,0-.33-.2.79.79,0,0,1-.39-.67.72.72,0,0,1,.09-.5.75.75,0,0,1,.15-.26s0,.08-.06.18a1,1,0,0,0,.2,1.18l.32.21a1,1,0,0,0,1.05.06c.1-.06.1-.05,0,0a.79.79,0,0,1-.76.11Zm-6,0a1.78,1.78,0,0,0,.34-.19.64.64,0,0,1,.26-.14c.08,0-.5.37-.61.37s-.1,0,0,0Zm6.56.42c0-.06,0-.08,0,0a.21.21,0,0,1,0,.11S165.7,63.74,165.7,63.68Zm.83.08c-.18-.3-.28-.48-.2-.38a3.36,3.36,0,0,1,.3.52.55.55,0,0,1-.1-.14Zm-1,.26c0-.12,0-.28-.05-.35s0-.12,0,0a1.88,1.88,0,0,1,.08.61.85.85,0,0,1,0-.22Zm.26.11a.38.38,0,0,1,0-.18s0,0,0,.14a.55.55,0,0,1,0,.17S165.82,64.21,165.81,64.13ZM167,64a4.15,4.15,0,0,0-.42-.52,2,2,0,0,1-.18-.21c-.06-.08,0-.06.09.06a7.88,7.88,0,0,1,.86,1.11A3.72,3.72,0,0,1,167,64Zm2,.66c-.17-.14-.32-.26-.94-.72l-.24-.19c-.2-.16-.84-.61-1.08-.77s-.19-.13-.18-.15.19.08,1.28.89a9,9,0,0,1,1.37,1.1,1.19,1.19,0,0,1-.21-.16Zm-3.36,0c0-.28-.06-.44,0-.41a3.11,3.11,0,0,1,.1.66.75.75,0,0,1-.07-.25Zm.13.65a1.1,1.1,0,0,1,0-.28s.05.06.1.38,0,.18-.06-.1Zm-3.11,4.6a.37.37,0,0,1-.05-.18c0-.08,0-.06.07.07s.05.25,0,.11Zm-1.19,0a.08.08,0,0,1,.07,0s0,0,0,0a.08.08,0,0,1-.07,0S161.47,70,161.49,70Zm-.44.06a2.34,2.34,0,0,1,.39-.17l.43-.17c.29-.14.27,0,0,.13-.13.06-.21.09-.19.07s-.09,0-.39.11-.34.13-.22,0Zm.13.07a.19.19,0,0,1,.11-.06c.05,0,.08,0,.07,0a.19.19,0,0,1-.11.06C161.2,70.13,161.17,70.13,161.18,70.11Zm-1.58,0c.15,0,.27-.12.26-.14s-.81,0-.81.13.19.13.55,0Zm-.58.11c-.09-.14-.05-.22.13-.29a1.45,1.45,0,0,1,.85,0s0,.08-.05.13a2,2,0,0,1-.7.26c-.13,0-.17,0-.23-.08Zm2.64,0s0,0,0,0a1.1,1.1,0,0,0-.37.22s.33-.12.37-.17Zm-.5.22s.06-.11.13-.15a4.38,4.38,0,0,1,.86-.31,3.94,3.94,0,0,1-.94.54s-.05,0-.05-.08Zm-2.08.29c-.09-.07-.09-.08,0-.19a1.26,1.26,0,0,1,.8-.27c.39,0,.35.06-.13.32-.26.15-.3.16-.3.1a0,0,0,0,1,0,0,1.44,1.44,0,0,0,.32-.16c.31-.18.26-.22-.11-.12a1.57,1.57,0,0,1-.32.07c-.08,0-.27.16-.27.22s.06,0,.13.06.12,0,.08.06-.1,0-.22,0Zm2.83-.14.14-.12-.13.07a1.39,1.39,0,0,0-.28.19l-.15.13.14-.08A2.31,2.31,0,0,0,161.91,70.65Zm-.46.32c-.06-.06,0-.1.29-.31a.88.88,0,0,1,.33-.17s0,0,.09,0,.1,0,.11,0a5,5,0,0,1-.73.52.09.09,0,0,1-.09,0Zm1.91,0a3.18,3.18,0,0,1-.59-.84,1.69,1.69,0,0,1,.25.31,3.24,3.24,0,0,0,.38.44c.19.17.16.25,0,.09Zm-1.28.18c.11-.08.2-.16.19-.17a1.55,1.55,0,0,0-.5.31c0,.05.11,0,.31-.14Zm-.4.18c0-.08.57-.46.61-.4s.06,0,.1,0,.18-.12.13,0a3.22,3.22,0,0,1-.35.3c-.33.25-.49.31-.49.19Zm1.43-.23a3.64,3.64,0,0,1-.48-.58,2.63,2.63,0,0,1-.34-.7s.07.08.16.25a3,3,0,0,0,.92,1.18c.09.06.16.13.14.15s-.06,0-.4-.3Zm-3.77.29c-.12-.07-.09-.2,0-.3a2,2,0,0,1,.85-.19s0,.06,0,.1a1.91,1.91,0,0,1-.57.35c-.11,0,0-.07.22-.2s.37-.24.19-.2a2.25,2.25,0,0,0-.69.26s0,.07,0,.12,0,.11-.07.06Zm2.71.31c-.06-.06,0-.13.57-.51.17-.11.23-.1.11,0s-.49.44-.46.37,0-.08-.06,0-.13.13-.05.09,0,0,0,0-.1.06-.15,0Zm-2.08,0a3,3,0,0,0,.37-.25l.15-.13-.18.06c-.36.12-.62.28-.62.39s0,.08.28-.07Zm-.35.1c0-.11,0-.18.34-.34s.58-.21.58-.1a2,2,0,0,1-.79.51.14.14,0,0,1-.13-.07Zm3.18-.07s-.06,0-.13.08a.57.57,0,0,0-.13.16s.06,0,.13-.08A.46.46,0,0,0,162.8,71.71Zm-.37.33a.21.21,0,0,1,0-.15,2.85,2.85,0,0,1,.61-.49,3.83,3.83,0,0,1-.52.67c-.07.05-.11,0-.14,0Zm.67,0s0-.08,0-.08-.06,0-.09.08,0,.09,0,.09S163.07,72.11,163.1,72.06Zm-.19.25a.22.22,0,0,1,0-.16,2.31,2.31,0,0,1,.47-.5,3.13,3.13,0,0,1-.36.61c-.08.11-.09.11-.12,0Zm-2.49-.16c.17-.12.32-.3.29-.33s-.54.31-.54.4.05.07.25-.07Zm-.33.18c-.15-.06,0-.24.32-.45s.54-.14.15.24c-.24.23-.33.27-.47.21Zm.84.15c.31-.31.31-.42,0-.24s-.38.31-.38.4.15.06.37-.16Zm-.46.19c0-.15.09-.26.38-.45s.5-.14.26.19a.84.84,0,0,1-.51.38c-.11,0-.13,0-.13-.12Zm2.48.06a5.29,5.29,0,0,1-1.58-1.41A6.41,6.41,0,0,1,160.7,70c0-.22.05-.11.13.17a5.87,5.87,0,0,0,.67,1.23,5.54,5.54,0,0,0,1.62,1.34.54.54,0,0,1,.16.09s-.12,0-.33-.08Zm-.13.34a5.52,5.52,0,0,1-1.69-1.31,7.68,7.68,0,0,1-.83-1.58c-.1-.32-.1-.37-.05-.37a1.25,1.25,0,0,1,.13.33,5.84,5.84,0,0,0,.76,1.49A5.42,5.42,0,0,0,163,73c.29.11.38.17.25.17a1.55,1.55,0,0,1-.39-.14Zm-1.61,0c.16-.14.35-.4.33-.48s-.54.35-.55.53.1.06.22-.05Zm-.25.16c-.16-.06,0-.41.32-.64s.28-.17.36-.08,0,.1-.09.28-.4.47-.49.46l-.1,0Zm.79.06c.2-.23.29-.38.24-.43s-.48.35-.48.5,0,.1.07.07a.66.66,0,0,0,.17-.14Zm-.33.2c-.08-.09,0-.27.25-.51s.28-.22.39-.16-.34.73-.53.73a.2.2,0,0,1-.11-.06Zm.92.15c.11-.13.23-.42.19-.46s-.15.12-.32.33-.07.26,0,.26.09-.06.15-.13Zm-.26.2c-.12-.11,0-.4.3-.66.13-.12.25-.1.25,0a1,1,0,0,1-.3.57c-.16.13-.18.13-.25.06Zm.81.14c.13-.07.29-.55.18-.55a1.08,1.08,0,0,0-.31.38c0,.1,0,.21,0,.21l.11,0Zm-.24,0c0-.16,0-.29.19-.49s.28-.21.34-.06A1,1,0,0,1,163,74c-.14.1-.28.08-.31,0Zm.47,1.69c0-.24.15-1.24.18-1.73a11.1,11.1,0,0,1,.19-1.49,7.73,7.73,0,0,0,.11-.9c0-.43.09-.87.11-1a5.76,5.76,0,0,0,.06-.59c0-.65.2-2,.24-2.19a8.08,8.08,0,0,0,.06-.83c0-.35.06-1,.11-1.4s.1-1.12.11-1.56c0-.8.06-1.13.1-1.09a19.44,19.44,0,0,1-.12,2.62c-.05.53-.1,1.22-.11,1.54a8.72,8.72,0,0,1-.14,1.38c0,.14-.08.57-.11,1s-.1.94-.14,1.23-.07.7-.08.92l-.09,1c-.09.84-.1,1-.15,1.53s-.15,1.54-.19,1.66-.17.11-.14,0Zm-3.94-24.31c0-.09,0-.16,0-.16s.05.11,0,.23,0,0,0-.07Zm-.17,0c0-.2,0-.3.05-.28a.68.68,0,0,1,0,.32l0,.27Zm.07.78a.61.61,0,0,1,.24-.15c.26-.11.3-.21.42-1a6.63,6.63,0,0,1,.17-.82A.93.93,0,0,0,160,50a2.83,2.83,0,0,0-.33.9c-.13.57-.2.72-.37.83a.45.45,0,0,1-.5,0c-.08-.07-.11-.17,0-.12s0,0,.1-.36c0-.06,0,0,0,.11a.49.49,0,0,1-.05.26s0,.06.07.1.14,0,.29,0a.35.35,0,0,0,.12-.63.49.49,0,0,0-.48,0,.48.48,0,0,0-.06.78.36.36,0,0,0,.42,0c.07,0,.12,0,.12,0s-.44.17-.61,0-.21-.33-.18-1a3.49,3.49,0,0,0,0-.7c0-.11,0-.07-.09.24s-.06.55-.08.79c0,.56,0,.71.26.83l.28.14c.14.08.16.08.21,0Zm6,.22s0,0,0,.05,0,.08,0,0a.17.17,0,0,0,0-.1Zm-2.62.18c.2-.1.32-.16.27-.15a3.14,3.14,0,0,0-.68.32,3.27,3.27,0,0,0,.41-.17Zm2.66.11s0,0,0,.06,0,.08,0,0a.21.21,0,0,0,0-.11Zm-6.24-.29c0-.07.12-.08.12,0s0,0-.07,0-.06,0-.05,0Zm.74.54c.1-.25,0-.43-.36-.56s-.46-.12-.59,0-.1.08,0,.16.13.08.31.08.38.05.44.25.18.24.23.11Zm4.34.31c0-.08,0,0,0,.11s0,.21,0,.14a1,1,0,0,0,0-.25Zm0,.53c0-.06,0,0,0,.1s0,.17,0,.11A.74.74,0,0,0,164,53.78Zm2.45-1.5a1,1,0,0,1,.34,0c.3,0,.3,0,.12,0S166.42,52.33,166.45,52.28Zm.05.21a.11.11,0,0,1,.09,0s0,0,0,0a.12.12,0,0,1-.1,0S166.48,52.52,166.5,52.49Zm-.07.23a1.62,1.62,0,0,1,.57-.09c.64-.06.8-.06.76,0a4,4,0,0,1-.6.07l-.65.06s-.08,0-.08,0Zm.38.13H167c.06,0,0,0-.09,0S166.76,52.86,166.81,52.85Zm-.26,0h.11s0,0-.06,0-.08,0,0,0Zm.07,1.09s.13,0,.3-.06l.63-.06a.8.8,0,0,1,.33,0,4,4,0,0,1-.61.08,4.12,4.12,0,0,1-.65,0Zm.84.18a.32.32,0,0,1,.17,0s0,0-.1,0-.13,0-.07,0Zm-.77.07a.67.67,0,0,1,.31,0,1,1,0,0,1,.29,0,1.54,1.54,0,0,1-.6,0Zm.09.22s0,0,.1,0l.31,0c.14,0,.19,0,.15,0a1.28,1.28,0,0,1-.56.05Zm.62.21c.7-.07.72-.08.72-.2s0-.1-.34-.08-.32,0-.12,0l.32-.06a.11.11,0,0,0,.09-.09c0-.06,0-.06-.15,0s-.14,0-.13,0a.28.28,0,0,1,.16,0c.12,0,.13,0,.11-.1a.57.57,0,0,1,0-.18c0-.18,0-.19-.67-.12l-.7.08c-.06,0-.1,0-.1,0s.08-.06.81-.14c.54-.06.57-.07.57-.18s0-.08-.14-.06a4.84,4.84,0,0,1-.55.07l-.58.07c-.12,0-.16,0-.13,0a3,3,0,0,1,.56-.09c.68-.07.82-.1.83-.18s-.2-.1-.74,0l-.5.06c-.2,0,.11-.08.67-.15l.53-.08a.11.11,0,0,0,0-.08c0-.05-.07-.05-.24,0a6.48,6.48,0,0,1-1.09.11s0,0,0,0l.6-.08.61-.08a.06.06,0,0,0,.06-.05s-.11,0-.34,0l-.33,0,.32,0a.75.75,0,0,0,.35-.09s0,.05.06.17.1.58.17,1c.12.73.14.82.2.75s.05-.09,0-.15,0-.1.06-.17.14-.15,0-.26-.07-.09,0-.25.1-.18,0-.25-.08-.14,0-.24a.17.17,0,0,0,0-.28c-.06-.06-.06-.08,0-.18a.44.44,0,0,0,.11-.15.62.62,0,0,0-.34-.14.28.28,0,0,0,0,.15.42.42,0,0,1,0,.23.14.14,0,0,0,0,.16.3.3,0,0,1,.06.13c0,.06-.16.23-.22.23s0,0,0-.1.12-.15,0-.26-.08-.1,0-.15a.38.38,0,0,0,0-.43.61.61,0,0,0-.49-.12c-.08,0-.34,0-.56.06l-.41,0,.47-.06.48-.07a6.41,6.41,0,0,0-1.14-.23l-.27,0,0,.15,0,.14h-.54a4.64,4.64,0,0,0-.56,0,1.26,1.26,0,0,0,.07.41,3.81,3.81,0,0,0,.52,0c.44-.05.49-.06.5-.15s0-.09-.5-.06h-.48a1.7,1.7,0,0,1,.46,0l.5-.05c.07,0,.13.25.18.75s.15,1.33.18,1.43,0,.1.2.08l.61-.07Zm-3.23.46s0,0,0,0,0,.07,0,.05a.11.11,0,0,0,0-.08Zm-5,.14c.12-.15.1-.16-.07,0s-.12.09-.11.12S159.1,55.39,159.21,55.26ZM170,53.43c.06-.09.1-.08.06,0a.09.09,0,0,1-.07.06s0,0,0-.08Zm.25.21s0,0,0,0,0,0,0-.09,0-.11.08,0,.12.19,0,.19a0,0,0,0,1,0,0Zm.5.09a.09.09,0,0,1,.09,0,2.88,2.88,0,0,0,.48-.15,2.28,2.28,0,0,1,.43-.13s-.22.13-.63.27-.41.12-.37.06Zm-.64.14c0-.06,0-.06-.07,0s-.1,0-.08,0a.35.35,0,0,0,0-.14s0,0,.11.05.12.2,0,.23,0,0,0-.06Zm.72.08a.78.78,0,0,1,.27-.07l.52-.08a.88.88,0,0,1,.27,0,1.82,1.82,0,0,1-.62.15l-.32,0c-.08,0-.13,0-.12,0Zm-.56-.07c0-.06,0-.1.05-.1s0,.17,0,.19,0,0,0-.09Zm-.6.19s0,0,0-.06.06-.06,0-.13,0-.15.08,0-.1.33-.17.22Zm.41.15c0-.07,0-.1,0-.09a.11.11,0,0,1,.05.09.09.09,0,0,1-.05.08S170.06,54.28,170.06,54.22Zm1.27.19s-.17,0-.35,0c-.51,0-.35,0,.29-.06.41,0,.56,0,.54,0a.45.45,0,0,1-.23,0h-.2l.21,0,.22,0h-.23a.47.47,0,0,1-.25,0Zm-2.39,0s0,0,.06,0,.15-.14.09-.28a.17.17,0,0,1,0-.24c.08-.1.09-.14,0-.21s-.06-.16,0-.06a.29.29,0,0,1,0,.37c-.06.06-.06.09,0,.13a.23.23,0,0,1,0,.31c-.08.07-.19.08-.19,0Zm.94,0a.12.12,0,0,0,0-.15.19.19,0,0,1,0-.2c.05-.1.06-.11.09-.05a.16.16,0,0,1,0,.12.4.4,0,0,0,0,.18.19.19,0,0,1-.06.15c-.06,0-.06,0,0-.05Zm-.54.09a.09.09,0,0,0,0-.12c0-.05,0-.09,0-.09s.1.16.07.22a.2.2,0,0,1-.13,0c-.08,0-.08,0,0,0Zm.28.11s0-.07,0-.17,0-.15,0-.15,0,0,0-.11,0-.12,0,0,.06.1,0,.18-.05.1,0,.14a.1.1,0,0,1-.08.17s-.06,0,0,0Zm.59-.07a1.64,1.64,0,0,0,0-.39c0-.14,0-.19.05-.17s0,.08,0,.15,0,.13,0,.14,0,.12,0,.24-.15.29-.1,0Zm-.32.11s0-.06,0,0a.08.08,0,0,1,0,.08s0,0,0-.06Zm-1.34.12a.32.32,0,0,1,.09-.12c.07-.06.08-.11.06-.23s0-.16.08-.19a.21.21,0,0,0,.06-.31c-.05-.06-.05-.07,0,0a.25.25,0,0,1,0,.38c-.07.08-.09.12-.06.16s0,.09-.05.2-.2.21-.2.13Zm3.13,0-.33-.13a1.65,1.65,0,0,0-.4-.1c-.09,0-.16,0-.16,0s.35,0,.65.07a1.57,1.57,0,0,0,.3.06c.1,0,.1,0,0,0s-.09,0-.05,0a.09.09,0,0,1,.09.05l0,0-.1,0Zm-1.66,0a1.24,1.24,0,0,1,.09-.53s0,.08,0,.17,0,.18-.05.18,0,0,0,.1a.12.12,0,0,1,0,.13s0,0,0,0Zm-1.05,0c.08-.07.1-.12.08-.19s0-.1,0-.09,0,.37-.11.37,0,0,0-.09Zm1.22.09a0,0,0,0,1,0,0,0,0,0,0,1,0,.08A0,0,0,0,1,170.19,55Zm1.1.16-.44-.17c-.21-.07-.18-.13,0-.1a2.74,2.74,0,0,1,.82.27.52.52,0,0,1-.23,0,.8.8,0,0,0-.25-.07s0,0,.18.11a1.91,1.91,0,0,1,.28.12c.06.06-.12,0-.4-.11Zm.06.2a.77.77,0,0,0-.33-.14s0,0,.14.08.19.09.19.06Zm-.1,0a1.56,1.56,0,0,1-.27-.16.23.23,0,0,0-.16-.09c-.09,0-.21-.11-.14-.11a3.37,3.37,0,0,1,.92.38s-.07,0,0,0-.07,0-.3-.07Zm.61.27a4.69,4.69,0,0,0,.25-.86,3.5,3.5,0,0,0,0-1.33c-.17-.45-.26-.52-.52-.35-.08,0-.29.14-.48.21a1.18,1.18,0,0,1-1,0c-.21-.1-.26-.08-.26.12s-.11.25-.16.19,0,0,0-.06,0-.08,0-.15,0-.13,0-.16.05,0,0-.08a.37.37,0,0,0-.15,0c-.06,0-.07,0-.05.13a.22.22,0,0,1,0,.21c-.06.06-.06.09,0,.19s0,.12,0,.17,0,.08,0,.17,0,.12,0,.17-.14.08-.08,0a.14.14,0,0,0,0-.17.14.14,0,0,1,0-.17c0-.06,0-.1,0-.19s0-.13,0-.16a.15.15,0,0,0,0-.23s0,0,0-.07.06-.11-.09-.14-.26,0-.17.12a.22.22,0,0,1,0,.29c-.08.06-.08,0,0-.09s0-.1,0-.17,0-.1,0-.15,0-.07,0-.1-.16-.05-.14.08a.39.39,0,0,1,0,.24c-.05.08-.06.13,0,.16s0,.45-.15.45-.07-.05,0-.11a.21.21,0,0,0,0-.31c-.09-.07-.08-.11,0-.23A.34.34,0,0,0,169,53c0-.08-.17-.28-.24-.28s-.16.19-.12.36a.23.23,0,0,1-.09.25c-.09.09-.09.12,0,.16a.27.27,0,0,1,0,.33c0,.08,0,.13,0,.17a.38.38,0,0,1,0,.36.31.31,0,0,0,0,.16.24.24,0,0,1-.1.19c-.1.07-.1.08,0,.43s.19.47.31.07c0-.15,0-.19,0-.25s-.06-.07,0,0,.16.23.08.37-.07.13-.06.13.65-.22.67-.24,0-.06-.05-.12-.07-.1,0-.15.1-.07.08-.13,0-.12.07,0,0,.24-.09.24,0,0,0,.08.08.07.16.05.12-.05.12-.09,0-.21.06-.18,0,.07,0,.12,0,.09.19.07a1.55,1.55,0,0,1,.88.26c.7.34,1,.43,1.09.32Zm-.38.08s-.34-.16-.34-.13a.34.34,0,0,0,.14.08c.14.06.24.08.2.05Zm-4.72.37s0,0,0,.05,0,.1,0,.08a.28.28,0,0,0,0-.13Zm-1.3-1.63s.15-.07.63-.12c.3,0,.43,0,.29,0a5.57,5.57,0,0,1-.92.11Zm0,.26a.77.77,0,0,1,.31-.06l.51-.06c.12,0,.2,0,.19,0l-.48.09c-.53.07-.56.07-.53,0Zm0,.74a6.66,6.66,0,0,1,.85-.13c.13,0,.22,0,.21,0a2,2,0,0,1-.44.09c-.42,0-.66.06-.62,0Zm.08.48s.1,0,.22,0a.72.72,0,0,1,.21,0c-.05,0-.43.06-.43,0Zm.67.21c.38-.06.45-.09.42-.2s-.12-.09-.48,0c-.05,0-.09,0-.09,0s0,0,.11,0l.28,0c.14,0,.17,0,.17-.13s0-.11-.27-.08l-.53.07c-.23,0-.33,0-.28,0a3.69,3.69,0,0,1,.51-.06l.51-.07a9.23,9.23,0,0,0-.1-1.25l0-.18-.31,0c-.35,0-.33,0,0,0s.25,0,.25-.14,0-.1-.07-.08l-.53.05-.49,0a.15.15,0,0,0,0,.11c0,.08.06.09.22.09h.19l-.21.05-.21,0,0,.32a1.43,1.43,0,0,0,0,.33,2.84,2.84,0,0,0,.48,0c.54-.07.61-.07.57,0a3.6,3.6,0,0,1-.45.08c-.53.08-.57.09-.57.2s0,.08.09.06l.53,0,.44,0-.47.06a3.46,3.46,0,0,0-.54.09c-.05,0-.06.08,0,.37s0,.41,0,.49v.14l.23,0,.53-.08Zm2.25.34s0,0,0,0,0,.07,0,.06A.14.14,0,0,0,168.49,56.48Zm-4.06.58c0-.05,0,0,0,.07s0,.12,0,.07a.33.33,0,0,0,0-.14Zm0,.36s0,0,0,0,0,.08,0,.05a.17.17,0,0,0,0-.1Zm.05.3s0,0,0,0,0,.07,0,.06,0,0,0-.08Zm1.4-4.52s.34-.06.31,0a.29.29,0,0,1-.18,0c-.08,0-.14,0-.13,0Zm0,.19a.24.24,0,0,1,.15,0c.08,0,.08,0,0,0l-.15,0C165.9,53.43,165.9,53.42,166,53.39Zm-.61.08s.06,0,.14,0a1,1,0,0,0,.25,0c.07,0,.09,0,.06,0s-.45.1-.45,0Zm-1.23.18a2.29,2.29,0,0,1,.45-.11l.51-.11c.09,0,.1,0,.1.07s0,.1,0,.06-.1-.05-.44,0l-.52.1c-.07,0-.09,0-.06,0Zm.11.16a1.65,1.65,0,0,1,.43-.06,3,3,0,0,0,.46-.07c.06,0,.1,0,.1,0s0,0,0,0l-.49.06c-.54.07-.55.07-.47,0Zm0,.21a2.32,2.32,0,0,1,.54-.06c.43,0,.46,0,.19,0-.71.09-.78.09-.73,0Zm.12.87a3.81,3.81,0,0,1,.78-.14c.23,0,.08,0-.33.11s-.49.07-.45,0Zm-.06.24s.07,0,.16,0L165,55a.93.93,0,0,1,.36,0,0,0,0,0,1,0,0l-.34,0c-.51.07-.67.08-.67,0Zm.41.53c.54-.09.67-.11.67-.07a2.94,2.94,0,0,1-.84.13c-.07,0,0,0,.17-.06Zm-.11.45a2.21,2.21,0,0,1,.76,0,1.42,1.42,0,0,1-.48.07c-.28,0-.38,0-.28,0Zm1,.37a4.08,4.08,0,0,1,.95-.11s-.2.06-.65.1a1,1,0,0,1-.3,0Zm-.5.14.22,0c.07,0,.07,0,0,0a.52.52,0,0,1-.21,0H165l.13,0Zm-.58.39a0,0,0,0,1,.05,0c.09,0,.64-.08.76-.11s.1,0,.08,0a1,1,0,0,1-.38.1l-.43.07c-.05,0-.08,0-.08,0Zm.15.25a3.64,3.64,0,0,1,.46-.09c.36-.05.38-.05.4-.16s0-.07,0,.05,0,.15,0,.14a2.56,2.56,0,0,0-.42,0c-.45.07-.55.07-.43,0ZM165,58l.4-.1.18,0,0-.27,0-.28h.18c.11,0,.38,0,.6-.08.37-.06.42-.08.43-.16s0-.1-.09-.1a8.67,8.67,0,0,0-.94.11c-.07,0-.09,0-.07,0a2.4,2.4,0,0,1,.84-.17c.2,0,.23,0,.21-.12s0-.08-.09-.07a4.25,4.25,0,0,1-1,.13,1.65,1.65,0,0,1,.45-.1c.69-.11.69-.11.66-.33s0-.21,0-.23-.14,0-.42,0a5.19,5.19,0,0,1-.56.08c-.1,0-.17,0-.17,0s0,.16,0,.29v.23l0-.22V56.4l-.29,0a3.58,3.58,0,0,0-.45,0c-.11,0-.17,0-.17,0s.09,0,.21-.05a3.07,3.07,0,0,0,.42,0l.22,0v-.29c0-.17,0-.28,0-.25a1,1,0,0,1-.37.07l-.49.05c-.08,0-.14,0-.12,0a1,1,0,0,1,.41-.07c.51,0,.56-.06.56-.3s0-.19-.07-.18l-.42,0-.47.05c-.06,0-.12,0-.12,0s.17-.06.38-.07a3,3,0,0,0,.52-.08c.13,0,.14,0,.14-.25s0-.2,0-.18-.05,0,0,0a.18.18,0,0,0,0-.11c0-.11-.15-.13-.52-.08s-.59.08-.55,0a8.28,8.28,0,0,1,1-.14s.06-.06.05-.16,0-.15,0-.06,0,.1,0,0,0-.11-.59,0c-.4.05-.5.05-.45,0a3.14,3.14,0,0,1,.47-.06c.59-.07.65-.08.63-.17s0-.24,0-.45l0-.38h.63l-.28.05-.28,0v.28a1.72,1.72,0,0,0,0,.29,7.87,7.87,0,0,0,1.08-.09s0-.07,0-.12,0-.09-.47-.06a4.11,4.11,0,0,0-.51.05s-.08,0-.08,0a2.46,2.46,0,0,1,.81-.09c.21,0,.23,0,.23-.11s0-.11-.1-.11-.08,0,0,0,.07-.06.07-.16,0-.2-.26-.15a2,2,0,0,1-.8,0,.3.3,0,0,1,.2,0l.5,0c.26,0,.32-.07.32-.13s0-.06-.25,0l-.54.06-.29,0v.31l0-.12c0-.12,0-.11,0,.06v.2l-.5,0a3.51,3.51,0,0,0-.54.08,3,3,0,0,0,.07,1.23c0,.24.07.66.08.94,0,.65,0,.72.06.57s0,0,.09.21l0,.31.25,0c.16,0,.21,0,.15,0a.67.67,0,0,1-.22,0c-.14,0-.14,0-.14.17a2.77,2.77,0,0,0,.1.64s.62-.1.83-.15.07,0,0,0a1.37,1.37,0,0,1-.39.12c-.48.09-.49.09-.47.19s0,.1.45,0a1.58,1.58,0,0,1,.4-.07c.05,0-.39.16-.5.16s-.33.1-.33.18.09.1.4,0Zm2-.26a6.65,6.65,0,0,0-.21-1.14,11.46,11.46,0,0,0,.24,1.54,1.85,1.85,0,0,0,0-.4Zm-.21-2.5s1-.15,1.17-.15,0,0,0,0a1.11,1.11,0,0,1-.38.07l-.62.05c-.13,0-.22,0-.21,0ZM167,56c.05-.05.45-.09.45,0s0,0-.1,0l-.25,0c-.1,0-.13,0-.1,0Zm0,.6a8.76,8.76,0,0,1,1.29-.15c.05,0-.05.05-.55.1a5.14,5.14,0,0,0-.64.07c-.05,0-.1,0-.1,0Zm0,.31a11.76,11.76,0,0,1,1.28-.19c.26,0,0,0-.58.13s-.73.09-.7.06Zm1,1.41a5.45,5.45,0,0,0,.69-.09.23.23,0,0,0,0-.14l0-.12-.42,0a6.54,6.54,0,0,0-.75.1,1.56,1.56,0,0,1-.33,0c0-.05.1-.08.76-.16l.73-.09v-.13a.61.61,0,0,0,0-.14,4.54,4.54,0,0,0-.62.05,5.58,5.58,0,0,1-.72.06h-.14l.12,0c.07,0,.37-.06.66-.09a5.74,5.74,0,0,0,.61-.07.12.12,0,0,0,0-.21,7.83,7.83,0,0,0-1.29.11c-.13,0-.2,0-.15,0l.6-.09c.84-.1.86-.1.86-.17s0-.07-.07-.09a8,8,0,0,0-1.25.1c-.12,0-.2,0-.18,0a4.21,4.21,0,0,1,.73-.11l.71-.09a2.06,2.06,0,0,0-.07-.41c-.09-.35-.1-.38-.19-.36l-1.26.19s0,0,0,0a.68.68,0,0,1,.29-.07,8.79,8.79,0,0,0,1-.17s0-.06,0-.11-.05-.09-.44-.07l-.41,0,.4-.07c.37-.06.39-.07.39-.16s0-.11,0-.12a2.49,2.49,0,0,0-.51,0,2.52,2.52,0,0,1-.83,0l.3,0c.79-.06,1-.1,1-.19s0-.12-.25-.08l-.59.1-.51.09c-.09,0-.12,0-.1,0s.13-.06.25-.08.49-.07.93-.15l.24-.05,0-.19a.71.71,0,0,0,0-.2,3,3,0,0,0-.45,0c-.69.09-1,.11-.84.07a5.54,5.54,0,0,1,.63-.09c.56-.06.68-.1.64-.2s-.08-.06-.34,0a10.93,10.93,0,0,0-1.13.15,3.74,3.74,0,0,0,.14.91,2.86,2.86,0,0,1,.1.61c0,.27.08.61.11.77s.07.43.09.62,0,.4,0,.47l0,.15c0,.05.12,0,.9,0Zm-1,0s0,0,0,0a.08.08,0,0,0,0,.06s0,0,0,0A.08.08,0,0,0,167,58.4Zm1.08.57c.63,0,.71,0,.7-.18s0-.11,0-.12a10.4,10.4,0,0,0-1.43.15s-.1,0-.1,0a4.08,4.08,0,0,1,1.06-.16c.4,0,.5-.08.47-.19s-.06-.09-.21-.09a11,11,0,0,0-1.5.17s0,.14.06.27l.1.25.19,0c.11,0,.42,0,.7-.06Zm-2.69,0s0-.07,0-.13a.6.6,0,0,1,.06-.22c0-.07.08-.22.12-.34s.07-.21.09-.2.07,0,.12,0,.1-.07.12,0a2.12,2.12,0,0,0,.4-.06c.42-.11.52-.08.13,0l-.28.07.15.06a1.12,1.12,0,0,1,.28.16c.22.16.25.15.24-.07s0-.26,0-.35,0-.17-.18-.14a4.58,4.58,0,0,1-.87.12,5.15,5.15,0,0,1,.92-.18c.07,0,.08,0,.05-.2s0-.2,0-.21a8.58,8.58,0,0,0-.89.12c-.17,0-.27.07-.27.1s.06.1.57,0a1.62,1.62,0,0,1,.49,0,.61.61,0,0,1-.23.06l-.5.07-.3,0,0,.21c0,.16,0,.19,0,.16s-.16,0-.42,0l-.45.12c-.1,0-.14.15-.06.2a3.08,3.08,0,0,0,.48-.06,2.5,2.5,0,0,1,.46-.07s0,0-.48.13l-.42.09a.18.18,0,0,0,0,.13c0,.12.06.13.49,0,.16,0,.29,0,.29,0s-.06.05-.14.06c-.54.08-.57.09-.59.16s0,.07.17.05l.35,0c.11,0,.16,0,.15,0a1.1,1.1,0,0,1-.33.07c-.21,0-.3.05-.3.09s.07,0,.29,0l.35,0Zm-.15.3c.18,0,.2,0,.2-.13s0-.11-.14-.11l-.35,0c-.17,0-.2,0-.2.12s0,.16.17.14a1.8,1.8,0,0,1,.32,0Zm3.27,0c.3,0,.32,0,.33-.14s0-.21-.74-.15-.85.08-.85.2a.51.51,0,0,1,0,.13c0,.06.41,0,1.28,0Zm-3.12.17c.1,0,.11,0,.06-.12s-.11,0-.33,0-.31.06-.32.13,0,.07.24,0l.35-.06Zm.48.33a0,0,0,0,0,0,0s0,0,0,0l0,0S165.91,59.83,165.91,59.81Zm2.72,1a5.67,5.67,0,0,0-.63-.08c-.27,0-.55-.06-.62-.08s-.14-.09.08-.05,1.35.17,1.51.17.14,0,.14,0-.26.05-.48,0Zm.56.27a3,3,0,0,0-.05-.42l0-.3h-.75c-.4,0-.82,0-.92,0s.12,0,.73,0l.92,0V60l-.91,0a5.61,5.61,0,0,1-.91,0,5.59,5.59,0,0,1,.66,0c1.14,0,1.11,0,1.11-.13s0-.2-.75-.16-1,0-.94,0a8.15,8.15,0,0,1,.82-.07l.76-.05,0-.12v-.12l-.31,0c-.91.07-1.24.1-1.3.12a2.83,2.83,0,0,0-.18,1c0,.05,0,.1,0,.1a.33.33,0,0,0-.1.12l-.07.13.16,0,.42.07,1.63.25s0-.05,0-.11Zm.16.86s0-.19-.07-.38-.06-.33-.17-.33l-.44-.06c-.28-.06-.78-.13-1.55-.22-.23,0-.24,0-.36.11s-.11.15-.1.16l.94.14a6.91,6.91,0,0,1,1.57.26c.05,0,0,0-.26,0s-.43-.07-.7-.11c-1.19-.16-1.46-.19-1.53-.21s-.09,0-.14.11-.07.14-.06.14l.45.09c.72.11,1.45.23,1.81.3.52.09.52.09.57.07a.06.06,0,0,0,0-.07Zm.31,2.07s0,0,0,.08,0,.11,0,.07A.38.38,0,0,0,169.66,64Zm-.07,1.51a7.59,7.59,0,0,0-.06-1.7c0-.41-.06-.49-.1-.45s-.05.1,0,.22,0,.48-.06.47-.07,0,0,.06a2,2,0,0,1,.23.77c0,.1,0,.15-.07.14s-.05,0,0,.15,0,.24,0,.34,0,.18.05.18.06-.08.09-.18Zm-.2.64c.08-.2.08-.2,0-.31s-.23-.14-.2,0a1.78,1.78,0,0,1,.06.34c0,.32.06.32.17,0Zm-1.1,1.57a.09.09,0,0,1,.09,0s0,0,0,0,0-.08.07-.12.09-.07,0,0,0,.07.15-.11.14-.16.11-.14-.05,0,0,0a.08.08,0,0,1,.07-.05s.07,0,.1-.06,0-.06,0,0-.05,0-.05,0a1.6,1.6,0,0,1,.19-.34c.08-.11.07-.12,0-.25s-.17-.11-.17.06a1.89,1.89,0,0,1-.18.58s-.06,0-.09-.08-.12-.11-.12,0a1.32,1.32,0,0,1-.11.32c-.08.19-.12.24-.16.2s-.12-.07-.12,0a.67.67,0,0,1-.09.22l-.1.15.19-.14a2.05,2.05,0,0,0,.22-.19Zm-.66.56c.08-.06.12-.12.11-.14a.38.38,0,0,1-.08-.16l0-.14-.06.17a1.46,1.46,0,0,1-.13.28c-.14.21-.08.2.21,0Zm-.29.28s0,0-.09,0-.08,0-.08.06,0,0,.08,0S167.34,68.56,167.34,68.55Zm-.25.06c.09-.07.11-.12.09-.19s-.1-.14-.1-.06a1.21,1.21,0,0,1-.17.24,1.28,1.28,0,0,0-.18.21s.23-.09.36-.2Zm-.46.37c.07,0,.1-.06.06-.06a.67.67,0,0,0-.19.06c-.08,0-.1.06-.07.06A.82.82,0,0,0,166.63,69Zm2.28,1.38c.05,0,.07-.08.06-.08l-.1.08s-.07.09-.06.09S168.87,70.41,168.91,70.36Zm-11.63.12s-.05,0,0,0,0,.07.05.06,0,0,0-.08Zm13.8.11a.11.11,0,0,0-.08,0s0,0,0,0S171.1,70.61,171.08,70.59Zm-13.21.28c.14-.07.25-.14.24-.16a1.46,1.46,0,0,0-.14-.39,2.22,2.22,0,0,0-.57.24c-.07.08,0,.3.1.38l.11.06.26-.13Zm-.29.32a.19.19,0,0,0-.09-.15c-.08,0-.08,0,0,.07s.13.25.13.08Zm.51.18a.7.7,0,0,0,.26-.17.88.88,0,0,0-.21-.37,1.05,1.05,0,0,0-.49.32c0,.09.08.36.14.36a1.51,1.51,0,0,0,.3-.14Zm14.72.16s0,0-.05,0,0,.07,0,0,0-.07,0-.08Zm-15,.1c-.08-.08-.11,0-.05.1s.06.09.08,0a.16.16,0,0,0,0-.12Zm16.16.16s0-.07,0-.07a.07.07,0,0,0-.06.07s0,.06,0,.06S174,71.82,174,71.79Zm-1.29.06c0-.07.07-.14.06-.15s0,0-.09.13-.06.2,0,0Zm-14.06-.2a1.63,1.63,0,0,0-.18-.34s-.1,0-.27.11-.23.17-.23.31A.32.32,0,0,0,158,72c.06.06.09,0,.34-.11a1.37,1.37,0,0,0,.28-.19Zm10.87-1.33c-.12-.07-.19-.13-.16-.13a.76.76,0,0,1,.26.13C169.83,70.48,169.76,70.48,169.48,70.32Zm0,.27-.3-.16s0,0,0,0a1.6,1.6,0,0,1,.56.27c.16.13.05.1-.24-.07Zm-.18.13c-.37-.26-.31-.29.06,0s.35.24.27.23A1.64,1.64,0,0,1,169.25,70.72Zm-.15.21c-.14-.11-.25-.2-.23-.22a.9.9,0,0,1,.23.15,1.37,1.37,0,0,0,.27.19s0,0,0,0-.16-.06-.29-.16Zm-.13.17a1,1,0,0,1-.25-.23c0-.05.09,0,.35.23S169.26,71.33,169,71.1Zm-.14.84a3.59,3.59,0,0,0,.94-1.1,1.49,1.49,0,0,0,.22-.48,4.93,4.93,0,0,0-.92-.31c-.24,0-.34,0-.36.17s0,.18.16,0,.13-.14.17,0-.12.28-.25.25-.1,0-.14.32l-.05.34.23.22c.13.12.23.23.21.24a.85.85,0,0,1-.22-.17c-.2-.18-.21-.18-.22-.08s0,.14.12.24.13.15.12.16-.06,0-.12-.08a.44.44,0,0,0-.14-.11c-.07,0,0,.21.06.32s.07.11,0,.11-.05,0-.06-.06-.11-.08-.13.06.08.17.34,0Zm3.6.31s0,0-.06.06,0,.06,0,0,0-.06,0-.08Zm-13.67,0,.2-.08-.14-.23-.15-.24a1.7,1.7,0,0,0-.4.28.39.39,0,0,1-.19.1c-.09,0-.09,0,0,.14s.07.08.07,0,0-.08,0-.07a.16.16,0,0,1,0,.11.29.29,0,0,0,.09.17c.09.08.09.08.17,0a1.56,1.56,0,0,1,.28-.17Zm-.32.38s0,0-.06-.06-.09,0,0,.07.1,0,.1,0Zm15,0a0,0,0,0,0,0,0,.06.06,0,0,0-.05.06s0,.06.05,0A.08.08,0,0,0,173.47,72.66ZM159,72.84c.2-.14.27-.22.27-.27l-.12-.16-.12-.14-.19.09c-.25.13-.31.2-.29.38s.1.26.18.26a1,1,0,0,0,.27-.16Zm12.47.14s0-.06,0,0a.08.08,0,0,0,0,.06C171.4,73.06,171.43,73.05,171.46,73Zm-12.08.27a1.14,1.14,0,0,0,.25-.2.73.73,0,0,0-.14-.19l-.14-.17-.24.17c-.17.12-.24.19-.24.27s.15.3.22.3a1.59,1.59,0,0,0,.29-.18Zm12.53.26c.09,0,.12-.07.1-.11s0-.06.06,0,.14,0,.29,0,.2-.08.2-.1-.06-.07-.13-.11-.13-.09-.13-.11.08,0,.18.08l.18.11.25-.09.26-.12a.44.44,0,0,0-.12-.07,1.84,1.84,0,0,1-.53-.34s0,0,.34.17.28.15.38.11.1-.08.09-.12a1.91,1.91,0,0,0-.55-.44s-.05,0,0-.06a.9.9,0,0,1,.28.14,1,1,0,0,0,.35.17c.23,0,.32-.37.09-.42s-.43-.22-.4-.25a.4.4,0,0,1,.18.07,1.52,1.52,0,0,0,.32.11c.14,0,.17,0,.21-.06a.2.2,0,0,0,0-.14,1.51,1.51,0,0,0-.4-.24c-.21-.1-.36-.19-.33-.2a1.07,1.07,0,0,1,.34.11c.33.15.45.16.56,0s.07-.09,0-.19-.1-.11-.14-.11l-.31-.08a2.36,2.36,0,0,0-.38-.11c-.14,0-.15,0-.15.1a2,2,0,0,1-.21.54l-.37.71c-.09.16-.26.45-.38.64-.27.41-.3.45-.28.45l.16,0Zm-12.19.15a.84.84,0,0,0,.23-.25.45.45,0,0,0-.11-.17l-.1-.11-.33.21c-.18.11-.31.22-.28.23s.05,0,.06,0,.11,0,.11.06.1.24.16.24a1.93,1.93,0,0,0,.26-.19Zm.23.47A.25.25,0,0,1,160,74l.18-.2.11-.11-.13-.1-.13-.1-.2.17c-.23.19-.27.33-.14.46s.23.11.23,0Zm.28.33a3.46,3.46,0,0,0,.25-.26l.2-.23-.12-.1a.39.39,0,0,0-.17-.1,1.23,1.23,0,0,0-.4.47c0,.19.13.3.24.22Zm11.55-3.24a1.67,1.67,0,0,0-.77-.37l-.2,0,.2.14a2.27,2.27,0,0,0,.72.34s.06,0,.05-.08Zm-.28.09a2.26,2.26,0,0,1-.46-.24l-.36-.2c-.12-.05-.12-.05,0-.09a2.07,2.07,0,0,1,1.26.39.1.1,0,0,1,0,.15c-.08.08-.12.08-.39,0Zm0,.55a1.86,1.86,0,0,0-.74-.38s.06.09.2.19c.34.26.56.34.54.19Zm-.21.11a2.6,2.6,0,0,1-.43-.28,4,4,0,0,0-.43-.3s-.09-.07-.09-.09.26,0,.77.23.55.29.44.43-.11.07-.26,0Zm0,.4c0-.1-.21-.26-.52-.38-.49-.19-.39-.07.27.32l.24.14s0,0,0-.08Zm-.25,0c-.12-.07-.42-.28-.91-.62,0,0,0,0,0,0s.13,0,.27.06l.45.17c.24.08.5.31.5.44s-.14.12-.34,0Zm-.13.28a3.29,3.29,0,0,0-.64-.37c-.11,0-.11,0,0,.12s.79.47.61.25Zm-.22.11a3.32,3.32,0,0,1-.44-.34,2.48,2.48,0,0,0-.38-.28c-.05,0-.08,0-.06-.06s.37,0,.41.08a1.48,1.48,0,0,0,.28.16c.45.22.64.43.47.5s-.11,0-.28-.06Zm-.08.55a3.57,3.57,0,0,0-.87-.77c-.09,0,.24.39.56.66s.31.19.31.11Zm-.39-.08a4.6,4.6,0,0,1-.38-.37,2.31,2.31,0,0,0-.24-.29c-.21-.25-.12-.26.22,0s.88.7.86.8-.18.13-.46-.1Zm-.18.38c-.09-.18-.69-.82-.69-.74a4,4,0,0,0,.56.83c.19.2.26.15.13-.09Zm-.33,0c-.35-.46-.64-1-.58-1a5.5,5.5,0,0,1,1,1.06c.06.12.06.17,0,.23s-.18.09-.48-.3Zm-.2.46c0-.08-.08-.3-.27-.52a1.53,1.53,0,0,1-.15-.21.45.45,0,0,0-.1-.16c-.16-.19-.14-.09.13.45s.33.59.39.44Zm-.23.06a6.87,6.87,0,0,1-.57-1.3c0-.06.13.06.44.49s.42.59.41.72,0,.15-.11.16a.21.21,0,0,1-.17-.07Zm-.31.31a10.75,10.75,0,0,1,1.2-.35c.33-.07.53-.15.58-.24a.51.51,0,0,0,0-.11s0,0,0,0a1,1,0,0,0,.23-.21,3,3,0,0,1,.23-.24s0,0,0-.06,0-.11.1-.22.59-1,.87-1.59c.09-.2.18-.33.19-.3A3.77,3.77,0,0,1,172,72a1,1,0,0,0-.14.31,3.56,3.56,0,0,1-.82,1.26c-.31.35-.32.35.26.13a.75.75,0,0,0,.48-.37c.16-.26,1.16-2.2,1.16-2.26a.62.62,0,0,0-.27-.09,9.61,9.61,0,0,1-1.13-.29,1.47,1.47,0,0,0-.31,0,2.56,2.56,0,0,1-.54-.1.81.81,0,0,0-.27-.08,5.47,5.47,0,0,1-1.57,2c-.22.12-.23.12-.23.07a.91.91,0,0,1,.21-.15A3.94,3.94,0,0,0,170,71.1c.35-.57.38-.67.24-.69s-.13.06-.34.43a3.56,3.56,0,0,1-1.39,1.38,2.55,2.55,0,0,0-.07.73s.09.12.36.72c.09.22.21.44.24.5s.07.11,0,.11-.13-.16-.24-.42a2.19,2.19,0,0,0-.31-.6l.15.46c.09.25.17.48.18.52s0,.08,0,.08a2.41,2.41,0,0,1-.32-.79l-.09-.3,0,.17c0,.1-.06.35-.08.56s-.07.44-.08.52,0,.14.08.14a4.74,4.74,0,0,0,.69-.2Zm-8.2.25a1.55,1.55,0,0,0,.2-.28l.1-.15-.12-.11a.55.55,0,0,0-.17-.11,1.06,1.06,0,0,0-.21.28c-.16.27-.16.28-.1.38s.16.14.3,0Zm.36.3a2.81,2.81,0,0,1,.18-.28c.16-.22.15-.25,0-.35s-.17,0-.37.29c-.09.15-.1.21-.07.28s.25.18.29.06Zm.42.3a.11.11,0,0,0,.07-.09.76.76,0,0,1,.13-.26l.13-.22s-.3-.19-.32-.16c-.22.23-.33.4-.33.53s.14.27.32.2Zm.6.06a.8.8,0,0,0,.21-.42,1.28,1.28,0,0,0-.37-.17l-.12.17a.64.64,0,0,0-.14.47c.05.08.3.05.42,0Zm0,.18a0,0,0,0,0,0,0,0,0,0,1,0,0,.08A0,0,0,0,0,162.11,75.51Zm.41,0a1,1,0,0,0,.19-.24l.14-.21-.16-.08c-.21-.1-.27-.08-.35.12s-.11.31-.08.38.18.09.26,0Zm.89.25s.07,0,.16-.07a4.91,4.91,0,0,0,.55-.13l.69-.16.67-.17c.2-.06.66-.17,1-.24a11.12,11.12,0,0,0,1.54-.37,14.23,14.23,0,0,0,.26-1.66,6.18,6.18,0,0,1,.08-.71c.07-.46.18-1.28.29-2.14,0-.15,0-.18.14-.2a2.51,2.51,0,0,1,1,.21,4,4,0,0,0,.6.17,1.43,1.43,0,0,1,.26.06,3.67,3.67,0,0,0,.37.11c.24,0,.5.12,1,.26l.69.15a6.34,6.34,0,0,1,.78.17l.52.15,1.3.3,1.46.32a1.53,1.53,0,0,0,.4.06c.07-.06-1.88-6.42-2.64-8.64-.34-1-.61-1.84-.76-2.44-.07-.29-.16-.59-.19-.68s-.19-.5-.35-.92c-.35-1-.54-1.44-.74-1.88-.09-.18-.23-.51-.32-.72s-.2-.46-.25-.56a1.08,1.08,0,0,1-.09-.22s-.11,0-.25-.06a1,1,0,0,1-.55-.2c-.76-.46-.78-.47-1-.47a4.94,4.94,0,0,0-1.45.41c-.19.08-.2.1-.08.53,0,.17.14.64.2,1s.16.93.21,1.18.1.48.06.52a.22.22,0,0,0,0,.14s0,0,0,0c0-.37.21.56.37,1.83,0,.29.1.69.13.89a20.68,20.68,0,0,1,.3,3.15,2.72,2.72,0,0,1-.12,1.17c-.07.19-.2.47-.28.64l-.27.49a6.32,6.32,0,0,1-1.68,1.53,2.48,2.48,0,0,1-1.12.52H166l-.05-.32c-.1-.58-.23-1.63-.3-2.38,0-.41-.11-1-.17-1.34s-.12-.76-.15-1-.06-.42-.07-.49,0-.11,0-.08a2.33,2.33,0,0,1,.12.59c0,.31.11.74.16,1s.1.64.12.94c.07.7.17,1.49.25,2,0,.24.08.56.1.7s0,.25.08.25h.11c.08,0,.26-.39.26-.56a8.62,8.62,0,0,0-.2-.94c-.21-.82-.42-1.79-.42-1.88s.27,1,.71,2.84c.06.25,0,.35,0,.24s0,0-.08.06-.07.15.08.1.13-.06.13-.08a2,2,0,0,1,.17-.29.86.86,0,0,0,.17-.34,1.8,1.8,0,0,0-.12-.43,24,24,0,0,1-1-3.44,2.85,2.85,0,0,1,.12.38,27.06,27.06,0,0,0,1.25,3.7c.07,0,.18-.21.24-.46s0-.32-.23-.91a20.33,20.33,0,0,1-1-2.57l-.23-.63a1.48,1.48,0,0,1-.1-.31s0,0,.27.64c.15.41.35.93.63,1.66.08.19.32.74.54,1.22s.41.9.41.92c0,.18.23-.2.27-.45,0-.1,0-.2-.18-.48s-.34-.66-.52-1-.53-1.1-.79-1.61a9.59,9.59,0,0,1-.46-1c0-.06.89,1.67,1.32,2.6a7.84,7.84,0,0,0,.83,1.51s.1-.16.15-.47,0-.21-.2-.54-.35-.55-.49-.8-.3-.52-.36-.61a13.09,13.09,0,0,1-.64-1.17,1,1,0,0,1,.18.29l.37.62.29.49.23.41a5.53,5.53,0,0,0,.92,1.3,1.2,1.2,0,0,0,.07-.34c0-.33,0-.47-.12-.57s-.16-.17-.61-.82a6.09,6.09,0,0,0-.41-.57c-.18-.21-.21-.28,0-.09s.34.42.53.7a4.63,4.63,0,0,0,1,1.15c.06,0,0-.38,0-.68s-.08-.29-.41-.64-1.54-1.58-1.92-1.92c-.16-.15-.27-.27-.25-.27s.67.61,1.43,1.36,1.39,1.37,1.41,1.37a3.06,3.06,0,0,0-.06-.77c0-.13,0-.13.06-.09l.12,0c.07,0,0-.35-.18-.65s-.14-.33-1-.78a1.41,1.41,0,0,1-.3-.18,3.26,3.26,0,0,1,.53.25c.8.41.81.42.84.36a.7.7,0,0,0,0-.31c0-.24,0-.26-.19-.31a1.61,1.61,0,0,1-.51-.24,1.37,1.37,0,0,1,.33.11l.35.13s0-.25,0-.43,0-.15-.4-.24l-.55-.13c-.48-.11-1.56-.39-1.72-.46s-.16-.12.2,0,.88.25,1.57.41c1,.23.9.22,1,.15s.07-.07,0-.07-.05-.06-.05-.16a.46.46,0,0,0,0-.23,7.61,7.61,0,0,0-1.76-.35l-.93-.15c-.2,0-.23,0-.29.06l-.15.17a.32.32,0,0,0-.07.23,1.19,1.19,0,0,1-.26.72c-.33.29-.68.27-1.1-.06a.79.79,0,0,1-.05-1.28c.17-.12.54-.12.54,0s0,.06-.19.05a.52.52,0,0,0-.59.59.72.72,0,0,0,.33.6c.47.37.95.32,1.17-.13.09-.18.13-.52.07-.57s-.09,0-.18,0a.47.47,0,0,1-.48-.1c-.12-.11-.17-.33-.08-.36s0,0,0,.11,0,.15.14.22a.47.47,0,0,0,.5,0c.16-.06.2-.11.35-.39a3,3,0,0,1,.5-.69,2.45,2.45,0,0,0,.3-1.33c0-.11,0-.18,0-.2s0-.07,0-.18a.81.81,0,0,1-.1-.25,1.09,1.09,0,0,0-.64-.7,1.18,1.18,0,0,1-.2-.07.42.42,0,0,0-.47.12,2.18,2.18,0,0,0-.2.8.84.84,0,0,0,.32.7c.11.11.19.21.18.23s-.05,0-.09,0-.06-.06-.06,0,0,0-.1,0-.12-.08-.24,0-.13,0-.13,0a0,0,0,0,1,.05,0c.12,0,.17-.07.13-.16s-.07-.08-.3,0c-.41.06-.45.08-.45.17s0,.08.25.09.2,0,.14,0c-.39.06-.39.06-.38.18a1.3,1.3,0,0,0,0,.26,1.91,1.91,0,0,1,.07.42c0,.16,0,.3,0,.33a.1.1,0,0,0,.09.06c.21,0,.5.24.44.37s0,.06,0,0c0-.25-.58-.36-.82-.17s-.31.17-.12,0a1.21,1.21,0,0,1,.25-.17.14.14,0,0,0,.07-.11c0-.27-.16-1.52-.34-2.62-.12-.71-.22-1.36-.22-1.44s.06-.13-.69-.41a18.91,18.91,0,0,0-2.76-.73c-.69-.15-1-.18-1-.11s0,0-.06,0-.07,0-.11,0-.11,0-.05-.07,0-.11-.06-.21a.5.5,0,0,1-.14-.33v-.2l.05.2a.52.52,0,0,0,.7.41.36.36,0,0,0,.28-.4c0-.14,0-.19-.09-.23s-.09,0,0,0,.11,0,.14.09,0,.63-.22.63c0,0-.06,0-.06,0s.1,0,.21.07a28.08,28.08,0,0,1,3.31.83c.56.22.59.24.59.37s0,.1,0,.08a1.24,1.24,0,0,0-.06-.53s0,0,0,.11v.12l0-.13a5.19,5.19,0,0,1-.11-.68c0-.3-.11-.94-.18-1.41l-.12-.85-.12.08c-.06.05-.13.08-.15.06s0-.05,0-.06c.19-.06.2-.2,0-.38s-.08-.1,0-.1.1,0,.14.1.08.08.09.07a6.89,6.89,0,0,0-.09-1.06c0-.05,0-.07,0-.07s.15.21.19.63,0,.35.37.3a.57.57,0,0,1,.22,0s-.08,0-.21,0-.4.1-.34.17a1.1,1.1,0,0,0,.41,0c.63-.07.64-.08.64-.17s0-.08-.23-.06l-.22,0,.19,0c.2,0,.3-.1.23-.14a3.25,3.25,0,0,0-.76.07c-.11,0-.16,0-.14,0a.22.22,0,0,1,.13,0l.43-.05c.28,0,.33-.06.33-.13s0-.07-.08-.06a5.59,5.59,0,0,1-.9.1,2.66,2.66,0,0,1,.46-.09c.39-.07.47-.09.47-.15s0-.07-.18,0a1.89,1.89,0,0,1-.31,0c-.07,0,0,0,.16,0a1.35,1.35,0,0,0,.32-.08s0,0-.37,0h-.29l.3,0c.32,0,.37-.06.3-.13s-.12,0-.33,0-.49.06-.45,0l.36-.07a.82.82,0,0,0,.36-.08s.21.06.24.14.08.07.51.07a1.66,1.66,0,0,0,.53,0,.15.15,0,0,0,0-.11c0-.06-.08-.07-.46-.05s-.35,0-.24,0l.19,0-.15,0a1.85,1.85,0,0,0-.69,0c.05,0,.05,0,0,0a2.47,2.47,0,0,1-.68,0,1.36,1.36,0,0,1,.33-.06l.28,0h-.25a2.22,2.22,0,0,0-.78.16,2.13,2.13,0,0,1-.74.19c-.06,0-.07,0,0,0s0,0,0,.06,0,0,0,.07a.19.19,0,0,1,.1.19c0,.16-.06.24-.19.24s-.08,0,0-.07a.17.17,0,0,0,0-.32c-.19,0-.5.1-.5.23s-.16.28-.21.23,0-.05,0-.07a.16.16,0,0,0,.08-.13c0-.08,0-.08-.21,0s-.21.11-.18.27.05.19.06.23a.46.46,0,0,1,0,.23.21.21,0,0,0,0,.24c.12.17.07.38-.1.37s-.05,0,0,0a.2.2,0,0,0,0-.32c-.08-.08-.08-.09,0-.18a.22.22,0,0,0,0-.34c-.08-.06-.09-.1,0-.14s0-.15-.18,0-.13.1,0,.13.12.14,0,.29,0,.1.05.16a.18.18,0,0,1,.08.22.31.31,0,0,0,0,.22.3.3,0,0,1,0,.3s0,.1.07.17.11.12.18.08.08-.23,0-.32-.07-.15.06-.06a.32.32,0,0,1,.12.39s0,.08,0,.15a.27.27,0,0,1,0,.34c-.06,0-.06.06,0,.14s.08.15,0,.15a1,1,0,0,1-.23-.31s0,0,.09,0,.09,0,.09-.09a.2.2,0,0,0-.35-.16c-.05,0-.1.08-.11.07s0-.06,0-.09.09-.16,0-.28-.13-.17,0-.17.07,0,.07,0a.44.44,0,0,1,0-.1.19.19,0,0,0-.07-.15c-.1-.09-.1-.1,0-.15a.14.14,0,0,0-.07-.25c-.08,0-.09,0-.06-.15.09-.36,0-.39-.35-.1s-.46.45-.47.65a.41.41,0,0,1,0,.19s0,0,0-.08,0-.12-.05-.12,0,.05,0,.12,0,.23-.06.2,0,0,0-.09,0-.06,0-.06-.09.06,0,.11a.09.09,0,0,1-.05.15s0,0,0-.07,0-.08-.16.05-.1.15-.09.37,0,.26,0,.28-.06,0,0-.05,0-.07,0-.07,0,0,0-.09a1,1,0,0,0,.06-.27c0-.1,0-.29,0-.43s0-.26-.08-.38-.13-.1-.15-.08a3.44,3.44,0,0,0-.21.66c0,.15,0,.15.16,0s.09-.09.09-.06-.16.21-.28.28-.09.11-.1.28,0,.25.09.35l.12.13a.57.57,0,0,1-.14.28s0,0,0-.24c0,0,0-.1-.09-.17l-.11-.12-.08.1c-.1.13-.22.1-.27-.06a5.65,5.65,0,0,1,.09-1.51c.05-.34.09-.63.09-.64s0,0,0,0a.61.61,0,0,1,0,.28c0,.26,0,.28.23.32a.38.38,0,0,1,.16.06s-.1,0-.22,0a1.17,1.17,0,0,0-.24,0s-.1.82-.1.92,0,.09.16.09h.16l-.18,0c-.16,0-.18.06-.18.16s.06.24.23.16a.25.25,0,0,0,.17-.23c0-.25,0-.27-.07-.27a.58.58,0,0,1-.18,0c-.06,0,0,0,.11,0s.21,0,.27-.13.1-.22-.1-.25a.46.46,0,0,1-.19-.07s0,0,.14,0l.21,0c.09,0,.2-.7.14-.91s-.06-.14-.31-.19L159,53c-.13,0-.29.13-.39.38a4.62,4.62,0,0,0,0,1.66c.2.69.48,1,.93,1h.38a12.58,12.58,0,0,1,2.1.53,5.58,5.58,0,0,0,.65.19,5.4,5.4,0,0,1,.61.18c.6.19.6.19.68.63a5.81,5.81,0,0,1,.1.91.19.19,0,0,0,0,.1.13.13,0,0,1,0,.12.47.47,0,0,0,0,.26,1.06,1.06,0,0,1,0,.32,11.14,11.14,0,0,0,.21,1.6c.08.36.08.43,0,.37a6.34,6.34,0,0,1-.22-1.19c-.1-.71-.18-1.26-.32-2.06l-.15-.83-.55-.18A22.74,22.74,0,0,0,160,56l-.23,0-.05.38a9.8,9.8,0,0,1-.28,1.36,5.44,5.44,0,0,0-.12.69,1.43,1.43,0,0,1-.18.66,10.9,10.9,0,0,1-.7,1.15c-.63.89-.66,1.16-.15,1.35s.48.3.36.63a.47.47,0,0,0,.11.55c.08.08.11.08.22,0a1.5,1.5,0,0,1,.39,0c.17,0,.25,0,.23,0a.13.13,0,0,0-.1,0,.86.86,0,0,1-.3-.2c-.2-.16-.25-.19-.36-.16s-.12,0-.1,0,.27,0,.52.14a.81.81,0,0,0,.35.19c.06,0,.1,0,.1,0s.07,0,.16,0,.17,0,.17.06a.15.15,0,0,0,0,.1s0,0,0,0a.09.09,0,0,1-.09-.05,2.8,2.8,0,0,0-1,0c-.12.07-.09.24.08.43s.21.34,0,.81c-.14.31-.15.35-.1.51a.77.77,0,0,0,.63.51,7.54,7.54,0,0,0,1.64.2c.81,0,.93.07,1.12.32a3.31,3.31,0,0,1,.46,1.64,6.14,6.14,0,0,1-.11,2c-.08.13-.31.2-.75.21a3.27,3.27,0,0,0-.55.06.93.93,0,0,1-.25,0c-.12,0-.13,0-.06-.06s0-.05-.5,0a3.76,3.76,0,0,0-.68,0l-.46.13c-.3.08-.37.09-.48,0s-.14-.07-.14-.09.08,0,.11,0,.22,0,.58,0l.33-.08h-.24a7.44,7.44,0,0,0-1.1.09,4.69,4.69,0,0,0,.48,1.1l.28.51a6.41,6.41,0,0,0,3.61,3.13.65.65,0,0,1,.27.11c0,.15-1-.27-1.68-.67a9.08,9.08,0,0,1-1.75-1.7,13.08,13.08,0,0,1-1.09-2l-.22-.51h-.18a.42.42,0,0,0-.22,0,4.09,4.09,0,0,0,.57,1.55,7.64,7.64,0,0,0,4,3.62A3.33,3.33,0,0,0,163,75c.12,0,.12,0,.06.08a.92.92,0,0,0-.25.42s.06.11.13.15.13.09.13.11-.21,0-.32-.06-.12-.07-.14,0,0,0,0,0,.07,0,.07,0-.13,0-.32,0a2.83,2.83,0,0,0-.81-.19s-.08,0-.08,0-.09-.08-.2-.13a5.55,5.55,0,0,1-1.22-.82,16.14,16.14,0,0,1-1.4-1.39A6.91,6.91,0,0,1,157.09,70c0-.2,0-.22,0-.18a.65.65,0,0,0,.33,0,.62.62,0,0,1,.29,0s-.07.06-.21.09-.25.07-.29.2,0,.31.14.31a2.1,2.1,0,0,0,.32-.09l.24-.09-.06-.18a.8.8,0,0,1-.07-.25c0-.08,0-.09-.34-.06l-.74.11a3.67,3.67,0,0,1-.62.09,4,4,0,0,0-.63.1l-.54.13c-.11,0-.12,0,0,0a10.32,10.32,0,0,1,1.62-.38,28.75,28.75,0,0,1,4-.28c1.52,0,1.8,0,1.91-.13s.11-.18.16-.44a3.68,3.68,0,0,0,0-1.06,4.7,4.7,0,0,0-.41-2,.47.47,0,0,1-.08-.14.09.09,0,0,0-.08-.07.1.1,0,0,1-.09-.06c0-.08-.35-.12-.87-.11a5.58,5.58,0,0,1-.67,0l-.43-.06a4,4,0,0,1-.54-.1A.83.83,0,0,1,159,65c-.27-.27-.28-.43-.06-.92s.18-.4.13-.52a.69.69,0,0,0-.16-.22.41.41,0,0,1-.13-.27.67.67,0,0,0-.12-.31.53.53,0,0,1-.08-.58c.1-.24,0-.38-.21-.49l-.23-.07a.56.56,0,0,1-.17-.13c-.23-.24-.15-.55.28-1.14A14.29,14.29,0,0,0,159.1,59a1,1,0,0,0,.11-.42,3.34,3.34,0,0,1,.18-1,5.44,5.44,0,0,0,.17-.86c0-.24.06-.48.07-.54s0-.1-.13-.1a1.12,1.12,0,0,1-.84-.6,2.72,2.72,0,0,1-.21-1.26c0-.44,0-.45-.07-.42a.8.8,0,0,1-.24,0c-.26,0-.47.13-.5.26s0,.16.13.1.63,0,.63.1-.05,0-.12,0c-.37-.08-.47-.08-.61,0l-.14.12v-.15a.48.48,0,0,1,.46-.52c.36,0,.49-.11.49-.22a1,1,0,0,1,.23-.52.44.44,0,0,1,.45-.14c.13,0,.14,0,.14,0s-.08-.2-.31-.2c-.38,0-.61-.2-.41-.35a.33.33,0,0,1,.13-.07s0,0,0-.06a.26.26,0,0,0-.16-.07c-.24,0-.33-.2-.32-.63,0-.2,0-.57.05-.82a1.93,1.93,0,0,0-.06-.95c0-.08,0-.08.1,0s.29.4.26.94l0,.46.15-.1a.45.45,0,0,1,.64,0l.15.15,0-.16c.1-.66.44-1.33.65-1.33,0,0,0,.12,0,.16a3.9,3.9,0,0,0-.37,1.3,3.57,3.57,0,0,1-.16.68.89.89,0,0,1-.27.23.69.69,0,0,0-.21.13s.05.06.13.09a1,1,0,0,1,.29.19.35.35,0,0,1,.13.35.71.71,0,0,0,0,.31.56.56,0,0,1,0,.31c0,.2,0,.22.15.38s.17.17.15.41,0,.24.05.14a9.44,9.44,0,0,1,.82-1,8.79,8.79,0,0,1,1-.74,7.89,7.89,0,0,1,2-.68,7,7,0,0,1,2.14,0,9.21,9.21,0,0,1,1.36.22,6.14,6.14,0,0,1,1.17.36,9,9,0,0,0,1.86.74,1.75,1.75,0,0,0,.94-.28c.41-.21.44-.2.6.11a3.17,3.17,0,0,1,.08,2,1.48,1.48,0,0,1-.2.51l-.09.1L172,56a39.29,39.29,0,0,1,1.92,4.89c.19.69.49,1.63.82,2.57.26.75,1.74,5.51,2.12,6.81s.49,1.72.44,1.76a4.71,4.71,0,0,1-.57-.11,10.94,10.94,0,0,0-2.34-.46s-.06,0-.06,0a0,0,0,0,0,0,0,0,0,0,0,0-.05,0,6.57,6.57,0,0,1-.57,1.07,1.85,1.85,0,0,0-.19.35.24.24,0,0,0,.13,0c.07,0,.12,0,.14,0s0,.06-.05.07l-.38.15a2,2,0,0,1-.34.12.76.76,0,0,0-.19.07c-.32.15-2.47.86-2.91,1a7.64,7.64,0,0,0-1,.34.69.69,0,0,1-.24.07l-.86.23a7.61,7.61,0,0,1-1.06.24,7.08,7.08,0,0,0-1.28.32c-.08,0-.15.07-.16,0a3.55,3.55,0,0,0-.56.11c-1.16.27-1.24.29-1.24.22Z" transform="translate(-149.96 -46.63)"/></g></g></g></svg>