<svg id="Layer_1" data-name="Layer 1" xmlns="http://www.w3.org/2000/svg" xmlns:xlink="http://www.w3.org/1999/xlink" viewBox="0 0 36.55 19.66"><defs><style>.cls-1,.cls-3{fill:none;}.cls-2{clip-path:url(#clip-path);}.cls-3{stroke:#974b25;stroke-linejoin:bevel;stroke-width:0.15px;}</style><clipPath id="clip-path" transform="translate(-95.52 -4.84)"><rect id="SVGID" class="cls-1" x="100" y="3.7" width="30" height="23.31"/></clipPath></defs><g id="Geography"><g class="cls-2"><path class="cls-3" d="M107.71,5.11c0-.05.05-.1.1-.07s0,.11,0,.11A.08.08,0,0,1,107.71,5.11Zm-.16,0a0,0,0,1,1,.06,0A0,0,0,0,1,107.55,5.15ZM111,5.4c0-.05,0-.1.1-.07s0,.1,0,.1A.07.07,0,0,1,111,5.4Zm8.11.08c0-.05,0-.1.1-.07s0,.11,0,.11A.08.08,0,0,1,119.12,5.48Zm-1.15,0s0,0,0-.06a0,0,0,0,1,.07,0,0,0,0,0,1,0,.06A0,0,0,0,1,118,5.52Zm4,0s0-.1.1-.06,0,.1,0,.1S121.94,5.58,121.92,5.56Zm-3,0a0,0,0,0,1,0-.06,0,0,0,0,1,.06,0,0,0,0,0,1,0,.07A.07.07,0,0,1,118.87,5.56Zm-.1,0-.06,0s-.06,0,0,0,.1.05.1,0Zm-.12,0c-.05-.06,0-.11.06-.08s.06,0,.06,0,0-.1,0-.08,0,0,0,.09,0,.08,0,.09S118.7,5.6,118.65,5.54Zm-.15,0s0,0,0,0-.08,0-.09,0,0,0,0,0a.16.16,0,0,0,.09,0Zm-.17,0a0,0,0,0,0,0,0,0,0,0,0,1-.06,0,0,0,0,0,1,0-.06s0,0,.07,0,0,0,.07,0,.15,0,.17,0-.05.09-.13.1a.08.08,0,0,1-.08,0Zm.85.12V5.65a0,0,0,0,1,0,0,.15.15,0,0,0,.08,0s.08,0,.1,0,0,.11-.06.09a.09.09,0,0,0-.1,0s0,0,0,0ZM119,5.65c0-.07,0-.07,0,0l-.1.07s0,0,0,0a.15.15,0,0,0,.1-.07Zm-.14.08c0-.05.16-.18.19-.14s-.09.17-.14.17a.05.05,0,0,1-.05,0Zm-.19,0s0-.06,0,0-.07,0-.1,0-.06,0,0,0a.11.11,0,0,1,0,.1s0,0,0,0,0,0,.08-.07Zm-.09.1V5.77l0-.08a0,0,0,0,1,0-.07.07.07,0,0,1,.07,0,0,0,0,0,0,.06,0c.07,0,.07,0,0,.12s-.09.06-.09,0Zm.19,0a.07.07,0,0,1,0-.07,0,0,0,0,1,.06,0s0,0,0,.06A0,0,0,0,1,118.79,5.85Zm-1.19-.11a.09.09,0,0,1,.05-.1c.09,0,0,0-.1,0s-.11,0,0,.1.11.08.08,0Zm.08.11-.06,0c-.07,0-.21-.11-.19-.14s.24-.13.28-.08,0,0,0,.06-.06,0,0,.08,0,0,.06,0,0,0,.06,0,0,.09-.08,0Zm-1.15,0a0,0,0,0,1,0-.07,0,0,0,0,1,.06,0,0,0,0,1,1-.07,0Zm-.39,0a.08.08,0,0,0-.08,0s0,0,.06,0S116.17,5.83,116.14,5.82Zm-.11,0a.07.07,0,0,1,0-.07c.06,0,.18,0,.15.06a.11.11,0,0,1-.17,0Zm2-.19c0-.06-.16,0-.16,0s.05.07.13.05.07,0,0-.07Zm.48.07s0,0-.07,0,0,0,0,0,.06,0,0,0Zm-.19,0s0,0,0,0-.06,0-.09,0-.06,0,0,0,0,.08,0,.1,0,0,0,0A.16.16,0,0,0,118.27,5.72Zm-.3.17-.07,0s0,0,0,0,0-.06-.05-.1,0-.08,0-.13.09,0,.15,0,.08,0,.1,0,0,0,.08,0,.06,0,.08,0,0,0,0,0,0,0,.08,0,.08,0,.11,0,0,.06,0,.09-.1,0-.11,0,0,0-.09,0-.12,0-.12,0,0,0-.13,0-.08,0-.07.06a0,0,0,0,0,.06,0s0,0,.06,0,0,.09-.08,0Zm-15.22,0s0-.07,0-.08.06,0,.09,0,0,.07,0,.08S102.77,5.94,102.75,5.91Zm8.34.06s0,0,0-.06a0,0,0,0,1,.07,0,.07.07,0,0,1,0,.07A0,0,0,0,1,111.09,6Zm4.57.12s0-.09.1-.06,0,.1,0,.1A.08.08,0,0,1,115.66,6.09Zm-.2,0s0,0,0-.06a0,0,0,0,1,.06,0,0,0,0,0,1,0,.06A0,0,0,0,1,115.46,6.13Zm7.15-.42s0-.08-.08-.12-.11-.06-.25,0-.14.09-.07.14a.46.46,0,0,0,.4,0Zm-.36.14s-.06-.08-.16-.06-.06,0,0,.06.15,0,.18,0Zm.59.16c0-.19,0-.24-.12-.12l-.08.1,0-.09c0-.12-.17-.13-.37,0l-.13.07.23,0a1.56,1.56,0,0,1,.33.11C122.81,6.18,122.83,6.17,122.84,6Zm-.14.15-.33-.11a.7.7,0,0,1-.26-.1.23.23,0,0,0-.08-.09c-.06-.05-.06-.05,0-.08s.09-.06.09-.08.06-.08.14-.13l.14-.09.13.08c.1.07.12.1.1.15a.23.23,0,0,0,0,.14c0,.08,0,.08.08,0s.18,0,.17.16-.07.22-.18.16Zm.83.06a0,0,0,1,1,.08,0,0,0,0,0,1,0,.06S123.54,6.24,123.53,6.22Zm-1.32,0a.05.05,0,0,1,0-.07,0,0,0,0,1,.06,0,0,0,0,0,1,0,.06S122.22,6.24,122.21,6.22Zm1.07,0c.13,0,.15,0,.06-.11s-.24-.1-.35.05l-.1.15s.07,0,.15,0l.24-.06Zm-.42.12c0-.06.21-.34.3-.34a.52.52,0,0,1,.2.08c.08.06.1.08.06.13a.31.31,0,0,1-.13.06,1,1,0,0,0-.25,0c-.09,0-.16,0-.18,0Zm-.77,0a0,0,0,0,1,0-.06,0,0,0,0,1,.07,0,0,0,0,0,1,0,.06A0,0,0,0,1,122.09,6.3ZM111,6.3a0,0,0,1,1,.06,0A0,0,0,0,1,111,6.3Zm-7.87,0s0,0,0,0l-.11,0c-.07,0-.07,0,0,0s.11.08.15,0Zm-.16,0c-.09-.1,0-.14.12-.09s.1.06.06.11S103.06,6.35,103,6.26Zm-.27-.09a.65.65,0,0,0-.28-.18c-.19-.06-.33,0-.2,0s0,.05,0,.07,0,0,.07,0,.14,0,.24.1.24.12.13,0Zm-.07.13c-.07-.09-.15-.12-.13-.06s0,0,0,0-.08,0,0-.06,0-.1-.13-.09-.07,0-.07,0,0,0-.06-.08-.07-.06,0-.11.43.07.55.23.09.13,0,.17-.07,0-.13,0Zm19.24.08a0,0,0,0,1,0-.06,0,0,0,0,1,.06,0,0,0,0,1,1-.08,0Zm-19.73,0a0,0,0,0,1,0-.06,0,0,0,0,1,.06,0,.05.05,0,0,1,0,.07A0,0,0,0,1,102.15,6.38Zm20.35,0s0,0,0-.06a.06.06,0,0,1,.07,0,.06.06,0,0,1,0,.07A0,0,0,0,1,122.5,6.42Zm-18.83,0a0,0,0,0,1,0-.06s0,0,.06,0a0,0,0,0,1,0,.07A.07.07,0,0,1,103.67,6.42Zm-2.39-.12s0,0,0,0,0,0,0,0a0,0,0,0,0,0,0S101.3,6.32,101.28,6.3Zm.34,0c.08,0,.13-.11.13-.13a.05.05,0,0,0,0,0h-.15c-.07,0-.12,0-.11,0a.24.24,0,0,0,.16,0c.08,0,.1,0,.05,0s-.26.11-.24.14,0,0,.21,0Zm-.23.07a.13.13,0,0,0-.11,0c-.06,0-.12-.06-.07-.11s.06,0,.09,0a.13.13,0,0,0,.11,0s0,0,0-.08,0-.09.14-.1.23,0,.23.08a1,1,0,0,1-.34.25l-.07-.06Zm22.22.06a0,0,0,0,1,0-.06,0,0,0,0,1,.06,0,0,0,0,0,1,0,.06A.06.06,0,0,1,123.61,6.46Zm-1.85,0s0,0,0-.06a.05.05,0,0,1,.07,0s0,0,0,.06A0,0,0,0,1,121.76,6.46Zm-16.23,0s0,0,0-.06a.05.05,0,0,1,.07,0,0,0,0,0,1,0,.06A0,0,0,0,1,105.53,6.5Zm-4.24,0a0,0,0,0,1,0-.06,0,0,0,0,1,.06,0,0,0,0,0,1,0,.06A0,0,0,0,1,101.29,6.5Zm26.52,0a.06.06,0,0,1,0-.07,0,0,0,0,1,.06,0,0,0,0,0,1,0,.06A.06.06,0,0,1,127.81,6.55Zm-12.44,0a.06.06,0,0,1,0-.07,0,0,0,0,1,.06,0s0,0,0,.06A.06.06,0,0,1,115.37,6.55Zm7.21,0a.06.06,0,0,1,0-.07,0,0,0,0,1,.06,0s0,0,0,.06A.06.06,0,0,1,122.58,6.59Zm-8-.13a1.71,1.71,0,0,1,.13-.23c.07-.09.09-.09.17,0s.11,0,.13,0,0,0,0,.07,0,.09.08.08l.15,0s-.18-.14-.32-.18-.07,0-.06-.06,0,0-.07-.07-.08,0,0-.07.1,0,.28,0,.23,0,.37,0l.15-.1-.14,0c-.3-.06-.32-.06-.32,0a.17.17,0,0,1-.07.11s0,0,0,0,0-.1-.19-.12-.11,0-.07,0,0,.07,0,.13-.08.06-.12,0-.17-.11-.24,0a.12.12,0,0,1-.15,0c-.07,0-.07,0,0-.09s0-.07-.14,0-.13,0-.13.06,0,0,0,0,.13,0,.06.1-.09.07-.12,0,0,0,0,0,.15.06.11,0,0,0,.06,0,.09.07.16,0,.22-.1.25,0,0,.07-.09.09-.15.1,0,.08.09.1,0,.13-.07,0,0,0a.17.17,0,0,1,.11.06c.08.09.11.08.17-.06Zm-.15.12a.29.29,0,0,0-.13-.08c-.11,0-.09-.12,0-.12s.08,0,.08,0,0,0-.06,0-.09-.07,0-.12.1-.05.1-.07-.13,0-.22.08-.08.06-.13,0-.07,0-.09,0,0,0-.1,0-.07-.17,0-.12.06,0,.09-.05,0-.06,0,0-.08,0-.08,0,.25-.14.34-.11.06,0,0,.09-.07.06,0,.06a.15.15,0,0,0,.11-.08c0-.09.15-.08.24,0s.06,0,.1,0a.08.08,0,0,0,0-.11s0-.07,0-.08a.39.39,0,0,1,.31,0c.05,0,.07,0,.08,0s.07-.09.38,0l.18,0s0,.06-.06.07a.56.56,0,0,0-.18.1c-.11.08-.14.08-.31,0s-.37-.06-.23,0,.08.06.07.08,0,0,0,0a.56.56,0,0,1,.21.09c.11.06.14.1.11.14s-.31,0-.3,0-.12-.17-.17-.14l-.13.22c-.1.2-.16.24-.21.16Zm13.68,0a.07.07,0,0,1,0-.07,0,0,0,0,1,.06,0s0,0,0,.06A0,0,0,0,1,128.14,6.63ZM106,5.52a.12.12,0,0,0-.1,0s0,0,0,0,.08,0,.05-.05Zm-1.15.12c.06,0,.11-.06.11-.08s0-.06-.24.06-.12.12.13,0Zm-.17.75h-.08s0,0,0,0,.06,0,0,0Zm.1.18c.14-.05.19-.12.07-.08s-.31-.06-.28-.12a.16.16,0,0,1,.13,0,.33.33,0,0,0,.23,0l.19-.1a.16.16,0,0,0,.08-.08s0,0-.08,0-.12,0-.13,0,.06-.13.16-.13.09,0,.08,0,0-.08.18,0,.14,0,.17,0a1.41,1.41,0,0,1,.35-.22c.18-.08.31-.15.28-.15l-.12,0c-.06,0-.07,0,0,0s0,0-.08.08-.2,0-.11-.07a1.46,1.46,0,0,1,.23-.1c.25-.08.41-.16.41-.19a.4.4,0,0,0-.11-.09.29.29,0,0,0-.24,0c-.13,0-.24,0-.2,0S105.8,5,105.56,5a1.75,1.75,0,0,1-.4,0A.51.51,0,0,0,105,5s-.06,0-.1,0a.42.42,0,0,0-.16,0,.3.3,0,0,1-.12,0s-.1.09-.11.18-.09,0-.18,0-.17,0-.17,0,0,0-.12,0a.45.45,0,0,0-.16,0,.29.29,0,0,1-.18,0h-.14l.14,0c.08,0,.14,0,.13.05s0,.06.07.1.11.06.15,0a.1.1,0,0,1,.13,0,.63.63,0,0,0,.61,0c.14-.08.21-.1.24-.07s0,.15-.32.24-.27.07-.34,0-.22,0-.22,0,.3.21.38.19.14,0,.06.1-.5,0-.5-.08a.15.15,0,0,0-.07-.11.1.1,0,0,1,0-.12s0-.06,0-.05a.61.61,0,0,1-.26-.09c-.12-.08-.16-.09-.23-.06s-.07,0,0,.06,0,.05-.1.06a.18.18,0,0,0-.1.06c-.06.08,0,.16.19.17a.39.39,0,0,1,.17,0c.05,0,0,0-.08.06s-.12,0-.07.07.06.05,0,.08.05,0,.14,0a.29.29,0,0,0,.24-.08c0-.06.08-.07.13,0l.18.11a.3.3,0,0,1,.13.11c0,.07-.13.07-.2,0s0-.06,0-.06a.09.09,0,0,1,.07,0,.11.11,0,0,0,.09,0s0,0,0-.07a.17.17,0,0,0-.2,0c-.1,0-.1.06,0,.09s.06.12,0,.12,0,0,0,0,0,0,0,0-.16.07-.13.1a1.23,1.23,0,0,0,.38.05l.38,0s0,0,.2,0Zm-.2.07-.38,0c-.38,0-.51-.07-.38-.17s.06-.06,0-.07,0,0,.06-.08.08-.07,0-.11-.06,0-.13,0a.29.29,0,0,1-.26.08c-.08,0-.15,0-.15-.06a.2.2,0,0,0-.06-.09c-.06,0-.06,0,0-.06l.13,0s0,0-.06,0a.4.4,0,0,1-.21-.07c-.09-.06-.1-.07,0-.16s.09-.09.13-.07,0,0,0,0a.11.11,0,0,1,.06-.09c.06,0,.11,0,.24,0a1.12,1.12,0,0,0,.27.1s0,0,0,.08a.14.14,0,0,0,.07.11.08.08,0,0,1,0,.09c0,.08.39.14.45.07s0,0,0,0-.43-.15-.43-.22.13-.14.25-.1a.31.31,0,0,0,.19,0c.06,0,0,0-.11-.06l-.26-.07a.12.12,0,0,0-.13,0s-.08,0-.16,0-.1-.09-.08-.11,0,0-.12,0-.17-.09,0-.11a.78.78,0,0,0,.19,0,.44.44,0,0,1,.17,0c.08,0,.11,0,.11,0s0,0,.16,0,.17,0,.16,0,.1-.22.15-.21a.3.3,0,0,0,.12,0,.42.42,0,0,1,.16,0s.09,0,.1,0a.47.47,0,0,1,.2,0,3,3,0,0,0,.43,0c.25,0,.48,0,.44.1s0,.06.17,0a.28.28,0,0,1,.26,0c.07,0,.13.1.13.12s-.31.2-.4.21-.06,0,0,0,.09,0,.09,0a1.74,1.74,0,0,1-.32.18,1.44,1.44,0,0,0-.37.21c0,.06-.1,0-.27,0s-.07,0-.06,0,0,.06-.09.07a.26.26,0,0,0-.15.06s0,0,.07,0a.13.13,0,0,1,.14,0s-.09.21-.17.21a.6.6,0,0,0-.2.08c-.16.08-.16.08-.05.07s.18.08,0,.15-.2.08-.23,0Zm-2.28,0a.07.07,0,0,1,0-.07,0,0,0,0,1,.06,0,0,0,0,0,1,0,.06A0,0,0,0,1,102.31,6.63Zm24.19.12c0-.07,0-.14.07-.09a.06.06,0,0,1,0,.09S126.52,6.78,126.5,6.75ZM103,6.75a0,0,0,0,1,0-.06,0,0,0,0,1,.06,0,0,0,0,0,1,0,.07.07.07,0,0,1-.07,0Zm-2.14,0a0,0,0,0,1,0-.06,0,0,0,0,1,.06,0,.05.05,0,0,1,0,.07S100.85,6.77,100.83,6.75Zm.08-.21s.07,0,.12,0,0-.16,0-.08a.25.25,0,0,1-.15,0,.5.5,0,0,0-.25.13c-.12.1-.13.13-.06.11s.11,0,.12,0,.06,0,.11-.08.09-.12.13-.09Zm-.24.21a.09.09,0,0,0-.09,0h-.1c-.07-.05.25-.31.37-.31a.25.25,0,0,0,.16,0s.06,0,.09,0,0,.08,0,.16-.1.1-.14.06-.06,0-.06,0-.15.23-.18.18Zm10.3,0a0,0,0,0,1,0-.06s0,0,.06,0a0,0,0,0,1,0,.07A0,0,0,0,1,111,6.79Zm-8.55,0s0-.07,0-.08a.09.09,0,0,1,.09,0s0,.07,0,.08S102.44,6.8,102.42,6.77Zm25.41,0-.16,0c-.06,0-.06,0,0,0a.27.27,0,0,0,.16,0h.1Zm-.18,0c-.07,0-.08-.06,0-.08s.28,0,.29.08-.18.07-.27,0Zm-6.59,0a0,0,0,0,1,0-.06,0,0,0,1,1,.05.08A0,0,0,0,1,121.06,6.83Zm-18.44-.14s0-.07,0-.08.06,0,.09,0,0,.07,0,.08S102.65,6.72,102.62,6.69Zm.25,0a.22.22,0,0,0-.3-.16c-.07,0-.07,0,0,.15s.27.15.27,0Zm-.29,0c-.12-.13-.12-.14,0-.19a.24.24,0,0,1,.37.19c0,.17-.17.17-.32,0Zm-.35.09a0,0,0,0,1,0-.06s0,0,.06,0a.06.06,0,0,1,0,.07A.06.06,0,0,1,102.23,6.83Zm25.17-.07c.09,0,0-.1-.09-.1s-.1,0,0,.07,0,.07.14,0Zm-.45.07s.06,0,.12,0,.16,0,.1,0a.13.13,0,0,1,0-.1s0,0,0,0a.08.08,0,0,0-.07,0s-.06,0-.13,0a.28.28,0,0,0-.16,0c-.06,0-.08.15,0,.2s.17,0,.2,0Zm-.22,0a.16.16,0,0,1,0-.24c.06,0,.09,0,.19,0s.12.05.14,0,.34,0,.39,0,0,.07,0,.11-.1,0-.17,0-.11,0,0,.06,0,.1-.15,0-.11,0-.12,0S126.79,6.92,126.73,6.86Zm-15.64,0s0,0,0-.06.05,0,.07,0a0,0,0,1,1-.08,0Zm3.66,0a0,0,0,1,1,.08,0,0,0,0,0,1,0,.06A.05.05,0,0,1,114.75,6.91Zm-11.44-.07c0-.06-.12-.1-.17,0s0,0,0,.08.13,0,.15,0Zm-.18,0c-.07,0-.07-.06,0-.12a.11.11,0,0,1,.16,0c.1.06.11.15,0,.19s-.07,0-.17,0Zm1.5,0c.09,0,.13,0,.11,0a.12.12,0,0,1,0-.11c0-.07,0-.07,0,0a.25.25,0,0,1-.16,0l-.45,0c-.36,0-.54,0-.54-.16s-.07-.06-.15-.07l-.28-.05c-.09,0-.11,0-.1,0s.1.06.2.07.19,0,.21.13.06.12.27.13l.12,0a.86.86,0,0,0,.33,0l.42,0Zm-.75.06s-.07,0-.12,0c-.27,0-.29,0-.31-.15s0-.11-.17-.11-.28-.08-.23-.16a.18.18,0,0,1,.11,0s.07,0,.06,0,.06-.1.11,0,0,0,0,.07,0,.1.18.1.14,0,.16.07.14.17.5.15l.46,0a.3.3,0,0,0,.15,0s.06,0,.07,0,0,0,0,.07a.07.07,0,0,0,0,.08s0,.07,0,.08a4.49,4.49,0,0,1-.89,0Zm-2.22-.07.28-.07c.09,0,.17,0,.18-.07s0,0-.07,0-.1,0-.13-.09-.12-.13-.11,0,0,.12-.09.13a.25.25,0,0,1-.18,0,.8.8,0,0,0-.26-.08c-.16,0-.17,0-.17.07s.08.15.13.07.23,0,.23.06,0,.05-.09.07-.08,0,0,0a.66.66,0,0,0,.25,0Zm-.37.07s0-.1.11-.1.08,0,0,0a.21.21,0,0,0-.16,0c-.08.07-.16,0-.15-.12s0-.12.18-.11a.53.53,0,0,1,.26.08.43.43,0,0,0,.18.06c.07,0,.08,0,.08-.12s.1-.15.16,0a.13.13,0,0,0,.12.07s.08,0,.09,0-.07.16-.19.16a1,1,0,0,0-.26.06.62.62,0,0,1-.41,0Zm25.16,0a.07.07,0,0,1,0-.07,0,0,0,0,1,.06,0,0,0,0,0,1,0,.06A.06.06,0,0,1,126.45,7Zm-6.55.08a0,0,0,0,1,0-.06,0,0,0,1,1,0,.07A0,0,0,0,1,119.9,7.08Zm.54,0s0,0,0-.06a0,0,0,1,1,0,.07A0,0,0,0,1,120.44,7.12ZM105,7.2c.07,0,.07,0,0-.06s-.29-.08-.29,0,0,.12.14.09Zm-.31,0a.11.11,0,0,1,.08-.19c.12,0,.35.13.31.17a.42.42,0,0,1-.39,0Zm26.68.31a0,0,0,1,1,.06,0A0,0,0,0,1,131.36,7.53ZM103,7.44c.11,0,.12-.08,0-.17s-.06-.09,0-.12a.12.12,0,0,0,0-.1s-.05,0-.13,0a.58.58,0,0,1-.17.06s0,0,0,0,0,.13-.13.07,0,0,.15.15.18.11.18.09a.11.11,0,0,1,.09,0Zm-.32-.05c-.12-.08-.2-.17-.19-.19s0,0,.1,0,.14,0,.08,0,0-.07.07-.1a1.14,1.14,0,0,0,.19-.09c.09,0,.18.08.11.16s0,.06,0,.11.08.16-.07.24-.13,0-.33-.11Zm28.49.18s0,0,0-.05-.27,0-.33.05.18,0,.34,0Zm-.38,0c-.06-.1.3-.21.38-.11s0,.07,0,.1-.33.06-.36,0Zm-12.22,0a.28.28,0,0,1-.16-.22,1.38,1.38,0,0,1,.47-.51.58.58,0,0,1,.19-.06,2.93,2.93,0,0,0,.64-.2c.15-.08,0-.08-.21,0a.58.58,0,0,1-.32.06.74.74,0,0,0-.31.06,1.09,1.09,0,0,1-.31.08c-.1,0-.12,0-.08,0s0,.07-.07.16-.11.12-.08.13.17.07.07,0-.15,0-.25.16-.07.11,0,.09.18.07.14.13.07,0,.17,0,.17,0,.13,0Zm-.41,0s0-.07.06-.06,0,0,0,0a.08.08,0,0,0-.07,0s-.06,0-.07,0,.11-.26.16-.26,0,0,0,0a.44.44,0,0,1,.11-.14c.06-.06.09-.12.07-.13s0-.1.12-.1a1,1,0,0,0,.3-.08.74.74,0,0,1,.31-.06.6.6,0,0,0,.32-.07c.17-.07.21-.07.26,0s0,.06,0,.1a2.93,2.93,0,0,1-.66.21.73.73,0,0,0-.46.29c-.2.23-.21.35,0,.42s0,.1-.2.1l-.23,0Zm-6.11,0a0,0,0,0,1,0-.06s0,0,.06,0a0,0,0,1,1-.07.05Zm-12.2,0a0,0,0,0,1,0-.06s0,0,.06,0a.06.06,0,0,1,0,.07A.06.06,0,0,1,99.84,7.61Zm12.07.08a0,0,0,0,1,0-.06,0,0,0,0,1,.06,0s0,0,0,.06S111.93,7.72,111.91,7.69Zm2.76,0a.06.06,0,0,1,0-.07,0,0,0,0,1,.06,0s0,0,0,.06A.06.06,0,0,1,114.67,7.74Zm4.21,0s-.09,0-.11,0,.08.1.14.1,0,0,0-.06Zm-.09,0c-.06,0-.07-.07,0-.1s.24.06.2.13S118.88,7.82,118.79,7.75Zm-11.31.1s0,0-.06,0,0,0,0,0a.07.07,0,0,0,.06.05S107.48,7.88,107.48,7.85Zm-.12,0s0-.07,0-.09.17,0,.13.1-.09.06-.15,0Zm-2.61,0a0,0,0,1,1,.06,0A0,0,0,0,1,104.75,7.9Zm13.11-.05c0-.06-.09,0-.11,0s0,0,0,0S117.86,7.87,117.86,7.85Zm-.14.08c0-.06.08-.18.14-.14s0,.1,0,.15-.08,0-.1,0ZM114.3,8a0,0,0,0,1,0-.06s.05,0,.06,0a0,0,0,1,1-.08.05Zm-.16.08a0,0,0,0,1,0-.06.05.05,0,0,1,.07,0s0,0,0,.06A0,0,0,0,1,114.14,8.06Zm-9.35,0a0,0,0,0,1,0-.06,0,0,0,0,1,.06,0s0,0,0,.06A0,0,0,0,1,104.79,8.06Zm.39.06a.05.05,0,0,0-.07,0c-.11,0-.12.11,0,.11S105.18,8.16,105.18,8.12Zm-.19.06a.1.1,0,0,1,0-.1S105,8,105,8a.07.07,0,0,1,0-.07.06.06,0,0,1,.07,0,0,0,0,0,1,0,.06s0,0,.07,0,.08.05.07.1-.18.12-.22,0Zm5.64.25s-.1,0-.18,0,0,0,0,0A.18.18,0,0,0,110.63,8.43Zm-.24,0c0-.06.16-.14.25-.11s.06,0,0,.09-.22.08-.26,0Zm3.38.29a0,0,0,1,1,.07,0,0,0,0,0,1,0,.07A0,0,0,0,1,113.77,8.76Zm-2.62,0c.25-.1.31-.16.22-.21a.13.13,0,0,1-.06-.1c0-.05,0-.05-.19,0l-.27,0s-.06,0,0,0-.17.16-.3.17h-.11l.12,0c.07,0,.11,0,.1.06s.11.1.23.11a1.18,1.18,0,0,0,.31-.09Zm-.48.09s-.07-.05-.06-.07,0,0-.1-.05-.16-.1,0-.12.3-.12.27-.16,0,0,.06,0l.28,0c.17,0,.2,0,.22.05a.33.33,0,0,0,.09.11c.08.06,0,.16-.28.26s-.34.11-.48.05ZM105,8.88a0,0,0,0,1,0-.06,0,0,0,0,1,.06,0s0,.05,0,.06A.05.05,0,0,1,105,8.88Zm-.16,0a.06.06,0,0,1,0-.07.06.06,0,0,1,.07,0,0,0,0,0,1,0,.06S104.88,9,104.87,8.93Zm-9,0s-.25-.07-.22,0a.18.18,0,0,0,.13,0Zm-.24,0s0-.07,0-.09a.33.33,0,0,1,.27.08c0,.07-.2.07-.26,0Zm8.84.1s0,0-.08,0,0,0,0,0,.07,0,.06-.05Zm-.13.08c0-.06.1-.15.15-.1s0,.06,0,.09-.09,0-.11,0Zm.42-.08s0,0,0,.06,0,.06,0,0a.11.11,0,0,0,0-.08Zm0,.1a.11.11,0,0,1,0-.12s0,0,.07,0a.13.13,0,0,1,0,.12S104.72,9.16,104.7,9.11Zm-.45-1.58s0,0,0,0,0,0,0,0a0,0,0,0,0,0,0S104.26,7.55,104.25,7.53Zm1.44.82s0,0-.06,0-.08,0-.06,0a.06.06,0,0,0,.12,0Zm.41.57a.42.42,0,0,0-.25-.11s.19.15.24.15,0,0,0,0Zm-.17,0c-.15-.09-.15-.18,0-.14s.24.14.21.19-.06,0-.21-.05Zm.25.16c-.07-.08-.07-.08,0-.1s.09-.18-.11-.38-.18-.18-.1-.23.11-.08.27.06.14.11.19.08a.09.09,0,0,0,0-.09s0-.05.06-.06.09,0,0-.1a.12.12,0,0,0-.11,0s-.09,0-.13-.07a.33.33,0,0,0-.19-.08c-.14,0-.24-.14-.14-.19a.07.07,0,0,0,0-.08.72.72,0,0,0-.32-.15.19.19,0,0,1-.1,0c-.06,0,0,0,0-.09s.06,0,0,0-.08,0-.09,0a.09.09,0,0,1-.1,0l-.11,0a0,0,0,0,1,0,0c0-.08-.14-.15-.27-.13s-.11,0-.1.06-.1.09-.17,0a.12.12,0,0,0-.1,0s-.1-.06-.09-.17,0-.09-.08-.09a.28.28,0,0,0-.16,0,.35.35,0,0,0,0,.34s0,.06,0,.08-.16-.1-.15-.27V7.18l0,.16c0,.14,0,.15,0,.07s0-.29-.15-.29-.31.15-.31.25.13.32.21.32l.47,0a1.71,1.71,0,0,1,.58.08l.24.09c.12,0,.17.08.11.17s0,.07,0,0,.07,0,.11,0a.25.25,0,0,1,0,.14s0,0,.1,0,.17,0,.09.11-.08,0-.14,0-.08-.06-.16,0-.09.08,0,.12,0,.06,0,.07h-.23c-.13,0-.18,0-.19.07s0,.08.08.08a.33.33,0,0,0,.15,0c.06,0,.38.09.38.16s0,0,.11.06.09,0,0,.06,0,0,.07,0a.91.91,0,0,1,.29.08c.2.11.2.11.11,0Zm-.11,0a.79.79,0,0,0-.29-.08c-.08,0-.13,0-.12-.06s0-.05,0-.05a.12.12,0,0,1-.09-.05c-.06-.09-.29-.19-.35-.15s-.24,0-.27,0,.07-.19.24-.19.15,0,.14,0,0-.07.09-.12.1-.11.08-.19,0-.1-.08-.06-.12,0-.06-.07,0-.1-.08-.11L105,7.84a1.44,1.44,0,0,0-.58-.09l-.48,0c-.08,0-.24-.24-.24-.36s.42-.39.48-.23,0,.05.12,0a.42.42,0,0,1,.21-.06c.09,0,.1,0,.09.13s0,.13.06.12a.08.08,0,0,1,.09,0c0,.06.15,0,.14,0s.05-.07.12-.08.16,0,.31.11.18.13.22.09a.19.19,0,0,1,.13,0c.07,0,.07,0,0,.09s-.08.07,0,.06.52.21.37.27,0,.14.1.14a.33.33,0,0,1,.19.08c0,.05.1.08.13.07s.09,0,.14.08l.1.1-.09,0s-.09,0-.08.06,0,.06-.06.1-.08.07-.21-.06-.15-.14-.24-.08,0,.07.13.22.24.36.1.39-.07,0,0,.09,0,.12-.16,0Zm6,.14a0,0,0,0,1,0-.06.07.07,0,0,0,0-.08c0-.07.05-.12.09-.06a.08.08,0,0,1,0,.09s0,.07,0,.08,0,0,0,0a0,0,0,0,1-.06,0Zm2.76.13a0,0,0,1,1,.07-.05,0,0,0,0,1,0,.06S114.81,9.4,114.8,9.38Zm-2.15,0c0-.07,0-.15.08-.09s0,.05,0,.09S112.67,9.41,112.65,9.38Zm-2.27-2.14c-.06,0-.1,0-.1-.06s.17,0,.19.06,0,0-.09,0Zm.27,0-.08,0c-.06,0-.1,0-.09-.07s0,0-.09,0a.88.88,0,0,1-.21,0l-.12,0,.09.07c.07.05.08.08,0,.12s0,0,.2,0l.25,0Zm-3.78-1.79h-.08s0,0,.06,0,.05,0,0,0Zm-.11,0a.07.07,0,0,1,0-.07c.06,0,.18,0,.15.07a.11.11,0,0,1-.17,0Zm3.3,2s0,0,0-.06a0,0,0,1,1,.05.07A0,0,0,0,1,110.06,7.49Zm-1.58,1.68a.81.81,0,0,0,0-.15.19.19,0,0,1,0-.12.13.13,0,0,0,0-.1c0-.09.37-.42.42-.39s.09,0,.16,0a.27.27,0,0,0,.18-.25.05.05,0,0,1,.06-.05s.08,0,.13-.07.13-.08.34-.08a.94.94,0,0,0,.38-.05,1.25,1.25,0,0,1,.27-.1l.14,0-.14,0a.62.62,0,0,0-.23,0c-.11,0-.18-.06-.08-.1a.08.08,0,0,0,0-.09s0-.07.11-.08.12,0,.14.07.13.12.13,0-.22-.23-.33-.2-.18,0-.12-.08,0-.07,0-.1-.06-.14.08-.11.11,0,.11,0,.13-.1.27,0a.5.5,0,0,0,.19.1s0,0,0-.07-.08-.14.09-.14.12,0,0-.06-.06-.06,0-.07l-.08,0c-.16,0-.16-.1,0-.13l.12,0h-.13c-.07,0-.14,0-.16,0s.13-.12.27-.09.13,0,.11,0,0,0-.06,0-.18-.06-.16-.11a.12.12,0,0,0,0-.1s0-.06.06-.09.11-.07.11-.1a.17.17,0,0,1,.07-.11c.06,0,.06,0,0,0s-.18,0-.12-.08a.4.4,0,0,1,.23-.06c.12,0,.18,0,.17,0s0-.06.08-.06a.8.8,0,0,0,.2-.07l.11-.06-.17,0a.46.46,0,0,0-.24,0,.44.44,0,0,1-.33,0s-.11,0-.18,0-.19,0-.14-.06-.07,0-.27,0a1.7,1.7,0,0,0-.56.13.63.63,0,0,1-.33.09c-.1,0,0-.08.32-.22a1.63,1.63,0,0,1,.52-.13,1.16,1.16,0,0,0,.35-.06l.14-.07-.24,0c-.24,0-.34,0-.21-.1s-.31,0-.75,0a.75.75,0,0,1-.28,0c-.06,0,0-.11.21-.14s.13,0-.09,0H109c-.17,0-.32,0-.29,0s-.1.09-.23,0-.16-.06-.23,0a.1.1,0,0,1-.13,0,.11.11,0,0,0-.17.07c0,.09.06.08.1,0s0,0,.12,0,.09.11.06.14a.81.81,0,0,1-.45,0c-.15,0-.28,0-.26.06s0,.11-.11,0-.13-.08-.11,0-.06,0-.24,0-.51.07-.45.13-.07.16-.13.13a.07.07,0,0,0-.08,0,.06.06,0,0,1-.07,0c-.07,0-.38.12-.33.16a.34.34,0,0,0,.17,0c.17,0,.2,0,.08.16a.26.26,0,0,1-.2.12.19.19,0,0,0-.14,0,.05.05,0,0,1-.07,0c-.05,0-.32.06-.32.11s0,0,.34,0c.09,0,.17,0,.18.06s0,.07-.26.11-.15,0-.06.06.1,0,.08.06.14.1.23.07a1.65,1.65,0,0,1,.41,0l.36,0s.06,0,.09.1a.9.9,0,0,0,.15.19.3.3,0,0,1,.08.12.21.21,0,0,0,.08.12.2.2,0,0,1,.06.2c0,.13,0,.16.08,0s0-.08.08,0,.11.26-.07.3,0,0,0,0a.28.28,0,0,1,.2.08c.06.07.06.08,0,.15s-.08.07,0,.12.06.06,0,.1-.11.06-.11.09,0,0,.06,0,.16,0,.08.08,0,.08,0,.08,0,0,0,.06-.06.06,0,.08a.08.08,0,0,1,0,.08s0,0,0,0,.13,0,.08.07,0,.12.08.23.27.33.4.33.12,0,.12,0a.56.56,0,0,0,0,.07c0,.05.25-.12.26-.18Zm-.29.19a.08.08,0,0,1,0-.09s0,0-.06,0-.12,0-.22-.09-.35-.42-.33-.5a0,0,0,0,0,0,0s-.06,0-.06,0a.19.19,0,0,0,0-.09s0-.06,0-.09.06,0,0,0,0,0,0-.08,0-.12-.05,0,0,0-.07,0,0-.17.14-.17,0,0,0,0-.07,0,0-.13.06-.17-.14-.2-.16-.08,0-.11.11-.05.07-.19,0-.07-.06,0-.14.09-.14-.07a.33.33,0,0,0-.08-.2.42.42,0,0,1-.07-.11.57.57,0,0,0-.12-.18.47.47,0,0,1-.13-.18s0,0,0,0l-.36,0a1.65,1.65,0,0,0-.41,0c-.1,0-.28,0-.25-.08s0,0,0,0-.1,0-.11,0,.15-.12.29-.12.1,0,.1,0-.07,0-.15,0-.35,0-.38-.1.27-.18.35-.15a.07.07,0,0,0,.08,0,.18.18,0,0,1,.13,0,.35.35,0,0,0,.26-.21s-.06,0-.13,0a.19.19,0,0,1-.2,0s0-.07.13-.15a.85.85,0,0,1,.22-.08s.06,0,.08,0l.1,0a.07.07,0,0,0,.07-.07c0-.12.21-.21.48-.19s.22,0,.21,0,.08-.08.16,0,.08.07.07,0,0-.08.13-.11a.47.47,0,0,1,.21,0,.86.86,0,0,0,.39,0s0,0-.06-.07-.08-.07-.11,0a.08.08,0,0,1-.14,0c0-.1.12-.17.19-.12a.15.15,0,0,0,.16,0,.21.21,0,0,1,.21,0c.15.08.22.08.21,0s.25-.13.36-.09a1.5,1.5,0,0,0,.29,0c.24,0,.3.07.08.11a.34.34,0,0,0-.17,0,1.55,1.55,0,0,0,.52-.06,1,1,0,0,1,.55,0s0,.06,0,.09,0,0,.16,0,.25,0,.26,0-.25.17-.48.17-.92.25-.82.28a.77.77,0,0,0,.31-.1,1.28,1.28,0,0,1,.56-.12c.27,0,.31,0,.3.07s0,.06.13,0,.14-.08.13-.09,0,0,0-.06a0,0,0,1,1,0,.08c-.09.06,0,.09.16,0a.89.89,0,0,1,.55,0s-.18.17-.3.17-.07,0-.07.05,0,.06-.17.06a.55.55,0,0,0-.23.06s0,0,.07,0,.19,0,.1.09a.23.23,0,0,0-.08.11.22.22,0,0,1-.12.11c-.09,0-.08,0,0,.06a0,0,0,1,1,0,.08s0,0,0,0a0,0,0,0,0,0,0,.3.3,0,0,1,.15,0c.11.07.06.12-.09.1a.53.53,0,0,0-.22,0s0,0,.08,0,.19.1,0,.12l-.13,0,.12,0c.07,0,.12,0,.12.07a.1.1,0,0,0,.06.07c.09,0,0,.11-.12.11h-.14l.1.08c.09.07.09.13,0,.13a.4.4,0,0,1-.17-.09c-.15-.12-.26-.13-.25,0s0,.07.09.07.08,0,.07,0,0,0,.06,0a.16.16,0,0,1,.11,0s-.06.13-.13.11,0,0,0,0,.1.23,0,.25-.08,0-.1-.07,0-.08-.12-.08-.09,0-.07,0a.11.11,0,0,1,0,.11c-.07.05-.07.05,0,0,.4,0,.52.07.2.16a1.79,1.79,0,0,0-.26.1,1,1,0,0,1-.36,0c-.21,0-.27,0-.34.08s-.1.07-.12,0,0,0,0,0-.22.36-.35.31-.4.25-.4.34,0,.09,0,.1,0,.09,0,.17a.25.25,0,0,1-.07.21c-.16.12-.22.13-.26.08Zm-2.29,0a0,0,0,0,1,0-.07.07.07,0,0,1,.07,0,0,0,0,0,1,0,.06S105.91,9.4,105.9,9.38ZM96,9.42a.07.07,0,0,1,0-.07,0,0,0,0,1,.06,0,0,0,0,0,1,0,.06s0,0-.06,0Zm19,.24a0,0,0,0,1,0-.06,0,0,0,0,1,.06,0s0,.05,0,.06A.06.06,0,0,1,115,9.66Zm-3,0a0,0,0,0,1,0-.06.05.05,0,0,1,.07,0,0,0,0,1,1-.08,0Zm-15.62,0a0,0,0,0,1,0-.06,0,0,0,0,1,.06,0,0,0,0,0,1,0,.06.07.07,0,0,1-.07,0Zm2.6.13a.05.05,0,0,1,0-.07s0,0,.06,0a0,0,0,0,1,0,.06s-.05,0-.06,0Zm13,0a0,0,0,0,1,0-.07.07.07,0,0,1,.07,0,0,0,0,0,1,0,.06A0,0,0,0,1,112.08,9.83Zm2.55,0c0-.07,0-.14.07-.09s0,.06,0,.09S114.65,9.9,114.63,9.87Zm-17.2-.11.1-.11-.11.07c-.06,0-.11.09-.11.11S97.33,9.87,97.43,9.76Zm-.14.12a.14.14,0,0,1,0-.06c0-.05.24-.2.26-.17s-.2.27-.24.23ZM95.68,10a0,0,0,0,1,0-.06,0,0,0,0,1,.06,0,0,0,0,1,1-.08,0Zm1.53,0a0,0,0,0,1,0-.06s0,0,.06,0a0,0,0,1,1-.07.05Zm7.49,0a0,0,0,0,1,0-.06s0,0,.06,0a.06.06,0,0,1,0,.07A.07.07,0,0,1,104.7,10Zm24.76.08s0,0,0-.06a0,0,0,0,1,.06,0,0,0,0,1,1-.08,0Zm-32.34,0s0,0,0-.06a0,0,0,0,1,.06,0,0,0,0,0,1,0,.06.05.05,0,0,1-.07,0Zm2.24.05c0-.05,0-.13,0-.14s.07.13,0,.15,0,0,0,0Zm14.9,0a.05.05,0,0,1,0-.07,0,0,0,0,1,.06,0,0,0,0,0,1,0,.06A0,0,0,0,1,114.26,10.2Zm-.33,0c0-.07,0-.15.07-.09s0,.05,0,.09S114,10.23,113.93,10.2Zm-17.67,0s0-.05,0-.06a0,0,0,1,1,0,.07,0,0,0,0,1-.06,0Zm33.41,0a0,0,0,1,1,.06,0A0,0,0,0,1,129.67,10.28Zm-33.7,0c0-.05,0-.1.1-.06s0,.1,0,.1a.08.08,0,0,1-.06,0Zm3.38,0c0-.07,0-.14.07-.09a.06.06,0,0,1,0,.09S99.37,10.39,99.35,10.36Zm-3.54.08a0,0,0,0,1,0-.06,0,0,0,0,1,.06,0s0,0,0,.06a0,0,0,0,1-.06,0Zm34.35,0a0,0,0,1,1,.06,0A0,0,0,0,1,130.16,10.48Zm-25.59,0s0-.06,0,0,0,0,0,.06.07.05,0,0Zm-.06,0s0-.08,0-.11,0,0,.08,0,0,.16-.08.07Zm7.49,0c.14-.06.17-.1.19-.22s0-.15-.08-.18-.1,0-.13,0,0,.06,0,.08,0,0-.06.05-.08,0-.05.08,0,.06,0,.08-.06.18,0,.18l.18-.08Zm-.22.06a.14.14,0,0,1,0-.14.09.09,0,0,0,0-.12s0,0,0-.08.08,0,.06,0,0,0,0-.09.08-.07.19,0,.11.07.08.22a.27.27,0,0,1-.19.24c-.2.11-.22.11-.25,0Zm-12.29,0c0-.06,0-.1-.06-.09a.26.26,0,0,0,0,.15c0,.07.06.12.06.09a.37.37,0,0,0,0-.15Zm-.06.09c-.07-.17-.05-.26,0-.19s.12.25.07.3-.07,0-.11-.11Zm29,.18c0-.07,0-.14.07-.09s0,.06,0,.09S128.45,10.89,128.43,10.85Zm-15.83-.08c.19,0,.3,0,.34-.16s0-.09,0-.09-.1,0-.13-.17a.65.65,0,0,0-.25-.33s0-.06,0-.14.07-.11,0-.09-.16,0-.06-.16.08-.16-.06,0-.2.28-.13.32,0,0,0,.07.06.17.15.17.06.05.07.12a.12.12,0,0,1-.08.15s-.07,0,0,0,0,0,0,.06,0,.06,0,.06.14.09,0,.14-.16.11,0,.06l.2,0Zm-.35.09c-.06,0,0-.09.1-.15s.12-.06.05-.06-.16-.07-.1-.11a0,0,0,0,0,0-.06s0-.06.05-.07a.09.09,0,0,0,.08-.12c0-.09-.08-.11-.09,0s0,.09-.06.07,0-.05,0-.09,0-.07,0-.12-.07-.09,0-.13,0-.05,0-.07,0-.2.15-.35.27-.12.14.05-.11.17,0,.13h.11s0,0,0,.13,0,.1,0,.1a.7.7,0,0,1,.15.14.53.53,0,0,1,.14.32s0,0,.07,0,.11.06.06.18-.1.14-.4.17a.77.77,0,0,0-.25,0s0,0-.06,0Zm16.1.16a0,0,0,0,1,0-.07.07.07,0,0,1,.07,0,0,0,0,0,1,0,.06A0,0,0,0,1,128.35,11Zm-21.82,0-.12,0s0,0,0,0a.19.19,0,0,0,.12,0C106.59,11.05,106.59,11.05,106.53,11Zm-.14,0c-.07-.06-.08-.06,0-.09s.25.05.21.11-.11,0-.2,0Zm21.83.1a0,0,0,0,1,0-.06,0,0,0,0,1,.06,0,0,0,0,0,1,0,.07A.07.07,0,0,1,128.22,11.14Zm-.12.16s0,0,0-.06a0,0,0,0,1,.06,0,0,0,0,1,1-.08,0Zm-20.79-.23a.14.14,0,0,0-.14,0c-.12,0-.15,0-.07-.11s.07-.09,0,0c-.29.22-.32.38,0,.3s.22,0,.2.08,0,.07,0,0,0-.13,0-.18Zm-.1.26a.17.17,0,0,1,0-.12s0,0,0,0c-.21.08-.29.08-.34,0s0-.1.11-.24.31-.17.17,0-.07.08,0,.06.27.08.23.19,0,.07,0,.05a.06.06,0,0,1,.07,0,0,0,0,0,1,0,.06,0,0,0,0,1-.06,0s0,0-.08,0-.06.07-.09,0Zm-.16,0s0,0,0-.07a0,0,0,0,1,.06,0,0,0,0,0,1,0,.06S107.06,11.37,107.05,11.35Zm20.8.12a0,0,0,0,1,0-.06,0,0,0,1,1,0,.07A0,0,0,0,1,127.85,11.47Zm-.16.12c0-.05,0-.1.1-.06s0,.1,0,.1A.08.08,0,0,1,127.69,11.59Zm-.12.08a0,0,0,0,1,0-.06,0,0,0,0,1,.06,0,0,0,0,0,1,0,.06A0,0,0,0,1,127.57,11.67Zm0,.17a0,0,0,0,1,0-.06,0,0,0,0,1,0,.07A0,0,0,0,1,127.52,11.84ZM113.68,12c0-.07,0-.14.08-.09s0,.06,0,.09S113.7,12,113.68,12ZM127,12s0-.05.08,0a.22.22,0,0,0,.14,0,.14.14,0,0,1,.1-.07.09.09,0,0,0,.08-.06s0-.06,0,0-.11,0-.18-.09l-.12-.11v.14c0,.1,0,.14-.08.15s-.08,0-.07.09a.19.19,0,0,1,0,.09,0,0,0,0,0,0,0S127,12,127,12Zm-.12,0c0-.12,0-.19.07-.19s.06,0,.06-.12,0-.18.17-.06a.19.19,0,0,0,.15.08h.09c.06,0,0,.19-.1.19a.15.15,0,0,0-.11.06.15.15,0,0,1-.13,0s-.07,0-.06,0-.1.08-.14,0Zm-13.79.37v0s0,0,0,0l.08,0s.06,0,.07,0,0,0,0,0h0l-.08,0s-.05,0-.05,0Zm.65-.1c0-.11-.12-.1-.12,0s0,.1.06.08a.09.09,0,0,0,.06-.09Zm-.13.13c-.05,0,0-.21,0-.24s.17,0,.17.13S113.68,12.42,113.65,12.38Zm-.71.07a0,0,0,0,1,0-.06,0,0,0,0,1,.06,0s0,.05,0,.06S113,12.48,112.94,12.45Zm1.9.17a0,0,0,0,1,0-.07,0,0,0,0,1,.06,0,0,0,0,0,1-.07,0Zm.61.12a0,0,0,0,1,0-.06,0,0,0,0,1,.06,0,0,0,0,0,1,0,.07A.07.07,0,0,1,115.45,12.74Zm-1.48,0a0,0,0,0,1,0-.06,0,0,0,0,1,.06,0,.05.05,0,0,1,0,.07S114,12.76,114,12.74Zm1.28,0s0,0,0-.06a.06.06,0,0,1,.07,0,.06.06,0,0,1,0,.07A0,0,0,0,1,115.25,12.78Zm.93.09a.08.08,0,0,0-.08,0s0,0,.06,0S116.21,12.89,116.18,12.87Zm-.11,0a0,0,0,0,1,0-.06c.06,0,.18,0,.15.06s-.14.06-.17,0Zm-1.89,0a0,0,0,0,1,0-.07.07.07,0,0,1,.07,0,0,0,0,0,1,0,.06S114.19,12.93,114.18,12.91Zm1.18,0s-.07,0-.08,0,0,0,0,0S115.39,12.93,115.36,12.91Zm-.11,0s0,0,0-.07.17,0,.14.06a.1.1,0,0,1-.16,0ZM114,13a.06.06,0,0,1,0-.07,0,0,0,0,1,.06,0s0,0,0,.06A.06.06,0,0,1,114,13Zm11.54.24a0,0,0,0,1,0-.06,0,0,0,1,1,0,.08A0,0,0,0,1,125.55,13.19Zm-19.36.08a0,0,0,0,1,0-.06,0,0,0,0,1,.06,0,0,0,0,0,1,0,.06A0,0,0,0,1,106.19,13.27Zm19.52.05a.06.06,0,0,1,0-.07,0,0,0,0,1,.06,0s0,.05,0,.06A.06.06,0,0,1,125.71,13.32Zm-14.66,0a0,0,0,0,1,0-.07.07.07,0,0,1,.07,0,0,0,0,0,1,0,.06S111.06,13.34,111.05,13.32Zm15.28-.21s0-.06-.21,0-.07,0,0-.06.24-.07.31,0,.06.08.1,0,.08-.08.21-.07h.16l0-.23a.89.89,0,0,1,.09-.28c.06-.07,0-.27-.06-.28s-.07,0-.07.11a.46.46,0,0,1-.05.21c0,.07,0,.07-.11,0s-.07,0,0,0,0,.07,0,.13-.08.06-.1,0-.05,0-.08,0a.28.28,0,0,1-.23.13c-.2,0-.32.14-.25.21s.24.08.27,0Zm-.27.2c0-.14,0-.27-.1-.23a.12.12,0,0,1-.11,0s0,0,0,.08a.34.34,0,0,1,.06.22c0,.14.06.1.11,0Zm-.15.11a.2.2,0,0,1,0-.11s0-.09,0-.16-.08-.2,0-.12S126,13,126,13a.49.49,0,0,1,.27-.13c.14,0,.19,0,.22-.12s0-.09.09-.06.07,0,.11,0,0-.07,0-.09a0,0,0,0,1,0-.06s0,0,.08,0,.09,0,.11-.24.1-.14.19-.07a.28.28,0,0,1,0,.29.86.86,0,0,0-.09.28L127,13h-.17a.29.29,0,0,0-.23.08c-.07.08-.07.08-.12,0a.13.13,0,0,0-.13-.08c-.09,0-.09,0,0,0s.09.05,0,.1a.14.14,0,0,1-.13,0s-.09,0-.13.14-.14.2-.18.1Zm-15,.39a.07.07,0,0,1,0-.07,0,0,0,0,1,.06,0,0,0,0,0,1,0,.06A0,0,0,0,1,111,13.81Zm14.88,0a0,0,0,1,1,.06,0A0,0,0,0,1,125.84,13.85Zm-14.5,0a0,0,0,1,1,.06,0A0,0,0,0,1,111.34,13.85Zm-.21,0s0-.05,0-.06a0,0,0,1,1,0,.07A0,0,0,0,1,111.13,13.89ZM111,14a0,0,0,0,1,0-.06s0,0,.06,0a0,0,0,0,1,0,.07A.07.07,0,0,1,111,14Zm-6.13,0a0,0,0,0,1,0-.06s0,0,.06,0a0,0,0,1,1-.07.05Zm.16,0a0,0,0,0,1,0-.06s0,0,.06,0,0,0,0,.07A0,0,0,0,1,105,14Zm20.74,0s0,0,0,0a.08.08,0,0,0,0,.07s0,0,0,0A.08.08,0,0,0,125.73,14Zm-.1.09c0-.06.06-.18.12-.12s0,.06,0,.11-.07.05-.09,0Zm-7.37.05a0,0,0,1,1,.07-.05,0,0,0,0,1,0,.06S118.27,14.16,118.26,14.14Zm-13.23,0a.07.07,0,0,1,0-.07,0,0,0,0,1,.06,0s0,0,0,.06A0,0,0,0,1,105,14.18Zm-.2,0a0,0,0,0,1,0-.07.07.07,0,0,1,.07,0,0,0,0,0,1,0,.06A0,0,0,0,1,104.83,14.18Zm20.59.08a0,0,0,0,1,0-.06,0,0,0,0,1,.06,0s0,0,0,.06A0,0,0,0,1,125.42,14.26Zm-.16,0s0-.05,0-.06a0,0,0,0,1,.07,0,.07.07,0,0,1,0,.07A0,0,0,0,1,125.26,14.3Zm-20.14,0a0,0,0,0,1,.07-.05,0,0,0,0,1,0,.07A0,0,0,0,1,105.12,14.3Zm-.21,0s0-.05,0-.06a0,0,0,0,1,.07,0,.07.07,0,0,1,0,.07A0,0,0,0,1,104.91,14.3Zm.24.16a0,0,0,0,0-.06,0s0,0-.06,0a0,0,0,0,1,.08,0,.07.07,0,0,0,.07,0,0,0,0,0,1,0,0,0,0,0,0,1,0,.06A.07.07,0,0,1,105.15,14.46Zm.17.09a.05.05,0,0,1,0-.07,0,0,0,0,1,.06,0,0,0,0,0,1,0,.06S105.33,14.57,105.32,14.55ZM125,14.39c0-.15,0-.17,0-.13a.3.3,0,0,0,0,.3s0,0,.06-.17Zm-.08.19a.27.27,0,0,1,0-.34c.1-.09.13-.05.1.15S125,14.64,125,14.58Zm-19.47,0a0,0,0,0,1,0-.07,0,0,0,0,1,.06,0,0,0,0,1,1-.07.05Zm-8.78,0a.07.07,0,0,1,0-.07,0,0,0,0,1,.06,0,0,0,0,0,1,0,.06s0,0-.06,0Zm.12.08c0-.05,0-.1.11-.07a.07.07,0,0,1,0,.11.13.13,0,0,1-.07,0Zm8.57,0a0,0,0,0,1,0-.06,0,0,0,0,1,.06,0,.06.06,0,0,1,0,.07A.07.07,0,0,1,105.4,14.71Zm-.17.09a2,2,0,0,0-.71-.34.39.39,0,0,0-.17,0s0,0,.06,0,.59.17.57.25.2.07.25,0Zm-.27,0v-.06a1.6,1.6,0,0,0-.49-.24s0,0,0,.06,0,.07,0,.09-.06,0,0,0,0,0-.09-.06-.1,0,0-.1.28-.07.63.11.33.18.29.22-.28.08-.29,0Zm-7.78,0a0,0,0,1,0-.08,0,0,0,0,0,0,.08,0A0,0,0,0,0,97.18,14.87Zm-.1,0s0-.06,0-.07,0-.05,0-.07,0-.06,0-.08.06,0,.07,0,0,0,0,0,0,0,0,.05a.11.11,0,0,1,0,.11c0,.06-.1.06-.13,0Zm26.83,0c0-.07-.1-.06-.13,0s0,.07,0,.06a.13.13,0,0,0,.09-.07Zm-.17.09s.05-.18.12-.18a.08.08,0,0,1,.06.14C123.86,15,123.78,15,123.74,15ZM106,15s0-.1.1-.07,0,.11,0,.11A.08.08,0,0,1,106,15Zm-.18,0s0,0,0,0-.06-.05-.12-.07-.34,0-.31,0,0,.05-.06.06.15.09.3,0a.27.27,0,0,1,.15,0Zm-.36.07c-.18,0-.21-.06-.14-.11s.08-.06.09-.09.51,0,.47.12a.07.07,0,0,1-.06,0,.35.35,0,0,0-.16,0,.71.71,0,0,1-.2,0Zm-.5,0a.11.11,0,0,0-.08,0s0,0,0,0,.06,0,0,0Zm-.11,0s0-.05,0-.07.17,0,.14.07a.1.1,0,0,1-.16,0Zm1.36,0a0,0,0,0,1,0-.06,0,0,0,0,1,.07,0,.07.07,0,0,1,0,.07A0,0,0,0,1,106.23,15.12Zm.16,0a0,0,0,0,1,0-.06s0,0,.06,0a.06.06,0,0,1,0,.07A.06.06,0,0,1,106.39,15.16Zm-2.22,0a0,0,0,0,1,0-.06,0,0,0,1,1,0,.08A0,0,0,0,1,104.17,15.16Zm2.39,0a0,0,0,0,1,0-.06,0,0,0,1,1,.05.08A0,0,0,0,1,106.56,15.2Zm3.66.08s0,0,0-.06a0,0,0,0,1,.06,0s0,0,0,.06S110.24,15.31,110.22,15.28Zm.25.05s0-.05,0-.07a0,0,0,1,1,0,.08S110.48,15.35,110.47,15.33Zm-3.91,0a0,0,0,0,1,0-.07.07.07,0,0,1,.07,0,0,0,0,0,1,0,.06A0,0,0,0,1,106.56,15.37Zm20.92,0a0,0,0,0,1,0-.06,0,0,0,0,1,.06,0s0,.05,0,.06A0,0,0,0,1,127.48,15.41Zm2.19,0a0,0,0,1,1,.06,0A0,0,0,0,1,129.67,15.45Zm-19.2,0a0,0,0,0,1,0-.06,0,0,0,0,1,.06,0,0,0,0,0,1,0,.06A0,0,0,0,1,110.47,15.49Zm-.16,0a0,0,0,1,1,.06,0A0,0,0,0,1,110.31,15.49Zm15,0a0,0,0,0,1,0-.06s0,0,.06,0a.05.05,0,0,1,0,.07A0,0,0,0,1,125.34,15.53Zm2,0s0-.05,0-.06a.06.06,0,0,1,.07,0,.06.06,0,0,1,0,.07A0,0,0,0,1,127.36,15.57Zm-20.8.08s0-.05,0-.06,0,0,0-.06a0,0,0,0,1,0-.06.06.06,0,0,1,.07,0,.07.07,0,0,1,0,.07,0,0,0,0,0,0,.06,0,0,0,0,1,0,.06A0,0,0,0,1,106.56,15.65Zm.2,0a.06.06,0,0,1,0-.07,0,0,0,0,1,.06,0s0,0,0,.06A.06.06,0,0,1,106.76,15.7Zm18.21,0c0-.07,0-.15.07-.09s0,0,0,.09S125,15.77,125,15.74Zm-2.88,0a0,0,0,1,1,.07-.05,0,0,0,0,1,0,.06S122.1,15.76,122.09,15.74Zm-16.23,0a0,0,0,1,1,.07-.05,0,0,0,0,1,0,.06S105.87,15.76,105.86,15.74Zm12.31,0a.07.07,0,0,1,0-.07,0,0,0,0,1,.06,0s0,0,0,.06A0,0,0,0,1,118.17,15.78Zm-12.15,0a.05.05,0,0,1,0-.07,0,0,0,0,1,.06,0,0,0,0,0,1,0,.06A0,0,0,0,1,106,15.78Zm18.83,0a0,0,0,1,1,.06,0A0,0,0,0,1,124.85,15.82Zm-18.33,0a0,0,0,1,1,.06,0A0,0,0,0,1,106.52,15.82Zm18.57.08a0,0,0,0,1,0-.06,0,0,0,0,1,.06,0,0,0,0,0,1,0,.07A.07.07,0,0,1,125.09,15.9Zm-3,0a0,0,0,0,1,.07-.05,0,0,0,0,1,0,.07A0,0,0,0,1,122.09,15.9Zm-15.45,0s0,0,0-.06a.06.06,0,0,1,.07,0,.07.07,0,0,1,0,.07A0,0,0,0,1,106.64,15.94Zm18.82.08a0,0,0,0,1,0-.06,0,0,0,0,1,.06,0,0,0,0,0,1,0,.06A.07.07,0,0,1,125.46,16Zm-.13-.26s0,0,0,0,.06,0-.13-.21-.24-.24-.15-.32.08-.22,0-.23-.11,0-.13.2,0,.3.16.33.25.24.2.3,0,0,0,0a.05.05,0,0,0,0-.08Zm0,.28s0-.11,0-.15a.21.21,0,0,1,0-.06c0-.15-.09-.22-.17-.24s-.24-.16-.2-.4,0-.22.16-.21.13,0,.14.09a.22.22,0,0,1-.06.17c-.08.09-.07.12.21.38s.16.21.06.22h-.07s0,0,0,.07,0,.07,0,.11-.05,0-.06,0Zm-2.11,0s0,0,0-.06a.06.06,0,0,1,.07,0,0,0,0,0,1,0,.06A0,0,0,0,1,123.2,16.06Zm6.8.13a0,0,0,0,1,0-.07,0,0,0,0,1,.06,0,0,0,0,1,1-.07.05Zm-1.73,0a0,0,0,0,1,0-.07,0,0,0,0,1,.06,0,0,0,0,1,1-.07.05Zm-3.51-.13c0-.07,0-.12,0-.12a.42.42,0,0,0-.13.23S124.71,16.17,124.76,16.06Zm-.12.13c0-.05.09-.29.14-.29s.08,0,0,.16-.13.18-.16.13Zm3.34.08a0,0,0,0,1,0-.06,0,0,0,0,1,.07,0,0,0,0,0,1,0,.06A0,0,0,0,1,128,16.27Zm-7.87,0s0-.05,0-.06a0,0,0,1,1,0,.07A0,0,0,0,1,120.11,16.27Zm8,0a0,0,0,0,1,0-.06,0,0,0,0,1,.06,0,0,0,0,1,1-.08,0Zm-8,.12s0-.05,0-.06,0,0,.07,0a0,0,0,0,1,0,.06A0,0,0,0,1,120.11,16.43Zm7.58,0a0,0,0,0,1,0-.06.06.06,0,0,1,.07,0,0,0,0,0,1,0,.06A0,0,0,0,1,127.69,16.47Zm-.7,0a0,0,0,0,1,0-.06.06.06,0,0,1,.07,0,0,0,0,0,1,0,.06A0,0,0,0,1,127,16.47Zm-4.78,0s0,0,0-.06a0,0,0,1,1,0,.08A0,0,0,0,1,122.21,16.47Zm-1.23,0s0-.07,0-.17-.13-.15-.15,0,0,.25.14.18Zm-.14,0c-.1-.09,0-.36.08-.36s.06.07.1.15.06.16,0,.21-.11.07-.17,0Zm5.53-.06s0,0,0,.05,0,.06,0,0,0-.07,0-.08Zm-.05.1a.16.16,0,0,1,0-.12s0,0,.07,0a.11.11,0,0,1,0,.11S126.34,16.55,126.32,16.5Zm-.79-.24c0-.13,0-.14-.18-.06s-.11.05-.12,0-.12.09-.12.15,0,0,.06,0a.08.08,0,0,1,.15.06c0,.08.09.1.16,0a.21.21,0,0,0,0-.17Zm-.18.25a.15.15,0,0,1-.07-.1c0-.07,0-.08-.11,0s-.11,0,0-.14.05-.11,0-.14,0-.05,0-.05h.06a0,0,0,0,1,0,.05c0,.05,0,.05.22,0s.1,0,.13.11-.11.32-.22.26Zm2.17,0a.07.07,0,0,1,0-.07,0,0,0,0,1,.06,0,0,0,0,0,1,0,.06A0,0,0,0,1,127.52,16.56Zm-2.59,0a0,0,0,1,1,.08,0,0,0,0,0,1,0,.06A0,0,0,0,1,124.93,16.56Zm-4.78,0a0,0,0,0,1,0-.06,0,0,0,0,1,.06,0,0,0,0,0,1,0,.06A0,0,0,0,1,120.15,16.6Zm9.06,0a0,0,0,0,1,0-.06,0,0,0,0,1,.06,0s0,.05,0,.06A0,0,0,0,1,129.21,16.64Zm-9.1.12s0-.05,0-.06a.06.06,0,0,1,.07,0,.06.06,0,0,1,0,.07A0,0,0,0,1,120.11,16.76Zm3.54,0a0,0,0,0,1,0-.06,0,0,0,0,1,.06,0,0,0,0,0,1,0,.06A.06.06,0,0,1,123.65,16.8Zm-10.09,0s0-.05,0-.06.05,0,.07,0a0,0,0,0,1,0,.06A0,0,0,0,1,113.56,16.84Zm12.15.09a.06.06,0,0,1,0-.07,0,0,0,0,1,.06,0,0,0,0,0,1,0,.06S125.72,17,125.71,16.93Zm-3.29,0a0,0,0,1,1,.07-.05,0,0,0,0,1,0,.06S122.43,17,122.42,16.93Zm-8.94.08a0,0,0,0,1,0-.06,0,0,0,0,1,.07,0,0,0,0,0,1,0,.06,0,0,0,0,1-.06,0Zm-9.89.08a0,0,0,0,1,0-.06,0,0,0,0,1,.06,0,.05.05,0,0,1,0,.07A0,0,0,0,1,103.59,17.09Zm26.49,0a0,0,0,0,1,0-.06.06.06,0,0,1,.07,0,.07.07,0,0,1,0,.07A0,0,0,0,1,130.08,17.13Zm-7.5,0a0,0,0,0,1,0-.06s.05,0,.06,0a.05.05,0,0,1,0,.07A0,0,0,0,1,122.58,17.13Zm-9.23,0a0,0,0,0,1,0-.06s0,0,.06,0a.06.06,0,0,1,0,.07A.07.07,0,0,1,113.35,17.17Zm12.53.08a0,0,0,0,1,0-.06,0,0,0,0,1,.06,0,0,0,0,0,1,0,.06A0,0,0,0,1,125.88,17.25Zm3.66.05a.06.06,0,0,1,0-.07,0,0,0,0,1,.06,0s0,.05,0,.06A.06.06,0,0,1,129.54,17.3Zm-25.95,0s0-.05,0-.07a0,0,0,0,1,.06,0,0,0,0,0,1,0,.06S103.6,17.32,103.59,17.3Zm.17,0a0,0,0,0,1,0-.07,0,0,0,0,1,.06,0,0,0,0,0,1,0,.06S103.77,17.36,103.76,17.34Zm-.33,0c-.05-.07,0-.15.07-.09s0,.05,0,.09S103.45,17.37,103.43,17.34Zm26.73,0a.05.05,0,0,1,0-.07,0,0,0,0,1,.06,0,0,0,0,0,1,0,.06A0,0,0,0,1,130.16,17.38Zm-2.27,0a0,0,0,0,1,0-.06,0,0,0,0,1,0,.07A0,0,0,0,1,127.89,17.42Zm-.78,0a0,0,0,0,1,0-.06,0,0,0,0,1,.06,0s0,.05,0,.06A0,0,0,0,1,127.11,17.42Zm-.66,0a0,0,0,0,1,0-.06,0,0,0,0,1,.06,0s0,.05,0,.06A0,0,0,0,1,126.45,17.42Zm-3.7,0a0,0,0,1,1,.06,0A0,0,0,0,1,122.75,17.42Zm4.82,0a0,0,0,1,1,.06,0A0,0,0,0,1,127.57,17.46Zm-1.69,0c0-.07,0-.14.07-.09a.06.06,0,0,1,0,.09S125.9,17.49,125.88,17.46Zm-.13-.29c0-.08,0-.11,0-.11s-.06,0,0,.14S125.71,17.33,125.75,17.17Zm-.07.31v-.05a.16.16,0,0,0,0-.08.62.62,0,0,1,0-.18c0-.1,0-.14.08-.15s.13.08.06.23-.05.13,0,.16,0,.05,0,.06,0,0,0,0Zm-2,0a0,0,0,0,1,0-.06,0,0,0,0,1,.06,0s0,.05,0,.06A0,0,0,0,1,123.69,17.46Zm-10.42,0a0,0,0,0,1,0-.06,0,0,0,0,1,.06,0,0,0,0,0,1,0,.06A0,0,0,0,1,113.27,17.46Zm17,0a0,0,0,0,1,0-.06,0,0,0,0,1,.06,0,0,0,0,0,1,0,.07A.07.07,0,0,1,130.28,17.5Zm-4.77,0a0,0,0,1,1,.07-.05,0,0,0,0,1,0,.07A0,0,0,0,1,125.51,17.5Zm-.17,0a0,0,0,0,1,0-.06,0,0,0,0,1,.06,0,.05.05,0,0,1,0,.07A0,0,0,0,1,125.34,17.5Zm5.11,0s0-.05,0-.06a.06.06,0,0,1,.07,0,.06.06,0,0,1,0,.07A0,0,0,0,1,130.45,17.54Zm-6.84,0a0,0,0,0,1,0-.06s.05,0,.06,0,0,0,0,.07A0,0,0,0,1,123.61,17.58Zm2.27,0a.24.24,0,0,0-.12,0s0,0,.07,0S125.92,17.6,125.88,17.59Zm-.17,0s0-.05,0-.07.21,0,.21.05-.22.08-.25,0Zm-.2,0s0,0,0-.06a0,0,0,0,1,.06,0,0,0,0,0,1,0,.06A0,0,0,0,1,125.51,17.66Zm-2.62-.09s0,0,0,0,0,.06,0,.05,0,0,0-.07Zm0,.06c0-.11,0-.16.08-.07s0,.08,0,.11-.06,0-.09,0Zm5.38,0c-.08-.07-.08-.07,0,0s.06.08.07.07,0-.05-.05-.09Zm0,.06c-.09-.13,0-.18.08-.07s.06.1,0,.13S128.23,17.72,128.19,17.65Zm-3.68,0s0,0,0-.1,0-.14,0-.15a.55.55,0,0,0,.11-.17c0-.08.08-.14.1-.14s0,0,0-.06,0-.08,0-.1,0-.05-.07-.06-.09,0,0-.14l.11-.11-.1-.09-.11-.09-.22.22a1.14,1.14,0,0,1-.29.22s-.07,0-.08.08a.14.14,0,0,1-.12.09c-.08,0-.09,0-.08.14a.71.71,0,0,0,.12.28c.1.15.13.17.26.17s.17,0,.18,0a.06.06,0,0,0,.08,0s.06,0,.08,0Zm-.16.06a.2.2,0,0,0-.16,0,.23.23,0,0,1-.22-.07c-.27-.31-.31-.61-.09-.61,0,0,.08,0,.08-.06s.05-.08.11-.1a1.67,1.67,0,0,0,.31-.25l.19-.2.13.11.13.12-.1.11c-.09.1-.1.11,0,.12a.08.08,0,0,1,.05.09.1.1,0,0,0,0,.09s0,0,0,.1a.34.34,0,0,0-.08.14.2.2,0,0,1-.06.11s-.06.1-.06.15,0,.12,0,.12l-.08.06a.06.06,0,0,1-.08,0Zm-6,0a0,0,0,1,1,.08-.05,0,0,0,0,1,0,.06S118.39,17.77,118.38,17.75Zm-1.52.08a0,0,0,1,1,.06,0A0,0,0,0,1,116.86,17.83Zm10.83,0s0-.05,0-.06a0,0,0,1,1,0,.07A0,0,0,0,1,127.69,17.87Zm-1.52,0a0,0,0,1,1,.06,0A0,0,0,0,1,126.17,17.87Zm-2.75-.13a.53.53,0,0,1,0-.15c0-.06,0-.15,0-.11s-.29-.19-.26-.23-.08-.13-.2-.25a1.78,1.78,0,0,1-.24-.27s-.08-.07-.15-.09l-.14,0,.17.21a.76.76,0,0,1,.16.28.32.32,0,0,0,.11.16.37.37,0,0,1,.1.16c0,.08.34.46.39.44a.19.19,0,0,0,.06-.11Zm-.3,0a.94.94,0,0,1-.19-.28.37.37,0,0,0-.1-.16.32.32,0,0,1-.11-.16.76.76,0,0,0-.16-.28.72.72,0,0,1-.14-.23.43.43,0,0,1,.35.15A1.73,1.73,0,0,0,123,17a1,1,0,0,1,.19.23c0,.05.17.22.21.2s.06,0,.09,0,0,.07,0,.11a.29.29,0,0,0-.05.13c0,.08-.06.19-.12.19a2,2,0,0,1-.22-.22Zm5.27.22s0-.05,0-.06a0,0,0,0,1,.07,0,.07.07,0,0,1,0,.07A0,0,0,0,1,128.39,17.91Zm-.4,0a.23.23,0,0,0,.11-.11c0-.07,0-.07,0,0s-.1.07-.13.07,0,0,0,0S127.9,17.92,128,17.87Zm-.14,0a.09.09,0,0,1,.07-.13.19.19,0,0,0,.12-.06c.12-.11.14,0,0,.13s-.17.12-.21.06Zm-1.52,0s0-.05,0-.06a0,0,0,0,1,.07,0,.07.07,0,0,1,0,.07A0,0,0,0,1,126.33,17.91Zm-1,0s0-.05,0-.06a0,0,0,0,1,.07,0,.07.07,0,0,1,0,.07A0,0,0,0,1,125.3,17.91Zm-7.13,0a0,0,0,0,1,0-.06s0,0,.06,0a.06.06,0,0,1,0,.07A.07.07,0,0,1,118.17,18Zm10.38,0a0,0,0,0,1,0-.06,0,0,0,0,1,.06,0s0,0,0,.06A.07.07,0,0,1,128.55,18Zm-3.63-.16c0-.32.08-.39.15-.08s.1.18.11,0a.27.27,0,0,0-.1-.21c-.12-.11-.09-.2.06-.17s.1,0,.1,0-.07,0-.16,0-.15,0-.17,0,.11-.17.24-.15a.3.3,0,0,0,.19,0c.06,0,0,0-.16,0a.78.78,0,0,0-.27,0,.87.87,0,0,0-.08.54.11.11,0,0,1,0,.09s.05.21.09.21a.82.82,0,0,0,0-.16Zm-.07.1c0-.06-.06-.13,0-.15a.11.11,0,0,0,0-.09.72.72,0,0,1,.13-.58.79.79,0,0,1,.5,0c0,.05-.15.13-.26.11s-.21,0-.21.07.06,0,.15,0,.16,0,.16.06,0,.06-.12.05-.14,0,0,.14a.26.26,0,0,1,.05.34c-.05.07-.15,0-.15-.13a.25.25,0,0,0,0-.15c0-.05,0,0,0,.15s0,.31-.11.16Zm-8,.06a0,0,0,0,1,0-.06,0,0,0,0,1,.06,0s0,0,0,.06A.07.07,0,0,1,116.81,18Zm13.68,0a0,0,0,0,1,0-.06s0,0,.06,0a0,0,0,0,1,0,.06A0,0,0,0,1,130.49,18Zm-6.06,0a0,0,0,0,1,0-.06,0,0,0,0,1,.06,0,0,0,0,0,1,0,.06A.05.05,0,0,1,124.43,18Zm-.2,0c0-.05,0-.09.1-.06s0,.1,0,.1A.08.08,0,0,1,124.23,18Zm4.49,0s.05-.09.1-.06,0,.1,0,.1A.06.06,0,0,1,128.72,18.07Zm-3.67,0a.06.06,0,0,1,0-.07,0,0,0,0,1,.06,0s0,0,0,.06A.06.06,0,0,1,125.05,18.08Zm.58,0a.06.06,0,0,1,0-.07.06.06,0,0,1,.07,0,0,0,0,0,1,0,.06S125.64,18.14,125.63,18.12Zm5.07,0a0,0,0,0,1,0-.07,0,0,0,0,1,.06,0,0,0,0,0,1-.07.05Zm-2.1,0a0,0,0,0,1,0-.07,0,0,0,0,1,.06,0,0,0,0,0,1-.07.05Zm-2.64,0c0-.05.05-.1.1-.07s0,.1,0,.1A.07.07,0,0,1,126,18.16Zm-.17,0a0,0,0,0,1,0-.06,0,0,0,1,1,0,.07A0,0,0,0,1,125.79,18.2Zm-8.93,0a0,0,0,1,1,.06,0A0,0,0,0,1,116.86,18.2Zm12.17,0a0,0,0,0,0-.05,0s0,0,0,0,0,0,0,0S129,18.22,129,18.19Zm-.08,0s0-.07,0-.09.15.05.09.11S129,18.26,129,18.22Zm-3.73,0a0,0,0,0,1,0-.06,0,0,0,0,1,.07,0,0,0,0,0,1,0,.06A0,0,0,0,1,125.22,18.24Zm-.83,0a0,0,0,0,1,0-.06,0,0,0,0,1,0,.07A0,0,0,0,1,124.39,18.24Zm-.1,0c0-.06-.27-.21-.36-.19a.52.52,0,0,1-.26,0c-.13-.05-.19-.05-.21,0s.11.14.32.17a1.34,1.34,0,0,1,.42.09s.09,0,.09,0Zm-.09.06-.14,0-.27,0a1.2,1.2,0,0,1-.27-.08c-.12-.05-.13-.08-.1-.14s.06-.07.18,0l.3,0c.25,0,.53.24.36.29Zm.8,0a.11.11,0,0,0-.08,0s0,0,0,0S125,18.26,125,18.25Zm-.11,0s0-.05,0-.07.17,0,.14.07a.1.1,0,0,1-.16,0Zm-.34,0a0,0,0,0,1,0,0c.05,0,.15,0,.17,0s-.16.06-.19,0Zm4.29.05a0,0,0,0,1,0-.06s0,0,.06,0a0,0,0,1,1-.08.05Zm-4,.08a0,0,0,0,1,0-.06,0,0,0,0,1,.06,0,0,0,0,0,1,0,.06A0,0,0,0,1,124.81,18.4Zm4.24,0s0-.05,0-.06a.07.07,0,0,1,.07,0,0,0,0,0,1,0,.06A0,0,0,0,1,129.05,18.44Zm-1.22-.12a.54.54,0,0,1-.15-.22c0-.05,0-.1,0-.12a2.5,2.5,0,0,0-.73-.43l-.27-.1-.1.09c-.09.09-.1.09-.18,0s-.07-.1-.06-.13,0-.07-.2-.12-.11.05.05.11.1,0,0,.09a.08.08,0,0,0,0,.11s0,0,.06,0,.42.14.51.26.06.11,0,.19-.06.08,0,.06a.36.36,0,0,1,.22.06c.17.09.32.1.3,0s0-.07.11-.09.12,0,.19,0a.24.24,0,0,1,.09.13s.06.07.13.1.22,0,.07-.08Zm-.07.12a.3.3,0,0,1-.18-.14.32.32,0,0,0-.08-.13c-.07,0-.25,0-.24.08s-.15.08-.32,0a.32.32,0,0,0-.19-.06c-.08.05-.12,0,0-.11s0-.21-.22-.34-.22-.09-.25-.06,0,0-.08,0,0-.1,0-.13.07,0,0,0-.21-.14-.18-.18a.5.5,0,0,1,.34.07.08.08,0,0,1,0,.09.11.11,0,0,0,0,.1s.08,0,.16,0l.09-.09.24.09c.44.15.81.41.82.58s.23.33.3.27a.05.05,0,0,1,.08,0s0,0-.06.06a.11.11,0,0,0-.07,0s0,0-.21,0Zm-2.21-.18s0-.05,0-.07-.3.17-.3.22S125.42,18.36,125.55,18.26Zm-.3.17c0-.07.28-.32.35-.27s0,.12-.18.24-.15.06-.17,0Zm-.2,0a0,0,0,0,1,.08,0s0,.05,0,.06S125.07,18.47,125.05,18.44Zm3.09.09a.07.07,0,0,1,0-.07,0,0,0,0,1,.06,0s0,.05,0,.06A.06.06,0,0,1,128.14,18.53Zm.74,0a.07.07,0,0,1,0-.07,0,0,0,0,1,.06,0s0,.05,0,.06A0,0,0,0,1,128.88,18.57Zm-11.78.08a0,0,0,0,1,0-.06,0,0,0,0,1,.06,0s0,0,0,.06A0,0,0,0,1,117.1,18.65Zm.13.08a0,0,0,0,1,0-.06s.05,0,.06,0a0,0,0,0,1,0,.07A0,0,0,0,1,117.23,18.73Zm9.35.12s0,0,0-.06a0,0,0,0,1,.06,0,0,0,0,0,1,0,.06A0,0,0,0,1,126.58,18.85Zm-9.23,0a0,0,0,0,1,0-.06.06.06,0,0,1,.07,0,0,0,0,0,1,0,.06A0,0,0,0,1,117.35,18.85Zm14.46.08a.07.07,0,0,0-.07,0,0,0,0,0,1-.06,0,.06.06,0,0,1,0-.07.07.07,0,0,1,.07,0,0,0,0,0,0,.06,0s0,0,.06,0a0,0,0,0,1,0,.06A0,0,0,0,1,131.81,18.93Zm-2.31.13a0,0,0,0,1,0-.06,0,0,0,0,1,.06,0,0,0,0,0,1,0,.06A0,0,0,0,1,129.5,19.06Zm-11.24.12a0,0,0,0,1,0-.06s0,0,.06,0a0,0,0,1,1-.07.05Zm12.52,0s0,0,0-.06.05,0,.07,0a0,0,0,0,1,0,.06A0,0,0,0,1,130.78,19.22Zm-1.24,0a0,0,0,0,1,0-.06,0,0,0,0,1,.06,0s0,.05,0,.06S129.56,19.25,129.54,19.22Zm.13.09a0,0,0,1,1,.07,0,0,0,0,0,1,0,.06S129.68,19.33,129.67,19.31Zm1,0a0,0,0,0,1,0-.07,0,0,0,0,1,.06,0,0,0,0,0,1-.07.05Zm-33,0a.05.05,0,0,1,0-.07,0,0,0,0,1,.06,0,0,0,0,0,1,0,.06,0,0,0,0,1-.06,0Zm.12.08a0,0,0,0,1,0-.06,0,0,0,0,1,0,.07A0,0,0,0,1,97.82,19.43Zm33.58.2a0,0,0,0,1,0-.06,0,0,0,0,1,.06,0,0,0,0,0,1,0,.06A0,0,0,0,1,131.4,19.63Zm-12.86.09a.07.07,0,0,1,0-.07,0,0,0,0,1,.06,0,0,0,0,0,1,0,.06A.06.06,0,0,1,118.54,19.72ZM99,19.72a0,0,0,0,1,0-.07.07.07,0,0,1,.07,0,0,0,0,0,1,0,.06S99,19.74,99,19.72Zm32.29,0a.07.07,0,0,1,0-.07,0,0,0,0,1,.06,0s0,.05,0,.06A0,0,0,0,1,131.27,19.76Zm-12.89,0a0,0,0,1,1,.08-.05,0,0,0,0,1,0,.06A0,0,0,0,1,118.38,19.76Zm11.12,0a.33.33,0,0,0-.12-.06s0,0,0,.06a.24.24,0,0,0,.13.06S129.55,19.77,129.5,19.73Zm-.1,0c-.06-.05-.08-.08-.05-.11s.27.08.23.14-.07.05-.18,0Zm-30.83,0a0,0,0,1,1,.06,0A0,0,0,0,1,98.57,19.8Zm.65.16a0,0,0,0,1,0-.06s.05,0,.06,0a0,0,0,0,1,0,.07A.07.07,0,0,1,99.22,20Zm.58.17a.05.05,0,0,1,0-.07,0,0,0,0,1,.06,0,0,0,0,0,1,0,.06S99.81,20.15,99.8,20.13Zm.37.08a0,0,0,0,1,0-.06,0,0,0,0,1,.06,0s0,.05,0,.06A0,0,0,0,1,100.17,20.21Zm17.37,0a2.67,2.67,0,0,0,.18-.66,3.64,3.64,0,0,1,.1-.4.63.63,0,0,0,0-.43s0,0,0,.05a.47.47,0,0,1-.28.33.34.34,0,0,0-.19.41.29.29,0,0,1,0,.24c-.07.11-.06.21,0,.44s.06.11.15.09a.26.26,0,0,0,.14-.07Zm-.31,0a.5.5,0,0,1,0-.49.36.36,0,0,0,0-.26.37.37,0,0,1,.22-.42.45.45,0,0,0,.26-.34c0-.06,0-.06.09,0a.63.63,0,0,1,.06.45,3.64,3.64,0,0,0-.1.4c-.14.68-.17.73-.36.77s-.12,0-.17-.08Zm-15,.15a0,0,0,0,1,0-.06s.05,0,.06,0,0,.05,0,.07A0,0,0,0,1,102.19,20.37Zm-.49.08s0,0,0-.06a0,0,0,0,1,.06,0,0,0,0,0,1,0,.06A0,0,0,0,1,101.7,20.45Zm3,.91a.07.07,0,0,1,0-.07,0,0,0,0,1,.06,0,0,0,0,0,1,0,.06A0,0,0,0,1,104.74,21.36ZM127.28,7.12a.12.12,0,0,0-.09,0A.11.11,0,0,1,127.1,7c0-.09-.07-.07-.08,0s0,.11.14.11.13,0,.12,0Zm-3.5,0s.07,0,.11,0,.08,0,0,0a.08.08,0,0,1,0-.09s0,0,0,0a.31.31,0,0,1-.12.07.27.27,0,0,0-.12.06c-.08.06-.07.06.05,0a.45.45,0,0,0,.16,0Zm-3.71,1.2s0,0,0,0a.1.1,0,0,1-.09,0s-.06,0-.11,0-.09,0,0,.05.19.08.23,0Zm9.26.77c0-.06,0-.12,0-.12s-.06.05-.08.11-.06.1-.1.1-.07,0-.08,0,0,0,.08,0a.24.24,0,0,0,.16-.14Zm-2,2.24a.09.09,0,0,0,0-.08.34.34,0,0,1,0-.28.07.07,0,0,1,.08,0c.06.05.08,0,0-.07a1.29,1.29,0,0,1-.1-.61c0-.1,0-.15,0-.15s0,0,0,0a.38.38,0,0,1,0,.17.23.23,0,0,0,0,.25,1.29,1.29,0,0,1,.05.45c0,.26,0,.31,0,.31s.07,0,.07-.05Zm-11.56.78a.12.12,0,0,1,.11-.06.56.56,0,0,0,.2-.06.38.38,0,0,1,.42,0c.16.08.42.1.49,0s0-.15-.21-.32-.2-.17-.16-.22.08-.19,0-.16l-.16.05c-.12,0-.13.08,0,.11s.06,0,0,.09-.1.08-.23,0-.09-.08-.06-.11-.07-.12-.19,0-.31.46-.25.53,0,.07,0,.1a.15.15,0,0,0,0,.08c0,.06.07,0,.1,0Zm-1.38.47c0-.06,0-.08-.12-.08s-.16.05,0,.12S114.36,12.71,114.36,12.61Zm1.72-3.25c.06,0,.07,0,0-.11a.15.15,0,0,0-.21-.06s0,.07,0,.12.06.08.08.06a.11.11,0,0,1,.1,0Zm-.21,0c0-.09-.05-.14,0-.17s.18-.05.25.06,0,.2,0,.17a.1.1,0,0,0-.09,0s-.06,0-.11-.08Zm3,2.36c.06,0,.07-.23,0-.23s-.17.15-.15.22.07.08.13,0Zm-.16,0c0-.08,0-.11.06-.19s.12-.09.15-.08,0,.21,0,.29-.12.08-.18,0Zm-.54,1c.07,0,.08,0,0-.18s0-.16,0-.16l0-.05c-.09,0-.06-.12.06-.12s.07,0,0-.08-.06-.07-.1,0-.06.07-.08,0a.12.12,0,0,1,0-.1s0-.07-.08-.12-.09-.12,0-.17,0,0,0,0,0,0,0-.06a.13.13,0,0,1,.11,0s.06,0,.06-.07,0-.1-.11-.1a.54.54,0,0,0-.4.22,1,1,0,0,0,.2.56s0,0,0,.2-.06.19,0,.27.18.1.34.06Zm-.36,0c-.1-.1-.1-.11,0-.28s0-.19,0-.2a.69.69,0,0,1-.14-.26c-.07-.18-.08-.26,0-.33a.63.63,0,0,1,.46-.24c.08,0,.1,0,.1.13s0,.12-.08.12-.08,0-.08,0,0,.06,0,.08,0,.08.06.15a.29.29,0,0,1,.08.18c0,.08,0,.08,0,0s.06-.08.12,0,.06.15-.06.15-.08,0,0,.06.07.06.06.07a.36.36,0,0,0,0,.16c0,.16,0,.17-.07.21a.31.31,0,0,1-.38-.07Zm-2.63,8.73a.7.7,0,0,0,.57-.28,1.18,1.18,0,0,0,.31-.62.27.27,0,0,1,.15-.27c.13-.08.14-.11.13-.27a1,1,0,0,0,0-.25c0-.06,0-.1.08-.2a1,1,0,0,1,.25-.19.5.5,0,0,0,.23-.27s0-.05,0-.07a1.29,1.29,0,0,0-.06-.56.39.39,0,0,1-.06-.2.48.48,0,0,0,0-.18c-.07-.14.26-.7.53-.89a1.6,1.6,0,0,0,.26-.26,3,3,0,0,0,.42-.85.21.21,0,0,1,.09-.15c.1,0,0,0-.39.06s-.28.06-.39,0-.1-.1-.09-.12,0,0,0-.06a1,1,0,0,1-.15-.19,1.35,1.35,0,0,0-.18-.24.29.29,0,0,1-.08-.14.15.15,0,0,0-.08-.1c-.07,0-.09-.09-.09-.24a.67.67,0,0,0-.05-.28.58.58,0,0,1-.08-.18,1.72,1.72,0,0,0-.17-.32,1.11,1.11,0,0,1-.15-.28c0-.1.08-.11.12,0s0,.08.06,0,0-.07.11,0a1.09,1.09,0,0,1,.21.46s0,.08.06.08.14.12.14.27.07.25.24.43a.4.4,0,0,1,.11.27c0,.34.09.43.26.34l.38-.18.44-.23c.15-.08.44-.33.4-.33s0,0,0-.08.08-.08.07-.1,0-.06.05-.1.06-.09-.1-.19a.4.4,0,0,1-.19-.21l0-.1-.06.09c-.07.09-.32.21-.38.18a.09.09,0,0,1,0-.08.17.17,0,0,0-.07-.11.17.17,0,0,1-.06-.11.87.87,0,0,0-.12-.25c-.12-.17-.12-.19-.06-.24a.19.19,0,0,1,.28.11.49.49,0,0,0,.47.27c.12,0,.14,0,.16.05s.16.14.57.15.33,0,.41.12a.49.49,0,0,0,.2.13c.14,0,.18.09.09.13s0,0,0,.08.15.07.18,0,.11,0,.11.18a1.1,1.1,0,0,0,0,.28l.07.25a.6.6,0,0,0,.09.22s0,.06,0,.1a1.49,1.49,0,0,0,.15.34l.14.28.06-.1a1.05,1.05,0,0,0,.15-.59c0-.18,0-.22.09-.26a3.3,3.3,0,0,0,.62-.62c0-.05.07-.08.16-.08a.39.39,0,0,0,.2-.06c.07-.06.08-.06.16.07a2.49,2.49,0,0,0,.17.24.3.3,0,0,1,.07.27c0,.15,0,.18.06.18a.28.28,0,0,0,.15-.08c.1-.1.11-.09.15.18a1,1,0,0,0,.07.26.77.77,0,0,1,0,.31c0,.22,0,.29.06.37a.46.46,0,0,1,.08.16c0,.19.27.59.35.52a.81.81,0,0,0,0-.24.5.5,0,0,0-.15-.3.46.46,0,0,1-.14-.19.35.35,0,0,0-.09-.15c-.06,0-.06-.07,0-.25s.07-.2.18-.19.22,0,.22.12a.17.17,0,0,0,.08.13.18.18,0,0,1,.08.16c0,.1,0,.1.21-.08l.21-.17,0-.24a.68.68,0,0,0-.13-.4l-.18-.25c0-.07,0-.09.09-.23s.16-.14.23-.08.08.06.1,0a.11.11,0,0,1,.1-.07.17.17,0,0,0,.12,0,.53.53,0,0,1,.21-.06.55.55,0,0,0,.36-.22.73.73,0,0,0,.18-.24.49.49,0,0,1,.11-.19c.12-.16.13-.21,0-.25s-.07,0,0-.09.07-.06,0-.06-.13-.08,0-.1.08,0,0-.21-.12-.18-.06-.28a.55.55,0,0,1,.2-.17l.14-.06-.19,0c-.19,0-.37-.06-.37-.16s.38-.35.44-.3,0,.06,0,.14,0,.11,0,.12,0,0,.07-.06a.2.2,0,0,1,.29,0c.07,0,.08.06,0,.12s0,.09.06.14.09.09.09.22,0,.17.09.12.18-.09.08-.36l-.11-.26.1-.1.24-.27c.12-.13.16-.15.21-.11s.16,0,.34-.19a1.7,1.7,0,0,0,.48-1.13c0-.14-.11-.27-.19-.21s-.21,0-.21,0-.05-.05-.1-.07-.09,0,0-.12.22-.21.4-.37c.33-.27.5-.35.6-.26a.56.56,0,0,0,.38,0s.08,0,.14,0,.42.08.37,0,.32-.38.48-.39.21.05.14.1a.09.09,0,0,0-.05.09c0,.05,0,.05.1,0a.34.34,0,0,1,.14-.09.06.06,0,0,0,0-.06c0-.07.11-.16.16-.13s-.09.29-.17.3a1.13,1.13,0,0,0-.28.24,1.27,1.27,0,0,1-.26.22s-.08.06-.12.12a1,1,0,0,0,0,.68l0,.17.09-.14c.06-.07.13-.13.16-.13s0,0,0,0,.1-.26.17-.23.06,0,0,0,0-.24.1-.2,0,0,0,0a.13.13,0,0,0,0-.07,0,0,0,0,1,0-.06s0-.06,0-.09.1-.33.18-.3a.13.13,0,0,0,.11,0s.07-.06.1,0l.16,0a.18.18,0,0,1,.18,0c.06.06.08.06.19,0s.58-.31.66-.26.09,0,.11,0-.07-.3-.14-.3-.16-.11-.11-.14.08,0,.14,0,.23,0,.23-.1.08-.17.11-.07,0,.11.14.05.09,0,.14,0a.21.21,0,0,0,.13.08.18.18,0,0,1,.1.06c.06.07.14.09.1,0s.09-.2.17-.2a.16.16,0,0,0,.09-.05s0-.06-.12-.12-.23-.09-.25,0-.11.07-.11,0-.54-.45-1-.48a2.3,2.3,0,0,1-.41-.07c-.07,0-.07,0,0,.09s0,.19-.19.09a.88.88,0,0,0-.42-.07c-.35,0-.48,0-.48-.13s-.09-.14-.46-.11-.32,0-.34,0a.07.07,0,0,0-.08,0c-.06,0-.13,0-.13-.13s-.14-.06-.28,0-.23.07-.13,0,0-.07-.17-.07l-.3,0s-.06,0-.06.11,0,.13-.09.13l-.12,0s-.07,0-.13,0a.16.16,0,0,0-.19,0,.14.14,0,0,1-.15,0c-.07,0-.08,0-.1,0s-.14.13-.35,0-.23-.24-.09-.24.08,0,0-.08-.1-.07-.26-.07a.4.4,0,0,0-.25.06c-.06.07-.5,0-.49,0s-.36-.07-.43,0-.06,0-.1,0a.42.42,0,0,1,0-.12c0-.06,0-.07-.19,0s-.13,0,0,0,.31.12.22.12a.09.09,0,0,1-.08,0A.18.18,0,0,0,124,7c-.1,0-.11,0,0,.06s.08.06,0,.09l-.15.05c-.08,0-.3,0-.3,0s.06-.07.13-.11l.21-.13a.26.26,0,0,1,.15-.07c.12,0,.29-.11.23-.14s0-.05,0-.1.05-.06,0,0a.15.15,0,0,1-.13,0c-.06,0-.11,0-.26,0a.37.37,0,0,1-.26,0l-.16-.06c-.08,0-.08,0,0-.08s.07-.06,0-.08-.13,0-.21.08-.08.12,0,.16,0,.11-.11.08a.38.38,0,0,0-.24.05c-.11,0-.17.06-.22,0a.41.41,0,0,0-.29,0,2.06,2.06,0,0,1-.36.06.71.71,0,0,0-.39.13s0,0,.07.09,0,.17,0,.13a1.12,1.12,0,0,0-.31,0c-.26,0-.27,0-.27.08s0,.1.06.1a.31.31,0,0,1,.24.27c0,.09,0,.12-.07.12s-.08,0-.08-.11,0-.12-.17-.18-.2,0-.24,0-.07,0-.1,0,0,0,0,0,0,.08.11.11.06.18-.1.09a.28.28,0,0,1-.17-.2c0-.07,0-.1,0-.06a.15.15,0,0,1-.07.11.12.12,0,0,0,0,.12.71.71,0,0,1,.06.26s0,0,.11,0,.3.15.3.25a.14.14,0,0,0,.07.1s.06,0,0,.07-.22,0-.22-.12a.17.17,0,0,0-.15-.17s-.08.07-.12.15a.6.6,0,0,1-.19.25c-.12.09-.13.09-.26,0s-.14-.09-.12-.11a.15.15,0,0,1,.2,0c.13.21.27-.51.15-.73a.18.18,0,0,1,0-.16c.05-.11,0-.17-.17-.17s-.11,0-.14.12a.36.36,0,0,1-.14.18c-.09.06-.09.08-.05.16a.64.64,0,0,0,.13.15.15.15,0,0,1,.07.11c0,.1-.12.11-.22,0a.65.65,0,0,0-.31-.12c-.2,0-.22,0-.31.09s-.12.1-.17.08-.06,0,0-.09,0,0-.06,0l-.26.13c-.13,0-.15,0-.16,0s0-.08-.14,0a.68.68,0,0,1-.21.06.56.56,0,0,0-.23.12c-.16.14-.23.15-.3.06s0-.06,0-.09.08,0-.06-.1-.17-.07-.1.13,0,.27-.12.21-.31.1-.28.16a.07.07,0,0,1,0,.08s-.09,0-.19,0-.17,0,0,0,.06.06,0,.1-.29-.06-.33-.2a.42.42,0,0,0-.11-.18c-.08-.06-.08-.07,0-.09a.28.28,0,0,1,.19,0c.22.12.59.06.59-.09a1.33,1.33,0,0,0-.6-.33.14.14,0,0,1-.1-.07s-.1,0-.25,0-.32,0-.16-.11.1,0,0,0a.19.19,0,0,1-.14,0,.08.08,0,0,0-.07,0s0,0,0,0,0,0,0,0a.07.07,0,0,0-.11,0s0,0-.07,0,0,0,0,0,0,0,0,0-.06,0-.11,0a.12.12,0,0,1-.1,0s0,0,0,0-.1.13-.21.09-.1,0,0,0,0,.06,0,0a.08.08,0,0,0-.09,0s0,0,0,0,0,0-.06,0a.16.16,0,0,1-.12,0c-.12,0-.17,0-.12.06s0,.17-.1.17a.07.07,0,0,0-.08.08c0,.05,0,.08,0,.06s-.07,0-.12.08-.12.07-.14.06,0,0,0,0,0,.08,0,.09c-.2.06-.21.07-.15.1a.21.21,0,0,1,.06.15c0,.12-.1.2-.19.14s-.12-.05-.11,0,0,.07-.07.1-.24.2-.17.35a.56.56,0,0,1,0,.19c0,.1,0,.12.1.13a.33.33,0,0,0,.24-.09l.12-.11.06.12a2.49,2.49,0,0,1,.11.27c.08.24.08.24.19.17a.47.47,0,0,1,.19-.06c.07,0,.08,0,.06-.09s0-.28.12-.28.05,0,0,0a.07.07,0,0,1,0-.07s0-.06,0-.12-.08-.11-.05-.24.1-.22.33-.34c0,0,0-.06,0-.11s.25-.31.37-.17,0,.09-.21.35S115,9,115,9.16s.08.26.28.19a.58.58,0,0,1,.5,0c.12.09,0,.13-.49.15-.08,0-.1.15,0,.19a.15.15,0,0,1,0,.21s-.07,0-.1-.05-.19,0-.16.15,0,.12-.1.2-.14.08-.19,0-.1,0-.27.06-.21.1-.23,0,0-.07-.14,0a.16.16,0,0,1-.21,0s-.07-.1,0-.14,0-.21,0-.2-.08.09,0,.34,0,.13-.12.13a.44.44,0,0,0-.21.07s-.09.06-.1,0,0,0,0,.06a.18.18,0,0,1-.17.18.15.15,0,0,0-.12.08c0,.09-.27.22-.32.19s-.05,0-.06.06-.05.08-.13,0-.14.06,0,.11a.51.51,0,0,1,.23.41c0,.13-.11.25-.22.22a2.12,2.12,0,0,0-.54,0s0,.09,0,.22a.78.78,0,0,1,0,.28.2.2,0,0,0,.14.29.19.19,0,0,1,.13.07c0,.06.06.07.14,0a.68.68,0,0,1,.2-.07.3.3,0,0,0,.27-.23v-.13s.08-.07.17-.12.17-.11.17-.18.09-.2.23-.17a.33.33,0,0,0,.2,0,.18.18,0,0,1,.29.05,1.19,1.19,0,0,0,.42.37.26.26,0,0,1,.19.27c0,.06,0,.07,0,0s0-.07,0-.14,0-.18.08-.12.06,0,.06,0-.09-.08-.19-.13a.64.64,0,0,1-.27-.24,1.83,1.83,0,0,0-.13-.22c0-.06,0-.08,0-.14s.07-.06.1,0,0,.06.06.05.06,0,.09.08a1.47,1.47,0,0,0,.25.23.47.47,0,0,1,.22.26c0,.14.22.39.29.39s0,0,0,0a0,0,0,0,0-.07,0s0,0,0,0,0,0,.09,0,0,.12,0,.12a.06.06,0,0,0-.06.06c0,.08,0,.08.15,0s.12-.13,0-.22-.08-.2,0-.15,0,0,.06,0,.07-.05.18,0,.17,0,.21-.07,0-.09,0-.12.13-.45.29-.56.14-.08.2,0,.08.06.05.1,0,.07,0,.11.23,0,.12-.06-.06-.07,0-.1a.74.74,0,0,1,.35-.11s0,.12,0,.2,0,.08.16.21.27.25.19.35-.32.08-.53,0a.35.35,0,0,0-.4,0,.52.52,0,0,1-.19.06.11.11,0,0,0-.11.07s0,.06-.08.05-.15,0-.13.14a.3.3,0,0,0,0,.14.43.43,0,0,1,0,.05.18.18,0,0,0,.1.11l.1,0a.15.15,0,0,0,.12,0s.09,0,.18,0a.31.31,0,0,0,.25,0c.15-.06.16,0,.06.37s-.19.47-.35.39a.22.22,0,0,0-.22,0c-.09,0-.17,0-.42-.07-.46-.17-.45-.17-.58.1,0,.11-.15.09-.41-.08a1,1,0,0,0-.34-.17.28.28,0,0,1-.15-.08c-.07-.07-.08-.1,0-.17s0-.27-.07-.3a1.14,1.14,0,0,0-.29,0,1.11,1.11,0,0,1-.29,0,1.32,1.32,0,0,0-.4.1c-.37.13-.5.15-.54.08s-.08,0-.13.08a.47.47,0,0,1-.17.2.25.25,0,0,0-.13.31.51.51,0,0,1-.21.34.88.88,0,0,0-.24.28.82.82,0,0,1-.18.24c-.07,0-.09.14-.08.53a1.28,1.28,0,0,1,0,.5c0,.13,0,.15,0,.21a.29.29,0,0,1,.08.11.62.62,0,0,0,.15.22.51.51,0,0,1,.13.24c0,.1.13.29.32.41a.35.35,0,0,0,.37.07.86.86,0,0,1,.3,0,.64.64,0,0,0,.33-.06,1.8,1.8,0,0,1,.32-.08.35.35,0,0,1,.27.2s.05,0,.14,0,.26,0,.24.32,0,.5.08.62A.61.61,0,0,1,114,18s0,.07.06.11a.29.29,0,0,1,.07.18.82.82,0,0,0,0,.21.39.39,0,0,1,0,.25,1.44,1.44,0,0,0-.11.35.42.42,0,0,0,0,.38,1.52,1.52,0,0,1,.16.55,2.11,2.11,0,0,0,.27.8c.17.34.19.4.1.44s.14.23.24.2a2.59,2.59,0,0,1,.36-.06Zm-.58,0c-.12-.11-.13-.13-.07-.15s.09-.08-.09-.43a2.11,2.11,0,0,1-.27-.8,1.52,1.52,0,0,0-.16-.55.46.46,0,0,1,0-.38,2,2,0,0,1,.12-.35.47.47,0,0,0,0-.25.82.82,0,0,1,0-.21.29.29,0,0,0-.07-.18A.24.24,0,0,1,114,18c0-.06-.07-.23-.17-.33s-.12-.21-.09-.62,0-.33-.19-.28-.14,0-.18,0c-.14-.21-.2-.22-.55-.09a.73.73,0,0,1-.33,0,.86.86,0,0,0-.3,0,.34.34,0,0,1-.37-.07c-.22-.14-.4-.37-.37-.45a.46.46,0,0,0-.12-.24.55.55,0,0,1-.15-.22.29.29,0,0,0-.08-.11c-.07-.06-.08-.08,0-.21a1.28,1.28,0,0,0,0-.5c0-.4,0-.49.1-.56a.92.92,0,0,0,.17-.25.77.77,0,0,1,.24-.26.38.38,0,0,0,.19-.32.27.27,0,0,1,.13-.32.43.43,0,0,0,.19-.21c.06-.14.11-.18.16-.1s.17.05.54-.08a1.32,1.32,0,0,1,.4-.1,1.2,1.2,0,0,0,.3,0,.61.61,0,0,1,.3,0,.28.28,0,0,1,.09.33c0,.09,0,.21.16.21a1.1,1.1,0,0,1,.33.17c.27.17.39.19.41.05a.24.24,0,0,1,.09-.16c.07-.07.09-.07.27,0,.39.16.54.19.65.14a.21.21,0,0,1,.2,0,.18.18,0,0,0,.17,0,1.41,1.41,0,0,0,.21-.6c0-.13,0-.13-.08-.09a.3.3,0,0,1-.25,0q-.13,0-.18,0a.12.12,0,0,1-.12,0c-.09,0-.11,0-.12,0s0,.08-.06.06,0,0,0-.08,0-.07,0-.1-.06-.07,0-.09-.05-.09-.12-.1h0s0,0,0-.05,0,0,.08,0,.06,0,0-.08,0-.12-.12-.12-.12,0-.13.06a.05.05,0,0,1-.07,0s0,0,0,0,0,.06.09.09a.15.15,0,0,1,.08.11s0,.05,0,0,.1.06.05.12-.06,0-.07,0,0-.06-.15,0-.22.07-.19-.05a.35.35,0,0,0-.09-.21.56.56,0,0,1-.14-.26.45.45,0,0,0-.18-.22,1,1,0,0,1-.24-.22c-.06-.06-.1-.1-.1-.08s0,0-.06,0-.12,0,0,.2a.87.87,0,0,1,.11.19.61.61,0,0,0,.18.12c.2.1.25.14.21.21s0,0-.09,0-.06,0,0,.06,0,.25-.11.21,0,0,0,.06-.06.14-.21.07-.13-.17,0-.17.16,0,.17,0,0-.22-.09-.22h-.07a1.46,1.46,0,0,1-.39-.37c-.08-.13-.16-.14-.29-.07a.57.57,0,0,1-.24,0c-.13,0-.14,0-.16.12s-.15.23-.31.29a.26.26,0,0,0,0,.13.4.4,0,0,1-.31.29.68.68,0,0,0-.2.07c-.08,0-.11,0-.15,0a.19.19,0,0,0-.14-.07c-.12,0-.23-.23-.17-.34a.61.61,0,0,0,0-.29c0-.15,0-.21.05-.23a1.32,1.32,0,0,1,.56,0c.25.06.22-.44,0-.57s-.13-.17,0-.16.12,0,.13-.07,0-.07.07-.06.24-.06.31-.16a.23.23,0,0,1,.15-.11.15.15,0,0,0,.12-.12c0-.05,0-.1.06-.09l.12-.06a.24.24,0,0,1,.19-.06h.11l0-.19c0-.16,0-.2,0-.25s.22,0,.14.2.08.17.22.12.13,0,.16,0,0,.08.09,0,.33-.16.4-.11.26-.08.24-.21A.18.18,0,0,1,115,9.8c.08-.07.09-.07.14,0l.08.08s0-.16,0-.19a.13.13,0,0,1,0-.21,1.07,1.07,0,0,1,.24,0c.31,0,.33,0,.29-.06a.64.64,0,0,0-.49,0c-.15,0-.18,0-.24,0a.56.56,0,0,1-.08-.23c0-.15,0-.18.18-.37s.23-.29.08-.31a.17.17,0,0,0-.21.17c0,.09-.15.23-.29.28s-.08.09-.09.18a.26.26,0,0,0,0,.25c.06.06.07.1,0,.11a.07.07,0,0,0,0,.07s0,.05-.06.07-.09,0-.1.26,0,.1-.11.11a.67.67,0,0,0-.18.07.11.11,0,0,1-.19-.07L114,9.72l-.09-.23-.12.11c-.21.17-.42.12-.38-.1a.46.46,0,0,0,0-.17c-.07-.16,0-.31.2-.38,0,0,.07,0,0-.07s0-.09.14-.05a.12.12,0,0,0,.11,0,.17.17,0,0,0,0-.23c-.08,0,0-.15.11-.15a.07.07,0,0,0,.07-.07s0-.07,0-.06.11-.07.18-.16.16-.15.19-.14.06,0,.06,0V8s0,0,0,0a.07.07,0,0,1,0,0s.09-.07.22-.07a.27.27,0,0,0,.12,0l.1,0s0-.09,0-.1-.09,0-.07,0,0,0,.09,0,.06,0,.06,0l.09,0a.22.22,0,0,0,.16,0s0,0,0-.05h-.08l-.06,0s0,0,0,0a.06.06,0,0,1,.08,0,.16.16,0,0,0,.2,0s.08,0,.09,0,.07,0,.12,0,.12,0,.13,0a.17.17,0,0,0,.12,0c.14,0,.17.07.06.12s0,0,.11,0,.23,0,.27,0a.12.12,0,0,0,.1.06,1.7,1.7,0,0,1,.35.15c.33.16.37.26.17.37a.62.62,0,0,1-.5,0c-.15-.09-.25-.08-.14,0a.34.34,0,0,1,.11.18.26.26,0,0,0,.14.15c.13.06.18,0,.08-.05s0-.16.1-.09.23,0,.18,0,0-.08.11-.14.15-.09.21-.06.13,0,.07-.19,0-.24.17-.14.19.16.06.16,0,0,0,0,.14,0,.28-.08a.46.46,0,0,1,.23-.12.55.55,0,0,0,.22-.07c.11-.06.12-.06.14,0s0,.07.15,0a.88.88,0,0,0,.24-.11c.12-.08.19-.06.11,0s0,.06,0,.06.1-.05.14-.11.08-.1.3-.08a.61.61,0,0,1,.31.11.34.34,0,0,0,.14.08c.07,0,.06-.12,0-.15s-.09-.08-.12-.14-.06-.13,0-.19a.62.62,0,0,0,.15-.2.23.23,0,0,1,.35-.09c.06,0,.07.08,0,.16a.18.18,0,0,0,0,.16,1.26,1.26,0,0,1,0,.64c-.06.12-.06.14,0,.11a.41.41,0,0,0,.12-.18c0-.09.09-.18.13-.19s.22.1.22.2,0,.07,0,.07,0-.17-.07-.25a.27.27,0,0,0-.18-.08c-.11,0-.23-.12-.17-.17s0-.06,0-.11,0-.11,0-.16l.09-.14c0-.1.09-.06.12.08a.21.21,0,0,0,.13.17c.16.07.18.06,0,0s-.11-.11-.09-.14,0,0,.08,0,.07,0,.08,0,0,0,0-.07-.06,0,0-.07.06,0,.09,0,0,0,0,0,.07,0,.19.1.23.1.22.19,0,.11.05.11,0,0,0-.06a.5.5,0,0,1,0-.12s-.07-.09-.15-.12-.14-.08-.13-.17,0-.11.15-.1.14,0,.09-.05,0-.07,0-.07.09,0,.08,0,.07.06.16.08.25,0,.16,0,0-.28.34-.28a2.06,2.06,0,0,0,.36-.06c.15,0,.24-.05.29,0s.11,0,.22,0a.42.42,0,0,1,.26,0c.09,0,.1,0,.06,0s0-.09.06-.19.12-.12.21-.1.19.06.11.12-.07.06,0,.06a.21.21,0,0,1,.12,0s.11,0,.24,0,.21,0,.27,0a.11.11,0,0,0,.11,0c.07,0,.11.06.06.09s0,.05,0,.09,0,.06,0,.08,0,0,0,.07l0,.07s0,.06,0,.1.06.06.08,0a.73.73,0,0,1,.45,0c.06,0,.06,0,0,.06s0,0,.17,0,.24,0,.26-.06.09,0,.25,0,.24,0,.29.09,0,.14-.07.14,0,0,.11.16.26.21.31.07,0-.1.12-.06a.14.14,0,0,0,.16,0,.15.15,0,0,1,.19,0c.07,0,.12,0,.13,0a.1.1,0,0,1,.11,0c.07,0,.08,0,.07-.08a.17.17,0,0,1,0-.15.25.25,0,0,0,0-.17c0-.14.05-.2.12-.11a.38.38,0,0,0,.12.09c.12.07.09.13-.08.15l-.16,0h.38a.37.37,0,0,1,.16,0s0,0,0,.09-.05.07.14,0,.25,0,.25.09,0,0,.08.06a.14.14,0,0,1,.11,0s.11.05.34,0,.48,0,.48.14.1.11.46.1a.84.84,0,0,1,.4.07c.18.1.18.1.16-.06s0-.13,0-.11l.42,0c.51,0,1.06.33,1.07.54s0,.09,0,0,.06-.12.3,0,.21.15,0,.25a.19.19,0,0,0-.11.13c0,.1-.07.13-.14,0a.15.15,0,0,0-.1-.07.21.21,0,0,1-.13-.08c0-.06-.09-.07-.14,0s-.12.05-.16,0,0-.09,0,0-.13.21-.28.15a.24.24,0,0,0-.13,0s0,0,.08.06a.42.42,0,0,1,.18.17c0,.12,0,.15,0,.2s-.07,0-.13,0a1.14,1.14,0,0,0-.66.26c-.11.09-.13.09-.19,0a.18.18,0,0,0-.18,0l-.15,0s-.07,0-.1,0a.24.24,0,0,1-.13,0,.1.1,0,0,0-.08.06s0,0,0,0,.06,0,.07,0a0,0,0,0,1,0,.07.06.06,0,0,1-.07,0s0,0-.06,0a.09.09,0,0,0,0,.11s0,.07,0,.08,0,.05,0,.08,0,.15-.05.12-.05,0-.06.16,0,.08-.07.07-.18.13-.14.2,0,0,0,.07a.55.55,0,0,0-.19.15l-.11.13-.05-.13a1.35,1.35,0,0,1-.07-.37.49.49,0,0,1,.07-.4c.05-.08.11-.15.14-.15a1.45,1.45,0,0,0,.4-.38s0,0-.06,0-.07,0-.09,0a.15.15,0,0,1,0-.13c.05-.06,0-.06-.09,0s-.52.29-.44.33-.24.12-.41,0-.11,0-.14,0a.57.57,0,0,1-.38,0c-.1-.1-.27,0-.58.24s-.46.41-.34.44.07,0,.06.06.13.05.21,0,.22.08.22.18,0,0,.06,0a.37.37,0,0,0,0-.17,0,0,0,0,1,0-.05c.05,0,.06,0,.05.15a1.65,1.65,0,0,0,.13.64c.06.08,0,.15-.08.09s-.06,0-.06.07a.34.34,0,0,0,0,.17.09.09,0,0,1-.07.16c-.07,0-.08-.06-.08-.36s-.07-.6-.12-.4,0,.17,0,.25a1.66,1.66,0,0,1-.41.7c-.2.24-.3.3-.38.23s-.09,0-.21.13l-.23.25c-.06.07-.06.09,0,.32s.1.34-.1.39-.16,0-.16-.14,0-.18-.09-.23-.08-.08,0-.14-.19-.18-.28,0-.07.08-.1.05,0-.08,0-.15.06-.11,0-.12-.38.22-.38.27.15.15.31.13.28,0,.09.12-.26.2-.11.42.12.19,0,.21-.09,0,0,.06.1,0,0,.1,0,.06,0,.06.1.12,0,.26a.84.84,0,0,0-.11.2,1,1,0,0,1-.19.26c-.17.18-.23.22-.38.24a.54.54,0,0,0-.22.06.17.17,0,0,1-.11,0,.13.13,0,0,0-.1.07c0,.06,0,.06-.11,0s-.08-.07-.2.05-.13.14-.08.21l.18.25a.74.74,0,0,1,.14.39l0,.23-.23.2c-.12.11-.23.19-.25.18s0-.07,0-.12a.15.15,0,0,0-.08-.14.16.16,0,0,1-.08-.13.07.07,0,0,0-.08-.08l-.14,0s-.07,0-.11.17,0,.2,0,.23a.31.31,0,0,1,.09.14.41.41,0,0,0,.13.2c.12.1.24.5.18.57s-.41-.31-.41-.54a.46.46,0,0,0-.08-.16c-.07-.08-.08-.15-.06-.38a.74.74,0,0,0,0-.31s-.06-.12-.07-.24,0-.22-.11-.14a.22.22,0,0,1-.17.06c-.08,0-.09,0-.08-.2s0-.21-.06-.27a.57.57,0,0,1-.15-.21c-.07-.13-.08-.13-.15-.07a.32.32,0,0,1-.2.06c-.08,0-.13,0-.13.06a3.09,3.09,0,0,1-.66.64s0,.09,0,.22a1,1,0,0,1-.18.63l-.09.1-.15-.3a1.44,1.44,0,0,1-.16-.37s0-.08,0-.09a.6.6,0,0,1-.09-.22L120.1,15a1.75,1.75,0,0,1,0-.29c0-.18,0-.21,0-.14s-.12.12-.22,0-.07-.08,0-.12.06,0,0-.07a.33.33,0,0,1-.21-.13c-.07-.1-.11-.11-.42-.12s-.58-.06-.58-.16,0-.06-.14,0-.17,0-.31-.1a.68.68,0,0,1-.19-.21.16.16,0,0,0-.22-.08s0,.08.08.21a.66.66,0,0,1,.12.25.15.15,0,0,0,.07.11.2.2,0,0,1,.06.12s0,.05.06,0l.11,0a.57.57,0,0,0,.16-.13l.12-.12.06.14c0,.08.08.15.1.15a.76.76,0,0,1,.15.08c.1.09.1.1,0,.17s-.06.09,0,.11,0,.06-.06.09-.08.06-.07.07-.27.29-.44.38a4.07,4.07,0,0,1-.44.23l-.38.18q-.27.15-.3-.36A.42.42,0,0,0,117,15a.67.67,0,0,1-.24-.44c0-.14,0-.2-.13-.23a.15.15,0,0,1-.08-.11,1,1,0,0,0-.16-.4c0-.08-.06-.09-.11,0s0,.06-.09,0,0-.07-.05,0a1,1,0,0,0,.15.29,1.72,1.72,0,0,1,.17.32.58.58,0,0,0,.08.18.63.63,0,0,1,.06.27c0,.14,0,.2.06.22a.32.32,0,0,1,.11.15.22.22,0,0,0,.07.12.5.5,0,0,1,.15.18,1.19,1.19,0,0,0,.16.23s0,.07,0,.08,0,.06.08.1.17.05.71-.08c.11,0,.17.06.07.1A.17.17,0,0,0,118,16a2.78,2.78,0,0,1-.39.81,2,2,0,0,1-.28.3c-.28.2-.6.73-.53.87a.48.48,0,0,1,0,.18.39.39,0,0,0,.06.2,1.29,1.29,0,0,1,.06.56s0,0,0,.07a.59.59,0,0,1-.27.31c-.24.15-.34.27-.29.35s0,.14.06.23,0,.18-.1.28a.73.73,0,0,1-.16.11s0,.08,0,.17a1.1,1.1,0,0,1-.35.65.67.67,0,0,1-.57.29,2.59,2.59,0,0,0-.36.06c-.06,0-.12,0-.22-.1Zm11.93.24a0,0,0,0,1,0-.06,0,0,0,0,1,.06,0,0,0,0,0,1,0,.06A0,0,0,0,1,126.54,21.6Zm1.09.31a.21.21,0,0,1,.17-.09c.06,0,.09,0,.09-.08a2.69,2.69,0,0,1,.19-.53,2.53,2.53,0,0,0,.13-1A.53.53,0,0,1,128,20a.37.37,0,0,0-.1-.15c0-.06-.09-.12-.08-.14s0,0-.06-.06-.25-.31-.25-.5a.33.33,0,0,0-.08-.24.48.48,0,0,1-.11-.2.6.6,0,0,0,0-.16c0-.06-.12.21-.13.36s-.14.47-.19.47l-.25-.16c-.21-.16-.22-.18-.2-.3a.57.57,0,0,1,.07-.17c0-.05,0-.16,0-.13a0,0,0,0,1-.07,0,.11.11,0,0,0-.09,0,.52.52,0,0,1-.17,0c-.07,0-.09,0-.07,0s0,.07-.08.11-.09.08-.08.1,0,.05,0,.08,0,.07,0,.11,0,.06,0,.07a.42.42,0,0,1-.34-.06c0-.08-.13-.09-.13,0a.14.14,0,0,1-.1.11s-.09.07-.08.1a.11.11,0,0,1,0,.11s0,0-.08,0-.06-.07-.06,0a.56.56,0,0,0,0,.13.67.67,0,0,1-.31.26,2,2,0,0,0-.46.23.21.21,0,0,0-.07.35.15.15,0,0,1,0,.15c0,.07,0,.07-.09,0s-.06-.06-.06,0a.49.49,0,0,0,.09.18,1.74,1.74,0,0,1,.19.8c0,.08,0,.11.1.16s.13.05.27,0a.66.66,0,0,1,.29-.11.34.34,0,0,0,.24-.1.36.36,0,0,1,.22-.1.68.68,0,0,0,.23-.05.6.6,0,0,1,.6.24.45.45,0,0,0,.08.14s.06-.07.1-.15.08-.14.12-.11,0,.08,0,.15-.06.17,0,.11.07,0,.09,0a.06.06,0,0,1,0,.07s0,.07.07.14a.47.47,0,0,1,.11.18c0,.09.25.14.33.07s.08,0,.15,0,.09.11.18,0Zm-.18.06c-.07-.08-.09-.08-.15,0s-.32,0-.39-.15a.51.51,0,0,0-.12-.18.11.11,0,0,1,0-.13c0-.05,0-.06,0,0s-.13,0-.08-.11a.34.34,0,0,0,.05-.14s0,0-.09.1-.1.16-.12.16-.07-.07-.1-.14-.11-.16-.29-.21-.24-.06-.3,0a.46.46,0,0,1-.21,0,.34.34,0,0,0-.22.1.3.3,0,0,1-.24.1.61.61,0,0,0-.3.11c-.15.1-.15.1-.29,0s-.13-.1-.12-.2a1.78,1.78,0,0,0-.19-.8.25.25,0,0,1-.07-.19c0-.07,0-.07.09,0s.06.06.06,0a.17.17,0,0,0-.06-.11.24.24,0,0,1-.07-.17c0-.09,0-.14.16-.21a2.44,2.44,0,0,1,.48-.24c.07,0,.28-.17.26-.22a.29.29,0,0,1,0-.15c0-.1,0-.1.1,0s.07.08,0,0a.11.11,0,0,1,.08-.14.25.25,0,0,0,.11-.12.1.1,0,0,1,.19,0,.27.27,0,0,0,.17.07c.11,0,.13,0,.09,0s0-.07,0-.13.05-.07,0-.07,0,0,0-.06,0-.06,0-.08,0-.05,0-.07a0,0,0,0,1,.07.05s0,0,0,0a.1.1,0,0,0,.06-.08s0,0,.08,0l.18,0a.14.14,0,0,1,.11,0,0,0,0,0,0,.07,0s.09.1,0,.16a.54.54,0,0,0-.06.18c0,.12,0,.14.18.28l.22.14a1,1,0,0,0,.15-.42c0-.33.11-.46.18-.4a.38.38,0,0,1,.08.18.52.52,0,0,0,.11.21.32.32,0,0,1,.08.23.57.57,0,0,0,.24.49c.05,0,.09.06.07.08s0,.08.08.13A.68.68,0,0,1,128,20c0,.05.16.16.22.16s0,.82-.1,1.07a2.65,2.65,0,0,0-.18.51q0,.18-.15.15c-.05,0-.1,0-.15.08s-.1.13-.19,0Zm.2.17a0,0,0,0,1,0-.07.07.07,0,0,1,.07,0,0,0,0,0,1,0,.06A0,0,0,0,1,127.65,22.14Zm-.37,0a0,0,0,0,1,0-.06,0,0,0,0,1,.07,0,0,0,0,0,1,0,.06A0,0,0,0,1,127.28,22.18Zm3.26,0c0-.07.06-.12.09-.12s0,0,0,0a1,1,0,0,1,0-.11s0-.06,0,0-.08,0-.1-.06,0-.07-.08,0-.06,0-.08,0-.19-.31-.21-.29,0,.07.06.14.15.29.08.4-.06.1,0,.12a.11.11,0,0,1,.08.1c0,.13.07.1.11-.05Zm-.13.15a.22.22,0,0,1,0-.1.11.11,0,0,0-.09-.09c-.08,0-.08,0,0-.12s.06-.23-.07-.41-.07-.13,0-.16.26.2.26.29,0,0,.06,0,.07,0,.09,0,0,.08.07.07a.07.07,0,0,1,.08,0c0,.05,0,.27-.09.24s0,0-.07.1-.1.18-.16.13Zm-25.21.2c0-.07,0-.15.07-.09s0,0,0,.09S105.22,22.54,105.2,22.51Zm22.49,0a.37.37,0,0,1,0-.11c0-.1,0-.13-.19-.14s-.15,0-.12.08,0,.12.06.16.2.08.21,0Zm-.22.05a.57.57,0,0,1-.07-.17.93.93,0,0,0,0-.14.54.54,0,0,1,.17,0c.2,0,.29.07.24.18a.34.34,0,0,0,0,.1c0,.09-.2.14-.26.06ZM130,23c0-.06,0-.08,0-.18a.39.39,0,0,1,.11-.17c.06-.05.09-.12.08-.14s0-.05,0-.06a.11.11,0,0,0,0-.2c-.06,0-.18.09-.18.17s-.05.09-.11.13-.45.52-.31.44a.13.13,0,0,1,.12,0c.09.06.15.06.2,0Zm-.2,0s-.09,0-.11,0a.07.07,0,0,1-.07,0c0-.06.21-.39.34-.48a.18.18,0,0,0,.09-.11.34.34,0,0,1,.09-.14c.07-.07.11-.08.17,0s.1.2,0,.23-.05,0,0,.06,0,.08-.08.14-.13.18-.09.24-.15.19-.2.19a.25.25,0,0,1-.11-.05Zm0,.13a0,0,0,0,1,0-.06.05.05,0,0,1,.07,0,0,0,0,0,1,0,.06A0,0,0,0,1,129.71,23.2Zm-24.59.05a0,0,0,1,1,.07-.05,0,0,0,0,1,0,.06S105.13,23.27,105.12,23.25Zm14.74.15s0,0,0,0-.06,0-.09,0-.08,0,0,.06A.07.07,0,0,0,119.86,23.4Zm-.14,0c-.07-.09,0-.17.07-.1s.07.05.08,0,0,0,0,.06-.1.07-.16,0Zm-14.6,0a0,0,0,0,1,.07-.05,0,0,0,0,1,0,.07A0,0,0,0,1,105.12,23.45Zm24.34.12a0,0,0,0,1,.08,0s0,0,0,.06A0,0,0,0,1,129.46,23.57Zm-24.34.09a0,0,0,1,1,.07-.05,0,0,0,0,1,0,.06S105.13,23.68,105.12,23.66Zm1.58.09s0,0,0,0a0,0,0,0,0,0,.05s0,0,0,0S106.7,23.76,106.7,23.75Zm-.1.06c0-.06.05-.15.1-.09s0,.06,0,.09-.06,0-.08,0Zm.16.05a0,0,0,0,1,0-.06.05.05,0,0,0,0-.07s0,0,0-.06a0,0,0,0,1,.06,0s0,0,0,.06a.07.07,0,0,0,0,.07s0,0,0,.06A.06.06,0,0,1,106.76,23.86Zm13.39.12a0,0,0,1,1,.06,0A0,0,0,0,1,120.15,24Zm-14.81.11a.07.07,0,0,1,0-.05s0,0-.07-.07-.06-.07,0-.09a.09.09,0,0,1,.1,0s0,.05,0,.05,0,0,0,.06,0,.06,0,.08,0,0,0,0Zm3.73.05c-.12,0-.18,0-.11,0a.22.22,0,0,0,.13,0S109.12,24.17,109.07,24.14Zm-.12,0s-.06-.06,0-.08.27.05.24.1-.11,0-.2,0Zm-2.76.06a0,0,0,1,1,.06,0A0,0,0,0,1,106.19,24.23ZM103.38,7.28s0,0,.05-.07.22-.14.2-.18a.52.52,0,0,0-.36,0,.27.27,0,0,0,0,.19c0,.12,0,.14.08.1s0-.06,0-.08Zm-2.73.14a.15.15,0,0,1,.1-.06s.06,0,.06,0,0-.07.12-.1.22-.08.08,0-.08.06-.06.06a.19.19,0,0,0,.17-.14c0-.08-.12-.16-.26-.14a.3.3,0,0,1-.17,0c-.08-.06-.3,0-.29.09s0,.21-.1.25-.07,0,0,0a.16.16,0,0,1,.12.08c.06.08.17.07.25,0Zm1.25.4a.37.37,0,0,1,.34,0,1.81,1.81,0,0,1,.25.1c.06,0,.05,0,0,0s-.06-.14.09-.19,0,0-.06,0a.39.39,0,0,1-.2-.05c-.09-.07-.2-.37-.15-.42s0-.11,0-.11,0,0,0,.06,0,0-.09.06a.1.1,0,0,0-.09.11c0,.12-.07.18-.11.09s-.07-.09-.14-.13-.12,0-.14,0,0,.05-.09,0-.07,0-.1,0-.13,0-.1,0,0-.08,0-.08a3,3,0,0,0-.34.18.63.63,0,0,0,0,.12c0,.11.06.12.24.1s.36,0,.32.09a.75.75,0,0,1-.3,0c-.26,0-.27,0-.13,0a.45.45,0,0,1,.22.11c.08.09.32.08.58,0Zm-2.41.12s0,0,0,0a.16.16,0,0,0-.1,0s0,0,0,0Zm3.77,0,.06-.13-.13,0a.19.19,0,0,1-.2,0c-.06,0-.07,0-.14,0s-.06.08,0,.1.05,0,0,.06,0,0,.11,0a.52.52,0,0,0,.16-.09s0,0,0,0a.09.09,0,0,1-.06.07s0,0,0,.06.09,0,.16-.09Zm-3.11,3a.16.16,0,0,0-.12-.08.12.12,0,0,1-.1,0s0,0,.07,0,.31.21.24.21a.12.12,0,0,1-.09-.08Zm.15.12a.42.42,0,0,0-.27-.28c-.26-.08-.18.09.14.27C100.28,11.15,100.31,11.15,100.3,11.09ZM105.57,16s0-.06,0,0a.1.1,0,0,0,0,.09s0,.06,0,0A.1.1,0,0,0,105.57,16Zm-1.67-5a0,0,0,0,0,0,0,0,0,0,0,0,0,.08A0,0,0,0,0,103.9,10.93Zm-.11,0c0-.07.06-.15.11-.09a.07.07,0,0,1,0,.13.13.13,0,0,1-.07,0Zm1.2.33c0-.05.05-.09.1-.06s0,.1,0,.1A.06.06,0,0,1,105,11.3Zm-.29.17a0,0,0,0,1,0-.06,0,0,0,0,1,.06,0s0,.05,0,.06A0,0,0,0,1,104.7,11.47Zm-.54.11c.06-.09.09-.11.16-.07a.11.11,0,0,1,.06.12s0,.07,0,.06.06,0,.09.07,0,.1.08,0,0-.12.08-.11,0,0,0,0-.1-.07-.21-.09-.2-.06-.26-.17a.42.42,0,0,0-.17-.18c-.09,0-.12,0-.19,0a.59.59,0,0,1-.19.13c-.09,0-.08,0,.07,0s.64.13.41.17-.19.13-.16.19,0,.09,0,.15a.28.28,0,0,0,0,.17s0,0,0-.13a1,1,0,0,1,.1-.3ZM104,12a.27.27,0,0,1,0-.19c0-.07,0-.13,0-.14s.1-.22.19-.23,0,0-.07-.05a.85.85,0,0,0-.31,0c-.2,0-.27,0-.1-.11a.86.86,0,0,0,.2-.13c.09-.08.1-.08.21,0a.47.47,0,0,1,.18.19c0,.1.09.13.23.15a.39.39,0,0,1,.22.08c0,.06,0,.16,0,.12s0,0,0,.08-.06.17-.13.07a.38.38,0,0,0-.1-.09s0,0,0-.08a.09.09,0,0,0,0-.09c-.07,0-.2.16-.2.34s0,.23-.12.14Zm.69,0a1.22,1.22,0,0,1,.28-.14.28.28,0,0,0,.16-.1s-.07,0-.24.07-.47.28-.39.28a.68.68,0,0,0,.19-.11Zm-.25.12c0-.05.11-.15.46-.32.14-.08.26-.12.28-.1s-.14.21-.22.21a.53.53,0,0,0-.24.12c-.17.12-.25.15-.28.09Zm1.2,11.83c0-.06.07-.1.09-.1s0-.05,0-.1a.3.3,0,0,1,.08-.17s.08-.08.07-.1,0-.08.11-.16.12-.15,0-.18-.15-.36,0-.36.05-.05.05-.13,0-.13.09-.15.07,0,0-.06a.24.24,0,0,1-.07-.13c0-.07,0-.08.1-.08s.16-.05.21-.2.08-.08.23-.1c.34,0,.42-.19.23-.41s-.1-.19.06-.1.13.06.26,0,.24-.21.46-.65c.09-.17.1-.23.07-.31a.23.23,0,0,1,0-.13,1.67,1.67,0,0,1,.37-.26l.07-.06a.38.38,0,0,1,.21-.08c.15,0,.16,0,.27-.27a1.18,1.18,0,0,0,.12-.6c0-.24,0-.35.06-.37a1.37,1.37,0,0,0,.2-.25c.2-.29.21-.51,0-.6a.63.63,0,0,1-.17-.14c0-.06-.12-.08-.31-.1s-.27,0-.38-.15-.24-.16-.35,0a.19.19,0,0,1-.19.09c-.13,0-.13-.09,0-.12s.1-.05.1-.09,0-.09-.21,0-.15.11-.16.1.22-.39.27-.36,0,0,0-.06a.33.33,0,0,1-.08-.12c0-.15-.22-.38-.44-.38a.37.37,0,0,1-.3-.15c-.08-.09-.2-.2-.25-.25s-.09-.12-.08-.14,0,0-.18,0a.39.39,0,0,1-.24,0s0,0-.07,0-.28-.08-.28-.14,0,0,0,0-.06.1-.08.1,0,0,0,.07-.06.15-.12,0a.17.17,0,0,1,0-.19c.09-.13,0-.13-.09,0s-.12.09-.16.08-.07,0-.16.27c0,0,0,0-.12,0s-.12-.09-.27-.05-.17,0-.27-.08-.11-.15-.08-.38,0-.26-.09-.29a1,1,0,0,0-.26,0c-.13,0-.14,0-.13-.13a.37.37,0,0,1,0-.16,1.87,1.87,0,0,0,.06-.22c0-.16,0-.18-.06-.18s-.28.08-.3.22,0,.13-.19.16-.34,0-.46-.26a.87.87,0,0,1,0-.58.35.35,0,0,0,0-.17c0-.12,0-.15.14-.23s.23-.12.38-.08l.25.06c.12,0,.13,0,.08,0s0-.08,0-.13a.19.19,0,0,1,.18,0,.76.76,0,0,0,.21,0c.13,0,.24.12.26.3s.11.3.18.3.07-.05,0-.39a1.78,1.78,0,0,1-.08-.34,1,1,0,0,1,.22-.27,1.08,1.08,0,0,0,.2-.25s0,0,0,0,.06,0,0-.06a0,0,0,0,1,0-.06s0,0,0-.11,0-.3,0-.3,0,0,.07.1,0,.09,0,0,.2-.39.29-.39.21,0,.16-.12,0-.1,0-.18.1-.11.14-.11a.77.77,0,0,0,.25-.1c.14-.06.22-.08.28-.06s.06,0,0,0-.21.13-.21.21,0,0,.1,0a.83.83,0,0,1,.22-.14.32.32,0,0,0,.15-.11s.05-.05.07,0,0,0,0,0,0-.07-.15,0-.11.09-.16.06-.05-.07,0-.1,0,0,0,0-.09,0-.17-.07-.12-.16,0-.16a.08.08,0,0,0,.08-.07c0-.1-.28,0-.42.1s-.13.09-.16.06.29-.36.46-.39a1.55,1.55,0,0,1,.33,0,.69.69,0,0,0,.29,0,1.14,1.14,0,0,1,.22-.07c.11,0,.12-.05.12-.16s0-.22-.24-.15-.16,0-.18,0,.1-.15.21-.16.07,0,0,0l-.17-.1c-.06,0-.12-.07-.13-.06s-.05,0-.09-.08-.06-.1,0-.1,0-.05-.06-.1a.47.47,0,0,1-.11-.21c0-.19-.06-.2-.19-.06s-.14.11-.17.1-.08,0-.09,0-.06,0-.12-.05-.12-.18-.07-.22.05-.14,0-.14a.47.47,0,0,1-.18-.11A.38.38,0,0,0,105.2,9c-.18,0-.2,0-.25.12s0,.16,0,.2a.14.14,0,0,1,0,.14s0,.06,0,.06,0,0,0,.05,0,.08,0,.16a.32.32,0,0,1,0,.4.62.62,0,0,0-.08.35c0,.18,0,.25-.08.29s-.09,0-.23-.1-.16-.16-.15-.32l0-.17-.18,0a.85.85,0,0,1-.4-.17.72.72,0,0,0-.27-.13s-.1-.05-.1-.16,0-.08-.1-.07-.1,0-.13-.09,0-.25.26-.53c.06-.06.1-.13.09-.15s.12-.13.2-.1a.18.18,0,0,0,.15-.06c.11-.09.12-.08-.12-.15s0-.11.17-.09.14,0,.15.16,0,.17-.06.18,0,0,0,.09.12.05.2,0,.08-.1.17,0,.11.05.14,0-.14-.22-.28-.25a.37.37,0,0,1-.19-.12c-.07-.11-.06-.12.09-.1s.34-.11.34-.16a.3.3,0,0,0-.06-.11c0-.06-.05-.1,0-.13s-.08-.17-.23-.18-.11,0-.08.08,0,.1-.06.21-.11.13-.17.06a.33.33,0,0,1,0-.16.2.2,0,0,0-.06-.14s-.07,0-.13,0-.14.11-.14,0a.12.12,0,0,0-.09-.1c-.07,0-.08,0,0-.08s-.14-.29-.24-.24-.15.29,0,.29.13,0,.06.17-.11.17-.21.11a.15.15,0,0,0-.18,0,.81.81,0,0,1-.59,0c-.08,0-.14-.08-.14-.1s-.2-.06-.31,0-.06,0,0,.06a.25.25,0,0,0,.11,0s0,0,0,0-.07,0,0,0,.13.08,0,.11-.09.05-.08.12-.08.17-.13,0-.19-.17-.42-.14-.3-.06-.18-.12.07,0,0-.09-.1,0-.15,0-.09,0-.19,0-.45-.14-.51-.09-.09,0-.18,0-.13,0-.26,0c-.33.2-.45.25-.49.22s0-.08.14-.15.15-.11.13-.11a.77.77,0,0,0-.19.08c-.1.07-.14.07-.19,0s-.06,0,0,0a.61.61,0,0,1,.07.35s-.14-.07-.14-.17,0-.09,0-.1a1.17,1.17,0,0,1-.33-.09,1,1,0,0,0-.28-.07s-.11,0-.12,0a.57.57,0,0,0-.27,0,1.53,1.53,0,0,1-.33,0,.15.15,0,0,0-.16,0,.09.09,0,0,1-.13,0,.21.21,0,0,0-.16-.06.19.19,0,0,1-.15-.05s0,0-.08,0-.06,0-.08,0-.06,0-.13,0-.1,0-.1,0,0,0,0,0a.23.23,0,0,1-.15.07.36.36,0,0,0-.19.12s-.09.09-.1.08-.08,0-.14,0L96.07,8l.14.11a.72.72,0,0,0,.33.19c.08,0,.07.1,0,.14a.19.19,0,0,1-.19,0,.17.17,0,0,0-.18,0L96,8.45c-.08,0-.08,0,0,.06s.08.06.07.1.35.12.42,0,.13,0,.12.08-.22.25-.28.21a.24.24,0,0,0-.11.07.17.17,0,0,0-.06.18c0,.14.15.24.23.22a.11.11,0,0,1,.11,0,.42.42,0,0,0,.39.13c.08-.05.12,0,.07.14a.75.75,0,0,1-.43.34c-.09,0-.15.07-.14.08a.88.88,0,0,0,.36-.14L97,9.87c.17-.09.42-.33.39-.38s0-.05,0-.08a.15.15,0,0,0,.06-.1.16.16,0,0,1,.2-.12c.07,0,.07,0,0,.08s-.11.18-.06.18.24-.09.22-.14.14-.17.21-.08a.72.72,0,0,0,.45.16,1.3,1.3,0,0,1,.41.13q.19.09.24.06s.07,0,.12.06a.41.41,0,0,1,.07.12c0,.05.18.18.23.19s.19.27.13.35,0,.06.07.09.11,0,0,.14-.06.07,0,0,.23,0,.17.09,0,.11.08.11a1,1,0,0,1,.45.44c0,.1-.06.15-.1.09s-.09,0-.09.22,0,.36,0,.5.09.56.18.54,0,0,0,.08a.65.65,0,0,0,.3.43s.08.06.07.08,0,0,0,0,.09,0,.15.21a1,1,0,0,0,.15.31c.06.07.07.1,0,.13s0,.08.08.16a.36.36,0,0,1,.13.2c0,.09.23.3.28.25s0,0,0-.07a.13.13,0,0,1-.07-.08.82.82,0,0,0-.12-.23.83.83,0,0,1-.12-.21l-.1-.2c-.07-.13-.08-.18,0-.22s.18,0,.18.11a1.27,1.27,0,0,0,.18.3,2,2,0,0,1,.19.29,1,1,0,0,0,.14.19c.18.21.23.32.2.42s.11.21.55.43.36.16.43.12.1,0,.22.05a1.82,1.82,0,0,0,.52.27c.11,0,.29.22.29.34s0,.11.06.07.06,0,.1.05a.21.21,0,0,0,.15.11.34.34,0,0,1,.16,0s.06,0,.09,0,.3.09.29.41a.45.45,0,0,1-.14.35,1.27,1.27,0,0,0-.18.37c-.05.18-.05.2,0,.24s.07,0,0,.11l-.09.06.14.31c.07.17.18.45.23.61s.13.32.26.41l.3.24.15.14-.05.7c0,.39,0,.81-.06.94a1.21,1.21,0,0,1-.12.44.49.49,0,0,0-.09.35.6.6,0,0,1,0,.26.23.23,0,0,0,0,.23,1,1,0,0,1,0,.61s-.06,0-.08,0,0-.06-.06,0,0,.13,0,.1.26.21.23.26a.07.07,0,0,1-.08,0s0,0,0,.17a.57.57,0,0,1,0,.26s0,.05,0,0,.29.13.27.2,0,.05.09,0Zm.41.34s0-.08-.1-.18-.2-.17-.2,0,0,.11-.09.1-.09,0-.07,0a.21.21,0,0,0,.14,0c.07,0,.13,0,.14,0s.1,0,.18,0Zm-.18,0s-.07,0-.14,0-.24-.1-.17-.14a.09.09,0,0,1,.1,0s.06,0,0-.08,0-.13-.08-.05-.17.05-.12,0-.13-.17-.21-.18-.11,0-.08-.07a.6.6,0,0,0,0-.25c0-.17,0-.21.07-.2h.07a.67.67,0,0,0-.21-.2c-.07,0-.08-.06,0-.15s0-.09.1,0,.09.05.08-.05,0-.07,0-.09,0,0,0,0,0,0,0,0,0-.08,0,0,.06,0,.06-.1a.49.49,0,0,0,0-.23c0-.06,0-.11,0-.22a.58.58,0,0,0,0-.26.52.52,0,0,1,.08-.35,1.06,1.06,0,0,0,.13-.44c0-.13,0-.55.06-.93l0-.7-.12-.11a2.85,2.85,0,0,0-.3-.24c-.16-.12-.19-.18-.33-.57l-.24-.61c-.09-.18-.09-.19,0-.25s.07-.07,0-.11,0-.4.17-.61a.45.45,0,0,0,.14-.35c0-.31-.14-.54-.24-.36s-.06.07-.09,0a.56.56,0,0,0-.17-.06.2.2,0,0,1-.17-.11c0-.06-.06-.08-.08,0s-.11,0-.11-.12-.14-.29-.24-.29a1.85,1.85,0,0,1-.52-.26c-.12-.09-.16-.1-.23-.06s-.13,0-.42-.12-.62-.36-.59-.48,0-.2-.21-.41a.84.84,0,0,1-.13-.2,1.5,1.5,0,0,0-.17-.25,1.91,1.91,0,0,1-.2-.32c0-.12-.13-.16-.13-.06a.76.76,0,0,0,.08.18.7.7,0,0,1,.09.17.7.7,0,0,0,.12.22.82.82,0,0,1,.12.22.28.28,0,0,0,.08.08s.06.07,0,.1-.34-.15-.34-.27a.38.38,0,0,0-.13-.19c-.1-.09-.12-.13-.08-.17s0-.07,0-.13a.78.78,0,0,1-.14-.29c0-.12-.09-.21-.12-.21a0,0,0,0,1,0,0s0-.05-.09-.07-.35-.39-.31-.47,0-.05,0-.05-.09-.06-.14-.15a.58.58,0,0,1-.08-.37c0-.11,0-.34,0-.5,0-.33,0-.38.13-.3s.06,0,.05-.06,0-.13-.07-.14,0,0,0,0,0,.09-.17,0L99.92,11c-.1-.09-.11-.11-.06-.17s0-.06,0-.06,0,0,0-.06,0-.06,0-.08-.07,0-.08,0a.06.06,0,0,1-.07,0s0,0,0-.1.06-.07,0-.1-.11,0-.1,0,0,.09,0,.07,0-.05,0-.08,0-.06,0-.06,0,0,0,0,0-.09,0-.18,0,0-.07,0-.06,0-.06,0,0-.09,0-.08,0,0,0,0a.06.06,0,0,0,0-.06.2.2,0,0,1-.11-.06c0-.07-.13-.09-.12,0s0,.09-.06.06a.3.3,0,0,0-.08,0h0s0,0,0-.05,0,0,.08,0,.11,0,0-.16-.08-.12-.12-.09-.11,0-.24-.06a1.3,1.3,0,0,0-.41-.13c-.23,0-.48-.12-.48-.18s-.1,0-.12,0,0,.12,0,.09a0,0,0,0,1,.06,0,0,0,0,1,1-.07.05s-.08,0-.15,0a.32.32,0,0,1-.16,0,.15.15,0,0,1,0-.23c.06,0,.06,0,0,0a.16.16,0,0,0-.12.1s-.05.11-.08.12,0,.05,0,.06-.25.32-.44.43c-.34.18-.34.18-.26.21s.06,0,0,.07-.15,0-.11,0-.08-.05-.13,0-.15,0-.12-.05a.92.92,0,0,1,.25-.14c.24-.12.28-.16.33-.3s0-.1,0-.06a.49.49,0,0,1-.41-.12.18.18,0,0,0-.11-.05c-.07,0-.22-.13-.26-.26a.27.27,0,0,1,.18-.28c.16,0,.26-.1.27-.18s0-.11-.08,0-.46,0-.46-.06A.12.12,0,0,0,96,8.54c-.06,0-.06,0,0-.09a.2.2,0,0,1,.12-.06.18.18,0,0,0,.11,0s.08,0,.16,0,.23.05.23,0,0,0,0,0a.79.79,0,0,1-.37-.2L96,8l.11-.07a.37.37,0,0,1,.17-.08.31.31,0,0,0,.14-.1.27.27,0,0,1,.17-.1.35.35,0,0,0,.15-.07s0-.05,0,0,0,0,.1,0,.11,0,.13,0,0,0,.08,0,.06,0,.08,0a.19.19,0,0,0,.15,0,.21.21,0,0,1,.16.06.09.09,0,0,0,.13,0,.15.15,0,0,1,.16,0,1.16,1.16,0,0,0,.33,0,.76.76,0,0,1,.27,0,.17.17,0,0,0,.12,0,1,1,0,0,1,.28.07l.25.08c.12,0,.15.06.15.16a.17.17,0,0,0,0,.12c.05,0,0-.22,0-.29s0-.06,0-.07a0,0,0,0,1,.06,0s.08,0,.18,0,.33-.07.17.05,0,.1.09,0,.28-.18.41-.11.14,0,.18,0,.33,0,.51.09.15.06.2,0,.08,0,.17,0,.1.07,0,.12,0,.09.16.07.43,0,.43.16,0,.08,0,.08,0-.25,0-.27,0,0,0-.09.07-.06-.11,0l-.24,0a.19.19,0,0,1-.14-.06.57.57,0,0,0-.22-.11c-.23-.06-.17-.12.13-.13s.27,0,.23,0a.47.47,0,0,0-.25,0c-.21,0-.29,0-.3-.22s-.07-.15-.07-.06,0,.06-.09.09l-.2.1c-.09,0-.11,0-.16,0a.41.41,0,0,0-.14-.1c-.08,0-.06-.11,0-.11a.07.07,0,0,0,.06-.07s0-.11,0-.15.2-.17.31-.13a.33.33,0,0,0,.18,0c.14,0,.33.11.29.17s0,0,.07,0,.09,0,.11,0,0,.06.06,0a.11.11,0,0,1,.1,0s.06,0,.07,0,0,0,.16,0a.28.28,0,0,1,.15.13s0,0,0-.06,0-.13.11-.14.09,0,.08,0,.06-.1.11,0,0,.06,0,.1,0,.09,0,.21.12.23.28.23.18.07,0,.12-.11,0,0,.12,0,.15,0,.09a.81.81,0,0,0-.24-.1c-.15,0-.2,0-.28,0s-.1,0,.05,0,.17,0,.18.07,0,.06.07.06,0,0,0,0a0,0,0,0,1,0-.06,0,0,0,0,1,.06,0,.06.06,0,0,1,0,.07c-.09.05.11.1.32.07s.2,0,.2-.08,0-.06,0-.06h-.08a0,0,0,0,1,0-.07.4.4,0,0,0,.12-.08c.08-.07.09-.08.14,0a.15.15,0,0,0,.11.06c.05,0,.05,0,0-.07s0-.1,0-.19a.37.37,0,0,1,.1-.11s0-.07,0-.16,0-.28.23-.3.27,0,.15.16a.26.26,0,0,1-.14.1s0,0,0,0,0,0,0,.08,0,.07.06.18.1.14.08.17,0,.06,0,.07a.12.12,0,0,1,.08.12c0,.09,0,.09.09,0s.09-.11.16,0A.21.21,0,0,1,104,8c0,.14,0,.21.11.16s.08-.14,0-.1A.07.07,0,0,1,104,8a0,0,0,0,1,0-.06,0,0,0,0,1,.06,0c0,.07.11,0,.07-.08s0-.09,0-.1.49.08.4.18,0,.08,0,.14a.3.3,0,0,1,.06.11c0,.06-.26.2-.36.2s-.07.11.08.14a.52.52,0,0,1,.25.14c.1.1.1.13,0,.17s-.08,0-.15,0-.1,0-.18,0-.08.1-.22,0-.13-.08-.07-.12a.3.3,0,0,0,.06-.18c0-.12,0-.13-.15-.13h-.15l.13,0c.07,0,.13,0,.13.07s-.21.21-.27.19-.18,0-.15.08,0,.08-.06.1a.78.78,0,0,0-.31.53c0,.07,0,.09.1.08a.13.13,0,0,1,.15.16c0,.05,0,.07,0,.06a.85.85,0,0,1,.27.14,1.16,1.16,0,0,0,.42.18l.2,0v.18a.3.3,0,0,0,.13.32c.19.17.24.13.25-.17a.62.62,0,0,1,.08-.35.32.32,0,0,0,0-.4c-.07-.08-.08-.11,0-.16s0-.05,0-.05,0,0,0-.06,0-.08,0-.14a.24.24,0,0,1,0-.21C105,9,105,9,105.2,9s.23,0,.3.09a.49.49,0,0,0,.19.14c.1,0,.13.12.07.18s0,.29.14.22a.09.09,0,0,1,.1,0s.09,0,.16-.1.19-.12.23.1a.47.47,0,0,0,.11.21c0,.06.09.11.08.11s0,0,0,.09,0,.07,0,.05,0,0,.11,0l.19.11c.1,0,.06.09-.1.12s-.12,0-.12.06.07,0,.15,0,.28,0,.28.19,0,.14-.06.16a1.89,1.89,0,0,1-.69.16.79.79,0,0,0-.64.28c-.12.13,0,.11.1,0s.43-.16.43,0a.13.13,0,0,1-.08.11c-.09,0-.09,0,0,.11s.11.07.12.05a0,0,0,0,1,.06,0s0,0,0,.06.07.08.16,0,.11-.1.15-.05,0,.16,0,.12,0,0,0,0-.07.08-.16.12a1.1,1.1,0,0,0-.24.15c-.09.07-.1.07-.12,0a.14.14,0,0,1,0-.15c.09-.1,0-.1-.15,0a.9.9,0,0,1-.23.08c-.09,0-.17.19-.1.26s0,.07,0,.11a.42.42,0,0,1-.16,0c-.08,0-.2.16-.25.32s-.1.13-.13,0,0-.1,0,0a.42.42,0,0,0,0,.2c0,.05,0,.08,0,.1a0,0,0,0,0,0,.06s0,0,0,.08-.06,0,0,0-.07.1-.2.23a1,1,0,0,0-.22.27s0,.19.08.35c.09.32.09.42,0,.42s-.21-.19-.22-.32-.1-.29-.22-.28l-.21,0c-.14,0-.24,0-.17.1s0,.11-.22.07-.36-.07-.51,0-.13.11-.12.22a.24.24,0,0,1,0,.16.87.87,0,0,0,0,.58.34.34,0,0,0,.41.23c.15,0,.17,0,.17-.14s.09-.22.28-.22H104v.19a.58.58,0,0,1,0,.22.91.91,0,0,0-.06.16c0,.12,0,.12.11.1a.66.66,0,0,1,.27,0l.14.06,0,.25c0,.22,0,.27.06.36s.1.11.25.07.17,0,.26.05l.1.09,0-.12c0-.13.13-.24.18-.2s.07,0,.14-.08a.21.21,0,0,1,.16-.08s0,0,0,.08-.06.11,0,.08.07-.06.09-.11,0-.08.07,0a.39.39,0,0,0,.27.12s.06,0,.07,0a.18.18,0,0,0,.11,0c.07,0,.08,0,0-.06s0-.07,0-.07h0s0,0,0,0,0,0,.13.05.14,0,.14.06,0,.08.07.13l.24.23a.37.37,0,0,0,.3.15.6.6,0,0,1,.47.33c0,.07,0,.12,0,.12s0,0,0,.08.06.09.05.09h-.07a.48.48,0,0,0-.17.2s.06,0,.13-.06.13-.08.17,0,0,.18-.14.22-.09,0,0,0a.21.21,0,0,0,.18-.1c.09-.13.18-.13.35,0a.48.48,0,0,0,.4.15c.19,0,.26,0,.29.09a.83.83,0,0,0,.19.16c.12.07.14.1.14.24a.66.66,0,0,1-.15.39,2.23,2.23,0,0,1-.2.26.92.92,0,0,0-.07.41,1.2,1.2,0,0,1-.13.61c-.12.23-.14.24-.29.26a.35.35,0,0,0-.2.07.1.1,0,0,1-.07.06,1.12,1.12,0,0,0-.33.22s0,.08,0,.13,0,.14-.07.31c-.29.58-.46.76-.69.72s-.12,0,0,.07,0,.37-.3.41c-.17,0-.22,0-.22.11a.2.2,0,0,1-.24.18c-.07,0-.08,0-.06.05a.6.6,0,0,0,.09.13c.06,0,.06.05,0,.08s-.1.05-.1.14,0,.13-.1.16-.1.07-.1.1.05.19.1.19.1.08,0,.21-.11.15-.1.16,0,.06-.06.1a.26.26,0,0,0-.09.17c0,.05,0,.11-.06.12s-.06,0-.06.06,0,0,.06,0,.13.05.22.15.16.17.1.21-.17.08-.2,0Zm-.16.09c0-.05,0-.09.1-.06s0,.1,0,.1A.08.08,0,0,1,105.69,24.39Z" transform="translate(-95.52 -4.84)"/></g></g></svg>