<svg id="Layer_1" data-name="Layer 1" xmlns="http://www.w3.org/2000/svg" xmlns:xlink="http://www.w3.org/1999/xlink" viewBox="0 0 30 30"><defs><style>.cls-1{fill:none;}.cls-2{clip-path:url(#clip-path);}.cls-3{clip-path:url(#clip-path-2);}.cls-4{fill:#fff;}.cls-5{clip-path:url(#clip-path-4);}.cls-6{fill:#964a25;}</style><clipPath id="clip-path" transform="translate(-150 -0.35)"><rect class="cls-1" x="150" y="0.35" width="30" height="30"/></clipPath><clipPath id="clip-path-2" transform="translate(-150 -0.35)"><rect class="cls-1" x="150" y="0.35" width="30" height="37.5"/></clipPath><clipPath id="clip-path-4" transform="translate(-150 -0.35)"><rect class="cls-1" x="153" y="3.81" width="24" height="22.5"/></clipPath></defs><g id="Language"><g class="cls-2"><g class="cls-3"><rect class="cls-4" width="30" height="30"/></g><g class="cls-2"><rect class="cls-4" width="30" height="30"/></g><g class="cls-5"><path class="cls-6" d="M174,25.68c-.09,0-.19,0-.25.07S173.94,25.72,174,25.68Zm-16.12,0c-.09,0-.19.14-.08.16s.14-.08.08-.16m.36-.1c-.16,0-.06.21,0,.3s.06-.07.09-.12,0-.22-.07-.18m.21-.15c0,.08,0,.18,0,.24s0-.17,0-.24m0,0c0,.05,0,0,0,0m15.48-.11c0,.06-.07.24,0,.27s.26-.35,0-.27m-15.48,0c0,.2,0,0,0,0m15-.57c0,.05,0,.15,0,.18s0-.16,0-.18m-15.75-1.4c-.13.08,0,.22,0,.34.11.49.35,1,.44,1.54a.3.3,0,0,1,0,.29.74.74,0,0,1,.21,0,2,2,0,0,0-.08-.68,4.51,4.51,0,0,0-.47-1.38s0-.12-.1-.1m-.66-.49c-.06.12.06,0,0,0m17.15,0c-.08.09,0,.18-.06.27a10.26,10.26,0,0,1-.11,1.92c-.09,0-.2,0-.29.1s-.32-.08-.2.08a1.27,1.27,0,0,1,.64,0,4.49,4.49,0,0,0,.1-2.3s0-.11-.08-.11m-17-.26a.28.28,0,0,0-.12,0c0,.09.25-.08.12,0m-.4,0a2.54,2.54,0,0,0-.56.13,1.69,1.69,0,0,0,.62-.07c.05,0,0-.09-.06-.06m-.2-.12a1.5,1.5,0,0,0-.59.18,3.29,3.29,0,0,0,.74-.13.11.11,0,0,0-.15-.05m1,0c-.05,0-.13,0-.16,0s.2,0,.3,0-.1,0-.14,0m.15-.08c0,.05.06,0,0,0m-1.35,0a2.29,2.29,0,0,0-.62.22.13.13,0,0,0,.09,0,1.35,1.35,0,0,1,.65-.21s-.08-.05-.12-.05m2,0s.06,0,0,0m-.69,0a1.34,1.34,0,0,0-.35.05,2.83,2.83,0,0,1,.5,0c.08-.07-.11,0-.15,0m-1.48,0c-.19.08-.44.11-.56.27a3.35,3.35,0,0,1,.53-.19c.05,0,.1-.12,0-.08m.6,0c.07,0,.11,0,0,0m1.14-.06c0,.06.06,0,0,0m-.81,0c-.07,0,.08,0,0,0m-1.24-.09s-.11,0-.12.07.17-.06.12-.07m.06-.05c-.08,0,.05,0,0,0m.35.16a5.9,5.9,0,0,0,.85-.23,3.33,3.33,0,0,0-.85.23m18.13-.25c0,.11-.23,0-.24.11.16,0,.3.17.21.33.13.05.23-.13.26-.23a.91.91,0,0,0-.23-.21m-17.28,0c.14,0,.09-.05,0,0m16.42-.08c-.05.1-.16,0-.23.09s.29,0,.23-.09m.2,0a.48.48,0,0,0,0,.66,2.67,2.67,0,0,0,.68.07s.06,0,0,0-.23-.07-.35,0a.4.4,0,0,1-.43-.3.67.67,0,0,1,.13-.38h-.05m-15.06,0a.66.66,0,0,0-.46.15,1,1,0,0,0-.63.11.65.65,0,0,0-.31.05,2.49,2.49,0,0,1,.77,0c.15-.18.38-.18.58-.24s.06.06,0,.07a1,1,0,0,0-.75.48c-.09,0,0,.15-.14.15s-.14-.06-.19,0a.78.78,0,0,0-.37.13s.08,0,.1,0-.07,0-.07.09.19-.13.31-.09a.27.27,0,0,1,.15.32c.11,0,.06-.25.18-.14.17-.08-.26-.31,0-.33.24-.31.7-.34.89-.7,0-.07-.08-.08-.12-.06m-1.47,0-.49.1c-.1,0,0,0,0,0,.18,0,.35-.09.53-.12s0,0,0,0m-.59,0s-.08,0-.11,0,.18,0,.11,0m.77,0c0,.05.05,0,0,0m.06,0c0,.06.08,0,0,0m.24,0s.1,0,0,0m15.3,0c-.06,0-.16.06-.18.11s.21,0,.3,0a.12.12,0,0,0-.12-.07m-15,0s-.22,0-.11,0,.22,0,.11,0m.33,0c-.21,0,.16.05,0,0m-2,0s.06,0,0,0m1.48,0s.07,0,0,0m17.6,0c0,.07-.17,0-.12.11s.29-.12.34,0-.21.28,0,.21a.23.23,0,0,0-.24-.35m-18.74.19.83-.21a2.53,2.53,0,0,0-.83.21m1.51-.22c-.08,0-.25,0-.28.05h.72c-.1-.1-.3,0-.44,0m14.5,0a.66.66,0,0,0-.24.11c0,.1.11.08.14,0s.24-.13.1-.11m.29,0s.06.05,0,.07-.35.05-.4.21c.14.1.2-.12.33-.14s.22-.15,0-.14m1.13,0a5.27,5.27,0,0,0-.56,0c-.12,0-.13.18-.27.17.06.13-.24.07-.26.21a.29.29,0,0,0,.4-.22,2.74,2.74,0,0,1,1.42.08.41.41,0,0,1,.19,0c0,.09-.18.07-.2.17s0,.1,0,.15.08-.15.18-.16.29-.06.3-.2c-.14,0-.26-.25-.41-.13a5.2,5.2,0,0,0-.78-.1m-16.6.08a5.15,5.15,0,0,1,1-.06s.07-.06,0-.06a4.13,4.13,0,0,0-1.05.12m.46-.19a3.74,3.74,0,0,0-1.16.23,10.92,10.92,0,0,1,1.52-.23,2.16,2.16,0,0,0-.36,0m.39,0s0,0,0,0a2.33,2.33,0,0,1,.53.06c.14,0,.13.19.24.25,0,.23-.15.39-.31.51s.15,0,.16-.06a.49.49,0,0,0,.28-.36.4.4,0,0,0-.24-.36,2.1,2.1,0,0,0-.66-.08m15.3-.13a2.75,2.75,0,0,0-.7.1c0,.05.12,0,.16,0,.37-.05.77-.07,1.12-.1a5.62,5.62,0,0,0-.58,0m.15-.26a2.88,2.88,0,0,0-.72.06s-.09.1-.05.15a5.27,5.27,0,0,1,2.55.29.58.58,0,0,1,.4.29c.18-.12,0-.4-.21-.39a4,4,0,0,0-2-.4m-18.11-.13c0,.05,0,.12.05.14s0-.14-.05-.14m.11-.63a.11.11,0,0,0-.07.06s.16-.07.07-.06m.15-.09a.2.2,0,0,0-.1.08s.14-.09.1-.08m-.07-.54c-.07,0-.18,0-.23.1s.26-.08.23-.1m-.42-.35s0,.09,0,.13,0-.13,0-.13m-.07-.66c-.08.11.07.11,0,0M173.14,17c0,.05.06,0,0,0m-17.79,0c-.08,0,0,.05,0,0s.05-.06,0,0m-.14-.26c-.06,0,0,.06,0,0s.09-.07,0,0m-.24-.15c0,.07.07,0,0,0m.41-.64s-.09,0-.11.06.22-.07.11-.06m18.22-.57c-.1,0-.07,0,0,0s.09,0,0,0m-18.41-.07c-.09,0-.16.1-.25.15.09,0,.3-.13.25-.15m18.09-.75c0,.08.13,0,0,0M155,14.05c-.07,0-.17,0-.23.09s.29-.08.23-.09M154.57,12a.22.22,0,0,0-.14.06s.21-.05.14-.06m19.1-.05s.06,0,0,0m-.17-.58c-.1.09.13,0,0,0m.19-.37c-.2,0,.05.08,0,0m.8-.45c0,.06.16,0,0,0m-.6-.68c0,.05.06,0,0,0M173.57,9c-.07.05.11,0,0,0m-19.86-.6a1,1,0,0,0-.33.15,2.63,2.63,0,0,0,.35-.15h0m-.5,0c-.2.23.08.55.35.58,0-.1-.06-.19-.07-.28s-.11,0-.07,0-.14.08-.1-.05,0-.16-.11-.21m.46.12c-.07,0,0,.06,0,0a3,3,0,0,0,.48-.19,1.66,1.66,0,0,0-.48.19m19.55-.29A9.89,9.89,0,0,1,170,8.7a12.17,12.17,0,0,0-1.71.07c-.24.06-.49,0-.72.07a5.21,5.21,0,0,0-.95.29c-.05,0-.18,0-.13.14a4.19,4.19,0,0,1,0,.5c0,.06,0,.16,0,.19-.17-.19-.11-.48-.23-.7a1.84,1.84,0,0,0-.67-.23,13.68,13.68,0,0,1-2.12,0c-.54,0-1.07-.07-1.61-.14a4.17,4.17,0,0,1-.85-.13,4.26,4.26,0,0,0-1.8.25c0,.31.22.57.17.9a.6.6,0,0,1,0,.37.35.35,0,0,1,.07.35c0,.1-.06,0-.06,0,0-.19-.17-.36-.12-.56a4.59,4.59,0,0,0-.3-1c-.08,0-.15-.13-.24-.08-.28.06-.55-.09-.82-.1s-.52,0-.77-.12c-.1,0-.22-.08-.32,0,0,.31.1.61.13.92s0,.5.16.69a12.14,12.14,0,0,0,.22,1.91,22.49,22.49,0,0,0,.34,2.58c.13.4.12.84.24,1.25s.21.84.23,1.27c0,.11.13.2.06.31s0,.25.06.24a1.65,1.65,0,0,0,.13.76,7.38,7.38,0,0,0,.31,1.54.42.42,0,0,0,.07.29,2.79,2.79,0,0,0,.13.7c-.09.05.06.06.09.07a.53.53,0,0,1,.34.33c.08.17-.06.33-.13.48.09.06.22,0,.32.06a1,1,0,0,0,.3.07c.25,0,.49.09.74,0a1.3,1.3,0,0,0,.52,0,5,5,0,0,1-.18-1.15c0-.09.07,0,.07.05a2.56,2.56,0,0,0,.13.67.43.43,0,0,0,.43.4,6.81,6.81,0,0,1,.78,0c0-.06-.09-.22.05-.18s.17.24.32.24.56.07.84.1a3.56,3.56,0,0,1,.86.06,12.28,12.28,0,0,0,2.26-.16c.21-.13.48,0,.7-.08-.06-.06,0-.23.08-.12s.13.17.25.12c0-.12.1-.1.12,0a18.2,18.2,0,0,0,2.08-.16A.09.09,0,0,1,170,22c0,.12.19,0,.29.05-.09-.08-.1-.22-.14-.32.2,0,.15.29.35.29s0-.16,0-.23.16,0,.23,0,0,.18,0,.26a3.09,3.09,0,0,0,.75-.11s-.07-.11,0-.14.09.16.2.12.47,0,.71-.08c-.17,0-.24-.21-.29-.35a.56.56,0,0,1,.42-.45,10.82,10.82,0,0,0,.24-2.2c.19-.73.06-1.48.24-2.21,0-.47,0-.93.06-1.4s0-1.09.11-1.62,0-1.07.09-1.59c0-.28.1-.56,0-.83-.05-.53.08-1,0-1.58a7.11,7.11,0,0,0,0-1.13c0-.05.05-.2,0-.17M155.32,8a5.37,5.37,0,0,0-1,.17s.11,0,.16,0a7.21,7.21,0,0,1,.9-.19s-.08,0-.1,0m-1.39,0a1.21,1.21,0,0,0-.46.21L154,8c.05,0,0,0,0,0m19.59-.1c-.11.14.18,0,0,0M156,7.65a7.29,7.29,0,0,0-1.86.29c.1,0,0,.15.12.1a5.8,5.8,0,0,1,1.37-.25c.09,0,0,.15,0,.22s.36.06.55.09c0-.06.11-.17,0-.19s0-.11,0-.13a.72.72,0,0,1,.53.16.23.23,0,0,1-.07.28c.06.06.15.11.18.21a.38.38,0,0,0-.14-.64,2.17,2.17,0,0,0-.75-.14m-1.78,0c.07,0,.15,0,.2-.07s-.16,0-.2.07m.2-.07c.08,0,0-.05,0,0m-.1-.07c-.12,0-.06.06,0,0s.13,0,.15,0a.25.25,0,0,0-.15,0m20.57,0a1.92,1.92,0,0,0-1.21.4,1.77,1.77,0,0,0,.46-.15c.16,0,0,.12,0,.14a1.28,1.28,0,0,1,.39-.07,0,0,0,0,1,0,.06c-.3.09-.62.12-.91.22-.07,0-.12.13-.07.17a2,2,0,0,1,1.16-.16s.09.07,0,.06-.36.05-.42,0c-.05.1-.37,0-.22.13-.16.11-.38.12-.55.22,0,0,0,.08,0,.08a2.13,2.13,0,0,1,1.12-.16s.17,0,.15.08a2.41,2.41,0,0,0-.85.06s.08.08,0,.09a1,1,0,0,0-.47.23s0,.07,0,.05a1.87,1.87,0,0,1,1.11-.2s.15,0,.14.09a1.85,1.85,0,0,0-1.06.17c.05,0,.23-.1.26,0s-.37.07-.43.2a2.58,2.58,0,0,1,1.14-.14s.07,0,.05.08a2.24,2.24,0,0,0-1.17.2c.07,0,.24-.07.32,0-.13.05-.37.07-.33.25a2.06,2.06,0,0,1,1.18-.21s.1,0,.06.09a2.36,2.36,0,0,0-1,.14s.15,0,.07.06-.35.06-.27.23a2.21,2.21,0,0,1,.57-.17c.21,0,.47-.09.66,0-.18,0-.36.07-.54.08,0,0,.11,0,.07,0a1,1,0,0,1-.45.1c0-.09-.12,0-.17,0s.13,0,.18,0-.39.05-.33.24a1.73,1.73,0,0,1,1.12-.13s.11,0,.09.08a2,2,0,0,0-.54,0s.19,0,.21,0a3,3,0,0,1-.41.09c-.13,0-.31-.05-.41.07.06,0,.28-.11.3,0s-.42,0-.38.22a1.51,1.51,0,0,1,1.16-.13c0,.06.09.06.15.09-.21.06-.43,0-.63,0a.77.77,0,0,0-.61.11c.09,0,.21-.07.28,0s-.32,0-.22.15c.36-.16.78,0,1.14-.06.05.09-.1.16-.17.09a6.1,6.1,0,0,0-.72.14c0,.15-.35,0-.4.2a3.58,3.58,0,0,1,1.22-.09c.1.2-.28,0-.3.13a4.1,4.1,0,0,0-.61.11c-.07.12-.32,0-.33.17a2.21,2.21,0,0,1,1.17,0c0,.12-.18,0-.21.09a3.78,3.78,0,0,0-.94.16c-.06,0-.06.13,0,.1a2.24,2.24,0,0,1,.93-.08c.06,0,.19,0,.2.09a2.82,2.82,0,0,0-1.13.23c-.08,0-.1.19,0,.14a2,2,0,0,1,1.25-.06c.05,0-.05.09-.1.08a1.21,1.21,0,0,0-.88.05c.08,0,.1.11,0,.1s-.44,0-.37.22c.29-.23.66-.12,1-.15.07-.06.21,0,.11.09a4.47,4.47,0,0,0-.82.08c0,.13-.27.1-.31.2a6.4,6.4,0,0,1,1.16-.08c.08,0,.26-.05.24.07s-.12,0-.15.05a2.05,2.05,0,0,0-1,.08c0,.09-.17.06-.2.14a6.73,6.73,0,0,1,1.19-.07c.06,0,.16,0,.18,0s-.25,0-.37.05a4.48,4.48,0,0,0-.82.09c.19.16-.34.08-.25.24a6.54,6.54,0,0,1,1.08-.08c.05,0,.18,0,.13.09a4.49,4.49,0,0,0-1,.09c0,.11-.27.07-.28.21a7.41,7.41,0,0,1,1.15-.08c.09.09-.15.07-.2.08a1.31,1.31,0,0,1-.75.1c-.07,0,.06,0,0,.07s-.25.1-.28.24a4.2,4.2,0,0,1,1.06-.06.06.06,0,0,1,.05.09,3.38,3.38,0,0,0-1,.06c.07.07,0,.17-.1.2a6.09,6.09,0,0,1,1,0s0,0,0,.06a5.4,5.4,0,0,0-.9.11c0,.12-.27.14-.24.3a2.78,2.78,0,0,1,1.28,0c0,.06-.14.15-.15,0a1.93,1.93,0,0,0-.34,0c-.17.1-.38.07-.56.17,0,.12-.19.08-.2.2s0,0,0,0a3.2,3.2,0,0,1,.67-.14c0,.08-.08,0-.12.07a.61.61,0,0,1-.14.1c.21,0,.44-.05.65,0,0,.08-.1,0-.14.05a4.87,4.87,0,0,0-.76.06c-.08,0,0,.13-.12.13s-.14,0-.12.11.14-.07.19,0-.17,0-.2.1a2.94,2.94,0,0,1,.89-.11c.06,0,.17,0,.19.07-.33,0-.7,0-1,.2,0,.07-.07.07-.09.13.28,0,.56-.09.85-.11.06,0,.16,0,.11.11-.27,0-.53.09-.8.11-.08,0-.12.09-.17.13a5.24,5.24,0,0,1,1,0c-.24.13-.58,0-.84.12-.09,0-.24.07-.19.19a5.23,5.23,0,0,1,1,0s0,.07,0,.09a3.69,3.69,0,0,0-.94.06c-.13.06.17.07,0,.17a3.87,3.87,0,0,1,.76,0s.19,0,.14.1a3.1,3.1,0,0,0-.91.09c-.07,0,0,.09-.05.11s-.13.07-.06.08a4,4,0,0,1,1-.08c.06,0,.06.09,0,.09a3.14,3.14,0,0,0-.92.12c-.06.08-.19.11-.21.22a4.45,4.45,0,0,1,1.31-.06c.08.11-.14.15-.21.09a3,3,0,0,0-.89.07c.1.17-.19.06-.18.18a5.58,5.58,0,0,1,1.08,0c.05,0,0,.1,0,.09a3.7,3.7,0,0,0-.94.08c0,.12-.21.1-.14.23a3.78,3.78,0,0,1,1-.09c.06-.12.32-.06.25.09s-.12-.09-.18,0a2.9,2.9,0,0,0-.83.1c0,.1-.18.09-.23.17a5.63,5.63,0,0,1,1-.09c.07,0,.21,0,.11.08a8.17,8.17,0,0,0-.85.09c-.09,0,0,.07-.07.08s-.2,0-.21.11a5.45,5.45,0,0,1,1.07-.05s0,0,0,.07A3.9,3.9,0,0,0,173,19c-.06.13.07.07.13.12a3.77,3.77,0,0,1,1-.05s.12.08,0,.09a2.89,2.89,0,0,0-1.16.19s0,.06,0,.06a3.3,3.3,0,0,1,1.13-.06s0,.07,0,.07a2.83,2.83,0,0,0-1.05.12c0,.07-.14.11-.11.18a3.88,3.88,0,0,1,1.13-.11c.06,0,0,.09,0,.09a4.9,4.9,0,0,0-1,.13c-.06,0,0,0,0,.08s-.16,0-.14.14A3.31,3.31,0,0,1,174,20a.05.05,0,0,1,.05.07,3.92,3.92,0,0,0-1,.14c-.06,0,0,.08,0,.12s-.12,0-.11.05a3.16,3.16,0,0,1,1-.08s0,0,.05.07a4.37,4.37,0,0,0-.95.15c-.07,0-.09.14,0,.08a1.89,1.89,0,0,1,.82,0c0,.12-.23,0-.33.05a3.52,3.52,0,0,0-.7.21,5.6,5.6,0,0,1,2.87.28c0-.74.05-1.48.08-2.21.08-.54.08-1.09.11-1.63.11-.93.07-1.86.2-2.78a11.33,11.33,0,0,1,.15-1.17,2.94,2.94,0,0,1,0-.59c.13-1.5.24-3,.24-4.51a.44.44,0,0,0-.4-.55.42.42,0,0,0-.33-.1,6.26,6.26,0,0,0-.86,0m-19.41-.16-.84.13c.28,0,.6-.07.9-.09a0,0,0,0,0-.06,0m-.27-.06a2.69,2.69,0,0,0-.75.14c.26,0,.52-.1.79-.12,0,0,0,0,0,0m.39-.12c-.24,0,.19,0,0,0m19.2,0a2.85,2.85,0,0,0-.67.1,4.62,4.62,0,0,1,.83,0c0-.08-.11-.07-.16-.06m0-.21a4.59,4.59,0,0,0-1,.16.93.93,0,0,0-.67.48c-.07.16.07.28.19.36,0-.09.16-.14.15-.21s.13-.06.2-.07-.15,0-.09-.08a5.6,5.6,0,0,1,1.7-.28,3.57,3.57,0,0,0-1.3.11,1.36,1.36,0,0,1-.53.07c0-.06.11-.06.16-.08s-.17,0-.17-.05a6.67,6.67,0,0,1,1-.26c0-.07.09,0,.15,0a1.83,1.83,0,0,1,.7,0c.13,0,.3,0,.31.18a.15.15,0,0,1-.19.12,5,5,0,0,0,.66.08c.07-.06,0-.16,0-.24s.35,0,.5.1.18.31.06.42c0,.07.09.33.19.16a.48.48,0,0,0-.39-.76,3.88,3.88,0,0,0-1.59-.21m-.34-.19c-.08,0-.53,0-.23,0l.35,0s-.1,0-.12,0m1.44-.07c-.06.05,0,.14-.09.18a.86.86,0,0,0,.24,0,.21.21,0,0,0-.15-.22m-1.42,0c-.1,0-.39-.06-.39.07.31,0,.65,0,.94,0a5,5,0,0,0-.55,0m.28-.12c-.25,0-.5,0-.75,0l1.09,0a1.27,1.27,0,0,0-.34,0M155.12,6c-.14,0,.18.07.19,0h-.19m19.54-.14h-.24s-.09.12,0,.07a4,4,0,0,1,.69,0c.1.07,0-.11,0-.06h-.43m-20,0c-.12,0-.38.09-.27.24a1.07,1.07,0,0,1,.38-.13c0-.06,0-.15-.11-.11m.28-.14s0,0,0,0c.18,0,.21.22.4.18a.32.32,0,0,0-.37-.21m19.94-.1s-.15,0-.16.06.25,0,.36,0a.27.27,0,0,0-.2,0m.11-.11s-.09,0,0,0,.31,0,.31.18-.14,0-.22,0a1.69,1.69,0,0,0-.55.06c.22.07.53-.06.77,0,0,0,0,.1-.05.1s.15,0,.11.11.07.06,0,.12-.1,0-.15,0a3.47,3.47,0,0,0-.72,0c-.06,0-.24.13-.23,0a3.23,3.23,0,0,1,1-.08c-.29-.12-.62,0-.92,0,0,.08-.2.16-.13.24a8.56,8.56,0,0,1,1.34,0c.11-.09,0-.24,0-.35s-.08-.05,0-.09.25.17.36.25,0,.16.09.21-.06.11-.1.16a.31.31,0,0,1-.32,0,6.19,6.19,0,0,0-1.36,0,2,2,0,0,1-.32.1s0,.07,0,.08a5.28,5.28,0,0,1,2.13,0,1.33,1.33,0,0,1,.35.13s0-.07,0-.09-.29-.11-.42-.19.24.08.18-.07a1,1,0,0,0-.31-.51c-.08-.11-.23-.13-.3-.26a3,3,0,0,0-.51-.07m0-.27c-.06,0,.07.08.11.06s.22.09.26,0a1.18,1.18,0,0,0-.37-.05m.36-.34s0,.06,0,.09-.22,0-.22.11a1.71,1.71,0,0,0,.39,0,.06.06,0,0,1,.06-.08c.12,0,.07.2.2.22s0-.12,0-.16a.51.51,0,0,0-.37-.21m-20.73,0c-.15.12,0,.32,0,.44s.21-.17.11-.26-.06-.21-.16-.18m20.73-.75c-.06,0,0,.08,0,.11a.35.35,0,0,1-.2.47c.12,0,.25,0,.38,0a.94.94,0,0,0,0-.62.38.38,0,0,0-.15,0m0-.27h.09c.1,0,.14.13.18.21a.84.84,0,0,1,0,.74.48.48,0,0,1,.32.46c0,.14-.21.19-.32.25a2,2,0,0,1,.44.38c.17.16.12.47.35.59s.09.22.05.32-.25.08-.32.16c.33.17.78.32.82.76v.1a.44.44,0,0,1-.39.33,2,2,0,0,0,0,.54c0,.63,0,1.25-.09,1.87,0,.88-.15,1.75-.18,2.63s-.21,1.55-.23,2.33c-.08,1.25-.14,2.5-.25,3.76a16.67,16.67,0,0,0,0,1.87c.08.16.32.22.33.43s-.45.44-.74.51-.42,0-.6.12c-.17,0-.11.23-.25.27s-.15.24-.13.37a6.46,6.46,0,0,1,0,2.32,1.14,1.14,0,0,1-.3.6.35.35,0,0,1-.52.1.64.64,0,0,1-.25-.42,4.64,4.64,0,0,1,.12-2.31,3.75,3.75,0,0,0,.16-.64.65.65,0,0,1-.19-.41c-.33,0-.65-.21-1-.12-1.71.17-3.41.4-5.12.47-.64,0-1.26.19-1.9.19a13.15,13.15,0,0,1-2.08-.06c-.59-.09-1.19-.09-1.78-.21-.19,0-.37.07-.57.05a8.93,8.93,0,0,1-1.16-.05,5.5,5.5,0,0,0-.81-.15,2.62,2.62,0,0,1-.88.41c-.07,0-.07-.12-.13,0a.6.6,0,0,1-.23.58s.08-.05.11,0a7.23,7.23,0,0,1,.55,1.45,2.85,2.85,0,0,1,.11.87,1.18,1.18,0,0,1,0,.56c0,.21-.26.27-.44.31h0a.72.72,0,0,1-.42-.45,1.9,1.9,0,0,1-.27-.64,7.1,7.1,0,0,1-.29-2,.34.34,0,0,1-.13-.57,5.45,5.45,0,0,1-.79.14c-.27-.11-.66,0-.82-.33-.11-.13,0-.27.08-.39a3.87,3.87,0,0,1,.88-.46l0,0a9.29,9.29,0,0,1,2.57-.38c-.12-.17-.07-.4-.14-.59a4.26,4.26,0,0,1-.1-.49s-.1,0-.14,0,.07-.12.1-.18a7.73,7.73,0,0,1-.2-1.17c-.18-.36-.08-.83-.27-1.15.1-.06,0-.19,0-.29s-.19,0-.16-.1a.25.25,0,0,0-.05-.41c-.06-.09.13-.09.09-.18a7.61,7.61,0,0,1-.25-1.44,12.37,12.37,0,0,1-.26-1.35c-.08.06-.19,0-.28,0s.21-.12.28-.06c-.1-.5-.14-1-.2-1.51a6.26,6.26,0,0,1-.14-1.23c0-.15-.2,0-.24-.12s.16,0,.22,0a1.86,1.86,0,0,0-.09-.62,1.19,1.19,0,0,0-.16-.08c0-.08.08-.07.13-.06,0-.14,0-.29-.07-.43a.69.69,0,0,0-.35-.08c0-.18.27-.06.33-.08s-.13-.12-.22-.16-.17,0-.17-.06a.47.47,0,0,1,.33,0,.47.47,0,0,0,0-.17c-.07,0-.21,0-.21-.08s.14,0,.2,0a1.23,1.23,0,0,0,0-.19c-.12,0-.24,0-.37,0s-.15,0-.17-.07c.16-.06.35,0,.52,0,0-.06,0-.13,0-.2a.37.37,0,0,1-.29-.05c0-.14.21,0,.28,0s-.08-.18-.18-.2a4.85,4.85,0,0,0-1.86,0,3.9,3.9,0,0,0-.87.3s0,.18.07.13a2,2,0,0,1,.83-.27c.05,0,.19,0,.18.06a1.77,1.77,0,0,0-1,.38.05.05,0,0,0,0,.09,2.69,2.69,0,0,1,1-.32s0,0,0,0a2.62,2.62,0,0,0-.85.3.3.3,0,0,0-.16.25,2.94,2.94,0,0,1,1-.37c.07,0,0,.09,0,.05a3.21,3.21,0,0,0-.94.43c-.05,0-.09.12,0,.15A4,4,0,0,1,155,9.15s0,.09,0,0a2.88,2.88,0,0,0-1,.47s-.1.13,0,.1c.25-.14.56-.17.8-.32.08,0,.26-.07.23.06a2.86,2.86,0,0,0-1,.42c.29,0,.61-.24.93-.17,0,.06-.07.05-.1.07a2.77,2.77,0,0,0-.85.35s0,.08,0,0a6.35,6.35,0,0,1,1-.17s.1.06.05.1a3.48,3.48,0,0,0-1,.2c-.06,0-.05.16,0,.12a2.67,2.67,0,0,1,.73-.17c0,.12-.18.1-.26.14a1,1,0,0,0-.48.22s0,.11.05.08a2.17,2.17,0,0,1,.9-.22c.08,0,0,.12-.07.1a2,2,0,0,0-.8.35s0,.11,0,.09c.29-.06.58-.31.88-.17.05,0,.08,0,.05.07a2.14,2.14,0,0,0-.83.23c-.11,0-.14.16-.06.18a1.49,1.49,0,0,1,.76-.25s.08.05,0,.07-.36,0-.4.22-.42,0-.38.27a2.69,2.69,0,0,1,.83-.18c.09.08-.09.08-.14.08-.21,0-.34.2-.54.24a.08.08,0,0,0-.05.15,2.8,2.8,0,0,1,1-.22s0,.08-.06.09a5.23,5.23,0,0,0-.54.12c0,.15-.21.17-.33.2s0,.09,0,.09c.28-.05.56-.14.85-.19.05,0,.1,0,.05.09a2.7,2.7,0,0,0-.6.17.24.24,0,0,1-.28.12c-.06,0,0,.17.06.13a2.54,2.54,0,0,1,.89-.19c.06,0,.06.1,0,.09a1.62,1.62,0,0,0-.92.34s0,.09.08.06a2.93,2.93,0,0,1,.93-.16c0-.19.21,0,.1.11a1.62,1.62,0,0,0-.58.06c-.15,0-.23.15-.38.18,0,0-.11,0-.09.1a3.45,3.45,0,0,1,.9-.14c.07,0,.13,0,.19,0s.17.06.14.14a.89.89,0,0,1-.43,0,1,1,0,0,0-.74.33,4.94,4.94,0,0,1,1.08-.16c.1,0,0,.16-.06.13s-.56-.08-.69.15c-.06,0-.23,0-.23.13a6,6,0,0,1,.85-.11.06.06,0,0,1,0,.09,2.61,2.61,0,0,0-.87.19s.05.14.11.1a1.31,1.31,0,0,1,.73-.11s.09.13,0,.14a1.58,1.58,0,0,0-.43,0c0,.15-.23.21-.35.21s-.05.09,0,.06a3.22,3.22,0,0,1,1-.09,0,0,0,0,1,0,.06,4.14,4.14,0,0,0-.93.18c.08.07.21,0,.3,0,0,.15-.27.06-.3.18a3.19,3.19,0,0,1,.92-.12c.05,0,.14,0,.08.1a2.26,2.26,0,0,0-1,.19s0,.14,0,.12a3,3,0,0,1,.83-.12c.06,0,.14,0,.1.1a.63.63,0,0,0-.6.17c-.06.11-.39,0-.31.19a2.17,2.17,0,0,1,1-.13c.06,0,.05.07,0,.08a1.3,1.3,0,0,0-.52.05,1.57,1.57,0,0,1-.45.31,2.36,2.36,0,0,1,.75-.13c.08,0,.22-.05.27.05a2.4,2.4,0,0,0-.81.19c.09,0,.15-.06.23-.07,0,.15-.24.14-.35.19s0,.13,0,.09a1.59,1.59,0,0,1,.91-.1c.06,0,.05.07,0,.08a1.75,1.75,0,0,0-.73.24c-.07,0-.23,0-.16.13.32,0,.63-.12,1-.14.06,0,.13.05.07.09-.33.1-.71.08-1,.31,0,0,0,.11,0,.09a1.73,1.73,0,0,1,1-.16v.08a1.66,1.66,0,0,0-.66.1c0,.15-.23.15-.32.25s0,0,0,0a3,3,0,0,1,.66-.13.59.59,0,0,1,.35,0c0-.07.18-.1.13,0a6.68,6.68,0,0,1-.89.18c.18.13-.34.13-.21.28a5.2,5.2,0,0,1,1-.16,0,0,0,0,1,0,.07c-.2.07-.43.07-.63.14s-.19.15-.27.25a2.14,2.14,0,0,1,1.06-.1c.06,0,.18-.11.17,0s-.24.06-.37,0a1.85,1.85,0,0,0-.86.3c0,.23.25,0,.35.07a5.14,5.14,0,0,1,1-.12c.08.1-.13.11-.19.12a3.44,3.44,0,0,0-1,.21s-.09,0-.09.06a7.75,7.75,0,0,0,1-.07c.1,0,0,.12,0,.09a2.17,2.17,0,0,0-.86.27c0,.15.18-.05.27-.07s-.1.17,0,.12a1.6,1.6,0,0,1,.78-.08c.07,0,.2-.15.23,0s-.21.16-.29.08a2.69,2.69,0,0,0-1,.26s0,.06,0,.09.25-.11.34,0a5.83,5.83,0,0,1,.73-.1c.08,0,0,.11-.05.09a3.29,3.29,0,0,0-1,.29c.05.11.19-.1.26,0s-.21.1-.25.18a2.88,2.88,0,0,1,1-.21s0,.09,0,.09a3.34,3.34,0,0,0-1,.28c-.05,0-.07.12,0,.1s.23-.09.35-.1-.13.1,0,.09c.28-.09.68-.25.91-.05.08.09-.11.13-.12,0a3.56,3.56,0,0,0-1.1.32c0,.22.24-.07.31.06.28,0,.54-.14.82-.16.07,0,0,.08,0,.1a5.45,5.45,0,0,0-.79.22c-.05,0,.06,0,.05.05s-.1.09-.14.15a2.68,2.68,0,0,1,.88-.2c.05,0,.19,0,.14.1a2.2,2.2,0,0,0-.92.24c-.07,0-.21.06-.22.15s.19-.11.28-.15-.15.13,0,.12a1.29,1.29,0,0,1,.9-.13c.05,0,.19,0,.15.09a.27.27,0,0,1-.23,0c-.33-.06-.6.15-.9.23-.05,0-.15,0-.12.13s.11-.14.2-.12,0,.08,0,.11a4.25,4.25,0,0,1,1.12-.2c.07,0,0,.1,0,.12a3.27,3.27,0,0,0-.88.17c-.1.09-.29.09-.34.23.09,0,.19-.11.28,0a3.15,3.15,0,0,0,.76-.2,1,1,0,0,0,.29,0c.05.1-.06.15-.14.12s-.33.07-.5.08a2.07,2.07,0,0,0-.63.27c0,.09.16,0,.24,0a8,8,0,0,1,1-.19c.07,0,0,.1,0,.11a4,4,0,0,0-.89.22,4.76,4.76,0,0,1-.49.28s-.09.1-.12,0a4.56,4.56,0,0,0,0-.64c-.1-.07-.05-.17,0-.27s0-.44-.07-.66a3.44,3.44,0,0,1-.13-.78,1.56,1.56,0,0,1-.1-.64c-.12-.56-.19-1.13-.31-1.69a10,10,0,0,1-.19-1.2c0-.21-.15-.39-.09-.6a.89.89,0,0,1-.1-.48c-.05-.25-.07-.5-.11-.75a1,1,0,0,1-.07-.57.24.24,0,0,1-.06-.23c-.11-.16-.06-.37-.11-.54-.11-.56-.19-1.12-.29-1.67-.07-.39-.08-.78-.17-1.16-.09-.1,0-.24-.08-.36a3.54,3.54,0,0,1-.08-.45.53.53,0,0,1-.59-.42V8.59c.15-.48.71-.64,1.15-.78-.08-.06-.24-.06-.28-.19s-.19-.07-.24-.17.15-.22.25-.3a1.85,1.85,0,0,1,.52-.88c-.28-.11-.2-.5,0-.61,0-.12-.1-.25-.05-.38s0-.65.34-.6a1.27,1.27,0,0,1,.35.82.42.42,0,0,1,.32.63,1.07,1.07,0,0,1,.7.66c.08,0,.18,0,.23.1s0,.36-.16.47-.17.08-.16,0a.4.4,0,0,0,.22-.34c0-.11-.18-.11-.26-.15a1.3,1.3,0,0,0-.54-.55,1,1,0,0,0-.67,0c.05.12-.22,0-.21.14s.17-.06.24,0-.34,0-.35.21c.11,0,.23,0,.33,0s-.29,0-.32.16.21,0,.31,0,0,.11,0,.16.21,0,.31,0,.24,0,.26-.14-.18-.15-.11-.26-.08-.06,0-.08a.58.58,0,0,1,.56.46c-.53.14-1.1.21-1.65.31-.08.06-.29.11-.25.22A6.73,6.73,0,0,1,156.07,7a.07.07,0,1,1-.06.13.3.3,0,0,1-.19.3c.06,0,.15,0,.11.09a3.39,3.39,0,0,1,1,.18.5.5,0,0,1,.05.82,4.48,4.48,0,0,0,.81.1,12,12,0,0,0,1.32.19,4.39,4.39,0,0,1,.79-.21,14.54,14.54,0,0,1,2.94.2c.29.08.58,0,.87.07.89.14,1.83-.14,2.68.22a3.86,3.86,0,0,1,1.42-.44c.33,0,.66-.07,1-.06.62,0,1.24,0,1.86-.09a8.46,8.46,0,0,0,1.95-.23c.16-.1.37-.11.51-.23-.06-.1-.18-.15-.22-.26a.42.42,0,0,1,.12-.48,1.89,1.89,0,0,1,.91-.35,2.1,2.1,0,0,1-.06-.24c-.07-.07-.17-.13-.2-.23s.16-.17.26-.21a1.65,1.65,0,0,1,.75-.77.2.2,0,0,0,.16-.17c-.09-.07-.2-.15-.19-.27s.24-.29.39-.38l-.05,0a1.91,1.91,0,0,1,.16-.59.29.29,0,0,1,.26-.22m-.7,3.9c.07,0,.26,0,.23.08a1.37,1.37,0,0,0-.28,0C174.57,7.81,174.62,7.7,174.7,7.71Zm.46,0c.06,0,.15.06.07.09S175.08,7.76,175.16,7.72Zm-.34.7c.06,0,.11.06.05.1S174.75,8.45,174.82,8.42Zm.08.43c.09,0,.08.1,0,.12A.06.06,0,0,1,174.9,8.85Zm-19.82.55C155.23,9.37,155.06,9.56,155.08,9.4Zm19.71.24c.05,0,.09,0,.07.08S174.72,9.68,174.79,9.64Zm-19.71.09c.07,0,.1.1,0,.1S155,9.74,155.08,9.73Zm19.91,0c.08,0,.06.12,0,.1S174.91,9.8,175,9.78Zm-.44.44S174.57,10.27,174.55,10.22Zm.38,0s.09.09,0,.11S174.85,10.22,174.93,10.22Zm-20,0c.09,0,.13.09,0,.09S154.87,10.26,155,10.27Zm11.5.08c.07,0,.09.12.07.17S166.43,10.41,166.46,10.35Zm8.43.19c.06,0,.12.08.05.09S174.84,10.56,174.89,10.54Zm-15.43.18c.15,0,0,.24.11.34s-.08.14-.13.06S159.36,10.83,159.46,10.72Zm7.06,0c.08,0,0,.13,0,.14S166.43,10.75,166.52,10.74Zm-11.35.35c.07,0,.08.11,0,.11S155.1,11.1,155.17,11.09Zm1.66.05s.09,0,.15,0C157,11.33,156.68,11.26,156.83,11.14Zm9.7.1c.14,0,.07.16,0,.21S166.47,11.29,166.53,11.24Zm-6.95.15c.15,0,0,.2.09.29C159.55,11.79,159.38,11.41,159.58,11.39Zm-4.4,0c.1-.06.13.1,0,.11S155.12,11.43,155.18,11.42Zm11.41.27c.07,0,.1.14,0,.16S166.56,11.73,166.59,11.69Zm8.21.13a.07.07,0,0,1,0,.13C174.7,11.93,174.75,11.84,174.8,11.82Zm-15.14.32c.11,0,.11.2.14.29s.13.32.07.49-.13-.05-.11-.12c-.17-.07,0-.32-.12-.46a.14.14,0,0,1,0-.2Zm6.94.07c.05,0,.09.06.07.09a2.14,2.14,0,0,0,.08.91c.09.14-.11.25,0,.39s0,.23,0,.17a.57.57,0,0,1,0-.51,2,2,0,0,1-.09-1Zm-9.72,0c.09,0,.26,0,.24.15S156.78,12.37,156.88,12.26Zm0,.29a.31.31,0,0,1,.23.06C157.1,12.71,156.82,12.64,156.89,12.55Zm.09.17c.05,0,.08.1.15.11S156.83,12.8,157,12.72Zm2.91.47c.1,0,.15.23,0,.23A.18.18,0,0,1,159.89,13.19Zm-4.18.27c.1,0,0,.18-.08.11S155.64,13.46,155.71,13.46Zm19,0c.08,0,.11.12,0,.08S174.66,13.47,174.7,13.46ZM160,13.73c.11,0,.07.14,0,.19S159.85,13.75,160,13.73Zm14.61,0C174.72,13.74,174.55,13.82,174.58,13.75Zm-18.86.08c.12,0-.06.18-.12.1S155.67,13.84,155.72,13.83Zm18.8.61C174.69,14.46,174.43,14.56,174.52,14.44Zm-17.38.11c.07,0,.13,0,.05.07S157.05,14.58,157.14,14.55Zm.34.34a.12.12,0,0,1,.07.07C157.5,15,157.38,14.93,157.48,14.89Zm16.84.32a.13.13,0,0,1,.12,0C174.45,15.32,174.2,15.27,174.32,15.21Zm.2.1c.14,0,0,.16-.07.1S174.48,15.32,174.52,15.31Zm-.15.32s.07,0,0,.07S174.3,15.63,174.37,15.63Zm-18,.54c.07,0,.08.12,0,.08S156.34,16.17,156.39,16.17Zm17.91.25s.08.06,0,.07S174.24,16.43,174.3,16.42Zm0,.56s.13,0,.08.07S174.19,17,174.27,17ZM156.46,17c.15,0,0,.21-.1.12S156.39,17,156.46,17Zm17.83.27c.05,0,.12.06.07.11S174.19,17.32,174.29,17.31Zm0,.63s.12,0,.08.08S174.17,18,174.29,17.94ZM156.56,18c.07,0,.07.09,0,.09S156.49,18,156.56,18Zm.28,0s.11,0,.06.05S156.79,18.07,156.84,18Zm3.65.08c.11,0,.09.21.12.31s.12.48.1.71-.11.05-.08,0A8.26,8.26,0,0,1,160.49,18.12Zm13.8.3c.06,0,.16.07.09.12S174.18,18.46,174.29,18.42Zm0,.3c.06,0,.13.07.06.1S174.18,18.73,174.29,18.72Zm-17.57.1c.08,0,0,.08,0,.11S156.66,18.83,156.72,18.82Zm17.53.37c.05,0,.11,0,.07.08S174.17,19.21,174.25,19.19Zm-13.55.36a1.36,1.36,0,0,1,.13.72c-.08,0-.07-.11-.08-.16s0-.18,0-.26a.61.61,0,0,1,0-.3Zm-3.77.09c.12,0,0,.2-.07.13S156.88,19.66,156.93,19.64ZM157,20c.16,0,0,.26-.13.14S157,20,157,20Zm.19.35c.09,0,0,.13-.05.11S157.17,20.33,157.21,20.32Zm0,.29c.08,0,.08.08,0,.08S157.14,20.63,157.18,20.61Z" transform="translate(-150 -0.35)"/></g></g></g></svg>