<svg id="Layer_1" data-name="Layer 1" xmlns="http://www.w3.org/2000/svg" xmlns:xlink="http://www.w3.org/1999/xlink" viewBox="0 0 30 30"><defs><style>.cls-1{fill:none;}.cls-2{clip-path:url(#clip-path);}.cls-3{clip-path:url(#clip-path-2);}.cls-4{fill:#fff;}.cls-5{clip-path:url(#clip-path-4);}.cls-6{fill:#964a25;}</style><clipPath id="clip-path" transform="translate(-250.04)"><rect class="cls-1" x="250.04" width="30" height="30"/></clipPath><clipPath id="clip-path-2" transform="translate(-250.04)"><rect class="cls-1" x="250.04" width="30" height="37.5"/></clipPath><clipPath id="clip-path-4" transform="translate(-250.04)"><rect class="cls-1" x="258.4" y="3" width="13.5" height="24"/></clipPath></defs><g id="Material"><g class="cls-2"><g class="cls-3"><rect class="cls-4" width="30" height="30"/></g><g class="cls-2"><rect class="cls-4" width="30" height="30"/></g><g class="cls-5"><path class="cls-6" d="M263.86,3.54a2.86,2.86,0,0,1,.87-.2l.29,0a2,2,0,0,1,.46,0,6.49,6.49,0,0,1,.79.1c.21.06.25.06.29,0s0-.15-.23-.22a1.68,1.68,0,0,1-.26-.08l-.27,0-.39,0a2.08,2.08,0,0,0-.35,0l-.4,0a1.79,1.79,0,0,0-1,.32s0,.16,0,.16l.18-.08Zm0,.52a2.87,2.87,0,0,1,.56-.2,4.24,4.24,0,0,1,1.09,0,2.79,2.79,0,0,1,.9.14.48.48,0,0,0,.21,0c.1,0,.08-.18-.05-.36a.89.89,0,0,0-.48-.18,3.76,3.76,0,0,0-.6-.07,3.43,3.43,0,0,0-.92,0c-.56.07-.95.27-.95.49s0,.17.13.17a.18.18,0,0,0,.11,0Zm.47.29.31-.08h.5a3.41,3.41,0,0,1,1,.1l.18,0h.08V4.34a.24.24,0,0,1,0-.16s.05-.09,0-.1L266.19,4a3.5,3.5,0,0,0-.9-.11,3.11,3.11,0,0,0-1,.09,1.06,1.06,0,0,0-.36.15l0,.1a.18.18,0,0,1,0,.14c0,.08,0,.08,0,.07l.35-.09Zm2.33.58a.29.29,0,0,0-.1-.28c-.13-.12-.22-.16-.63-.24a3.94,3.94,0,0,0-1.18,0c-.57.08-.83.16-1,.31s-.15.2-.13.22.06,0,.11,0l.14-.07a2.23,2.23,0,0,1,.37-.08l.27-.06a1.5,1.5,0,0,1,.63,0l.23,0a1.29,1.29,0,0,1,.47.09l.18,0a.21.21,0,0,1,.12.05.34.34,0,0,0,.12,0,.35.35,0,0,1,.16.06c.15.07.19.07.21,0Zm.18,1.22s0-.14-.06-.23l-.07-.2a1.26,1.26,0,0,0-.09-.21,1.91,1.91,0,0,0-.49-.54,1.07,1.07,0,0,0-.61-.23h-.13l.07,0a.19.19,0,0,0,.08.05,2.89,2.89,0,0,1,.75.84l0,.1a.49.49,0,0,1,0,.1.19.19,0,0,0,0,.07,1.25,1.25,0,0,1,.09.22s0,0,.17,0l.19,0s0,0,0-.07Zm-.43,0a.27.27,0,0,0,0-.1l0-.11a2.72,2.72,0,0,0-.24-.49,3.87,3.87,0,0,0-.59-.61,1.09,1.09,0,0,0-.8-.2c-.19,0-.2,0,.07.12a2,2,0,0,1,.7.49,0,0,0,0,0,0,0,1.78,1.78,0,0,1,.47.84v.06h.21l.21,0ZM267.2,6l-.07-.26a.1.1,0,0,0,0-.08l0,0a.3.3,0,0,0-.06-.11l-.06-.09-.14-.16a.65.65,0,0,0-.31-.22.13.13,0,0,1-.07,0l-.14-.07-.08,0,.12.12a1.67,1.67,0,0,1,.38.49,2.52,2.52,0,0,1,.21.67s0,0,.09,0l.16,0c.06,0,.08,0,.09,0A1.65,1.65,0,0,0,267.2,6Zm-1.41.25c.08,0,.14,0,.14,0a3.56,3.56,0,0,0-.18-.43,1.18,1.18,0,0,0-.35-.48,2.52,2.52,0,0,0-.88-.53,1.87,1.87,0,0,0-.76.14l.17,0a.73.73,0,0,1,.3.07.56.56,0,0,0,.17.06c.06,0,.14,0,.14.08s0,0,0,0a2.28,2.28,0,0,1,.82.77,1.8,1.8,0,0,1,.1.24c0,.07,0,.08.08.06l.2,0Zm1.9.08a.06.06,0,0,0,0,0,.4.4,0,0,1-.07-.2.58.58,0,0,0-.05-.13,1,1,0,0,0-.13-.23l-.09-.14a.59.59,0,0,0-.09-.11l-.07-.09a2.14,2.14,0,0,0-.39-.28s0,0,0,.1a1.84,1.84,0,0,1,.36.5c0,.08.08.27.13.42a.17.17,0,0,1,0,.1s0,0,0,0l.17,0c.13,0,.16,0,.16,0Zm-2.38,0,.15,0a1.65,1.65,0,0,0-.27-.49,2,2,0,0,0-.52-.5,2,2,0,0,0-.88-.32,1,1,0,0,0-.51.11,2.78,2.78,0,0,0-.54.31l.12,0a1.34,1.34,0,0,1,.45-.08,2.21,2.21,0,0,1,.58.07.9.9,0,0,1,.26.09.88.88,0,0,1,.42.26l.08.07a.47.47,0,0,1,.14.14l.06.08a.16.16,0,0,1,0,.09.56.56,0,0,0,.07.14c.06.12.07.13.13.12l.21,0Zm-1.06.7a2.14,2.14,0,0,1,.43-.19,5.49,5.49,0,0,1,.67-.16,4,4,0,0,1,1.18-.06l.74,0a2.33,2.33,0,0,1,.46.11s0,0,0,0a.39.39,0,0,0,0-.15c0-.06,0-.08-.14-.14a4.85,4.85,0,0,0-2.05-.06l-.34.06c-.2,0-.64.13-.71.15l-.2.08a2.87,2.87,0,0,0-.38.17s.07.08.09.08l0,0s.09.22.1.19,0-.06.09-.09Zm2.85.52.07,0s.07,0,.18,0a.28.28,0,0,1,.19,0s.09,0,0,0,0,0,0,0,0,0,0-.11-.05-.2-.24-.2-.31.06-.34.17a.42.42,0,0,0,0,.22.15.15,0,0,1,0,.09v.07l0,0a.12.12,0,0,1,.06,0Zm.27.19s0-.06,0-.06-.06,0,0,0,0,0,.07,0Zm-2.88-.05c.2-.06.18,0,.22-.31a1.29,1.29,0,0,1,.13-.42s0,0,0,0,0,0-.26,0a.9.9,0,0,0-.35.2.14.14,0,0,0,0,.09,1.75,1.75,0,0,1,0,.29c0,.17,0,.22,0,.21l.19-.06Zm2.92.19.07-.07s0,0-.07,0a.37.37,0,0,1-.25.06c-.09,0-.1-.07,0-.07s.05,0,0-.09,0-.09,0-.09l.05,0s0,0,0,0,0-.1,0-.1a.25.25,0,0,0-.16.16.12.12,0,0,1-.05.08s0,.13,0,.14h.15a.3.3,0,0,0,.18,0Zm-5.94,1.4a1.83,1.83,0,0,0,.13-.48c0-.08,0-.23.06-.34s0-.26,0-.35a2.26,2.26,0,0,1,.1-.44.15.15,0,0,0,0-.08.79.79,0,0,1,0-.17.43.43,0,0,0,.05-.15s0,0,0-.06,0,0,0-.06.19-.44.28-.61a1.48,1.48,0,0,1,.37-.47,1.22,1.22,0,0,1,1.45-.21.76.76,0,0,1,.34.25,1.22,1.22,0,0,1,.18.25c.05.11.06.11.22.08s.17,0,0-.27a.83.83,0,0,0-.23-.32l-.18-.16-.09-.06a.09.09,0,0,1-.06,0,.28.28,0,0,0-.11,0l-.13,0a.39.39,0,0,0-.14,0l-.19,0a1.16,1.16,0,0,0-.5,0,1.06,1.06,0,0,0-.51.18,2.27,2.27,0,0,0-.44.41.18.18,0,0,1,0,.07,1.33,1.33,0,0,0-.27.44,2.84,2.84,0,0,0-.27.7,1.49,1.49,0,0,1,0,.22,7,7,0,0,0-.13,1.16c0,.35,0,.39-.08.75,0,0,0,0,0,0s0-.05,0-.06Zm2.33-2.19s-.06,0,0-.06.15,0,.15.08,0,0-.11,0Zm2.74.15a.6.6,0,0,0-.19-.08,1.51,1.51,0,0,0-.49,0,.9.9,0,0,0-.41.06c-.05,0-.1,0-.11,0s0,0,.1-.1a2.12,2.12,0,0,1,.87,0c.18,0,.39.2.28.2l0,0Zm-.55.41s0-.06,0,0a.11.11,0,0,1-.08,0s0,0,0,0,.07,0,.11,0Zm.11,0h0s0,0,0,0,0,0,0,0A.05.05,0,0,0,266.1,7.66Zm-.32.1s0,0,0,0,0,0,0-.05,0-.06,0-.11.09-.09,0-.09a.22.22,0,0,0-.19.12c0,.08-.09.09-.09,0s.18-.24.39-.24.12,0,.08,0a.68.68,0,0,0-.34,0,.45.45,0,0,0-.12.12c-.08.1-.14.15-.18.13s.17-.24.25-.3a.78.78,0,0,1,.35-.07.52.52,0,0,1,.18.16c0,.07,0,.11,0,.11s0,0,0,.07,0,0,0,0-.43.17-.49.1Zm-2.18,0a.21.21,0,0,0,0-.07,1.06,1.06,0,0,1-.06-.51s0-.07,0-.06a.74.74,0,0,1,0,.24c0,.31,0,.36.06.37a0,0,0,0,1,0,.06,0,0,0,0,1,0,0Zm.35,0s-.06,0-.1,0-.18-.07-.18-.23.06-.23.17-.22.06,0,.06-.06,0-.1.05,0,0,.24,0,.26-.09,0-.06,0,0-.06,0,0-.1.15-.08.2a.14.14,0,0,0,.14.11c.05,0,.08,0,.1,0s0,0,0,0,0,0,0,0-.05-.07,0-.07l.06,0a.05.05,0,0,1,0,.08c0,.07-.08.09-.12,0Zm1.94.08s0,0,.05,0a.8.8,0,0,0,.23-.09s0,.06,0,.1-.24.06-.24,0Zm-.13,0s-.05-.06,0-.06.12,0,.11,0,0,0-.1,0Zm1.07.94c-.07,0-.08-.09,0-.09s.11,0,.11.08S266.91,8.87,266.83,8.83Zm-.45.33c-.08,0-.1-.1,0-.08l.25,0c.17,0,.2,0,.23,0l0-.05h-.23c-.31,0-.41,0-.41-.06s0,0,.08-.05a.21.21,0,0,0,.14-.08s.08-.06.1-.05,0,0,0,.1l-.07,0h.08a.26.26,0,0,1,.15,0c.07,0,.09,0,.14,0s.06,0,.11,0,.05.05,0,.13a.19.19,0,0,1-.05.11,1.06,1.06,0,0,1-.5,0Zm.36.18c-.05-.05-.14-.07-.17,0a.11.11,0,0,1-.13,0s.05-.05.15-.07.22,0,.22.13S266.78,9.39,266.74,9.34Zm-.57.53c-.05,0-.07-.07,0-.07l.12,0a.31.31,0,0,0,.19,0,.9.9,0,0,0,.37-.23.1.1,0,0,1,.07,0s0,0,.05-.06l.08-.1a.49.49,0,0,0,.11-.14,1.51,1.51,0,0,1,.09-.18,1.87,1.87,0,0,0,.25-.57,1.56,1.56,0,0,0,0-.56s0,0-.06,0a.48.48,0,0,1-.21,0c-.15,0-.16,0-.15,0a1.39,1.39,0,0,1,.05.39.32.32,0,0,1-.23.22.2.2,0,0,1-.17,0s-.08-.05-.08-.07-.09-.07-.17,0-.15,0-.19,0a.29.29,0,0,1,0-.26c0-.08.09-.12.14-.09s0,.07,0,.07-.1.06-.1.14.05.14.09.07.11-.07.23,0,.11,0,.13.09.07.07.17,0,.14-.14.11-.21a3.86,3.86,0,0,1-.11-.77.59.59,0,0,1,.12-.42.78.78,0,0,1,.18-.08.67.67,0,0,1,.39,0c.05,0,.05,0,0-.11a.39.39,0,0,0,0-.14,3.67,3.67,0,0,0-1.11-.11,3.31,3.31,0,0,0-1.13.06l-.2,0-.12,0c-.1,0-.18.17-.21.34a2.1,2.1,0,0,1-.12.5.26.26,0,0,1-.15.08l-.22.07c-.09,0-.1,0-.13,0s0,0,0-.19a.84.84,0,0,0,0-.23s0,0,0,0a.44.44,0,0,1-.1.11c-.05,0-.1.1-.1.13s0,0-.05,0,0-.06.11-.17a.19.19,0,0,0,.07-.13.53.53,0,0,0-.15-.36.07.07,0,0,1-.05,0s0,0-.13,0-.13,0-.18.06a.58.58,0,0,0-.16.46.62.62,0,0,0,0,.34.65.65,0,0,0,.29.3.29.29,0,0,1,.12.1.19.19,0,0,0,.16.1.08.08,0,0,0,.1-.08s0-.07.06-.05a.17.17,0,0,1,0,.15c-.09.1,0,.5.25.84a2,2,0,0,0,.87.72l.08,0a3.13,3.13,0,0,0,.62.08c.17,0,.2,0,.17,0Zm.66.07-.06-.06s-.07,0-.09,0,0,0,0,0l.06,0s.09,0,.09,0Zm-.35,0c.09-.05.07-.07-.06,0s-.13.06-.13.12,0,0,.06,0a.57.57,0,0,1,.13-.08Zm.42.16c0-.06,0,0-.13-.11l-.11,0v0s0,.06.11.1.14.07.12,0Zm-.48.08a.36.36,0,0,0,.16-.19s-.19.06-.24.11-.07.15,0,.15l.11-.07Zm.5.09s0-.06-.13-.1-.13-.06-.13,0,.07.11.16.14.1,0,.1,0Zm0,.18a.16.16,0,0,0-.12-.12.15.15,0,0,1-.09,0s0,0,0,0,0,.06.1.11.14.06.13,0Zm-.38,0a.31.31,0,0,0,.07-.12s-.13.08-.16.14S266.42,10.63,266.51,10.51Zm.34.11c.06,0,0-.08-.11-.11l-.07,0s0,.06,0,.11.05.05.08,0,0,0,.06,0Zm-4.3.11a.84.84,0,0,0-.08-.24c-.05-.13-.11-.27-.12-.31a1,1,0,0,0,0-.13.9.9,0,0,1-.08-.24.12.12,0,0,0,0-.07.8.8,0,0,1,0-.24c-.07-.48-.08-.52-.1-.49a2.86,2.86,0,0,0,.2,1.3,1.15,1.15,0,0,1,.05.15l.07.15c.05.11.07.14.11.14l.06,0Zm-.21,0a3.24,3.24,0,0,0-.16-.44,5.2,5.2,0,0,1-.18-.75l0-.16,0,.14a.38.38,0,0,0,0,.23,2.79,2.79,0,0,1,.07.34c0,.12.07.29.1.37s.07.18.09.22,0,.08.09.08.08,0,.08,0Zm-.73.08s0,0,0-.07,0-.06.06,0,0,.05.06,0h.09s0,0,0,0a1.76,1.76,0,0,1-.09-.35s.07,0,.08.08l.05.17c0,.12,0,.12.11.12s.08,0,.07-.07a.3.3,0,0,0,0-.09s-.11-.37-.18-.66l0-.16,0,.11a.82.82,0,0,0,0,.28c0,.15,0,.17,0,.17s0,0,0-.06,0-.06-.06.07a.46.46,0,0,0,0,.24c0,.08,0,.11,0,.06s0,0,0,0l-.06.09s0,0,0,0Zm3.51,0s0,0,0,0a0,0,0,0,0,0,0A0,0,0,0,0,265.12,10.85Zm-3.93.07.16-.06.08-.15a1.56,1.56,0,0,0,.11-.24c.09-.26.15-.42.18-.52s.06-.22.1-.36.08-.31.09-.36,0-.18.06-.27a1.6,1.6,0,0,0,0-.27.43.43,0,0,1,0-.15,1.25,1.25,0,0,0,0-.19c0-.09,0-.23.05-.32s0-.21,0-.26,0-.11,0-.12a.09.09,0,0,0,0-.05s.2-.63.25-.75a2.15,2.15,0,0,1,.45-.53.93.93,0,0,1,.5-.21,1,1,0,0,1,.54.07l.14.07a.69.69,0,0,1,.25.26s0,0,.05,0l.09,0c.09,0,.09,0,0-.16a.47.47,0,0,0-.17-.21c-.07-.06-.12-.11-.12-.13a2.18,2.18,0,0,0-.52-.23,1.7,1.7,0,0,0-.63,0,1.54,1.54,0,0,0-.64.55,1.56,1.56,0,0,1-.12.17,5.2,5.2,0,0,0-.31.67,7.93,7.93,0,0,0-.23.94c0,.16-.07.39-.08.51a6.94,6.94,0,0,1-.31,1.36.93.93,0,0,1-.15.32.24.24,0,0,0,0,.07l0,.12s-.05.12-.09.2a1.78,1.78,0,0,1-.08.18c0,.06,0,.06.19,0Zm4.21.07a.22.22,0,0,1,0-.08s0,0-.06,0h-.06s0,.09,0,.12,0,0,.06,0,.1,0,.08,0Zm0-.24,0,0,0,0s0,0,0,0S265.34,10.76,265.35,10.75Zm-.17,0s0,0,0-.05.14,0,.13,0-.08,0-.13,0Zm.43,0s0,0,.12,0,.15,0,0,0-.11,0-.11,0Zm-.14,0s0,0,0,0,0,0,0,0S265.47,10.78,265.47,10.76Zm.22.09s0,0,0,0h.1s.05,0,0,0S265.7,10.88,265.69,10.85Zm.26.28s0,0,0,0,0,0,0,0,0,0,0-.06,0-.05,0,0-.06,0-.06,0,0-.08,0-.08a.07.07,0,0,0,0,0s0,0,0,0,0,0,0,0,0-.06.05,0,0,0,.09-.07a.75.75,0,0,1,.14-.17c.06-.07.07-.09.06-.14a.92.92,0,0,1,0-.26c0-.14,0-.14-.12-.11h-.19l-.24,0a1.56,1.56,0,0,1-.77-.25l-.14-.08a.18.18,0,0,1-.11-.1c0-.06-.18-.26-.29-.4a1.71,1.71,0,0,1-.3-.69c0-.08,0-.1-.05-.1s0,0,0,.29a2.75,2.75,0,0,0,.15.64,2.82,2.82,0,0,0,.26.44,1.45,1.45,0,0,1,.12.19l.2.34a.23.23,0,0,1,.05.1.58.58,0,0,0,0,.11.46.46,0,0,1,.09.12c0,.08.06.09.11.1s.09.06,0,.08,0,0,0,0l.3,0a.62.62,0,0,1,.21,0l-.06,0c-.05,0-.06,0,0,0s0,0,0,0l0,.07s0,0,0,0,0,0,.07,0,.09,0,0-.05,0-.1,0-.1.1.05.06.09,0,.06,0,.06.06,0,.05,0a0,0,0,0,0,0,0c.06,0,.07,0,.07,0Zm-.4,0h-.12s0,0,.09,0h0Zm.76,0c.14-.08.18-.15.14-.23a.2.2,0,0,0-.07-.09.21.21,0,0,1-.07-.11c0-.07,0-.09,0-.16a.8.8,0,0,1,.15-.18c.09-.09.11-.12.11-.17s0,0,0,0a.38.38,0,0,1-.09.08c-.13.07-.2.15-.18.23s0,.06,0,.07-.21.23-.21.41.07.24.12.24l.13-.06Zm.14.09a.25.25,0,0,0,.16-.24.32.32,0,0,0-.07-.24s0,0,0-.07,0-.1,0-.1,0,0,0,.05a.08.08,0,0,1-.07,0c-.06,0-.05,0,.05.12s.1.14.06.25a.52.52,0,0,1-.26.21s0,0,0,0a.48.48,0,0,0,.15,0Zm.42.07s0,0,0,0,0,.06,0,0V11.3Zm2.05.15a4.34,4.34,0,0,0-.41-.47l-.17-.18a4,4,0,0,0-.35-.38,8,8,0,0,0-.95-.87l-.05,0c0,.05,0,.05.05.11a8.67,8.67,0,0,1,.63.62c.09.09.18.2.22.23l.06.09s0,0,0,0a2.59,2.59,0,0,1,.3.34l.07.09a2.39,2.39,0,0,1,.21.22c.16.17.19.18.36.2H269l0-.06Zm.18,0a.76.76,0,0,1-.17-.18.3.3,0,0,0-.07-.09,2.16,2.16,0,0,1-.3-.38s0,0-.05,0l0,0s-.62-.65-.68-.69-.18-.16-.35-.31a3.56,3.56,0,0,0-.31-.29c-.05,0,0,.05.13.18l.51.49.4.38a.6.6,0,0,1,.12.14,1,1,0,0,0,.11.13l.19.21c.1.11.2.23.24.26s.06.07.06.09a1.36,1.36,0,0,0,.27.24c.11.06.1,0-.06-.12Zm-.66.1a.36.36,0,0,1,.13,0s0,0-.17-.23l-.24-.28a4.91,4.91,0,0,0-.46-.51l-.35-.36a2.82,2.82,0,0,0-.47-.42l-.07.05-.05,0,.08.07c.06.05.08.08.07.12s0,0,.36.44a7.85,7.85,0,0,1,.82.89,1.12,1.12,0,0,0,.14.15l.06.08s0,.05,0,.05l.1-.05Zm-1.55,0s0,0,0,0,0,.05,0,0v-.06Zm-6.58.05a.13.13,0,0,1,.07,0s.07-.07.06-.11,0,0-.11,0-.29.22-.27.25.17-.06.25-.13Zm.24.14c.07-.09.1-.16.06-.18s-.05,0-.1.08-.07.22,0,.1Zm7.6,0a.28.28,0,0,1,.09-.06l.05,0-.05,0a.27.27,0,0,1,0-.07l-.09-.1a1.19,1.19,0,0,1-.15-.18.32.32,0,0,0-.1-.12,1,1,0,0,1-.13-.14,7.69,7.69,0,0,0-.65-.66c-.09-.07-.1-.08-.1,0a.08.08,0,0,1,0,.07s0,0,0,.06a.16.16,0,0,1,0,.1c0,.06,0,.08.19.27a6.92,6.92,0,0,1,.49.54l.16.19a1.27,1.27,0,0,1,.16.2c.07.08.11.08.2,0Zm-8.2.1h0s0,0,0,0,0,0,0,0A0,0,0,0,0,260,11.84Zm.42-.07a.87.87,0,0,0,.06-.16s0,0-.16.07l-.14.09.08.07.1.06a.39.39,0,0,0,.06-.13Zm1.4.15s0,0,0,0h-.07s0,0,0,0,.11,0,.11,0Zm-.14-.82c-.1,0-.16-.13-.1-.13a.36.36,0,0,1,.18.14s0,0-.08,0Zm.2.1,0,0s0,0,0,0,0,0,0,0S261.83,11.21,261.83,11.2Zm-.8,0a.07.07,0,0,1,.05,0s0,0,0,.06,0,0,0,0Zm.9.08s0,0,.07,0l0,0s-.1,0-.11,0Zm.3.15c-.09-.05-.12-.08-.08-.08a.51.51,0,0,1,.21.1s-.05,0-.13,0Zm.39.16s-.08,0-.08,0l-.06,0s0,0,0,0,0,0,.08,0l.12,0c.05,0,.1,0,.1.06s0,0-.12,0Zm.21.07s0-.05,0,0,.08.06,0,.06l-.06,0Zm-.72,0a.16.16,0,0,0-.17-.18c-.1,0-.12-.05,0-.05s.06,0,.06,0a0,0,0,0,0,0,0l-.15-.06c-.11-.05-.15-.09-.08-.09a1.15,1.15,0,0,1,.25.12l.13.07a.3.3,0,0,1,.13.06s0,0,0,0a.09.09,0,0,1,.06,0l.09,0,.28.09.51.17s0-.05,0-.09-.06-.05-.05-.06a1.23,1.23,0,0,0-.15-.29c-.09-.15-.2-.33-.24-.41s-.11-.19-.17-.17l-.29,0a3,3,0,0,0-.77.09l-.11,0s-.05,0-.05,0a.9.9,0,0,0,.25.17c.07,0,.05.07,0,0s-.06,0-.06.06a.73.73,0,0,1-.11.3c-.08.11-.08,0,0-.18s.05-.11,0-.2-.05-.09-.08-.09a.07.07,0,0,1,0,0,.05.05,0,0,0-.05,0,1,1,0,0,0-.36.14.12.12,0,0,1-.08,0,.34.34,0,0,0-.17.09l0,0,.07,0s.05,0,.1,0,.07,0,.1,0,.05,0,.08,0,.07,0,.06.07,0,.11.08.08.1,0,.11.08,0,.07.06.06,0,0,0,.05a.11.11,0,0,0,0,.1s.13,0,.13,0a.79.79,0,0,1,.17-.19s0,.06-.06.15,0,.08,0,.08l.09,0c.08-.06.1-.05.1.06s0,.11,0,.11l.07-.05c.07-.05.1-.05.13,0s0,.05,0-.06a1.5,1.5,0,0,0,0-.2Zm4.44.33s0,0,0,0,0,0,0,0,0,0,0,0Zm-5.79-.08c.11-.14.13-.25,0-.23a.17.17,0,0,0-.07.1c-.05.12-.07.23-.05.23a.49.49,0,0,0,.09-.1Zm6,.08a0,0,0,0,0,0,0s0,0,0,0,0,0,0,0Zm-6.43,0-.17-.13a.36.36,0,0,0-.14-.1,1.79,1.79,0,0,0,.27.25c.08.05.11,0,0,0ZM260,12c0-.06,0-.05-.05,0s0,.08,0,0l0-.06Zm-.12,0s0-.06,0-.06-.07.09-.06.11.06,0,.07,0Zm6.56.06s0,0,0,0-.05,0-.05,0a0,0,0,0,0,0,0A.07.07,0,0,0,266.39,12Zm-5.81,0a.69.69,0,0,1,.12-.31s0-.08,0-.08,0,0-.05.08a.76.76,0,0,1-.15.17c-.06.05-.11.1-.1.11a.48.48,0,0,0,.16.12s0,0,0-.09Zm7.31,0c.09-.14.09-.17,0-.21a.13.13,0,0,1,0-.07.35.35,0,0,0-.1-.13l-.23-.25-.38-.4c-.24-.24-.26-.26-.34-.26a.29.29,0,0,1-.14,0l-.08-.05s0,.13,0,.15a.11.11,0,0,1,0,.06.23.23,0,0,0,0,.09c0,.07,0,.15,0,.16s0,0-.06.1a.26.26,0,0,1-.16.15.83.83,0,0,1-.18,0,.26.26,0,0,1-.25-.11c0-.05,0-.05-.29-.05a1.09,1.09,0,0,1-.27,0,.42.42,0,0,0-.22,0,.29.29,0,0,0,.06.1l.13.21a1.18,1.18,0,0,0,.34.34c.17.14.34.18.44.12a.25.25,0,0,1,.12,0h.23c.13,0,.23,0,.23-.06h0s-.06,0,0-.08a1,1,0,0,0,0-.52.8.8,0,0,1,0-.16c0-.06,0,0,.07.05s0,.06,0,0a.41.41,0,0,0,0-.12c-.09-.17-.13-.29-.11-.3s.06,0,.13.17a1.41,1.41,0,0,0,.25.32c.21.23.47.53.63.75l.12.15a1,1,0,0,0,.08-.12Zm-5.83.11a.11.11,0,0,0,0-.06.1.1,0,0,1,0-.06s-.07,0-.1,0,0,0,0,.07.11.06.11,0Zm-2.37,0s0,0,0,0,0,.06,0,0a0,0,0,0,0,0,0Zm1.43-.15c0-.08,0-.09,0-.11a.11.11,0,0,0-.07,0s-.1.13-.12.27v.11l.08-.08a.83.83,0,0,0,.12-.16Zm-1,.16s0-.08,0-.08-.1.07-.1.12,0,0,.08,0Zm8-.05a.69.69,0,0,1,.29-.23,1.16,1.16,0,0,1,.51-.12,1,1,0,0,1,.45.13l.07,0a.69.69,0,0,1,.14.12l.1.07s0-.09-.05-.11l0,0s-.06-.08-.13-.14-.17-.15-.22-.17l-.16-.06a1.11,1.11,0,0,0-.31,0,.79.79,0,0,0-.51.15A1,1,0,0,0,268,12c-.06.12-.07.14-.05.19s0,0,.05,0a.66.66,0,0,0,.17-.16Zm-1.95.14c-.07,0-.06-.05,0-.06s.09-.06,0-.06-.07,0-.08,0-.08-.06-.09,0-.15,0-.21,0l-.07,0-.09-.07c-.08-.07-.09-.05,0,.07a.79.79,0,0,1,.05.13s0,0,.15,0,.25,0,.26.06,0,0-.17,0-.21,0-.19,0a.75.75,0,0,0,.26,0c.19,0,.23,0,.2,0ZM260,12.1s.05-.06.07-.08l.05,0-.06-.06-.06-.06V12c0,.09-.08.2-.15.2s0,0,0,0a.14.14,0,0,0,.07.06s0,0,0-.05l0-.1Zm2.75.16c.06,0,.11-.06.12,0s0,0,0-.11-.05-.26-.13-.28,0,0,0,0,0-.05-.14-.1l-.18-.07s0,0,0,0,0,0,0,0l-.11,0c-.07,0-.1,0-.12,0s0,0,0,.05,0,.09,0,.24,0,.36.08.37.18-.07.25-.21.08-.05.08,0a.29.29,0,0,1-.05.1l0,.08.08,0c.09,0,.09,0,.09,0s0,.12,0,.12l.06,0Zm-1.91-.09a.47.47,0,0,1,.07-.24c.07-.15.07-.15,0-.15a.44.44,0,0,0-.05.09.8.8,0,0,1-.15.18l-.1.12a.49.49,0,0,0,.18.11s0,0,0-.11Zm-.94.17-.07-.05-.07,0,.05.05C259.86,12.36,259.9,12.37,259.9,12.34Zm.4,0a.26.26,0,0,0,0-.07s-.1.07-.1.11,0,0,.07,0Zm1.34.08c.12-.09.14-.18,0-.22s-.1,0-.1.13a.35.35,0,0,1,0,.12s0,0,.07,0Zm1.28.06a.19.19,0,0,0-.05-.08l-.05-.06-.06,0-.07.05.09,0c.1,0,.14,0,.14,0Zm-1.77-.07a1.39,1.39,0,0,1,.05-.23c.05-.15.05-.18,0-.18s0,0,0,0a.41.41,0,0,1-.08.13l-.11.13s-.05.05-.07.05l0,0a.58.58,0,0,0,.2.13s0,0,0-.1Zm2.36.06a.46.46,0,0,0-.06-.16c-.06-.14-.07-.14-.14,0a.63.63,0,0,1-.07.12s0,0,0,0,.18,0,.18,0,0,.05,0,.06.05,0,.05-.07Zm6.32.09,0-.08s0-.06,0-.07l0,0c0-.05-.11-.18-.25-.28a.91.91,0,0,0-.43-.21.58.58,0,0,0-.32,0,.71.71,0,0,0-.38.16,1.08,1.08,0,0,0-.28.31l.12,0,.35,0,.36,0,.38.05.37.07c.17,0,.19,0,.18,0Zm-6-.1a1,1,0,0,1,.11-.2,1.65,1.65,0,0,1,1-.39,1.13,1.13,0,0,1,.39.07l.1,0,.13,0s0,0,0,0l-.06-.15a.35.35,0,0,0-.07-.14,1.13,1.13,0,0,1-.06-.14,6.77,6.77,0,0,0-.41-.81.85.85,0,0,1-.09-.14,6.3,6.3,0,0,0-.42-.74,3.39,3.39,0,0,1-.35-.6,3.13,3.13,0,0,1-.15-.81c0-.1,0-.14,0-.17l-.08-.09c0-.06-.16-.13-.19-.11a1.91,1.91,0,0,0,0,.57c0,.05,0,.19.06.31s.06.26.08.32a3.68,3.68,0,0,0,.35.68l.14.23.15.22c.05.1.12.21.15.26s.1.19.17.31a3.73,3.73,0,0,1,.32.72c0,.1-.05.1-.08,0a2.91,2.91,0,0,0-.22-.49,2.05,2.05,0,0,1-.15-.26c-.06-.11-.13-.24-.17-.3l-.07-.12-.09-.14-.15-.24L264,9.94a4.58,4.58,0,0,1-.31-.63,2.33,2.33,0,0,1-.08-.37,2.46,2.46,0,0,0-.06-.27,2.25,2.25,0,0,1,0-.38c0-.27,0-.33,0-.38l-.09-.17a.76.76,0,0,1,0-.37.67.67,0,0,1,.06-.33l.08-.13a.25.25,0,0,1,.25-.12.29.29,0,0,0,.19,0l.07,0h-.06s-.08,0-.08,0a.52.52,0,0,0-.32,0c-.17.08-.22.17-.29.55a5.45,5.45,0,0,0,0,1.66,2.29,2.29,0,0,1,.07.34,4.06,4.06,0,0,0,.14.48,1.23,1.23,0,0,0,.12.28,2.25,2.25,0,0,1,.1.23.12.12,0,0,0,.05.08l0,0a.28.28,0,0,0,0,.08.5.5,0,0,1,.12.17l.09.15.09.17.11.19a6.28,6.28,0,0,1,.27.58c0,.06,0,.09,0,.11s0,0-.12-.16A7.64,7.64,0,0,0,264,11a.42.42,0,0,1-.07-.11,1.31,1.31,0,0,0-.16-.31s-.2-.37-.33-.64a6.16,6.16,0,0,1-.34-2,2.84,2.84,0,0,1,.17-1,.42.42,0,0,1,.39-.25.45.45,0,0,1,.24,0c.11,0,.15,0,.22,0l0,0-.07-.07a.78.78,0,0,0-.51-.22c-.18,0-.2,0-.29,0a.78.78,0,0,0-.24.26,1,1,0,0,1-.07.16,1.44,1.44,0,0,0-.15.64c0,.17,0,.34-.05.37a3.6,3.6,0,0,0,0,.71,2.57,2.57,0,0,0,.12.68c0,.11.06.26.08.33a1.55,1.55,0,0,0,.06.23l.05.18a2.56,2.56,0,0,0,.22.52c.19.37.24.46.29.47s0,0,0,0a.07.07,0,0,0,0,0s0,0,0,.05a.62.62,0,0,0,.08.18c.12.23.19.36.27.54s.08.23,0,.23a1.08,1.08,0,0,1-.2-.37.72.72,0,0,0-.1-.18,3.26,3.26,0,0,1-.23-.42l-.1-.19A3.91,3.91,0,0,1,263,9.73c0-.1-.08-.25-.1-.33a1.65,1.65,0,0,1,0-.17.41.41,0,0,0,0-.12,7.08,7.08,0,0,1-.11-.83c0-.11,0-.3,0-.44s0-.34,0-.47a1.48,1.48,0,0,1,.18-.65.58.58,0,0,1,.25-.34.55.55,0,0,1,.14-.08l0,0s.07,0,.2,0a.74.74,0,0,1,.36.09c.1,0,.19.11.19.13s.09.11.13.1-.07-.16-.2-.26a.8.8,0,0,0-.52-.15.87.87,0,0,0-.67.27l-.11.12a1.5,1.5,0,0,0-.21.49,6.45,6.45,0,0,0-.09,1.06,5.17,5.17,0,0,0,.12,1.4c0,.09,0,.19.06.22a3.67,3.67,0,0,1,.13.36,1.66,1.66,0,0,0,.15.37l.06.11a2.05,2.05,0,0,0,.25.49l.11.18.09.14a.36.36,0,0,1,.08.15.28.28,0,0,0,0,.08c.06.13.21.42.24.48s0,.15,0,.11a.09.09,0,0,1,0-.05,4.17,4.17,0,0,0-.33-.67l-.27-.47c0-.07-.07-.13-.07-.14a2.78,2.78,0,0,1-.43-1c0-.09-.07-.19-.08-.23a3,3,0,0,1-.14-.7,8.31,8.31,0,0,1,0-1.32c0-.12,0-.3.05-.4s0-.21,0-.25,0-.08-.06,0-.06.22-.1.36a2.93,2.93,0,0,0-.16,1.2,3.28,3.28,0,0,0,.11,1.08c0,.1.06.23.08.29a1.06,1.06,0,0,0,.06.19s.05.13.08.2a6.42,6.42,0,0,0,.64,1.17,2.54,2.54,0,0,1,.16.28c.05.09.1.2.12.24s.06.11.08.16c.17.35.2.41.21.36l.05-.14Zm-1.8.11c.08-.14.08-.17,0-.2l-.06,0a.31.31,0,0,0-.06.21c0,.14,0,.14.1,0Zm-1.09.14h0a.07.07,0,0,0,0,.06s0,0,0-.07Zm6,.08.05-.15c.08-.21,0-.39-.17-.44a.64.64,0,0,0-.4.05l-.06,0,.08.15c.09.16.12.19.35.32s.14.06.15,0Zm2.12,0s0,0-.06,0a0,0,0,0,0,0,0Zm-6.71-.12s.07-.09.07-.12,0-.05,0-.07-.1,0-.13.13,0,.23,0,.16l.08-.1Zm-1.76.12s-.17-.13-.18-.11,0,.06.08.09S260.53,12.82,260.53,12.8Zm-.17,0s0,0,0,0,0,.05,0,.05a0,0,0,0,0,0,0Zm8.5,0a.14.14,0,0,1,.18,0s0,0,.07,0l.06,0s0,0,0,0-.06-.08-.08-.08l-.05,0a.32.32,0,0,0-.14-.05h-.11v.08a1.1,1.1,0,0,1,0,.16c0,.09,0,.09.06,0Zm-7.06,0s0-.11,0-.19a1.4,1.4,0,0,1,0-.23c0-.11,0-.14,0,0a1.05,1.05,0,0,1-.16.2c-.08.07-.13.14-.12.16a.7.7,0,0,0,.25.15s0,0,0,0Zm-1.61,0a.37.37,0,0,1,0-.11c0-.1.06-.11,0-.07s-.11.2-.07.2l0,0Zm.83-1.15c-.11-.07-.19-.14-.17-.16s.17.05.23.12,0,.08-.06,0Zm2.17,1a0,0,0,0,1,0,0s.11,0,.11,0,0,.05-.08,0Zm.22.07c-.05,0-.06,0,0-.06s.12,0,.12,0,0,0-.1,0Zm.31.12a.45.45,0,0,0-.07-.15c-.07-.11-.13-.15-.16-.11s-.08,0-.09,0,0,0,0,0l-.13,0c-.05,0-.09,0-.09,0a0,0,0,0,1,0,0c-.05,0,0-.15.06-.22a.83.83,0,0,0,.12-.17c.06-.12.06-.12,0-.19s0-.06-.06-.06l-.17-.07q-.24-.11-.15,0a1.58,1.58,0,0,1,.06.62c0,.05-.06.05-.23,0l-.14-.05,0-.11c0-.1,0-.11-.06-.1l-.11,0c-.06,0-.05,0,.05.05a.33.33,0,0,1,.11.07s-.07,0-.27-.06l-.36-.16a1.43,1.43,0,0,1-.35-.17l-.07,0a3.25,3.25,0,0,1-.37-.21c-.05,0,0-.07,0-.05s.06,0,.05,0a.15.15,0,0,0-.11-.06c-.07,0-.09,0-.1-.08s0-.06-.11-.07h-.11s-.06,0-.13-.07-.18-.09-.18,0a1.58,1.58,0,0,0,.38.31l.33.21a.78.78,0,0,1,.2.14l-.05,0s-.06,0-.09.13a.41.41,0,0,0,0,.16s.16-.16.16-.21a0,0,0,0,1,0,0c.1,0,0,.18-.13.33l-.12.12a.62.62,0,0,0,.21.13s.06-.11.07-.25,0-.17,0-.2,0-.09,0-.11a.18.18,0,0,1,0-.05.83.83,0,0,1,.31.12l.26.14c.16.07.54.21.81.3l.18.06.15.05a.93.93,0,0,1,.18.06,1.67,1.67,0,0,0,.32.08s0,0,0,0Zm1.66,0s-.05-.11-.08-.09,0,0,0,.06S265.38,12.88,265.38,12.85Zm-.21,0c.07,0,.08,0,.05,0s-.17,0-.17.07S265.07,12.88,265.17,12.83Zm3.21.07.06,0-.09,0-.1,0s-.07,0-.07.07,0,0,.07,0Zm-.47-.17c0-.06.11-.05.14,0s.07.07.1,0a.06.06,0,0,1,.06-.05h.05a.55.55,0,0,0-.11-.17.15.15,0,0,0-.15-.08c-.1,0-.16,0-.16-.08s0-.06-.07,0,0,.12-.06.41l0,.14.09-.08.13-.11ZM264,12.67a.76.76,0,0,1,.3-.36,1.1,1.1,0,0,1,.5-.17,1.34,1.34,0,0,1,.48,0,.08.08,0,0,0,.06,0,.62.62,0,0,1,.29.15c.07.07.08.05,0-.07a1.51,1.51,0,0,0-.06-.15.68.68,0,0,0-.3-.17,1.1,1.1,0,0,0-.37,0,1.32,1.32,0,0,0-.67.14.47.47,0,0,0-.26.24c-.1.16-.18.42-.14.46a.11.11,0,0,1,0,.06c0,.07,0,.09,0,0a1.28,1.28,0,0,1,.08-.2Zm-2.89.19c0-.07.05-.11,0-.11s-.07.11-.07.15,0,0,.05,0ZM268,13c.08,0,.08,0,0-.1s-.06-.07-.21.05l-.06.06H268Zm-7-.14c0-.13,0-.15,0-.18s-.07,0,0,0-.07.24-.13.22,0,0,0,0,.05,0,.06,0l.06-.14Zm1.71-.06c0-.1,0-.12,0-.14s-.09,0-.09.21V13l.05-.09a1,1,0,0,0,.07-.15Zm1.57.19.26-.07.65-.17a.91.91,0,0,0,.17,0,1.76,1.76,0,0,1,.27-.07s.07,0,.07,0a1.2,1.2,0,0,0-.48-.29,1.18,1.18,0,0,0-.74.06.9.9,0,0,0-.48.6c0,.09,0,.1,0,.08l.24-.05Zm-2.15,0a1.09,1.09,0,0,1,0-.44s.05-.09,0-.09,0,.05-.06.1a.81.81,0,0,1-.12.18c-.09.08-.13.15-.1.17l.11.06.11.05s0,0,0,0Zm-1.27,0,0,0s0,0,0,0,0,0,0,0Zm.5,0s0-.07,0-.07a.13.13,0,0,0-.1.12c0,.06,0,.05.08-.05ZM263,13c.09-.15.08-.24,0-.24s0,.09-.08.3,0,.08.1-.06Zm-1.82,0a.32.32,0,0,1,.05-.13s0-.1,0-.1a.62.62,0,0,0-.11.23s0,0,0,0L261,13h-.05l.05,0,.1.07c.07,0,.08,0,.1-.07Zm1.28,0a2.81,2.81,0,0,0,0-.3c0-.16,0-.17,0-.1a1.16,1.16,0,0,1-.11.16.31.31,0,0,0-.07.12.08.08,0,0,1,0,0s0,0,0,.07,0,.06.08.09.14.05.16-.09Zm-.91.09s0-.07.05-.07,0,0,0,0-.08,0-.09.11,0,.06.05,0Zm-.3.05,0,0s0,0,0,0l0,0S261.26,13.16,261.26,13.14Zm8.22-.4s.12-.06.15,0,0,0-.07,0-.08,0-.08,0Zm-3.76.36s0,0,0,0,.19,0,.16,0S265.76,13.13,265.72,13.1Zm.46,0c-.09,0-.13,0-.13,0s0,0,.18,0a.51.51,0,0,1,.19,0s0,.06-.08.06Zm.82,0,.71-.06.33,0,.11,0,.56-.07a6,6,0,0,0,.66-.12,5.17,5.17,0,0,0,.72-.21.2.2,0,0,0-.09-.06s0,0,0,0,0,0-.12,0l-.17,0a4.4,4.4,0,0,0-.47-.1s0,0,.08.07l.13.06s.06.07,0,.07l-.28.06-.09,0a.6.6,0,0,0-.26.05.29.29,0,0,1-.16,0c-.1,0-.11-.06,0-.08s.06,0,.09-.16a.55.55,0,0,0,0-.17l-.51,0a.82.82,0,0,0,.21.31c.06.05.1.09.09.11s-.15.07-.37.1l-.26,0-.33,0c-.22,0-.25,0-.25,0a0,0,0,0,1,0,0s0,0,0-.06-.07,0-.1,0,0,.07,0,.07.06,0,.06,0-.05.05-.11.05a.13.13,0,0,1-.1-.08c0-.06,0-.07-.08-.06s0,0,0,0,.07-.07.12,0,.06,0,.1,0,0,0,.09,0h.06l-.06-.1c-.05-.09-.06-.16,0-.16a.48.48,0,0,1,.09.13c.07.15.2.29.22.25a1.69,1.69,0,0,0,0-.28c0-.2,0-.28.05-.32a.17.17,0,0,0,0-.07h-.18a1.13,1.13,0,0,1-.42,0c-.05,0,0-.06.12-.06l.26,0,.2,0s0,0,0,0,0,0-.22,0a.94.94,0,0,1-.42,0s0-.06.11-.05a.8.8,0,0,0,.29-.05l.1,0h.06l-.07-.09c-.23-.3-.32-.41-.44-.54l-.17-.2,0-.05v.08a2.37,2.37,0,0,1,0,.3.63.63,0,0,1-.11.44s0,.05.06.12a.5.5,0,0,1,.12.14s.05.07.07.07.17.1.17.15-.05,0-.09,0-.09-.06-.1,0a.76.76,0,0,1-.06.16.58.58,0,0,0-.05.17c0,.08,0,.13-.05.14s0,0,.07,0,.12,0,.07.06l-.1,0h-.22c-.12,0-.14,0-.14,0s0,0,.08,0a.18.18,0,0,0,.15-.07l.07-.07-.06,0-.21-.11a.69.69,0,0,1-.2-.13l-.06-.05v.07a.71.71,0,0,0,.09.17.31.31,0,0,1,.06.12s-.09,0-.18,0-.08,0-.08,0l-.05.07c0,.05,0,.05-.09,0s-.06,0-.06-.06,0,0-.14,0-.24.06-.25,0a.19.19,0,0,1,0-.09.5.5,0,0,0,.09-.18c.06-.14.17-.28.25-.28s.06,0,0,.1-.24.4-.19.4l.12-.06.12,0s0,0,.06.08.06.08.09,0,.11-.07.11,0a0,0,0,0,0,0,0s0,0,0-.16-.07-.2,0-.18,0,0,0-.1,0-.08-.33-.09-.21,0-.2,0a.63.63,0,0,1,0,.13v.1l-.1,0-.18.06-.09,0,0,.09a.41.41,0,0,0,.08.13s0,0,0,0,0,0,0,0,0,0,0,0-.41,0-.47,0,0,0,0,0h.18c.16,0,.19,0,.07,0a.23.23,0,0,1-.09-.07c0-.05-.07,0-.17,0l-.08.05-.06-.06c-.05-.05-.06-.05-.14,0l-.17,0c-.08,0-.08,0,0,0a.79.79,0,0,0,.21,0c.18,0,.22,0,.2.07s-.15,0-.45,0a.74.74,0,0,0-.25,0h-.08l.1,0,.3,0c.17,0,.31,0,1,.09.22,0,1,0,1.31,0Zm-5.55-.12c.05-.14.05-.14,0-.14s-.07.05-.13.19h0s0,0,0,.05,0,0,0,0a.66.66,0,0,0,0-.11Zm2,0c0-.11,0-.18-.06-.18s0,0,0,0,0,0,0,0a.1.1,0,0,0,0,.1.57.57,0,0,1,0,.14v.09l0-.07a1,1,0,0,0,.08-.14Zm4.57.21s0-.05,0,0,0,0,0,.05,0,0,0,0S268,13.26,268,13.24Zm-6.46,0a.13.13,0,0,0-.08,0s0,0,0,0l.08,0S261.58,13.3,261.55,13.28Zm.33-.1s0-.06,0-.06-.06.09-.06.16v.06l0-.05,0-.11Zm7,.11c0-.12,0-.21-.09-.2s-.05,0,0,.07.08.21.11.21,0,0,0-.08Zm-1,0c0-.09,0-.11-.05-.08s0,0,0,.09.05.1.05,0Zm-6.15,0a.2.2,0,0,1,0-.14l0-.06-.08,0-.08,0,0,.07a.36.36,0,0,1,0,.11s0,.05,0,.07.08.06,0,.06l0,0,0,0s0,0,0-.09Zm1.51-.13v-.31s0,0,0,0-.05,0-.05,0a1.45,1.45,0,0,1-.19.39c-.07.09-.07.09.11.15s.17.08.17-.22Zm4,.16c0-.05,0-.06-.05-.06s-.08.05,0,.06,0,0,0,0,0,0,0,0,0,0,0,0,0,0,0,0A.22.22,0,0,0,267.23,13.31Zm-5.29,0a.25.25,0,0,1,.21-.16c.07,0,.08-.06,0-.06s0,0,0,0,0,0,0,0l-.16-.06-.21-.09a3.54,3.54,0,0,1-.48-.24l-.16-.09a3.23,3.23,0,0,1-.29-.2c-.28-.2-.35-.25-.38-.25s.08.08.11.08a0,0,0,0,1,0,0s0,0,0,0l0,0s.06.07.12.11.15.13.09.13a.25.25,0,0,1-.11,0l-.13-.1a2.28,2.28,0,0,1-.28-.22.5.5,0,0,0-.18-.09s0,0,0,0,0,.23-.11.24a.16.16,0,0,0-.08.06s0,0,.06.13.15.11.15.07a0,0,0,0,0,0,0s-.14-.09-.14-.12,0,0,.06,0,.07,0,.08-.06.09-.18.13-.18a.12.12,0,0,1,.08,0s0,0,0,.1-.1.15-.14.15,0,0,0,.06.14,0,.17-.12.06-.1.14,0,.05,0,0,.12a.23.23,0,0,1-.08.12c-.07,0-.08.05,0,.08s.08,0,.11-.07.07-.17.11-.13,0,0,0,.08,0,.09,0,.09,0,0,0-.06,0-.07.06-.07,0,0,0,.15-.05.1-.08.09,0,0,.06.08.07,0,.05,0a.46.46,0,0,1,.12-.27s.12,0,.13,0a2.71,2.71,0,0,0,.42.25l.27.14c.3.14.35.16.35.18a0,0,0,0,1-.05,0s-.06.05-.09.13-.07.13-.1.12h0s0,0,.06,0,.06,0,.11-.09Zm2.69.06a.58.58,0,0,0,.06-.17c0-.06,0-.07-.05-.07s-.06,0-.09.16,0,.2,0,.2,0,0,.06-.12Zm-2.08.06s0,0,0,0a.08.08,0,0,0,0,.06s0,0,0,0S262.55,13.49,262.55,13.46Zm-.7.07a0,0,0,0,0,0,0,4.71,4.71,0,0,1-.59-.3c-.07,0-.11,0-.08,0l.26.14.3.16c.08.05.14.06.14,0Zm3.24-.16a.24.24,0,0,0,0-.09s0,0-.06,0-.06,0-.07.11a.53.53,0,0,0,0,.18v.06l0-.09.06-.12Zm4.93-.08a.55.55,0,0,0-.13-.14.4.4,0,0,1-.11-.13c0-.15,0-.17.08,0a.38.38,0,0,0,.08.11.07.07,0,0,1,0,.06s0,0,.06,0,0-.09-.05-.15-.05-.16,0-.12.11.15.11.32,0,.22-.09.1Zm-.37.17a.44.44,0,0,0-.08-.09c-.12-.12-.23-.33-.18-.38s.07,0,.07,0,.14.25.17.24,0-.21,0-.27,0-.09.05-.06a1.22,1.22,0,0,1,.07.41c0,.09,0,.11-.05.11Zm-.37.16a2.92,2.92,0,0,1,.48-.11,3.4,3.4,0,0,0,.85-.23s0,0,0,0a.07.07,0,0,1-.05-.06s0,0,0,0,0,0,0,0,0,.05-.15,0l-.11-.07a.9.9,0,0,1-.19-.2s0,0,0,0a1.28,1.28,0,0,1,.23.19s.13.07.14.05,0,0,0,0a.14.14,0,0,1-.07-.06l-.09-.11a.25.25,0,0,1-.09-.11s0,0-.19,0a3.78,3.78,0,0,1-.53.15l-.07,0-.07,0c-.07,0-.08,0,0,.06s0,.1,0,.25,0,.3-.17.09-.16-.27-.14-.3a0,0,0,0,1,.07,0,.74.74,0,0,0,.08.16l.09.12v-.11a.84.84,0,0,0,0-.18l0-.07h-.11c-.18,0-.18,0-.16.09a.78.78,0,0,1,0,.22v.16l.14.07c.14.08.17.08.2,0Zm-1.51-.17c0-.15-.09-.29-.13-.19a.66.66,0,0,0,.07.32l0,.07,0-.06a.66.66,0,0,0,0-.14Zm-1.47.07c0-.13,0-.23,0-.23a0,0,0,0,0,0,.05.74.74,0,0,0,0,.3s0-.05.06-.12Zm-3.66.06a.36.36,0,0,1,0-.1s0-.05,0-.05,0,0,0,.05a.32.32,0,0,1,0,.09s0,0,0,0,0,0,.06,0Zm-2.91,0c0-.05.06-.17.09-.27a.93.93,0,0,1,.18-.37.3.3,0,0,0,.08-.14l0-.11-.06-.05c-.16-.13-.18-.15-.21-.12s0,0,0,0,.07,0,.07,0-.11.13-.22.18-.16.11-.2.32,0,.2-.06.22a.14.14,0,0,0,0,.18.26.26,0,0,1,.07.1c.05.1.12.1.18,0Zm6.22-.07c0-.18,0-.22-.05-.21s0,0,0,.18,0,.26.05.21a.82.82,0,0,0,0-.18Zm-3.19.11c0-.05,0-.1,0-.11s-.06,0-.06.09a.19.19,0,0,1,0,.08s0,0,0,0,0,0,.05-.09Zm7,.05a3.47,3.47,0,0,0,.92-.26s-.13,0-.16,0a.69.69,0,0,1-.18.06l-.25.08-.13,0a3.46,3.46,0,0,0-.6.12c.06,0,.11,0,.4,0Zm-4.25-.2c0-.16,0-.19-.07-.19s-.06,0-.06.08a1.11,1.11,0,0,0,0,.23l0,.15,0-.07a1.13,1.13,0,0,0,.05-.2Zm-1,0c0-.27,0-.28-.05-.29s-.09,0-.09.09a1.94,1.94,0,0,1-.17.38s0,0,.12.07.19.07.19-.25Zm-.58.27-.05,0s-.05,0-.05-.05,0,0,.17,0h.1v-.21c0-.19,0-.21,0-.22s0,0,0,.13v.14l.07-.14c0-.1.07-.15,0-.17s-.14-.07-.26-.05-.2,0-.21-.06-.09,0-.07.21v.09l0-.08s.06-.07.08-.07,0,0,0,.13-.12.22-.11.26,0,.05-.08,0,0,0,0-.07a.33.33,0,0,0,0-.18,2.26,2.26,0,0,1,0-.26c0-.14,0-.16-.09-.16s-.05,0,0,.06a.57.57,0,0,1-.1.24,1.06,1.06,0,0,0-.11.21l.1.05c.12,0,.16.06.14.08a.49.49,0,0,1-.25-.05h-.06l-.1,0-.22-.07c-.09,0-.15-.06-.15-.09s0,0,0,0,0,0,0-.16a1.11,1.11,0,0,1,0-.28c0-.12,0-.12,0-.14s-.05,0-.09.1a1.71,1.71,0,0,1-.12.23,1.08,1.08,0,0,0-.08.13s0,0,.07,0,.07,0,.07.06,0,0-.15,0-.11,0-.12,0,.05.07.16.1l.21.07a1.8,1.8,0,0,0,.36.13l.1,0,.12,0,.35.09c.06,0,.17,0,.17,0Zm-1.35,0s0,0,0,0,0,0,0,0a0,0,0,0,0,0,0Zm.45-.08s0-.06,0-.06-.05,0-.05.13,0,.06,0,0a.24.24,0,0,0,0-.09Zm-.15.05a.13.13,0,0,1,0-.08s0-.09,0-.09,0,0,0,.08,0,.09-.05.1,0,0,0,0,.08,0,.08-.05Zm4.56,0c0-.18,0-.42,0-.42s-.1.18-.06.26a.08.08,0,0,1,0,.09s0,.05,0,.1,0,.06,0,.07h0s0,0,.05-.11Zm-2.51,0a2.27,2.27,0,0,1,0-.28c0-.17,0-.18,0-.19s-.08,0-.08.05,0,.07-.12.31a.43.43,0,0,0-.06.15s.06,0,.13,0l.13,0h0s0,0,0-.09Zm-2.88.06a1.42,1.42,0,0,1,.25,0h.16v-.18c0-.17,0-.17-.08-.24s-.08-.06-.17,0a.33.33,0,0,0-.13,0,.65.65,0,0,0-.13.29s0,.11,0,.14,0,.07.13,0Zm1.2,0c0-.06,0-.11,0-.11s-.06.09-.06.14,0,0,.05,0Zm-3-.64c-.06,0-.06-.06,0-.11a.22.22,0,0,1,.23,0s0,.08,0,.08a.09.09,0,0,0-.06,0s-.07,0-.17,0Zm.29.34a.23.23,0,0,1,.12-.06h.15s0,0,0,0,0,0-.12,0-.12,0-.12,0,0,0,.16-.05l.22,0,.06,0-.06,0c0-.05-.07-.05-.18,0s-.12,0-.15-.05-.24-.2-.46-.14-.25.13-.32.36a2.24,2.24,0,0,1-.11.29c0,.09,0,.11,0,.11a.19.19,0,0,0,.1-.05c.09-.07.14-.07.14,0s0,.08.07,0,.1-.09.1,0,0,.14,0,.15,0,0,.07-.06.1-.07.12,0,0,.12.07,0,0-.16.09-.21Zm4.81.38a.63.63,0,0,0,0-.12,1,1,0,0,1,0-.28c0-.13,0-.19-.05-.2s-.07,0-.09.12a1.14,1.14,0,0,1-.07.19c-.07.14-.08.24-.05.26l.17,0,.15,0Zm-2-.05c0-.09,0-.11,0-.13s-.06,0-.06,0a.25.25,0,0,1,0,.12c0,.06,0,.08,0,.08s.06,0,.08-.11Zm2.67.06.08-.08v-.18a.81.81,0,0,1,0-.24c0-.05,0-.05,0-.05s-.06,0-.08.1a1.63,1.63,0,0,1-.09.37c0,.09,0,.12,0,.13s.05,0,.14-.05Zm-2.54,0a.22.22,0,0,0,0-.1c0-.06-.08,0-.08.1s0,.09.06,0Zm6.76,0a.65.65,0,0,0,0-.14c0-.05,0-.07,0-.08s0-.06,0-.05,0,0,0,0a.11.11,0,0,1,0,.06.16.16,0,0,0,0,.19c0,.06,0,0,.07,0Zm-.14,0s0,0,0,0a.19.19,0,0,1,0-.1.11.11,0,0,1,.06-.12s0,0,0,0l-.13,0-.16,0a.85.85,0,0,1-.2,0c-.14,0-.14,0,0,.09s.11,0,.11,0,.08-.08.15-.07.08,0,.12.12.11.09.11,0Zm-.19,0s0-.05,0-.07-.08,0-.08,0,0,.09.06.09l0,0Zm-6.15,0c0-.06,0-.12,0-.11s-.05.14,0,.14a0,0,0,0,0,0,0Zm-.13-.07c0-.1,0-.12,0-.12s0,0,0,0a.2.2,0,0,1,0,.12l0,.08,0,0c.06,0,.07,0,.08-.12Zm.53,0s0,0,0,0-.07,0-.06,0a.37.37,0,0,0,0,.09l0,.06V14a.16.16,0,0,1,0-.08Zm6.26.17s0,0-.05,0h0s0,0,0,0Zm-6.19-.1s0,0,0,0,0,.07,0,0a.11.11,0,0,0,0-.08Zm5.91.1c.07,0,.11,0,.11-.05s0,0-.1,0a.24.24,0,0,1-.14,0c-.05,0-.08,0,0,0s0,0,.16,0Zm-5.57,0s0,0,0,0,0,0,0,.07,0,.06,0,0S264.62,14,264.62,14Zm-.13,0,0-.1-.07,0c-.06,0-.06,0-.07.08s0,.14.05.14.05,0,.07-.1Zm3.85.07a.08.08,0,0,0-.07-.1s0,0,0,.11.07,0,.08,0Zm-2.65,0c.07,0,.06-.07,0-.06s-.06,0-.06,0,0,.06.07,0Zm-.75-.07s0-.08,0-.07a.18.18,0,0,0,0,.16s.05,0,.05-.09Zm-.15.06a.6.6,0,0,1,0-.12c0-.06,0-.06-.05-.06s-.05,0-.05.08,0,.09,0,.09,0,.06,0,.06.06,0,.06-.05Zm.47,0s0-.07,0-.08,0,0,0,.06,0,.08,0,.08S265.26,14.15,265.26,14.12Zm-.95,0s-.08-.09-.1-.08,0,0,0,.06S264.31,14.19,264.31,14.16Zm3.89,0s0,0,0,0,0-.17,0-.2a.14.14,0,0,1,.09,0c.05,0,.06,0,.06,0s0,0,0,0l-.25,0c-.18,0-.21,0-.21,0a.16.16,0,0,1,.09,0l.21,0c.19,0,.16-.06-.06-.08h-.17v-.07c0-.13-.08,0-.12.12s-.07.17-.17.17-.12,0,0-.07.08,0,.08-.06a1.28,1.28,0,0,0-.08-.23.82.82,0,0,1,0-.18c0-.12,0-.14-.05-.14s0,0,0,.14a2.23,2.23,0,0,1-.06.45s0,0,0,0,0,0,0,0h-.13c-.09,0-.11,0-.1,0s0,0,.06,0,.08,0,0-.06a0,0,0,0,1,0,0c0-.07,0-.09-.1-.08a.13.13,0,0,0-.09.07c0,.06-.06.06-.06,0s0,0,0,0a.46.46,0,0,0-.18.16s0,0,0,0a.5.5,0,0,1,.3,0s-.15.06-.26,0-.09,0-.09,0,0,0,.35,0l.48,0,.26,0h.13V14a1,1,0,0,1,0,.12s0,0,0,0,.06,0,.06,0Zm-.19-.06c0-.06,0-.09,0-.1s-.06,0-.06.08,0,.1.05.1S268,14.18,268,14.12Zm-3.62.07h0s0,0,0,0Zm3.28,0c0-.05,0-.07,0-.07s0,0,0,.08S267.66,14.23,267.67,14.14Zm.15.08s0,0,0-.05a.1.1,0,0,1,0-.08c0-.05,0-.06,0-.05s0,0,0,.1,0,.11.06.08Zm-.8-.06c0-.05,0-.07,0-.07s0,0,0,.08S267,14.25,267,14.16Zm-1.6,0c0-.07,0-.1,0-.12s0,0-.05,0a.47.47,0,0,0,0,.17h.06s0,0,0-.09Zm-.79.08h-.06s0,0,0,0Zm-.47-.07a.83.83,0,0,1-.17-.3s0,0,0,0a.13.13,0,0,0,0,.1.11.11,0,0,1,0,.07c0,.07.11.17.17.17s0,0,0-.08Zm3.06,0c0-.08.06-.08.07,0s.09,0,.09-.06,0-.08-.17-.06h-.11v.09c0,.08,0,.09,0,.09s.06,0,.07-.07Zm-1.68,0c0-.09,0-.11,0,0s0,.12,0,.12a.38.38,0,0,0,0-.08Zm-.74.07h-.05s0,0,0,0Zm-.79,0s-.06,0-.12,0l-.15,0-.08,0-.19,0-.23-.06-.11,0L263,14a.43.43,0,0,1-.17-.08s.05,0,.29.05l.3.09.31.08.14,0c.1,0,.11,0,.09,0a.13.13,0,0,1,0-.09v-.06l-.05.06c-.06.06-.06.06-.19,0a2.91,2.91,0,0,1-.6-.16s0,0,0,0a.11.11,0,0,0,0-.06l0-.1c0-.06,0-.09,0-.1s0,0-.07,0a.28.28,0,0,1-.05.11.09.09,0,0,0,0,.07s0,0,0,0l-.07,0s0,0-.06,0l-.1,0c-.06,0-.08,0,0,0s0,.06-.09,0-.11,0-.11,0a1.61,1.61,0,0,0,.4.16l.14,0a4,4,0,0,0,.63.18c.27,0,.33.06.32,0Zm1.3.06a.27.27,0,0,0-.12,0h-.07v-.13c0-.1,0-.14,0-.16s0-.08,0-.06a3,3,0,0,0,.77.07s0-.06-.11-.06h-.11s0-.06.1-.05.08,0,0-.24c0-.1,0-.23,0-.27s0-.09-.05-.1-.12,0-.12.13a.9.9,0,0,1-.09.35s0,0,0,.07,0,0,.07,0,.05,0,.05,0,0,0-.15,0l-.4-.05-.42-.07-.3-.05-.15,0a.06.06,0,0,1-.06,0s0,0-.05,0a.07.07,0,0,0,0,0,2.35,2.35,0,0,0,.59.12c.46.07.41.05.4.18a.41.41,0,0,1,0,.14s0,.05,0,.08,0,0,.15.06.24,0,.17,0Zm2.6,0c.47-.05.5-.06.5-.1s0-.05-.06,0a.71.71,0,0,1-.32.07c-.47,0-.56,0-.53,0a.31.31,0,0,0,0-.13c0-.09,0-.1-.06-.1s-.06,0,0,.07a.14.14,0,0,1-.06.19.08.08,0,0,1-.08,0h-.11c-.11,0-.27,0-.29,0a.7.7,0,0,1,0-.13c0-.13-.07-.16-.07,0a.3.3,0,0,1-.05.15l-.05.08a10.61,10.61,0,0,0,1.2-.06Zm-2.53.09a.66.66,0,0,0-.22,0,5.92,5.92,0,0,1-.7-.08c-.07,0,0,0,0,.05a3.39,3.39,0,0,0,.89.07Zm2,.09.52,0a2.73,2.73,0,0,0,.6-.1s-.06,0-.15,0a12.05,12.05,0,0,1-1.57.13c-.11,0-.15,0-.15,0s.16.05.75,0Zm-5.7-.06c0-.09,0-.1,0,0s.05.19.07.18a.87.87,0,0,0,0-.13Zm.16.23s-.07,0-.05,0l.05,0s0,0,0,0Zm.41-.67a.09.09,0,0,1,0-.09c.09-.06.13,0,.08.08S262.28,14.07,262.26,14Zm.05.73c.06,0,.12-.12.1-.14l-.05,0c-.07.09-.26.15-.26.09s0,0,.08-.06.17-.11.14-.15a.73.73,0,0,0-.21,0c-.13,0-.18,0-.2,0s0-.08.08,0,.1,0,0,0-.08-.13,0-.13a.2.2,0,0,1,.09.06.17.17,0,0,0,.15.06c.09,0,.12,0,.1-.1s.05-.14.09-.14,0,0,0-.12,0-.12,0-.14,0,0,0,0,0,0-.13,0-.29,0-.29.05h0l.19,0c.11,0,.15,0,.15,0s0,0,0,0l-.17.05-.2.06s-.05,0,0,.13,0,.11,0,.15l-.07,0c-.07,0-.07,0,0,.14s.14.21.2.21a.11.11,0,0,1,.06,0s0,0,0,.05h-.07c-.06,0-.06,0,0,0a.77.77,0,0,0,.37,0Zm4.55-1.28s0,0-.08,0-.09,0,0-.06a.16.16,0,0,1,.11,0c.06,0,.07,0,.07.07s-.05.12-.07,0Zm-.49.16s0,0,0,0,0,0,0,0,0,0,0,0S266.37,13.63,266.37,13.61Zm.24.12a.11.11,0,0,0-.07,0s-.07,0-.07,0,0-.06.09,0a.11.11,0,0,0,.09,0s0,0,0,.05-.05.08-.07,0Zm-.16.17c-.07,0-.1-.08-.06-.1s.15,0,.18.07,0,.08-.12,0Zm-.12.18s0,0,0-.05a0,0,0,0,1,.07,0s0,.06-.06,0Zm.18.1c-.06,0-.05-.09,0-.08l.1,0c.06,0,.06.07,0,.07l-.1,0Zm-.74.48s0,0,.07-.06l.19-.06c.12,0,.17,0,.13,0a.84.84,0,0,1-.39.1Zm-.26,0a.19.19,0,0,1,.19,0s0,0,0,0-.17,0-.16,0Zm-.34.15.57-.12a1.69,1.69,0,0,0,.52-.16l.22-.09a.16.16,0,0,0,.1-.05,1.29,1.29,0,0,0,.13-.31.26.26,0,0,1,0-.1s0-.06,0-.07-.08-.07,0-.07a.15.15,0,0,0,.1,0s0,0,0-.05-.05-.08,0-.08l.17,0,.14,0,.08,0h-.1c-.06,0-.09,0-.09,0s0,0,.09,0l.13,0s0,0,0,0l-.07,0a.44.44,0,0,1-.15-.11c-.1-.11-.11-.11-.21-.11a.58.58,0,0,0-.19,0,.41.41,0,0,1-.16,0c-.06,0-.07,0,0,0s.07,0,0,.07a.61.61,0,0,0-.09.17.35.35,0,0,0,0,.2c0,.07,0,.07,0,.06s-.14,0-.1.1,0,.07,0,0-.06,0-.09,0l-.14.09c-.14.09-.24.19-.23.22s0,.05-.08.07-.09,0-.09.05,0,0,.16,0,.14,0,.14,0,0,0-.09.07l-.3.09s-.08,0-.08,0,0,0,.13,0a1.91,1.91,0,0,1,.45-.09c.05,0,0,.08-.06.08l-.26.05-.29.07s-.1,0-.11,0,0,0,0,0,.23,0,.23,0-.06.06-.18.08-.24.05-.24.07.08,0,.15,0Zm0,.09.3-.06.24,0,.26-.05c.14,0,.41-.15.38-.17l-.15.05a3.31,3.31,0,0,1-.71.18l-.2.05-.16,0-.13,0s0,0,.17,0ZM265,15a0,0,0,0,0-.05,0c-.06,0-.05,0,0,0s.05,0,0,0Zm-1.57.09c.08,0,.06-.05,0,0s-.17,0-.17-.09,0-.1-.05-.1,0,.06,0,.14.12.12.24.09Zm4.88,0c0-.14,0-.19,0-.22a.05.05,0,0,0-.1,0l0,.21s.08,0,.08,0ZM263.85,15a.46.46,0,0,0,.06-.23.45.45,0,0,1,.15-.36.32.32,0,0,1,.25-.09c.05,0,.05,0,0,0a.23.23,0,0,0-.13,0c-.17,0-.28.09-.28.22s0,.08,0,.09-.05,0-.07.19a.85.85,0,0,1-.06.17.37.37,0,0,0,0,.11c0,.05.11,0,.15,0Zm4,.07h.23V15c0-.19,0-.17-.2-.16l-.4,0-.23,0V15c0,.15,0,.16.2.16l.41,0Zm-.69-.08c0-.11,0-.14-.07-.12s0,0,0,.13,0,.11.06.1.06,0,0-.11Zm-2.84.09c0-.06,0-.07-.09,0s0,0,0,0,.09,0,.09,0Zm1,0a1.35,1.35,0,0,1,.22-.14c.12-.06.11-.07,0,0l-.33.08a.69.69,0,0,0-.23.06.53.53,0,0,0,.21.12.56.56,0,0,0,.17-.09Zm1.27.11.21,0H267v-.1a.22.22,0,0,1,0-.12.07.07,0,0,0,0-.06c0-.05,0-.05.28-.07s.64,0,.81-.05.21,0,.2.1,0,.06,0,.08a.24.24,0,0,1,0,.08c0,.05,0,.06.12.05a.69.69,0,0,0,.18,0,.49.49,0,0,1,.14,0H269c.06,0,.06,0,0-.28s-.06-.16-.09-.17l-.15,0c-.1,0-.11,0-.26,0a8.1,8.1,0,0,1-1.11.11l-.51,0h-.17l0,.09a.33.33,0,0,1-.09.13c-.06,0-.07.06-.07.18s0,.14.06.17.08.05.1,0Zm-.05.1-.08-.05c-.1,0-.11-.07-.11-.26s0-.15.06-.21.14-.18.12-.19-.05,0-.09.05a.86.86,0,0,1-.16.1l-.07,0,.05,0s.05.06.05.18,0,.2-.11.26l-.09,0,.18,0h.21l0,0Zm-.61,0-.06,0c-.05,0-.05,0,0,0s.08,0,.07,0Zm-3.28.05.18-.05a1.19,1.19,0,0,0,.3-.19c0-.05,0-.06-.06,0a.55.55,0,0,1-.37.1h-.19v-.09a1.57,1.57,0,0,0-.09-.43.33.33,0,0,0,0,.14c-.05.28-.05.29,0,.43s.08.14.1.14l.15,0Zm3.26.09s-.07-.09-.09-.09,0,0,0,.07.07,0,.07,0Zm-4.19-.41c-.11,0-.07-.07.1-.07a.35.35,0,0,1,.16,0c0,.05-.16.09-.26.05Zm.33.71a.49.49,0,0,0,.12-.34.66.66,0,0,1,0-.21c0-.12,0-.12-.05-.13s-.15,0-.15-.08.07,0,.11,0a.08.08,0,0,0,.14,0,.3.3,0,0,0,0-.18h-.1a.55.55,0,0,1-.38,0l-.13-.06,0,.12a1.55,1.55,0,0,0,0,.4,2.18,2.18,0,0,1,0,.35.09.09,0,0,0,0,.1.69.69,0,0,0,.43.08Zm0,.08s0,0-.12,0l-.23,0s-.06,0,0,0l.06,0a1.22,1.22,0,0,0,.33,0Zm-.78,0s0,0,0,0,0,0,.06-.11l.05-.14a4.12,4.12,0,0,0,.09-.6c0-.21,0-.31.09-.31s.05,0,0,0a.51.51,0,0,1-.11-.21c0-.13-.11,0-.14.25a2,2,0,0,1,0,.21,1,1,0,0,0,0,.19.82.82,0,0,1,0,.18,1.74,1.74,0,0,0-.07.53c0,.06,0,.09,0,.09s0,0,0,0Zm.86.09a.05.05,0,0,0-.09,0s0,0,0,.05S262.21,16,262.21,16Zm-.41.07s0-.08,0-.08,0,0,0,.08a.24.24,0,0,0,0,.07s0,0,0-.07Zm1.91.06s0,0,0,.11,0,.05,0,0a.14.14,0,0,0,0-.1Zm-2.35,0c0-.07,0-.13,0-.13l0,0s-.1.09-.1.19a.08.08,0,0,0,.06.09l.08,0a.36.36,0,0,0,0-.15Zm-2.06-1s0-.11,0-.09,0,.08,0,.1Zm1,.31s0,0,0,0,0,0,0,0,0,0,0,0S260.32,15.45,260.32,15.44Zm-.21,0s0,0,.08,0,.1,0,.1,0a.28.28,0,0,1-.18,0Zm-.93,0c0-.07,0-.08.05,0s0,.09,0,.09S259.18,15.5,259.18,15.46Zm1.5,0c0-.06,0-.06.05-.05l.07,0s0,.07-.08.08,0,0,0,0Zm-.17.13,0,0h0c.05,0,0,.07,0,.08s0,0,0,0Zm-1.17-.15c0-.22,0-.28,0-.24a1,1,0,0,1,0,.47s0-.11-.05-.23Zm-.11.19s0-.05,0-.06,0,0,0,.06v0l0,0Zm.18.12s0-.06,0,0a0,0,0,0,1,0,0s0,0,0,0Zm.19.06,0,0s0,0,0,0,0,0,0,0Zm-.11.17a0,0,0,0,1,0,0s0,0,0,0,0,.05,0,0Zm.37,0s0-.11,0-.11,0,0,.06.09,0,.08-.05,0Zm-.69,0s0-.14,0-.13.06.12,0,.14a0,0,0,0,1,0,0Zm.54,0s0-.09,0-.1.07,0,.1.1,0,.11-.07,0Zm.47.09a1.58,1.58,0,0,0-.06-.23l0-.16s0,0,.07,0,.12.08.24,0,.09,0,0,.07-.13.12-.17.09,0,0,0,.18,0,.1,0,.13,0,0-.05-.05Zm-.57.07-.05-.07s0,0,0,0,0,0,.09.13,0,0-.05,0Zm.52.45s.05-.08.06-.19,0-.13,0-.13l-.06,0a.19.19,0,0,0-.12,0,.18.18,0,0,1-.11,0s0,0,0,0l.09,0a.09.09,0,0,1,.09,0c.06.05.08.05.14,0a.24.24,0,0,1,.09,0l.11-.06.09-.08a3.44,3.44,0,0,0,.42-.4.28.28,0,0,0,0-.15c0-.1,0-.11-.09-.18l-.08-.08h-.25a1.84,1.84,0,0,0-.57.09s0,0,0,.07l.08,0,.09,0c.07,0,.08,0,0,0h-.09c-.08,0-.07,0,0,.07s.08.07,0,.07-.07,0-.11-.09l-.06-.1s-.13-.14-.22-.18l-.11,0,.05.1a.64.64,0,0,1,.06.16l0,.13c0,.07,0,.15,0,.14a1.52,1.52,0,0,1-.16-.4.45.45,0,0,0-.07-.14s0,0,0,.09,0,.18.05.28a.3.3,0,0,1,0,.1s-.05,0-.07-.11a.5.5,0,0,0,0-.12.41.41,0,0,1,0-.1,1.08,1.08,0,0,0-.1-.37c-.09-.14-.16-.08-.17.12s0,.22-.05.13-.05-.07-.06,0a.38.38,0,0,0,.06.3l.06.09a.12.12,0,0,0,0,.06.1.1,0,0,1,.05.08.38.38,0,0,0,.08.2,0,0,0,0,1,0,0,.35.35,0,0,0,.1.13c.07.08.12.11.16.11h.06l-.05,0-.1,0c-.09,0-.22-.16-.37-.47a1,1,0,0,0-.19-.29l-.08,0s0,.08,0,.28c0,.41,0,.43.07.49s.2.1.23.07,0-.06,0-.11l0-.18c0-.08,0-.09,0-.09s0,0,.06.09a.75.75,0,0,0,.69.49c.11,0,.14,0,.18,0Zm8.35.18a.09.09,0,0,1,0-.1q.08,0,0,.06C268.53,16.87,268.5,16.88,268.48,16.85Zm0,.08c.12-.14.16-.25.1-.29a.37.37,0,0,0-.18,0,.06.06,0,0,0,0,0,0,0,0,0,1,0,.06s0,0,0,0-.05,0-.05.09,0,0,.06,0,.06.05,0,.08,0,0,0,0a.1.1,0,0,0,.08,0ZM261.62,16s0-.07,0-.07,0,0,0,.07,0,.06,0,.06S261.62,16.05,261.62,16Zm0,.84a2.33,2.33,0,0,0,.05-.28c0-.09,0-.16,0-.17a2.68,2.68,0,0,0,0-.49l-.06,0c-.05,0-.06,0-.07.08s0,.12,0,.16c0,.23,0,.3-.06.31s0-.11,0-.25a3.31,3.31,0,0,0,0-.41.94.94,0,0,0-.09.37c0,.23,0,.3,0,.32s0,.12,0,.25a.33.33,0,0,0,0,.14l0,.09,0-.09a4,4,0,0,0,.09-.51c0-.2,0-.26.06-.26s0,.06,0,.26a1.72,1.72,0,0,1-.14.61s0,0,0,0,.05,0,.08-.13Zm.2.14a.39.39,0,0,0,0-.13,4.66,4.66,0,0,0,.08-.61.57.57,0,0,1,0-.28A.21.21,0,0,1,262,16l.13.1s0,0,0,.05-.14,0-.14-.07a0,0,0,0,0,0,0s0,.11,0,.14,0,0,0,.06-.06.09,0,.16.23.14.19,0a.43.43,0,0,1,0-.12.86.86,0,0,0,0-.15V16.1s0,0,0,0a.16.16,0,0,1-.09,0c-.09-.06-.15-.08-.2-.06s0,.06,0,.27c0,.37-.06.77-.12.77s0,0,0-.15a2.89,2.89,0,0,0,.07-.63c0-.12,0,0-.05.22a1.81,1.81,0,0,1-.12.53s0,.05.12.07l.05,0Zm.41.05a.36.36,0,0,1,0-.1s0-.05,0-.1,0-.06,0-.07,0,0,0-.07-.1-.11-.14-.11a.12.12,0,0,1-.06-.05s0,0-.06,0,.05.12.14.16.06,0,.06.06-.08,0-.15,0-.06-.06-.07,0,.06.17.1.17.15.11.12.12a.47.47,0,0,1-.21-.09s0,0,0,0,0,.06,0,.06l.11.07c.11.06.17.07.15,0Zm6.21.05s0,0,0,0a0,0,0,0,0,0,0s0,0,0,0Zm-7.95.09,0,0,0-.06a2.44,2.44,0,0,0-.21-.19c-.11-.09-.16-.12-.18-.11a1,1,0,0,1-.72-.23l-.05-.06,0,0c0,.06-.24,0-.33,0s-.13-.13-.1-.6c0-.21,0-.27.06-.3a.12.12,0,0,1,.08-.05s0,0,0-.11a.5.5,0,0,1,.05-.27.64.64,0,0,1,.2-.3c.15-.16.19-.23.14-.33a.73.73,0,0,1,0-.23.49.49,0,0,0-.12-.42.47.47,0,0,1-.1-.13s0-.08-.07-.16a.4.4,0,0,1,0-.42c.15-.42.39-.75.58-.8s.1-.06,0-.13l-.08-.07a1,1,0,0,0-.24.3,7.63,7.63,0,0,0-.38.77.34.34,0,0,1,0,.1,5.78,5.78,0,0,0-.26.92l0,.21a4.81,4.81,0,0,0-.1.63,8,8,0,0,0,0,.92c0,.16,0,.21,0,.24a1.89,1.89,0,0,0,.4.3l.13.1a2.05,2.05,0,0,0,.39.2,2.78,2.78,0,0,1,.51.22l.14.05.09,0a.32.32,0,0,0,.25,0Zm-.21.22V17.3l-.2-.09-.21-.11s-.06,0-.1,0l-.07,0s0,0,0,0,0,0,0,0l-.06,0-.11,0-.28-.12-.43-.29a.48.48,0,0,0-.18-.11.39.39,0,0,0,0,.16c0,.15,0,.19.27.35a5.83,5.83,0,0,0,1.42.58s0,0,0-.09Zm.18.09a.16.16,0,0,0,.12-.17c0-.09,0-.1-.12-.07s-.08,0-.1.14a.9.9,0,0,0,0,.12s.06,0,.13,0Zm7.9-4.15a.05.05,0,0,0,0,0s0,0,0,0a0,0,0,0,1-.07,0,.1.1,0,0,1,0-.13.15.15,0,0,1,.16,0s0,.14,0,.15,0,0,0,0Zm.16.25a.09.09,0,0,1,0,0,.07.07,0,0,0,0-.05c0-.07.1-.14.13-.09s-.07.2-.1.22-.1,0-.1,0Zm-.08.11c0-.05.09-.05.09,0a0,0,0,0,1,0,0s0,0,0,0Zm.9.66a0,0,0,0,1,0-.06s0,0,.05,0,.06.1,0,.09Zm-.14.78s0,0,.05,0,.05,0,.05,0,0,0-.05,0S269.19,15.16,269.19,15.15Zm-3,.31s.09,0,.31-.05l.24,0h.09s0,0-.13.06l-.31,0c-.16,0-.21,0-.2,0Zm.16,2.27c0-.07,0-.31,0-.54s0-.59,0-.82c0-.38,0-.43,0-.49a.66.66,0,0,0-.27-.26c-.15,0-.09-.07.3-.1l2.22-.13.91-.07s.05,0,.05,0a6.1,6.1,0,0,0-1,0l-.74,0c-.19,0-.49,0-.67,0s-.37,0-.37,0,.1,0,.37-.06l.4,0,.45,0a4.79,4.79,0,0,0,1.29-.11c.05-.06.05-.06,0-.06a.25.25,0,0,1-.12,0s0,0,0-.26,0-.27.05-.22a0,0,0,0,0,.06,0s0,0-.09-.12-.27-.29-.18-.29a.37.37,0,0,1,.11.1.61.61,0,0,0,.16.16,1.41,1.41,0,0,0,.36.19c.06,0,0,0-.08-.09s-.18-.11-.16-.13.07,0,.18.08a.86.86,0,0,0,.25.11c.12,0,.19,0,.08,0a1.11,1.11,0,0,1-.37-.2s0,0,0,0l.28.13c.28.13.3.13.29.1a.36.36,0,0,0-.1-.06.64.64,0,0,1-.28-.17s.08,0,.15,0a1.54,1.54,0,0,0,.36.16.4.4,0,0,0,.23,0l.09,0-.11,0a2.9,2.9,0,0,1-.73-.36s.06-.05.09,0a6.27,6.27,0,0,0,.58.29.29.29,0,0,1,.11,0c.08,0,.17,0,.15,0l-.07,0a2.08,2.08,0,0,1-.47-.24,2.83,2.83,0,0,0-.88-.49c-.17-.06-.19-.06-.25,0s0,.06,0,.14,0,.16-.07.11a.34.34,0,0,1,0-.3c.05,0,.05-.06,0-.08a.1.1,0,0,0-.16.06.13.13,0,0,1,0,.07.12.12,0,0,0-.05.06.07.07,0,0,1,0,0l-.08.05s-.08.05-.1,0,.09-.13.14-.15a.5.5,0,0,0,.11-.17.05.05,0,0,1,0,0l0,0s-.11-.15-.16-.16a.1.1,0,0,1-.05-.07c0-.1,0-.11-.14-.14s-.38,0-.39.14,0,.06-.09.08-.13.1,0,.08l.13,0c.06,0,.08,0,.08.05s0,0-.05.06-.15,0,0,.06a.32.32,0,0,1,.17,0,.73.73,0,0,1,.11.33.55.55,0,0,0,.29.42.28.28,0,0,0,.22,0s0,0,.05.07l.05.22c0,.16,0,.27,0,.31s-.05,0-.15,0-.27,0-.27.08,0,0,.08,0a.44.44,0,0,1,.23,0l.17,0s-.09.06-.17,0-.26,0-.26,0l-.05,0s0,0,0,0,0,0-.26,0l-.75,0-.36,0h-.36c-.17,0-.24,0-.14,0s0,0,0,0-.07,0-.2,0a1.58,1.58,0,0,1-.44,0c-.13,0-.13,0-.1,0l.08,0a.07.07,0,0,1,.06,0s0,0-.05,0-.08,0-.08,0,0,.08.07.12a.71.71,0,0,1,.17.54c0,.25,0,.94-.07,1.2,0,.1,0,.25,0,.34l0,.17.1.06.09.07v-.08a1.06,1.06,0,0,0,0-.21Zm.34.29c.09,0,.09,0,.11-.09s0-.17,0-.28,0-.28,0-.38,0-.32,0-.48v-.3h.06c.18,0,.81-.07,1.6-.1.29,0,.34,0,.25.05s0,.07,0,.28v.39a2.44,2.44,0,0,0,0,.26.25.25,0,0,1,0,.16s0,.07,0,.22l0,.18h.16l.18,0s0-1.79,0-1.8h-.2l-.68,0-1,.05c-.47,0-.53,0-.53,0s0,0,1.31-.1l.69,0,.35,0h.12v1c0,.47,0,.86,0,.87a0,0,0,0,0,0,0s0-1.95,0-2,0,0-.1,0l-.38,0h-.47l-.32,0-.19,0-.51,0-.52,0s-.05,0-.05,0,0,0,.13-.05.84-.06,1.28-.07l.43,0,.28,0c.4,0,.47,0,.47-.1a.51.51,0,0,1,0-.17l.06-.13h-.09l-.5,0-1.63.09-.65,0-.22,0s0,0,0,.05a.4.4,0,0,1,.12.15.5.5,0,0,0,.1.14c.05,0,.05,0,0,.08s0,.08-.05.29c0,.47-.06,1-.08,1.34s0,.38,0,.39h.09l.15,0Zm-7,.31s-.08,0-.11,0,0,0,0,0,.1,0,.1,0Zm-.14.25c.07,0,.07,0,0-.1s-.07,0-.09,0a.07.07,0,0,1-.06,0c-.05,0-.07,0,0,.07a.21.21,0,0,0,.19,0Zm2.26.05c.1,0,.1,0,0-.62a1.6,1.6,0,0,1,0-.59.28.28,0,0,0,0-.2c-.05-.18-.07-.17-.1,0a1.21,1.21,0,0,1-.15.38.54.54,0,0,0-.05.26,2.32,2.32,0,0,1-.05.33,1,1,0,0,0,0,.23c0,.09,0,.11,0,.12l.09.06a.11.11,0,0,0,.09,0l.12,0Zm-2.13,0c.08,0,.13-.07.12-.08s-.05,0-.11,0l-.15.07-.09,0-.09-.07a.32.32,0,0,1-.09-.1s.05-.07.14-.11.07,0,.14,0,.09.06.11,0,0,0-.08-.08l-.11-.08-.06,0a.54.54,0,0,0-.12.09s-.06.06-.08.06,0,0,.08.11.17.13.39,0Zm2,.08s0,0,0,0-.12,0-.21-.1-.06-.05-.05-.18a1.43,1.43,0,0,1,0-.23c0-.06,0-.2,0-.31a1,1,0,0,1,.15-.51.3.3,0,0,0,.07-.19V17.1l-.09,0h-.11a.62.62,0,0,0-.05.14.93.93,0,0,1,0,.14,1.41,1.41,0,0,0-.1.4,3.57,3.57,0,0,0,0,.54v.37h.08l.15,0c.09,0,.2,0,.22,0Zm.55.16s0,0,0,0-.12,0-.37,0a2.34,2.34,0,0,1-.39,0s-.09,0-.17,0-.15,0-.15-.07,0-.06-.06-.06-.09,0-.18.11-.1.12-.09.12l.54,0h.53a2.17,2.17,0,0,0,.36,0Zm3.7-.18c0-.38,0-.36-.07-.4a.42.42,0,0,0-.15,0l-.07,0v.3c0,.26,0,.29,0,.3l.1,0c.1,0,.13.05.14,0a.62.62,0,0,0,0-.21Zm-6.15.15a.71.71,0,0,0,0-.14c0-.06,0-.07,0-.05a.24.24,0,0,0,0,.15c0,.14,0,.16.05,0Zm2.39.19s0,0,0,0-.05,0-.53,0-.77,0-.79.05a6.89,6.89,0,0,0,1.3,0Zm8.56.13.13-.09L271,19c.08-.05.09-.13.12-.5a8.4,8.4,0,0,0,0-1.24v-.08l-.07.15a1.57,1.57,0,0,0-.17.82.3.3,0,0,1,0,.24,1.19,1.19,0,0,0-.13.35l0,.17c0,.08,0,.31,0,.31l.08,0Zm-.17-5.33c-.06,0-.07-.05,0-.08s.19,0,.2.05-.09.06-.16,0Zm.4,1.27a.41.41,0,0,0-.24-.11.13.13,0,0,1-.1,0l-.11-.07c-.09,0-.12-.07-.07-.09s0,0,.06,0a1,1,0,0,0,.39.16s.06,0,.06,0a0,0,0,0,1,0,0s0,0,0-.1a.67.67,0,0,1,.07-.41c.06,0,.12,0,.13,0s0,0,0,.05-.05,0-.07.1a2.56,2.56,0,0,0,0,.49s0,.07,0,.07l-.05,0Zm-.06.77a0,0,0,0,1,.06-.06c.05,0,0,0,0,.07s0,0-.05,0Zm.18,3.32a.09.09,0,0,0,.1-.1.31.31,0,0,1,0-.12,1,1,0,0,0,.11-.23c.07-.19.08-.21.14-.35a.69.69,0,0,0,0-.28c0-.53,0-.52.05-.7a3.76,3.76,0,0,0,.09-.44c0-.14.05-.32.07-.42a1,1,0,0,0,0-.58,1.54,1.54,0,0,1-.05-.35c0-.11,0-.22,0-.23a.51.51,0,0,1,0-.16,1.9,1.9,0,0,0-.07-.28.85.85,0,0,1,0-.18,1.27,1.27,0,0,0-.29-.39c-.07-.07-.09-.1-.09-.16a.25.25,0,0,1,0-.13.33.33,0,0,0,0-.29.55.55,0,0,0-.22-.21l-.17-.08a.31.31,0,0,0-.32,0l-.07.05h.11a.43.43,0,0,1,.34.17c.11.13.18.37.11.37a.66.66,0,0,1-.12-.27.45.45,0,0,0-.33-.2c-.1,0-.16,0-.12.07a.39.39,0,0,1,0,.13c0,.08,0,.1,0,.11s0,0,0,.06a.31.31,0,0,0,0,.11.15.15,0,0,1,0,.08c0,.06.19,0,.25-.05s.12-.06.12,0,0,.06-.08.09-.08.07,0,.11,0,0,0,.06,0,0-.09,0a.16.16,0,0,0-.13-.07.18.18,0,0,1-.16-.15c0-.06,0-.06-.15,0l-.06,0,.12.08a1.73,1.73,0,0,0,.51.25c.06,0,.12,0,.12.06s-.11.07-.18.07a.19.19,0,0,0-.09,0l-.1,0a.31.31,0,0,0-.1.05s0,0-.08,0-.08-.06-.08,0l0,0s0,0,.05.08a1.25,1.25,0,0,0,.34.35,1,1,0,0,0,.28.16c.15.06.19.07.24.06s.06,0,.06-.07a.39.39,0,0,1,.05-.14.74.74,0,0,0,.12-.33s0-.08,0-.08,0,0,0,.12a.61.61,0,0,1-.08.29l-.08.19s0,0-.07.06a.73.73,0,0,1-.59-.17,1.33,1.33,0,0,1-.35-.35l-.05-.09v.34c0,.45.07.64.17.61s.16-.12.14-.14l0-.13c0-.09,0-.12,0-.14s0,0,.05,0,.09.33.12.43a.41.41,0,0,1,0,.12,1,1,0,0,0,.19.36.47.47,0,0,0,.12.07c.09,0,.09.08,0,.08s-.05,0,0,0a.08.08,0,0,0,.13,0l.09-.2c.08-.18.1-.21.14-.21s0,.07-.06.25a1.53,1.53,0,0,0-.12.38,1,1,0,0,0,0,.48,8.38,8.38,0,0,1,0,.94,2.23,2.23,0,0,1,0,.26,2.91,2.91,0,0,0,0,.31c0,.15,0,.37-.07.37a.7.7,0,0,0-.17.11l-.15.11.13,0Zm-.55,0a.51.51,0,0,0,0-.15,1.09,1.09,0,0,1,0-.26,1,1,0,0,0,.07-.23.62.62,0,0,1,.07-.19.45.45,0,0,0,0-.23.57.57,0,0,0,0-.18s0,0,0-.11.05-.16.08-.26a1.37,1.37,0,0,1,.08-.26,1.22,1.22,0,0,0,.15-.49,1.88,1.88,0,0,1,0-.23s0-.05-.06-.07l-.08-.05s0,0-.06,0,0,0,0,0,0-.08-.06-.14l-.07-.08v.1a2.67,2.67,0,0,1-.07.26,2.52,2.52,0,0,0-.1.7,1.34,1.34,0,0,1,0,.26,2.84,2.84,0,0,0,0,.32,3.84,3.84,0,0,1,0,.39,3.13,3.13,0,0,0,0,.41c0,.4,0,.41-.1.43s-.06,0-.06,0,0,0,0,0l-.08,0-.06,0h.18l.21,0Zm-5.65.32c.41,0,.44,0,.44-.06s0,0-.26,0l-.76,0c-.61,0-.81,0-.81.05a1.79,1.79,0,0,0,.51,0Zm5.08-.08c0-.08-.05-.05-.06,0s0,.17.05.08,0-.08,0-.11Zm-2.71.11c0-.07,0-.07,0-.06s0,0,0,.06,0,.07.06,0Zm-.52.05s0,0,0,0-.08,0,0,0,.07,0,.07,0Zm3.75,0,.37,0H271l0-.07c.05-.11.05-.15,0-.15l-.12,0s-.06,0-.08,0a.22.22,0,0,1-.13,0h-.33c-.14,0-.25,0-.27.06s0,.15,0,.17h.09l.32,0Zm-7.48,0a.25.25,0,0,0,0-.18,1.64,1.64,0,0,1-.16-.38.08.08,0,0,0,0-.05.45.45,0,0,1,0-.18.71.71,0,0,0-.09-.3.11.11,0,0,0-.15,0,.16.16,0,0,0,0,.11,2.84,2.84,0,0,0,.22.66l.12.19a.56.56,0,0,0,.17.22s0,0,0-.08Zm-.09.3c0-.08,0-.08-.05-.18a1.5,1.5,0,0,1-.15-.26c0-.09-.11-.21-.14-.27a1.32,1.32,0,0,1-.08-.19.24.24,0,0,0,0-.1l0-.08a.11.11,0,0,0-.07-.09l-.15-.07a.22.22,0,0,1-.11-.1,5,5,0,0,1,0-.78c0-.2,0-.41,0-.47v-.12l-.12-.06c-.07,0-.13-.05-.14,0a1,1,0,0,0,0,.11.44.44,0,0,1,0,.34,1.93,1.93,0,0,0,0,.64,1.08,1.08,0,0,1,0,.44l0,.11h.16c.3,0,.34,0,.34.08a0,0,0,0,1,0,0c-.06,0-.09,0-.09.17a1.33,1.33,0,0,0,.38.69l.13.17a.41.41,0,0,0,.1.1l0-.09Zm4.29.29a.12.12,0,0,0,0-.07.27.27,0,0,1,0-.12c0-.06-.06-.1-.06,0a.19.19,0,0,1-.05.08.17.17,0,0,0,0,.07s.16.11.2.08Zm.09.12s0-.05-.1-.05l-.13,0c-.07,0-.07,0,0,.06s.22.07.24,0Zm-4.4-.07c0-.11,0-.13-.06-.18a5.75,5.75,0,0,1-.39-.45,1.1,1.1,0,0,1-.13-.21l-.09,0h-.08v.16c0,.12,0,.17.07.22a.29.29,0,0,1,.05.1s.09.09.29.28a.3.3,0,0,0,.12.08.61.61,0,0,1,.13.09l.08.07a.47.47,0,0,0,0-.13Zm5.83.15c.19-.08.25-.19.28-.45s.14-.53.37-.57.13,0,.12-.05,0,0,.09,0,.11,0,.11,0-.1-.06-.22-.06-.15,0-.08-.06,0,0,0,0-.14,0-.14.08,0,0-.06,0a.65.65,0,0,0-.23.19s0,.18,0,.35,0,.3-.09.41-.14.15-.38.2l-.16,0a0,0,0,0,0,0,0s.35,0,.46,0ZM261,19.57s.06,0,.07,0,0,0,0,0l0,0Zm-.38.2c-.09-.1-.07-.24.05-.26s.1.06,0,.07l-.06,0c-.06,0,0,.09,0,.12s.07.05.06.07-.08,0-.13,0Zm-.19.67a.77.77,0,0,1,.3,0s0,0,0,0h.11c.2,0,.2,0,.21,0a.83.83,0,0,0-.21-.52c-.1,0-.05-.12.09-.12a.09.09,0,0,0,.08-.06.11.11,0,0,1,.09-.07s.06,0,.06,0-.08-.09-.19-.09a.22.22,0,0,1-.14-.06c-.06-.06-.08-.06-.22-.06s-.16,0-.21.06a.24.24,0,0,0-.08.19.88.88,0,0,1,0,.2.51.51,0,0,0,0,.14.68.68,0,0,1,0,.2c-.05.19-.05.25,0,.26Zm7.49,0,.08-.06s.06,0,.11,0l.06.06.05-.06a.54.54,0,0,1,.32-.16.36.36,0,0,0,.31-.19.37.37,0,0,0,0-.27,1,1,0,0,0,0-.19.34.34,0,0,1,0-.08.64.64,0,0,0-.29-.27,1.09,1.09,0,0,0-.28-.05.92.92,0,0,0-.57.1c-.17.09-.25.16-.28.25l-.05.12a.37.37,0,0,0-.05.15.41.41,0,0,0,.13.35.16.16,0,0,1,.05.09.2.2,0,0,0,.06.11c.06.05.07.05.11,0s.1,0,.14,0l0,.06.08,0Zm-.54,0a.18.18,0,0,0,.08-.05s0,0-.08,0a.41.41,0,0,1-.31-.09c-.11-.1-.09-.27.07-.46s.06-.11.06-.26,0-.09,0-.11,0,0,.07-.07l.12-.06h-.15c-.14,0-.15,0-.14,0s0,.06,0,0h-.07s0,0,0,0,0-.05,0,0-.06,0-.15,0-.16,0,0,0,.23.1.26.18a.17.17,0,0,1,0,.17.72.72,0,0,0-.1.29.33.33,0,0,0,.26.38.42.42,0,0,0,.29,0Zm-3.43,0a3.32,3.32,0,0,1-.43-.38l-.09-.1c0-.06-.13-.16-.18-.24l-.1-.15v.08c0,.09,0,.08.24.36a7,7,0,0,0,.55.46c.07,0,.08,0,0,0Zm6.16.08.13-.05a2.17,2.17,0,0,0,.37-.27s0-.07.06-.08a1.42,1.42,0,0,0,.16-.22l.05-.08a.37.37,0,0,0,.07-.12s0-.05,0-.05,0,0,0,0a.13.13,0,0,0-.08,0c-.06,0-.07,0-.1.08a1.66,1.66,0,0,1-.54.52l-.1.07-.16.1s-.06,0-.05.07a.25.25,0,0,1,0,.09.2.2,0,0,0,0,.05l.11-.06Zm-7.05,0a.49.49,0,0,0-.26-.22l-.06,0s0,0,0,0a.34.34,0,0,1-.11-.07l-.12-.1s-.07-.06-.1-.1-.09-.09-.14,0,0,.07,0,.15a1,1,0,0,0,.33.36c.05,0,.09.05.09.06s0,0,.06,0l.2.06c.14.05.15.05.16,0a.44.44,0,0,0,0-.1Zm.92.19s0,0-.08,0-.11-.07,0-.06.09,0-.18-.18a3.59,3.59,0,0,1-.42-.37c-.16-.16-.22-.2-.23-.18s0,.13.07.2a3.69,3.69,0,0,0,.51.4.29.29,0,0,1,.14.12s-.05,0-.1,0a4,4,0,0,1-.37-.25l-.18-.14-.08-.06v.08a.21.21,0,0,0,0,.12.41.41,0,0,0,.18.15l.17.07.26.1.13,0c.05,0,.15,0,.15,0Zm0,.1s0,0-.05,0l-.11,0-.16,0a2,2,0,0,1-.43-.17c-.05,0-.09,0-.1,0s0,.14.06.17l.15,0,.2,0a.86.86,0,0,0,.32.05c.07,0,.12,0,.12,0Zm6.13,0a1.57,1.57,0,0,0,.75-.68c0-.09,0-.09,0-.09s0,0-.06.06a2.34,2.34,0,0,1-.42.41l-.22.11c-.18.08-.29.16-.29.22s0,0,.05,0l.17-.06Zm-6.84.22,0,0a.19.19,0,0,1-.07-.17s0-.05-.18-.1l-.2-.08h-.05a.09.09,0,0,1-.05,0,.22.22,0,0,0-.13-.06l-.15-.07a.14.14,0,0,0-.09,0s-.06,0-.07.07a.29.29,0,0,0,.09.24,1.62,1.62,0,0,0,.48.19c.36.1.45.11.45.08Zm.66,0c.16-.05.14-.09-.05-.11a3.06,3.06,0,0,1-.51-.09c-.17,0-.17,0-.11.05a.33.33,0,0,1,.05.12s.08.07.3.07a.85.85,0,0,0,.32,0Zm6.09,0a1.57,1.57,0,0,0,.66-.5s0-.07,0-.07a.89.89,0,0,0-.12.1l-.22.17a1.36,1.36,0,0,1-.44.18s-.05,0-.05,0a.21.21,0,0,1-.07.08l-.06.09s.11,0,.28-.07Zm-1.37-3.86s0,0,0,0,0,0,0,0,0,0,0,0Zm-.15.68s0,0,0,0a0,0,0,0,1,0,0h0A0,0,0,0,1,268.45,17.9Zm-.12,0a.36.36,0,0,1,0-.26,0,0,0,0,1,0,0s0,0,0,.16,0,.19-.05.14Zm-1-.95s.06-.11.08-.09,0,.12-.06.12,0,0,0,0Zm.49,1.09s0,0-.07,0l-.06,0v-.18c0-.2,0-.26-.08-.26s-.26.17-.26.22a.14.14,0,0,1-.09.09s0-.1,0-.15a.76.76,0,0,0,.08-.11.32.32,0,0,1,.06-.08s0,0,0-.07-.05-.06,0-.08a0,0,0,0,1,.06,0,.34.34,0,0,0,.25.09c.05,0,.1-.08.16-.25s.05-.19,0-.18a0,0,0,0,0,0,.06c0,.09-.1.28-.18.28a.16.16,0,0,1-.09-.05l-.09-.06c-.05,0-.05-.06,0-.08s.05,0,0,0-.05-.07,0,0,.17,0,.17-.09a.16.16,0,0,0-.05-.09c0-.05-.05-.07,0-.09s0,0-.06,0,0,0,0,0,0-.08-.08-.07-.16.24-.1.28,0,0,0,.08a.17.17,0,0,1-.07.14l-.1.11,0,.07a.93.93,0,0,0-.06.45c0,.11,0,.12.1.14a.2.2,0,0,0,.18,0,.38.38,0,0,0,.22-.23c.05-.16.11-.17.08,0a.46.46,0,0,0,0,.23V18h.19Zm-.25.06a.12.12,0,0,1,0-.08c0-.07,0-.08,0,0l-.13.07c-.34.15-.48-.1-.34-.58a.73.73,0,0,1,.13-.25c.06-.08.08-.12.07-.15a.46.46,0,0,1,0-.14c0-.09,0-.11.09-.18s.11-.08.18-.07a.22.22,0,0,1,.13,0c.05,0,.07.12,0,.15s0,0,0,0,0,0,0,.09a.24.24,0,0,1-.1.16c-.08.06-.09.08-.07.1s.12,0,.17,0a.21.21,0,0,0,0-.13c0-.09,0-.11.06-.11a.08.08,0,0,0,.07,0c.05-.09.08-.05.08.07a1,1,0,0,1-.17.5.9.9,0,0,0,0,.24v.21l.1,0c.1,0,.1,0,.07.09s-.06,0-.18,0Zm-2.65,1.19a.7.7,0,0,0-.37-.07c-.1,0-.14,0-.14-.08s0-.05,0-.05,0,0,0,0h0s0-.07,0-.15l0-.18a.64.64,0,0,0-.06-.18.71.71,0,0,1,0-.47.51.51,0,0,0,0-.35l-.05-.21v-.06l0,.05a.72.72,0,0,0,0,.17,1,1,0,0,1-.05.27,1,1,0,0,0-.05.26,1.33,1.33,0,0,1,0,.3,2.42,2.42,0,0,0-.05.33c0,.13,0,.14.05.16l.09.05.16.07s0,0,0,0-.14,0-.29-.08l-.16-.07s0,0,0-.08a.15.15,0,0,0,0-.09s0-.14,0-.26a1,1,0,0,0,0-.32,1,1,0,0,1,.1-.41.43.43,0,0,0,0-.15c0-.06,0-.22,0-.37a1.63,1.63,0,0,0,0-.46c-.05-.23-.05-.3,0-.31s0,0,.06.06,0,.08.11.08l.1,0s0,0-.08,0-.15,0-.1-.05.23-.06.28,0,0,.17-.18.19-.12.06-.07.13,0,0,0,0,0-.07.05-.07.07,0,.07.06,0,.11-.07.09-.08.08-.07.18a2.27,2.27,0,0,0,.08.29,1.13,1.13,0,0,1,.07.3.84.84,0,0,0,0,.18c0,.07,0,.09,0,.14a.79.79,0,0,0,0,.48,1.74,1.74,0,0,1,.14.52l0,.12h.16l.23,0c.07,0,.08,0,.08,0a0,0,0,0,1,.08,0s0,0,0,.07l-.05.06.14,0h.16s0,0-.21,0-.13,0-.16,0Zm-.42,0a.91.91,0,0,1,.4,0s-.08,0-.25,0-.15,0-.15,0Zm-1.09,0c0-.07,0-.07.11,0a1.84,1.84,0,0,0,.47,0c.34,0,.46,0,.42,0s-.58.05-.8.05h-.2V19.3Zm2.79,1.75a.8.8,0,0,1,.17-.27c.18-.2.22-.26.19-.32l0-.05s-.05-.05-.07-.1,0-.16.08-.11.1,0,.1,0,.08,0,.1,0,0,0,0,0a1.67,1.67,0,0,1,.06-.24c.05-.17.05-.2,0-.2s-.17-.09-.17-.12l0-.06c-.1-.09,0-.18.16-.18a.21.21,0,0,0,.12,0,.32.32,0,0,1,.24,0,.3.3,0,0,0,.3-.06c.07-.08.13-.07.12,0a.28.28,0,0,0,0,.06l.14-.06a1,1,0,0,1,.58-.1c.3,0,.32,0,.38.09a.23.23,0,0,0,.1.05l.11.06.09.07s0,0,.06-.07a.41.41,0,0,1,.11-.12l.15-.13a.29.29,0,0,1,.42,0,.43.43,0,0,0,.12.06s.09.09.08.15a.29.29,0,0,1-.29.14h-.18a.63.63,0,0,0-.2.39.08.08,0,0,0,0,.06.19.19,0,0,1,0,.13c0,.1,0,.11.06.11s.09.05,0,.18a.77.77,0,0,0-.07.29c0,.18,0,.2.07.13a1.7,1.7,0,0,1,.27-.19.56.56,0,0,0,.14-.08l.22-.12a2.87,2.87,0,0,0,.78-.65l.05-.08h-.05a2.25,2.25,0,0,1-.75,0,.24.24,0,0,1-.11-.26v-.09h.32c.31,0,.48,0,.48,0a2.86,2.86,0,0,0-.5,0c-.17,0-.18,0-.18,0s.1-.1.16-.1l.06,0a.29.29,0,0,1,.1-.07c.11,0,.13-.1.13-.42a2.44,2.44,0,0,1,0-.34c0-.08,0-.46.08-1.16a2.14,2.14,0,0,1,.06-.5c0-.09.06-.21.08-.27a.69.69,0,0,0,0-.37s0-.13-.06-.19l0-.11-.06.05a.22.22,0,0,1-.23,0,1.64,1.64,0,0,1-.14-.82V14.7h-.25a.92.92,0,0,1-.38,0c-.12,0-.12,0-.19,0s-.07,0-.08.2V15h.09a.2.2,0,0,1,.13,0s0,.06,0,.1,0,0,.09,0,.12,0,.13.05a.16.16,0,0,1-.11.18.36.36,0,0,0-.16.14c-.1.18-.12.34-.12,1.2,0,1.2,0,1.07.07,1.09a3,3,0,0,1,.4.16l.1,0,.06,0v.36c0,.24,0,.36,0,.37a6.07,6.07,0,0,1-1.24.1c-.25,0-.28,0-.28,0s0-.05.24-.06l.41,0,.53,0,.28,0a1.74,1.74,0,0,0,0-.53l0-.07h-.19l-.69.05a3.8,3.8,0,0,1-.51,0,0,0,0,0,1,0,0s0,0,.11,0l.35,0,.55,0,.28,0a.39.39,0,0,0-.14-.07.91.91,0,0,0-.44,0,.08.08,0,0,1-.07,0h-.23c-.19,0-.23,0-.23-.08a.13.13,0,0,0,0-.08s0-.09,0-.12a2.41,2.41,0,0,0,0-.47c0-.31,0-.43,0-.41a.24.24,0,0,0,0,.09s0,.05-.07.08-.06,0-.05.05a.28.28,0,0,1-.1.18q-.07,0-.18-.06l-.09-.07s0,.06.05.13.08.11.16.1.12,0,.06.08,0,0,0,.06.05.05,0,.06-.1,0-.13,0a.82.82,0,0,0-.24-.15.08.08,0,0,0-.08.05s0,.06,0,.14,0,.16.05.23,0,.13.05.1,0-.07,0-.22a.77.77,0,0,1,0-.2s.07,0,.1.11a1.23,1.23,0,0,0,.05.13s0,0,0,0,0,0,0,.11v.12h-.1c-.13,0-.2,0-.2-.06l.06-.05s.05,0,0,0a2,2,0,0,1-.05-.22c0-.23,0-.28.1-.28s.11,0,.07-.07a.26.26,0,0,1,0-.09c0-.07,0-.09,0-.11s.12,0,.19.07l.05.06v-.05s0-.05,0-.06-.08-.23,0-.37,0-.06.11-.06.08,0,.08,0,0,0,.06,0a.06.06,0,0,1,.06.05c0,.07.05,0,.05-.06v-.09h-.09l-.35,0-.7,0a2.76,2.76,0,0,0-.52,0l-.08,0v.19c0,.16,0,.33-.05,1,0,.13,0,.17,0,.2s0,.07-.19.08l-.25,0c-.05,0-.08,0-.18-.09l-.16-.1a.09.09,0,0,1-.05,0s-.13,0-.27.15l-.11.07c-.07,0,0,.05.14.08a.46.46,0,0,1,.16.05,3.08,3.08,0,0,0,.73,0l.71,0c.89-.05.82-.05.83,0a.11.11,0,0,1,0,0l-.41,0-.83,0-.69,0-.28,0a2.55,2.55,0,0,0,0,.29v.28h.07c.06,0,.85,0,1.38-.06l.58,0c.28,0,.29,0,.28,0s0,0-.09.05l-.7,0c-1.69.11-1.57.11-1.64.07l-.09,0s0,0,0,0l-.09-.06a.26.26,0,0,1-.11-.07l0-.32c0-.38,0-.42.15-.51a1.5,1.5,0,0,0,.23-.17l.12-.11,0-.3c0-.37.07-1.09.07-1.33a.49.49,0,0,0-.06-.28.62.62,0,0,0-.11-.17c-.25-.22-.25-.22-.25-.32a.23.23,0,0,1,0-.11h.16a.4.4,0,0,0,.29-.08s0-.06,0-.14,0-.1-.08-.13-.07,0-.21,0a2.51,2.51,0,0,0-.59.31.23.23,0,0,1-.34,0c-.26-.17-.29-.24-.16-.35l.18-.16a1.13,1.13,0,0,1,.16-.13c.07-.05.06-.06,0-.06l-.61-.07h-.09v.2c0,.14,0,.2,0,.2s0,0,.08.15a1,1,0,0,1,.15.18.5.5,0,0,0,.12.14.85.85,0,0,1,.21.47c0,.11,0,.13-.05.19a.15.15,0,0,1-.15.07.48.48,0,0,1-.31-.13l-.06,0s0,.14,0,.3a2.24,2.24,0,0,0,.12.58.35.35,0,0,1,0,.16c0,.05,0,.2,0,.33a3.64,3.64,0,0,1,0,.82,1.76,1.76,0,0,0,0,.33v.39c0,.15,0,.16,0,.2s.08,0,.22,0,.17,0,.17,0,0,0-.08,0a.25.25,0,0,0-.13,0s0,0-.13,0a.18.18,0,0,1-.09-.07.18.18,0,0,0,0-.07.18.18,0,0,1,0-.12,1.7,1.7,0,0,0,0-.5.84.84,0,0,1,0-.35,2.36,2.36,0,0,0,0-.65,2.36,2.36,0,0,1,0-.26,1.29,1.29,0,0,0-.15-.58.37.37,0,0,1,0-.09.79.79,0,0,0,0-.26c0-.36,0-.36-.08-.35h-.06s0-.06,0-.06,0,0,0-.06.05-.19.08-.19,0,0,0,.1a.17.17,0,0,0,.08.18.75.75,0,0,0,.17.14c.17.1.27.06.27-.1a.69.69,0,0,0-.21-.46,1.12,1.12,0,0,1-.13-.18.35.35,0,0,0-.08-.1l-.06-.06v.09c0,.09,0,.1.06.13s.14.11.17.26,0,.17.05.22,0,.15,0,.15-.11-.18-.11-.25a.1.1,0,0,0-.09-.08s-.09-.07-.07-.1a.08.08,0,0,1,.11,0s0,0,0,0-.07-.1-.15-.1l-.08,0a.13.13,0,0,0-.1,0c-.08,0-.09,0-.09-.07a.12.12,0,0,1,0-.1s0,0,0,0a.15.15,0,0,1-.09-.1s0,0,.1,0a.13.13,0,0,0,.08,0s.05,0,.05-.08a.14.14,0,0,1,.05-.13c.08-.07.07-.12,0-.12s-.12,0-.12-.05.06-.07.12-.07,0,0,0-.08a.09.09,0,0,0-.12,0,.32.32,0,0,0-.19.28.65.65,0,0,1-.13.4l-.06.06.06,0,.14,0c.05,0,.07,0,.07,0s-.18.05-.3,0-.11,0,0,0a.57.57,0,0,0,.36.05c.09,0,.14,0,.1.06s-.07,0-.17,0-.3,0-.37-.11-.14-.07-.2.08a1.64,1.64,0,0,0-.08.52,3.07,3.07,0,0,0,0,.79.32.32,0,0,1,0,.31c0,.09,0,.15,0,.16h.18V17c0-.17,0-.41,0-.66v-.22a4.49,4.49,0,0,1,.06-.63l.05,0s0,0,0,.06,0,.06.06.1a.24.24,0,0,0,.17,0c.1,0,.13,0,.06.06s-.26,0-.26,0h0s0,.2.06.31.07.09,0,.35a.71.71,0,0,0-.06.37,3.53,3.53,0,0,0,.09.85.59.59,0,0,1,0,.4,1.6,1.6,0,0,0,0,1,.43.43,0,0,1,0,.15s.05,0,.32,0,.23,0,.25,0a0,0,0,0,1,.05,0c.11.06-.23.12-.56.09-.14,0-.14,0-.15-.07s0-.06-.05-.06l-.17,0h-.19s0,0,0,0,0,0,.19,0h.23s0,0,0-.2a1.58,1.58,0,0,0,0-.28,1,1,0,0,1,0-.48c0-.08,0-.21.06-.29a.72.72,0,0,0,0-.35l-.05-.19h-.09c-.13,0-.16-.05-.16-.14a.47.47,0,0,1,0-.17.38.38,0,0,0,0-.18,1.41,1.41,0,0,1-.07-.58,2.58,2.58,0,0,1,.13-.89q.06-.11.12-.12c.06,0,.07,0,.07-.11a.21.21,0,0,1,0-.12.64.64,0,0,0,.05-.2,1,1,0,0,1,.14-.36s0,0,0-.07a.21.21,0,0,0-.14,0,2.61,2.61,0,0,1-.58-.15l-.19-.05a.35.35,0,0,1-.14-.06.49.49,0,0,0-.19-.07h-.09v.09c0,.07,0,.1,0,.13a.15.15,0,0,0,0,.09.18.18,0,0,1-.05.11l-.05,0,.05,0c.09,0,.15.16.19.39a1,1,0,0,0,.08.28s.07,0,.14,0,.3-.05.3-.12l0-.18v-.14h.06c.06,0,.07,0,.12.13l.06.12h.11c.1,0,.11,0,.13,0a.13.13,0,0,1,0,.08.36.36,0,0,1-.22.11.24.24,0,0,0-.13,0,1.07,1.07,0,0,1-.65.29c-.11,0-.13,0-.17-.05a.52.52,0,0,1-.06-.13v-.07l0,.06a3.79,3.79,0,0,0,0,.77c0,.1,0,.35,0,.56a2.23,2.23,0,0,1,0,.57c0,.12,0,.37-.05.56s0,.44,0,.55l0,.2.08.08c.12.11.15.1.17-.05s0-.13,0-.14a.66.66,0,0,1,.28,0,.71.71,0,0,1,0,.14,2.13,2.13,0,0,0,0,.25,2.59,2.59,0,0,0,.17.46.32.32,0,0,1,.06.11c.05.09.05.09.09.05s.1-.06.2,0,.09.07.13,0,.12-.05,1.29-.08a6.85,6.85,0,0,0,.71,0c.08,0,.09,0,0,0s0,0-.07,0-.12,0-.1,0,0,0,0,0,0,0,0,0a.53.53,0,0,0-.27-.13s-.06,0-.06,0,0,0,.07,0a.55.55,0,0,1,.26.11,1.13,1.13,0,0,1,.19.14s0,.11-.08.14a.15.15,0,0,0-.09.08c0,.09-.1.11-.81.12l-.92,0-.25,0-.13-.1c-.13-.1-.16-.11-.18-.07s.1.26.22.4l.11.14a2.07,2.07,0,0,0,.49.43,6.58,6.58,0,0,0,.85.42l.69.18c.21.05.58.11.59.11s0,0,0-.1Zm-5.44.1.12-.08c.22-.15.29-.18.37-.19a.46.46,0,0,1,.31.09s0,0,0,0-.19-.15-.36-.15-.12,0-.12,0a.61.61,0,0,1-.28.09c-.07,0-.09,0,0-.16s.07-.25,0-.22a.27.27,0,0,1-.14,0c-.1,0-.11,0-.12,0a1.3,1.3,0,0,0,0,.39,1.31,1.31,0,0,1,0,.15s0,.05.07.05a.23.23,0,0,0,.11,0Zm6.74-.15a.08.08,0,0,0,0,0s0,0,0,0,0,0,0,.05S267.46,21,267.46,21Zm-.12.07a.15.15,0,0,1,0-.1.09.09,0,0,1,.06-.09c.08,0,.13,0,.14.08S267.4,21.15,267.34,21.07Zm.72,0s0-.07,0-.06a.05.05,0,0,0,0,0s0,0,.05,0Zm-.12.08a.17.17,0,0,1,0-.18c.06,0,.09,0,.14,0s.05.05,0,.1l-.05.08a.19.19,0,0,1-.15,0Zm.21,0a.33.33,0,0,0,.08-.33.31.31,0,0,1,0-.17c.06-.14.05-.15,0-.08s-.11.08-.15,0-.13-.16-.14-.12-.09.12-.12.12a.07.07,0,0,1-.06-.06c0-.07-.08-.08-.13,0s-.09.06-.11,0,0,0-.05,0a.5.5,0,0,1-.14.16.29.29,0,0,0-.15.32c0,.12.07.13.45.13l.34,0s.13,0,.19,0Zm.21.07a1.44,1.44,0,0,1,.3-.12.23.23,0,0,0,.18-.17s0-.15.07-.24a.52.52,0,0,0,0-.32.27.27,0,0,0-.1,0,.67.67,0,0,1-.19,0c-.23,0-.23,0-.27.12a.76.76,0,0,0,0,.25.57.57,0,0,1-.1.34s0,.05,0,.06l.06,0,.06,0Zm-1.24,0s0,0,0-.06a.27.27,0,0,1,0-.29c0-.11.11-.19.15-.19a.09.09,0,0,0,.05,0s0,0-.08,0a.88.88,0,0,1-.38-.14c-.06,0-.06,0-.06,0a.26.26,0,0,1,0,.1l-.06.13a1.61,1.61,0,0,1-.21.38c-.05.06-.05.09,0,.1a2.61,2.61,0,0,1,.39.1.16.16,0,0,0,.12,0l.11,0Zm-3.28.05.14-.05.07,0s0,0,0-.05,0,0-.18,0l-.33,0c-.1,0-.15,0-.13,0a0,0,0,0,1,0,.06c0,.08.14.09.4,0Zm4.75.13a.65.65,0,0,0,.46-.33,1,1,0,0,0,.09-.43.81.81,0,0,1,.08-.34s0,0,0,0-.1,0-.07-.12,0-.17,0,0a.62.62,0,0,0-.06.3,1.76,1.76,0,0,1,0,.31l-.06.24c0,.09,0,.1-.14.15a.46.46,0,0,1-.16.06,1.06,1.06,0,0,0-.25.11s0,.12,0,.12l.19,0Zm-1.74,0c0-.08,0-.1-.32-.16-.16,0-.2-.06-.16-.13l0-.06a1.4,1.4,0,0,0,.17-.28.87.87,0,0,1,.06-.16c.07-.14.09-.32,0-.36s-.06,0,0,0,0,.09-.07,0-.09,0,0,.06.07.15-.14.41-.28.45-.06.55l.14.06a1.33,1.33,0,0,0,.28.06.1.1,0,0,0,.07,0Zm-3,.05.19-.05.18-.05c.08,0,.07-.05,0-.09s-.08,0-.2,0a1.28,1.28,0,0,1-.28.07c-.13,0-.23.06-.15.06a.2.2,0,0,1,.08,0,.09.09,0,0,0,.09,0Zm6.35,0s0,0,0,0,0,.08,0,0S270.22,21.49,270.21,21.48Zm-6.81.08c.22,0,.24,0,.13-.11s-.09-.05-.25,0a2.58,2.58,0,0,1-.64-.09c-.1-.05,0,.09.09.15s.23.12.67.09Zm.75.08a1,1,0,0,0,.35-.14s0,0,0-.05-.11,0-.34,0l-.18.05c-.15,0-.15,0-.06.09s.13.06.27,0Zm-.6.13.18,0,.13,0s0-.06-.09-.1-.1,0-.14,0a3,3,0,0,1-.6,0c-.11,0-.12,0-.08.05s.14.1.35.09l.25,0Zm.85,0a1.45,1.45,0,0,0,.36-.17s0,0-.07,0-.09,0-.2,0l-.22.09c-.21,0-.21.06-.16.12s.14,0,.29,0Zm3.61,0a.2.2,0,0,0,.12-.1c.08-.19,0-.26-.32-.26l-.4,0c-.25,0-.31,0-.34.06a.52.52,0,0,0,0,.26s.11.05.37.07l.29,0a.85.85,0,0,0,.31,0Zm-.61.11-.19,0c-.15,0-.19,0-.23-.08a.3.3,0,0,1,0-.32c.07-.14.13-.16.42-.14l.4,0a.79.79,0,0,1,.42.09c.1.09,0,.34-.17.42a.83.83,0,0,1-.37.05Zm.58,0a.41.41,0,0,0,.25-.17.51.51,0,0,0,0-.34c0-.09-.14-.11-.62-.13l-.44,0s-.22.08-.26.14a.77.77,0,0,0-.07.37c0,.1.1.14.33.16a4.81,4.81,0,0,0,.77,0Zm-3.32,0a.33.33,0,0,0,.13-.09l.12-.09c.09-.05.09-.06,0-.09s-.1,0-.18,0l-.35.16s-.07,0-.07,0a.38.38,0,0,0,.2.08l.13,0Zm-.85,0c.23,0,.32-.08.3-.1s0,0,0,0a.07.07,0,0,1-.06,0s0,0-.13,0-.34.06-.5.08-.17,0-.06.11a.74.74,0,0,0,.48,0Zm2.87,0c.14-.15.14-.15.11-.22a.33.33,0,0,1,0-.14c0-.07,0-.07-.09-.09-.28,0-.51-.15-.55-.25s0-.06-.06-.06a5.37,5.37,0,0,0-.54-.12l-.16,0-.24-.06a2.74,2.74,0,0,1-.74-.26,3.07,3.07,0,0,0-.34-.16s0,0,0,.07,0,.07,0,.11.07.09,0,.09,0,.1,0,.2.05.1.09.11a.12.12,0,0,1,.09.07s.06.06.09.06a.18.18,0,0,1,.1.06.17.17,0,0,0,.11.06.15.15,0,0,1,.09,0,.31.31,0,0,0,.14.06l.1,0s0,0,.09.05a.37.37,0,0,1,.13.07c.05.05.07.05.11,0s0,0,.05,0a.37.37,0,0,0,.26.09c.06,0,.1,0,.11,0a.23.23,0,0,0,.09.06c.06,0,.07,0,.08,0s0,0,.12,0,.15.08.17.06a.07.07,0,0,1,.11,0,.15.15,0,0,0,.19,0s0,0,.1,0,.12.06.15,0Zm-4.89,0s0,0-.07,0l-.13-.06a.35.35,0,0,0-.14-.06.19.19,0,0,1-.08-.05l-.06,0,0-.11a2.09,2.09,0,0,0,0-.21c0-.06,0-.14,0-.19s0-.22,0-.28a.19.19,0,0,0-.26,0l-.2.11a1.38,1.38,0,0,0-.3.21s-.05.05-.07,0,0,0,0,0,0,0,0-.05-.11,0-.13-.14a2,2,0,0,1,0-.33c0-.12,0-.23,0-.24s0,0,0,0,0,0-.05,0-.06,0-.09,0a1,1,0,0,0-.05.36c0,.28,0,.29,0,.42s.26.37.45.33a.75.75,0,0,0,.26-.2,2.53,2.53,0,0,0,.22-.25c.09-.15.11-.18.14-.19s.07.06,0,.13-.13.2-.12.52l0,.28h.16l.21,0c.06,0,.23,0,.23,0Zm3.17,0a2,2,0,0,0,.25-.24s-.14-.07-.17-.06l-.12.09a1.55,1.55,0,0,1-.17.13.26.26,0,0,0-.08.05s0,0,.06,0a.21.21,0,0,0,.23,0Zm-2.81,0,.15-.09s0,0,0,0-.06,0-.22-.05l-.42-.05-.19,0s.17.1.24.1.19,0,.18.08,0,.11-.25.09h-.31a.45.45,0,0,1-.18,0c-.06,0-.06,0-.06-.19a2,2,0,0,0,0-.27v-.1l-.06,0a.6.6,0,0,0-.14.15s0,0,0,0a0,0,0,0,1,0,0s0,0-.06,0a.25.25,0,0,0-.14,0,.45.45,0,0,1-.33,0,.13.13,0,0,0-.08,0c-.05,0-.05,0,0,0l.1.1a1.77,1.77,0,0,0,.14.17l.08.1.25,0a4.84,4.84,0,0,0,.78,0H262l.13-.1Zm3.1.09a.38.38,0,0,0,.09-.09l.1-.11a.35.35,0,0,0,.06-.08l-.09,0a.23.23,0,0,0-.22.1s-.06.07-.11.11a.23.23,0,0,0-.1.08s.11.06.17.06.06,0,.1,0Zm-1.12,0c.29-.09.33-.11.25-.14L264.3,22a.1.1,0,0,0-.15,0,.8.8,0,0,1-.24.07.46.46,0,0,0-.25.06s0,0,0,.06a.55.55,0,0,0,.28.06l.16,0Zm3.87.06a1.21,1.21,0,0,1,.36,0c.09,0,.17,0,.17-.06s0,0,.11,0a.27.27,0,0,0,.17-.07.44.44,0,0,1,.11-.09.19.19,0,0,0,.09-.09c0-.05.05-.08.12-.11s.09-.05.1-.11,0-.08.07-.09.11,0,.14-.12a.15.15,0,0,1,.07-.11c.05,0,.08-.07.1-.18a.17.17,0,0,1,.06-.08c.07,0,.08-.06.08-.17s0-.11.05-.12.08-.07.07-.14a.08.08,0,0,0-.13,0l-.13.08a1.37,1.37,0,0,0-.4.32,1,1,0,0,1-.19.34,1,1,0,0,1-.44.2l-.18.05,0,.13c-.07.15-.16.29-.2.29s-.17.13-.21.2,0,.07,0,.07a.08.08,0,0,0,.06,0Zm-2.29-.07.15-.15-.1,0c-.1,0-.11,0-.16,0a.13.13,0,0,1-.07,0,.05.05,0,0,0,0,0l-.07.07c-.07.05-.13.14-.11.16h.13c.12,0,.12,0,.27-.15Zm.22.15c.15-.15.23-.29.16-.26H266c-.05,0-.07,0-.13.07l-.15.15c-.08.07-.07.1,0,.12h.08s.06,0,.1-.08Zm-1.53.05a.74.74,0,0,0,.31-.13l.05,0-.09-.05-.08-.05-.1,0a2.92,2.92,0,0,1-.39.13c-.13,0-.15.06-.06.11a.63.63,0,0,0,.36,0Zm1.81,0a.61.61,0,0,1,.1-.14c.07-.1.07-.12,0-.12l-.09,0s0,0-.08.05a1.67,1.67,0,0,1-.12.16l-.08.09h.09l.1,0a.12.12,0,0,0,.06,0Zm-4-.07c.1,0,.22-.22.16-.26l-.12.07-.16.13a.13.13,0,0,0-.06.11v.08l.07-.06.11-.07Zm4.24,0a2,2,0,0,0,.12-.16s-.11-.06-.12-.05a.58.58,0,0,0-.08.12.68.68,0,0,1-.09.14.19.19,0,0,0,0,.07c0,.07.07,0,.19-.12Zm-4.5.09c0-.05,0-.08,0-.09h-.25a7.86,7.86,0,0,1-1-.06c-.08,0-.07,0,0,.1s.07.09.22.09l.39,0,.42,0h.2v-.08Zm2.78.17a.77.77,0,0,0,.18-.1l.13-.1.06,0-.1-.05-.12-.05-.12.06a1.08,1.08,0,0,1-.24.12c-.15.06-.16.07-.14.11s.19.1.35,0Zm.41.06a1.91,1.91,0,0,0,.21-.15l.09-.07-.13,0c-.12,0-.12,0-.16,0a.2.2,0,0,1-.1.08l-.13.08-.1.07s.07.09.13.09a.45.45,0,0,0,.19-.08Zm.32.11a.86.86,0,0,0,.17-.13l.12-.08s0,0,0,0,0,0-.05,0a.19.19,0,0,1-.11,0c-.06,0-.12,0-.28.12l-.15.12,0,0a.21.21,0,0,0,.22,0Zm.38,0a1.2,1.2,0,0,0,.16-.16l.09-.11H266c-.1,0-.1,0-.24.12l-.16.13s0,.05,0,.08.17,0,.25-.05Zm2.39.08c.05,0,.06,0,0-.06a.65.65,0,0,1-.31-.19.62.62,0,0,1-.14-.17s.06,0,.15.07.23.21.42.22.2,0,0-.07-.37-.16-.37-.24,0-.05.05,0a1.31,1.31,0,0,0,.33.19c.16.06.43.07.46,0s0,0-.25-.09-.36-.11-.36-.15,0,0,0,0a1.19,1.19,0,0,1,.26.11,1.14,1.14,0,0,0,.28,0c.24,0,.28,0,.36,0s.13-.11,0-.09a2,2,0,0,1-.54,0s0-.07.12,0a1.77,1.77,0,0,0,.56,0c.17,0,.33-.12.32-.15s0,0,0,0l-.51,0c-.1,0-.16,0-.15,0s.07,0,.22,0a1.29,1.29,0,0,0,.57-.11.22.22,0,0,0,.11-.07s0,0,0,0a2.37,2.37,0,0,1-.51.08c-.06,0-.11,0-.11,0s0,0,.24-.06a1.33,1.33,0,0,0,.54-.16c.11-.07.11-.1,0-.06s-.56.11-.55.06.09,0,.37-.1a.82.82,0,0,0,.39-.15c.05,0,.05,0,.07,0s0,0,0,0,0-.05,0-.05,0,0,0-.07,0-.07-.08,0l-.31.11c-.2.06-.33.06-.33,0s0,0,.12,0a1.29,1.29,0,0,0,.73-.35.59.59,0,0,0,.09-.13s-.06,0-.12.06a2.28,2.28,0,0,1-.57.27c-.15,0-.3.15-.3.23s-.08.11-.15.13a.07.07,0,0,0,0,.05c0,.06,0,.1-.13.14a.27.27,0,0,0-.11.1A.33.33,0,0,1,269,22s-.07.05-.07.06-.14.11-.23.12a.27.27,0,0,0-.12.06s-.06,0-.15,0a.33.33,0,0,0-.14,0l-.12,0-.3.05a.71.71,0,0,1-.07.11l-.06.09.11.12a.42.42,0,0,0,.45.16Zm-.41,0a1,1,0,0,1-.15-.14c-.05-.07-.06-.07-.1,0s0,.09.07.17a.35.35,0,0,0,.18.06h.08l-.08-.06Zm-1.74,0,0-.06a.62.62,0,0,1,.08-.18.89.89,0,0,0,.08-.13h-.06s-.07,0-.08,0a.46.46,0,0,1-.07.1l-.09.12a.17.17,0,0,1-.07.06s0,0,0,.05a.19.19,0,0,0,.18,0Zm.85,0c.1,0,.16-.08.35-.31l.2-.25c.11-.14.19-.29.17-.31l-.35,0c-.38,0-.36,0-.46.16a.54.54,0,0,1-.09.15l-.09.12a1.25,1.25,0,0,1-.14.2c-.11.13-.13.23-.05.25a1.43,1.43,0,0,0,.46,0Zm.68,0s0,0-.06-.08-.07-.07-.12,0,0,0,0,.06S267.61,23,267.64,22.94Zm-.59.13c.09,0,.17-.08.32-.28l.26-.32a2.36,2.36,0,0,0,.22-.31.43.43,0,0,1,.08-.11s0,0-.06,0-.08,0-.16.15a1.73,1.73,0,0,1-.19.28l-.22.28c-.18.22-.18.22-.52.23s-.4,0-.41-.14a.28.28,0,0,1,.08-.21l.09-.12a.18.18,0,0,1,0-.07.28.28,0,0,0,.05-.09s0,0,0,0,0,0,.08-.1l.12-.18c.05-.08.06-.11,0-.11a.54.54,0,0,0-.13.15l-.21.27a2,2,0,0,0-.19.28.43.43,0,0,0-.1.26c0,.09,0,.11.05.14a2.58,2.58,0,0,0,.76,0Zm-5.16.55a0,0,0,0,0,0,0,0,0,0,0,0,0,0l0,0Zm.09.3.13-.08.07-.05-.1-.06-.1-.05-.09.06a.29.29,0,0,0-.14.19s.18,0,.23,0Zm.08.08.13,0s.05,0,.09,0l.08-.05-.05,0c-.09,0-.08,0-.24.06a.36.36,0,0,1-.24.09c-.06,0-.1,0-.1,0s.19.06.33,0Zm.11.43a1.14,1.14,0,0,0,.25-.13,2,2,0,0,1,.33-.17c.07,0,.06,0,0-.07l-.17-.08-.14-.05a1,1,0,0,0-.21.08.93.93,0,0,1-.45.11c-.05,0-.06,0-.05.05a.42.42,0,0,0,.06.23.76.76,0,0,0,.4,0Zm-1.67-9.65s0,0,0,0,0,0,0,0a0,0,0,0,1-.07,0Zm5.09,9.71.43,0,.2,0,.24,0a1.09,1.09,0,0,1,.25,0,2.5,2.5,0,0,0,.57-.16l.06,0a.83.83,0,0,0,.22-.1l.27-.13a5.42,5.42,0,0,0,.8-.57L269,23c.13-.13.48-.53.54-.61a1.24,1.24,0,0,1,.16-.19,2.42,2.42,0,0,0,.26-.35l.05-.08s0-.07,0-.07-.1,0-.1.07a.47.47,0,0,1-.19.19l-.05.08a.19.19,0,0,1-.09.09.12.12,0,0,0-.08.05l-.09.07a.22.22,0,0,0-.1.08,0,0,0,0,1,0,0l-.06,0a.53.53,0,0,1-.15.07c-.07,0-.13,0-.14.07l0,0a.07.07,0,0,0-.05,0,.23.23,0,0,1-.14,0c-.05,0-.1,0-.1,0s-.1.06-.15.06a.29.29,0,0,0-.11.08.28.28,0,0,1-.29.07c-.06,0-.08,0-.11,0s-.07,0-.15,0-.13,0-.15,0-.1.05-.22,0-.08,0-.13,0-.16.13-.57.13-.39,0-.46-.05a.21.21,0,0,1-.11-.09.11.11,0,0,0-.09-.05H266a.18.18,0,0,1-.09,0s-.06-.05-.13,0-.14,0-.21,0-.06-.06-.15,0-.18,0-.21-.07,0,0-.06,0-.29.06-.35,0,0,0-.16,0-.23,0-.27-.11l0-.07h-.14c-.13,0-.16,0-.2,0a.14.14,0,0,1-.06-.08s0,0-.05-.05l-.11,0c-.07,0-.15-.09-.15-.14s0,0-.12,0a.33.33,0,0,1-.3-.15s0-.06-.12-.07-.22-.11-.22-.19,0-.06-.06-.07-.28-.18-.28-.25a.36.36,0,0,0-.1-.14c-.08-.06-.11-.1-.11-.15s0-.13,0-.13.06,0,.06.1.41.29.82.29c.12,0,.19,0,.19,0s0-.06-.1-.16l-.21,0a2.13,2.13,0,0,1-.86-.29.27.27,0,0,1-.1-.29q0-.11.06-.12c.06,0,.06-.06,0-.1a1.16,1.16,0,0,1-.09-.14.22.22,0,0,1,0-.19.52.52,0,0,1,.07-.11s0,0,0-.12a.7.7,0,0,1,0-.24c0-.17,0-.19.12-.22s.06,0,0-.09l0-.07H262c-.33,0-1,0-1.1,0s-.07,0-.07-.08,0-.08-.08-.09-.06,0-.06-.05a.12.12,0,0,1,.05-.09,1.84,1.84,0,0,0,.26-.24s0,0,.09,0,.12,0,.1-.15a1.38,1.38,0,0,1,0-.29c0-.1,0-.24,0-.32a1.56,1.56,0,0,1,.16-.55.46.46,0,0,0,0-.2,3.45,3.45,0,0,1,0-.4l0-.29-.09,0-.1,0v-.13a.66.66,0,0,1,0-.21s0-.2,0-.33a1.25,1.25,0,0,1,0-.3,1.64,1.64,0,0,0,0-.24c0-.49,0-.57.1-.66s.11-.15.31-.21l.1,0v-.11a1.5,1.5,0,0,1,0-.2c.05-.2,0-.24-.46-.47-.28-.14-.34-.15-.37-.06a.3.3,0,0,1-.23.12.24.24,0,0,0-.13,0c-.06,0-.07.05-.07.1a.28.28,0,0,0,0,.13c0,.06,0,.11,0,.08a.05.05,0,0,0-.05,0,.09.09,0,0,1-.15,0c0-.09,0-.09-.07,0s-.14.06-.15,0,0-.06-.06,0-.09.05-.12,0l0-.08-.05,0a.33.33,0,0,1-.15.05c-.09,0-.1,0-.17-.06l-.14-.15c-.09-.09-.11-.19-.06-.26a1,1,0,0,0,.08-.26c.05-.21.08-.28.15-.31l.11,0c.08,0,.09-.06,0-.06s-.08,0,0-.08,0-.07-.19.09l-.1.11a.91.91,0,0,1-.08.17,1.94,1.94,0,0,0-.21.51,1.24,1.24,0,0,0,.26.47c.11.1.12.13.13.44a1.8,1.8,0,0,0,0,.3.21.21,0,0,1,0,.13c0,.08,0,.13,0,.24s.07.12,0,.12-.12-.1-.15-.16,0,0,0,0,.14.21.24.27a.44.44,0,0,0,.39.07.19.19,0,0,0,.12,0H260c-.2,0-.33,0-.34-.07s0,0,0,0l.21,0c.16,0,.16,0,.23-.05l.07-.07-.07-.07a.72.72,0,0,1-.14-.2.36.36,0,0,0-.09-.14c-.17-.07-.16-.06-.17-.24a.35.35,0,0,1,0-.17s0,0,0,0-.08-.06-.05-.08.24.1.29.17a.88.88,0,0,0,.12.15,1,1,0,0,1,.14.15c.11.13.12.11.12-.09s0-.32.06-.32.05,0,0,.12a1,1,0,0,0,0,.26c0,.19,0,.2,0,.2a.38.38,0,0,1-.22-.15.16.16,0,0,0-.08-.08.37.37,0,0,1-.11-.13.57.57,0,0,0-.11-.14c-.07-.05-.09,0,0,0s0,.05,0,.11,0,.13.06.16.1,0,.17.19.09.2.22.26.28,0,.36-.18a1.58,1.58,0,0,0,0-.84c0-.06,0-.11,0-.11s0,0,.08.09.05.13.05.4c0,.43-.06.62-.21.72a.17.17,0,0,1-.18,0l-.12,0a.41.41,0,0,0,0,.09l0,.08h.24a.76.76,0,0,1,.46.09c.06,0,.09.13.09.27a.25.25,0,0,1-.07.19l-.14.13a1.16,1.16,0,0,0-.24.19,2.77,2.77,0,0,1-.25.21c-.05,0-.07.06-.07.08a.49.49,0,0,1-.07.31c0,.06,0,.07.07.12s.06,0,.06.06a.37.37,0,0,0,.11.1l.17.14c0,.06.06.07,0,.19a.25.25,0,0,1-.17.26.43.43,0,0,1-.35,0l-.38-.14-.38-.15-.13,0a2.86,2.86,0,0,1-.51-.27l-.12-.08a.58.58,0,0,0,0,.15c0,.08,0,.22,0,.32s0,.21,0,.26a.86.86,0,0,1,0,.17.25.25,0,0,0,.18.2l.26.11a1.69,1.69,0,0,0,.41.11l.12,0c.05,0,.05,0,.05.1s0,.09,0,.12.09,0,.09-.13v-.15h-.14l-.21-.06-.13,0a.77.77,0,0,1-.29-.08,0,0,0,0,1,0,0,.84.84,0,0,1,.36.08,1.84,1.84,0,0,0,.38.08c.1,0,.11,0,.09.38s-.07.51-.14.52-.11,0-.12-.09,0,0-.09.07-.11.12-.13.12a.13.13,0,0,0-.08,0c-.07,0-.2.05-.21,0s0,0,.11,0a.25.25,0,0,0,.2-.09.36.36,0,0,0,.09-.12l.06-.1s0-.06,0-.06-.11.09-.11.11a.14.14,0,0,1-.09.08s0,0,0-.07,0-.07-.11-.13l-.12-.07a.37.37,0,0,1-.13-.12.58.58,0,0,1,.15-.12l.16-.12a.5.5,0,0,0-.18-.08l-.29-.11L258.8,18s0,.1,0,.25.06.22.09.33.06.25.08.32l.09.28a15.59,15.59,0,0,0,1,2.09c.08.15.11.17.07.06a1.39,1.39,0,0,1,0-.5.39.39,0,0,0,0-.24.74.74,0,0,1,0-.44,2.66,2.66,0,0,0,.1-.54.34.34,0,0,1,.15-.27c.06-.05.09-.06.28-.06h.2l.07.08c.06.06.08.07.14.06a.15.15,0,0,1,.19.13c0,.06,0,.09-.09.15a.44.44,0,0,1-.15.11c-.05,0-.05,0,0,.07s.19.54.12.6a.28.28,0,0,1-.2,0s0,0-.08.17l0,.13.08,0,.22-.07c.13-.05.15-.05.24,0a.62.62,0,0,1,.2.1.22.22,0,0,1,.1.16.4.4,0,0,1,0,.15,3.18,3.18,0,0,0-.14.46,1,1,0,0,1,0,.15c0,.05,0,.07,0,0s.09,0,.4,0l.4.05c.24,0,.26,0,.26.2s0,.11-.09.19l-.2.16a.82.82,0,0,0-.15.11s-.07,0-.34,0l-.48,0c-.29,0-.34,0-.33,0a9.57,9.57,0,0,0,1,1,.25.25,0,0,1,.08.07.07.07,0,0,0,.06,0l.09.05a7.88,7.88,0,0,0,1.14.57,4.88,4.88,0,0,0,.65.19l.32.05a3.57,3.57,0,0,0,.54.07l.33,0a.13.13,0,0,0,.09,0l.42,0Zm-3.22,0,.3-.17a1.38,1.38,0,0,1,.24-.14c.09,0,.1,0,0-.07s-.09,0-.19.05l-.16.06s0,0,0,0-.05,0-.1.06l-.11.07c0,.05-.14.08-.35.09s-.21,0,0,.08a.55.55,0,0,0,.41,0Zm5.88.11c0-.05,0-.09,0-.1s0,0-.06.12,0,.09.05,0Zm-5.6.23a2.78,2.78,0,0,0,.51-.33l.06-.05a.64.64,0,0,0,.21-.14.46.46,0,0,0-.17-.06.39.39,0,0,0-.27,0,.57.57,0,0,0-.15.06,1.92,1.92,0,0,1-.6.34c-.09,0-.13,0-.18,0s-.13,0,.05.1a1.2,1.2,0,0,0,.19.1.6.6,0,0,0,.35,0Zm.22.09a1.84,1.84,0,0,0,.27-.21,2.82,2.82,0,0,1,.33-.26c.13-.09.14-.09.08-.11s-.08,0-.28.14l-.25.19a1.26,1.26,0,0,1-.33.21.41.41,0,0,1-.18,0c-.06,0-.07,0,0,0a.94.94,0,0,0,.4,0Zm4.83.26a.75.75,0,0,0,.46-.63c0-.25,0-.25,0-.35s-.13-.13-.15-.11a.86.86,0,0,0-.11.43.63.63,0,0,1-.11.36.88.88,0,0,1-.2.29l-.11.12s.07,0,.26-.11Zm-.27,0a1.33,1.33,0,0,0,.38-.86.4.4,0,0,1,0-.12,0,0,0,0,0,0-.05.09.09,0,0,1,0-.08c.05-.07,0-.11-.06-.06s-.12.18-.19.49a2.46,2.46,0,0,1-.11.44.11.11,0,0,0,0,.07.94.94,0,0,1-.14.19.85.85,0,0,0-.13.15s.06,0,.2-.17ZM264,25.4a1.54,1.54,0,0,0,.34-.29l.1-.13a1.56,1.56,0,0,1,.25-.31.5.5,0,0,0,.08-.08,1.2,1.2,0,0,0-.26,0l-.32,0c-.06,0-.08,0-.19.1s-.13.13-.13.15a1.82,1.82,0,0,1-.34.34l-.06,0a.54.54,0,0,1-.27.12s0,0,.05-.07a.92.92,0,0,0,.38-.24l.26-.28c.11-.12.16-.18.14-.19a1.56,1.56,0,0,0-.35,0,1.48,1.48,0,0,0-.41.31l-.16.13L263,25a.44.44,0,0,1-.27.12c-.09,0-.06,0,.07.09a.93.93,0,0,0,.24.06.25.25,0,0,1,.1,0s.05,0,.11,0,.14,0,.34-.12a4.85,4.85,0,0,0,.43-.42c.1-.11.19-.19.23-.19s0,.06-.09.12l-.11.14a3.28,3.28,0,0,1-.43.4.13.13,0,0,0-.07.05.16.16,0,0,1-.1,0s-.05,0,0,0a.78.78,0,0,0,.57,0Zm2.61.06a1.06,1.06,0,0,0,.27-.26c.05-.08.1-.15.1-.16l.06-.11a1,1,0,0,0,.09-.22,1.94,1.94,0,0,0,.09-.36s0,0-.07,0-.06,0-.1.14a.84.84,0,0,1-.07.18,1.27,1.27,0,0,0,0,.18.9.9,0,0,1-.31.52c-.1.1-.11.12,0,.08Zm-.62-.09a.91.91,0,0,0,.26-.31s.07-.17.1-.26a1.38,1.38,0,0,1,.09-.24s0,0,0,0-.14.09-.18.21a1.41,1.41,0,0,1-.16.41,1,1,0,0,1-.11.15.12.12,0,0,0-.06.07s0,0-.05,0a.14.14,0,0,0-.07.06s0,0,.06,0a.91.91,0,0,1,.14-.07Zm-1.72.05a1.35,1.35,0,0,0,.4-.42.86.86,0,0,0,.12-.2.51.51,0,0,1,.11-.11l.11-.1h-.08c-.08,0-.1,0-.2.14a4.72,4.72,0,0,0-.37.47.78.78,0,0,1-.27.24l-.08,0h.08a.32.32,0,0,0,.18-.06Zm2.81,0,.05,0a.53.53,0,0,0,.14-.1,1.2,1.2,0,0,0,.29-.59,4,4,0,0,1,.15-.53s0,0,0,0a1.28,1.28,0,0,0-.35.18,2,2,0,0,0-.13.39.13.13,0,0,1,0,.08l-.08.16a.76.76,0,0,1-.11.22l-.09.13a.43.43,0,0,1-.18.15c-.09,0,0,0,.15,0s.19,0,.21-.06Zm-.72.08a1.26,1.26,0,0,0,.43-.43,1.73,1.73,0,0,0,.1-.28l.07-.25a.66.66,0,0,1,0-.11s0,0,0,0l-.22,0c-.18,0-.21.06-.33.37a.92.92,0,0,1-.11.23.05.05,0,0,0,0,0,.41.41,0,0,1-.07.12.42.42,0,0,0-.07.11s-.12.11-.13.1,0,0-.08.05l-.07.06h.21a.63.63,0,0,0,.29,0Zm-1.64,0a.56.56,0,0,0,.38-.29,3.9,3.9,0,0,1,.34-.52l.07-.07a.88.88,0,0,0-.22,0h-.21l-.12.12a1.59,1.59,0,0,0-.16.19.24.24,0,0,1-.06.1.16.16,0,0,0-.06.09,1.45,1.45,0,0,1-.35.35s-.06,0-.05.05a1.4,1.4,0,0,0,.44,0Zm.82,0a.46.46,0,0,0,.19-.13l.14-.11A.8.8,0,0,0,266,25a4.45,4.45,0,0,0,.16-.48s0,0-.1,0a.55.55,0,0,1-.17,0c-.07,0-.1,0-.19.12a1.06,1.06,0,0,0-.16.23c-.16.35-.17.36-.31.49l-.12.11h.25l.12,0Zm-.36-.09a1.89,1.89,0,0,0,.31-.44.4.4,0,0,1,.08-.15s0,0,0-.06,0-.06.07-.11a.54.54,0,0,0,.07-.09s0,0-.08,0-.1,0-.18.15a.9.9,0,0,0-.14.19l-.11.18a.57.57,0,0,0-.07.13,1,1,0,0,1-.25.26c-.08,0,0,0,.06,0a.25.25,0,0,0,.2-.1Zm-3,.68a2.41,2.41,0,0,0,0-.6l-.13-.11-.4-.34-.42-.36-.13-.1a7.38,7.38,0,0,0,0,1.15l.12.1.44.38.11.09.11.1.18.16a.63.63,0,0,0,.15.12,2.44,2.44,0,0,0,0-.59Zm5.94.85s-1.15,0-4.34,0c-1.5,0-1.6,0-1.63-.05a.33.33,0,0,1,0-.06s0,0,0,0a2.62,2.62,0,0,1-.43-.36l-.26-.21-.24-.2-.19-.16c-.06-.05-.06-.06-.07-.22s0-1,0-1,.1-.12.46-.12c.21,0,.3,0,.3,0a.33.33,0,0,0,0-.1.7.7,0,0,1,.11-.6c.12-.17.12-.19,0-.31l-.14-.12a1.54,1.54,0,0,0-.26-.24.16.16,0,0,1-.07-.07l-.19-.21a5.07,5.07,0,0,1-.37-.41,3.19,3.19,0,0,0-.27-.33.15.15,0,0,1-.06-.07.43.43,0,0,0-.06-.09.3.3,0,0,1-.07-.09.42.42,0,0,0-.07-.11.41.41,0,0,1-.07-.12s0-.05-.06-.08a1,1,0,0,1-.18-.29l-.09-.14a.09.09,0,0,1,0,0,.65.65,0,0,0-.09-.2,3.11,3.11,0,0,1-.16-.34,1.2,1.2,0,0,0-.15-.32.48.48,0,0,1-.07-.15c0-.08-.13-.35-.2-.52l-.05-.14c0-.13-.07-.28-.11-.42s-.05-.17-.06-.22a1.21,1.21,0,0,0-.05-.18c0-.05-.06-.25-.09-.45s-.07-.39-.08-.45a14.79,14.79,0,0,1-.19-1.76,9.09,9.09,0,0,1,.13-1.34,6.33,6.33,0,0,1,.54-1.69l.15-.29a1.21,1.21,0,0,1,.16-.25l.12-.16c0-.05.11-.13.16-.2a.36.36,0,0,0,.1-.14,0,0,0,0,1,0,0,.25.25,0,0,0,.11-.09,3.33,3.33,0,0,1,.81-.58c.11-.06.16-.13.26-.36a1.75,1.75,0,0,0,.18-.56.51.51,0,0,1,0-.13,1.44,1.44,0,0,0,0-.23,1.71,1.71,0,0,1,0-.23,8,8,0,0,0,.2-1.49,4.31,4.31,0,0,1,.45-1.82.56.56,0,0,0,.07-.14.26.26,0,0,1,.06-.08A.21.21,0,0,0,262.1,6a1.3,1.3,0,0,1,.28-.34s.07-.05.1-.1a2.57,2.57,0,0,1,.37-.33A2.46,2.46,0,0,1,263.4,5c.15,0,.15,0,.15-.09a.47.47,0,0,1,.14-.28c.16-.13.23-.32.14-.39a.19.19,0,0,0-.12,0,.17.17,0,0,1-.19-.12.31.31,0,0,1,0-.28.32.32,0,0,0,0-.17c0-.15,0-.21.12-.26a2,2,0,0,1,.48-.2,5.74,5.74,0,0,1,.7-.1,7.21,7.21,0,0,1,1,0l.49.1c.21.07.32.21.23.32s0,.09,0,.14a.45.45,0,0,1,.1.31.13.13,0,0,1-.07.14.21.21,0,0,1-.09.06s-.09.1-.09.16a.22.22,0,0,0,0,.17.92.92,0,0,1,.12.16.33.33,0,0,1,.09.27c0,.16,0,.17.13.2a1.71,1.71,0,0,1,.65.66,1.77,1.77,0,0,1,.19.52.71.71,0,0,0,0,.14s0,0,.06.08a.4.4,0,0,1,0,.42.46.46,0,0,0-.07.27,1.61,1.61,0,0,1-.08.47,1.17,1.17,0,0,0-.05.46,1.41,1.41,0,0,1,0,.33,1.31,1.31,0,0,1-.15.46,1.5,1.5,0,0,0-.1.24.15.15,0,0,1-.05.08.15.15,0,0,0,0,.08.14.14,0,0,1,0,.06s0,.06.15.18a16.6,16.6,0,0,1,1.39,1.42,2.92,2.92,0,0,0,.3.36.59.59,0,0,1,.11.14,0,0,0,0,0,0,0,3.17,3.17,0,0,1,.61.64,1.82,1.82,0,0,1,.1.19,1.93,1.93,0,0,0,.26.31,3.88,3.88,0,0,1,.32.37l.24.27a.57.57,0,0,1,.13.16.31.31,0,0,0,.12.07c.12.06.3.21.3.25a.07.07,0,0,0,0,.06.26.26,0,0,1,.05.09.59.59,0,0,1-.09.29s0,.07.1.22a1.67,1.67,0,0,1,.39,1.07c0,.15,0,.32.05.38l0,.19a1.39,1.39,0,0,1,0,.61l-.07.3a.61.61,0,0,0,0,.15,2.44,2.44,0,0,1-.12.5,3,3,0,0,0,0,.38,1.22,1.22,0,0,1,0,.44l-.05.09a.46.46,0,0,0-.06.16c0,.09-.08.21-.11.29a.74.74,0,0,0-.06.18.15.15,0,0,1,0,.1.24.24,0,0,0-.07.12,1.09,1.09,0,0,1-.05.17s-.05.15-.07.24-.07.2-.1.26-.09.22-.15.36a2.37,2.37,0,0,1-.13.31.39.39,0,0,0-.06.13l0,.08a.29.29,0,0,0,0,.08.13.13,0,0,1,0,.1.07.07,0,0,0,0,.05,2.19,2.19,0,0,1-.21.4,2.17,2.17,0,0,0-.15.22,4.47,4.47,0,0,1-.48.66l-.29.33a5.38,5.38,0,0,1-1.33,1.19c-.06,0-.1.06-.1.07l.05,0a.51.51,0,0,1,.16.12.57.57,0,0,1,.16.5.64.64,0,0,1-.16.32,1.2,1.2,0,0,1-.48.36,3,3,0,0,1-.86.23c-.11,0-.14,0-.15.05s0,0-.12.05a.36.36,0,0,1-.15,0h-1.21c-.66,0-1.2,0-1.23,0s0,0,0,0a5.09,5.09,0,0,1-.62,0,2.36,2.36,0,0,1-.64,0s0,0,0-.05a7.65,7.65,0,0,1,1.07,0h.08c.05,0,0,0-.11-.05a5.24,5.24,0,0,1-.93-.28,3.12,3.12,0,0,1-.94-.58l-.11-.09h-.29a1.73,1.73,0,0,0-.31,0s0,0,.06.07a1,1,0,0,1,.16.12l.16.14c.06,0,.15.13.22.19l.16.13.2.17.16.15h.16c.14,0,.16,0,.15,0s0,0-.16,0h-.15v.59c0,.33,0,.6,0,.61s.56,0,1.25,0l2,0,2.25,0h1.49v-.31c0-.16,0-.43,0-.6a1.73,1.73,0,0,0,0-.3,8.29,8.29,0,0,0-1,0c-.72,0-1.58,0-1.59,0s0,0,0,0h2.49a1.18,1.18,0,0,0-.18-.16l-.23-.2-.15-.11a1.18,1.18,0,0,1-.32-.3s0,0,0,0a4.16,4.16,0,0,1,.63.5,2.77,2.77,0,0,0,.33.25c.06,0,.07.06.07.11s0,.35,0,.69V27h-1.27Z" transform="translate(-250.04)"/></g></g></g></svg>