<svg id="Layer_1" data-name="Layer 1" xmlns="http://www.w3.org/2000/svg" xmlns:xlink="http://www.w3.org/1999/xlink" viewBox="0 0 12.9 27.32"><defs><style>.cls-1{fill:none;}.cls-2{clip-path:url(#clip-path);}.cls-3{fill:#974b25;}</style><clipPath id="clip-path" transform="translate(-8.13 -1.63)"><rect id="SVGID" class="cls-1" x="8.04" y="1.56" width="13.01" height="27.4"/></clipPath></defs><g id="Natural_Environment" data-name="Natural Environment"><g class="cls-2"><path class="cls-3" d="M17.24,27.35a.43.43,0,0,1,.06-.18c.09-.11.09-.08,0,.12S17.24,27.41,17.24,27.35Zm-4.62.45a.79.79,0,0,1,0-.2l0-.11v.12l0,.18a.09.09,0,0,1-.06.07s-.05,0-.05-.06Zm5,0c0-.09,0-.12,0-.08a.43.43,0,0,1,0,.16s0,0,0-.08Zm.11,0c0-.37.06-.4.06-.05a.71.71,0,0,1,0,.3s0-.08,0-.25Zm-.3.25s0-.06,0-.06,0,0,0,.06,0,.07,0,.07S17.46,28.07,17.46,28Zm1.66.27a.24.24,0,0,1,.12,0s0,0-.06,0S19.09,28.31,19.12,28.3Zm-.38,0a.88.88,0,0,1,.23,0c.05,0,0,0-.13,0S18.67,28.31,18.74,28.3ZM14.89,2.62c-.05,0-.05,0,0,0s0,.07.06.06a.09.09,0,0,0,0-.09Zm0,.2,0,0s0,0,0,0a0,0,0,0,0,.05,0S14.87,2.84,14.86,2.82Zm0,.36a0,0,0,0,0-.05,0s0,0,0-.07.08-.07,0-.12-.12,0-.16.15,0,.13.06.13.09,0,.09,0Zm3.56.29s0,0,0,.06,0,.06,0,0a.13.13,0,0,0,0-.09Zm-3.65,0a.13.13,0,0,1,0-.09s.05,0,.05,0a.09.09,0,0,1-.05.09S14.79,3.52,14.79,3.48Zm.12.06c.05-.06,0-.27-.05-.27s-.14.12-.14.19.12.17.19.08Zm0,.16c.06-.07.05-.07,0,0s-.11,0-.12,0-.12-.06-.12,0,0,0,.07,0,.07,0,.07,0,.07,0,.14,0Zm3.35.23s-.07,0-.08,0,0,0,.06,0,.06,0,0,0ZM15,4l0-.1c0-.05,0-.05,0,0s0,.1,0,.1A0,0,0,0,0,15,4ZM13.3,4.3c0-.14,0-.2-.11-.58a9.36,9.36,0,0,0-.4-.86,3.58,3.58,0,0,0-.7-1,6,6,0,0,0,.31.67c.19.36.45.94.58,1.28s.25.63.25.63a.49.49,0,0,0,.07-.16Zm1.51.84c-.08,0-.08,0,0,0s.07,0,0-.12,0-.11,0-.11,0,0,0-.06-.19-.31-.13-.37,0,0,0,0,0,.1,0,.1,0-.06,0-.13,0-.13,0-.12-.05,0,0-.26,0-.12-.08-.12-.1,0,0,.1.07.09,0,.07-.09,0-.1,0,0,0,0,0,.06,0,0,0a.1.1,0,0,0,0,.12s0,.08,0,.14-.06.09,0,.18.06.12,0,.15,0,0,.06,0,.07,0,0,0-.09,0-.11,0,0,0,0,0,.07.07,0,.08,0,.18.08.17.07,0,0,0Zm-3.32.05a.24.24,0,0,0-.12-.05s0,0,0,.05l.12,0S11.52,5.21,11.49,5.19Zm3.3.06s0,0,0,0a0,0,0,0,0,0,0s0,0,0,0a.08.08,0,0,0,0,0Zm0,.16c0-.07,0-.08-.06,0s0,.06,0,.06a.09.09,0,0,0,.07,0Zm3.51.12s0,0-.05,0a0,0,0,0,0,0,0s0,0,0,0S18.32,5.54,18.32,5.53Zm-3.44.09a.07.07,0,0,0-.07-.07c-.06,0-.07,0,0,.07l.07.07S14.88,5.66,14.88,5.62Zm2-1.64s0-.07,0-.06A.09.09,0,0,1,17,4s0,0,0,0Zm-.41,1.46q0-.08,0-.06a.14.14,0,0,1,0,.09s0,0,0,0Zm0,.21a1.65,1.65,0,0,1,.09-.32,3.81,3.81,0,0,0,.22-.87,2,2,0,0,0-.14.41,2.18,2.18,0,0,1-.15.44,3.65,3.65,0,0,1,.13-.53q.14-.51.18-.45s0,0,0-.1,0-.14,0-.1.16-.27.11-.38,0-.07,0,0a4.54,4.54,0,0,0,.34-.85l.33-1c.05-.15-.16.11-.27.35a26,26,0,0,0-1,3s.07-.09.27-.76A2.22,2.22,0,0,1,16.86,4a6.35,6.35,0,0,1-.21.74c-.19.58-.23.73-.2.89s.1.24.1.07Zm-1.76.08c0-.05-.06-.09-.07-.09s0,0,0,.09.06.09.08.09S14.82,5.78,14.79,5.73Zm-2.94.18s0,0,0,0,0,0,0,.05,0,0,0,0A0,0,0,0,0,11.85,5.91Zm5.93-.09a0,0,0,0,1,0,0,0,0,0,0,1,.05,0,0,0,0,0,1-.05,0A0,0,0,0,1,17.78,5.82Zm.3.12s0-.06-.06-.1-.06-.09,0-.1.05,0,.05-.06,0,0,0,0-.09-.15,0-.2.06,0,.08,0,0,.06,0,0-.07,0,0,0,.15.06.14-.08,0-.14-.07-.14-.06,0,0,0a.09.09,0,0,1,.12,0s.06,0,.06,0,0-.06-.07-.08-.09-.2,0-.2.05-.06.06-.13,0-.14,0-.14-.06,0-.06,0a0,0,0,0,1,.05-.05s0,0,0-.08,0,0,.05,0l.07.12,0-.13c0-.08,0-.12,0-.1s.05,0,.05-.07,0-.08,0-.07-.05,0-.06-.06,0-.1.05-.1.06,0,0,0-.06,0,0-.09.06,0,0,0-.09,0-.1.2a.67.67,0,0,1-.08.31c0,.07-.05.13,0,.15s0,0,0,.07-.06,0,0,0,0,0,0,.06-.1.06-.12,0,0,0,0,0a.1.1,0,0,0,.07.07s0,0,0,0a0,0,0,0,1,0-.07S18,4.93,18,5s0,.15,0,.16-.06.06-.09.12,0,.08,0,.06,0,0,0,.06-.08.09-.12.08a.08.08,0,0,0-.08.06c0,.06,0,.06,0,0s.05,0,.05,0a.07.07,0,0,0,.07.06s0,0,0,0a.06.06,0,0,1-.07,0s-.05,0-.07.1a.27.27,0,0,1-.08.16s0,0,0,0,.1,0,.1,0,.22,0,.26,0Zm-6.16.66a.06.06,0,0,0-.08,0s0,0,0,.07.11,0,.07-.05ZM16,6.72c0-.09,0-.17,0-.17s-.06.06-.09.13-.06.17-.07.22,0,0,.13-.18Zm1.71-.06h.09s0,0,0,0-.07,0-.06,0Zm0,.12a.1.1,0,0,1,.07,0s0,0,0,0a.1.1,0,0,1-.07,0s0,0,0,0Zm0,.21c-.05-.06.05-.18.11-.14s0,0,0,0,0,0,0-.09,0-.22-.05-.17,0,0,0,0,.05-.06.07,0,0,0,0-.09,0-.12.06-.13,0,0,0-.08-.05,0,0-.05a0,0,0,0,0,.05,0s0,0-.09,0-.09,0-.09,0a0,0,0,0,0,0,0s0,0,0,.07,0,.06-.05.06-.07,0-.07,0,.06,0,.12,0,.13,0,0,0-.11.06-.13,0,0,0,0,0a0,0,0,0,0,.05,0,0,0,0,0,1,0,0s0,0-.07,0a.07.07,0,0,0-.06.07s0,.07,0,.07,0,0,0,.08,0,.06,0,0,.07,0,0,.09-.08.06,0,0,.08,0,.08,0a0,0,0,0,1-.05,0s0,0,0,.06a.1.1,0,0,0,.09.06c.05,0,.05,0,0,0Zm-6.15-.25s0,0,.06,0,.07,0,.07,0,0,0-.07,0S11.58,6.76,11.58,6.74Zm.25.35a.22.22,0,0,1,.06-.15c.06-.08.06-.08,0-.05s-.08,0-.08,0a.1.1,0,0,1,.06-.08s0,0,0-.08l-.1-.05.1-.09c.07-.07.09-.1,0-.14s-.06,0-.06,0,0,0-.07,0-.06,0,0-.07a.24.24,0,0,0,.07-.11s-.12-.14-.15-.11,0,0,0,0,0-.05.06,0a.06.06,0,0,0,.09,0s0-.06,0,0-.06,0,0,0,0-.08,0,0-.05,0,0-.08a.41.41,0,0,0,.1-.18s0-.09.05-.1,0,0,0,0-.08,0-.1.11-.07.11-.1.11,0,0,0,0,.05-.06,0-.11,0-.08,0-.12.07,0,0,0-.12,0-.1-.1,0-.11-.08-.09a.13.13,0,0,0-.12.07s0,0,0,0,.06,0,0,.14,0,.18,0,.2,0,0,0,.09-.1.08-.1.11,0,0,0,0,.17-.06.17,0,0,.08,0,.08a0,0,0,0,1,0,0s0,0,0,0,0,.07,0,.12.08.12.06.16a.07.07,0,0,0,.05.09s.07.05.07.08,0,0-.07,0-.06,0-.06,0,0,.06.09.06.1,0,0,.09-.06.19,0,.19.06,0,0,.07,0,.06-.09,0-.07,0,0,0,.06.1.12,0,.06-.07.08,0a.3.3,0,0,0,.06.12s0,0,0-.06Zm.11.14s0,0-.07,0a.39.39,0,0,1-.14,0c-.07,0-.07,0,0,0s.23.09.23,0Zm3.89-.06s0,0-.05,0a.37.37,0,0,0,0,.14c0,.07.08-.07.09-.16Zm2.44.13c.06,0,.06-.06,0-.06s-.39.15-.39.24,0,.08.17,0a1.43,1.43,0,0,0,.23-.16ZM15.79,7c.1-.26.2-.51.23-.56a.36.36,0,0,0,0-.16s-.07.06-.12.21-.17.45-.25.66a4.56,4.56,0,0,0-.17.43c0,.09.1-.11.28-.58Zm1.08,1a1.13,1.13,0,0,1,.18-.19c.11-.1.18-.15.16-.12s-.34.35-.34.31Zm.16,0L17.18,8s0,.06-.11.13a.7.7,0,0,1-.15.14S17,8.18,17,8.1Zm.24-.1.24-.17a.38.38,0,0,0,.06-.2l0-.18-.19.11c-.29.18-.58.46-.58.58s0,.1,0,.1,0,0,0,.08,0,0,.07-.05A1.46,1.46,0,0,1,17.27,8ZM15,7.6c0-.84,0-1.53,0-1.54s0,.68,0,1.54,0,1.55,0,1.54,0-.71,0-1.54ZM12.28,9a5.69,5.69,0,0,0-.19-1.1s0,0,0,.13.05.34.07.57c.08.59.1.7.12.7a.85.85,0,0,0,0-.3Zm.37.2s0,0,0,.08,0,.1,0,.06A.33.33,0,0,0,12.65,9.23Zm6.75-.05A.61.61,0,0,0,19.47,9a1.53,1.53,0,0,0-.2.4c-.08.2,0,.05.13-.19ZM15.74,9.1a5.3,5.3,0,0,1,.47-.55l.18-.18L16.33,8l-.11-.67L16.16,7l-.09.18a13.62,13.62,0,0,0-.82,2.3l-.05.25.12-.13.42-.53ZM13,6.72s0-.08,0-.06a.11.11,0,0,1,0,.08s0,0,0,0Zm0,.2c0-.06,0-.09,0-.06A.13.13,0,0,1,13,7s0,0,0-.06Zm-.18.14a.53.53,0,0,1,0-.16c0-.06,0-.07,0,0a.53.53,0,0,1,0,.16C12.77,7.09,12.76,7.1,12.76,7.06Zm0,.18q0-.11,0-.06a.21.21,0,0,1,0,.11s0,0,0,0Zm.14.23a1.27,1.27,0,0,1,0-.26c0-.12,0-.12,0,0a1.13,1.13,0,0,1,0,.25C12.86,7.56,12.85,7.57,12.85,7.47Zm-.18.06c0-.07,0-.11,0-.08a.33.33,0,0,1,0,.14S12.67,7.61,12.67,7.53Zm.14.19c0-.08,0-.12,0-.08a.28.28,0,0,1,0,.13C12.82,7.82,12.81,7.79,12.81,7.72ZM12.76,8c0-.06,0-.09,0-.06a.24.24,0,0,1,0,.12s0,0,0-.06Zm-.18.12a1.78,1.78,0,0,1,0-.28c0-.15,0-.16,0,0s-.07.46-.07.32Zm.09.59a1.91,1.91,0,0,1,0-.32c0-.16,0-.17,0-.05a1.23,1.23,0,0,1,0,.32C12.68,8.83,12.67,8.84,12.67,8.72Zm0,.29c0,.15,0,.15.09-.13s.07-.38.14-.85c0-.22.09-.63.13-.91s.1-.61.12-.75a7.9,7.9,0,0,1,.21-1.14c0-.06.09-.3.15-.54s.18-.58.25-.76a7.88,7.88,0,0,0,.39-1.46s0,0-.06.06a6.3,6.3,0,0,1-.29.72.21.21,0,0,0,0,.12,2.59,2.59,0,0,1-.17.44,13.81,13.81,0,0,0-.78,2.54c-.16.85-.26,1.5-.29,1.82,0,.13,0,.46-.08.74a3.39,3.39,0,0,0,0,.54s.07-.25.13-.87c0-.34,0-.34,0,.12,0,.26,0,.63,0,.82s0,.29.05-.16.08-.47.1-.35Zm4.55.7c0-.15.09-.59.16-1A6.81,6.81,0,0,0,17.48,8a1.81,1.81,0,0,0-.32.27l-.29.3.07.38c0,.22.09.54.12.72a.89.89,0,0,0,.09.33.93.93,0,0,0,.06-.26ZM13.9,6.46s0-.06,0-.07,0,0,0,.05,0,.09,0,0Zm.24.5a.34.34,0,0,1,0-.17s0,0,0,.13a.49.49,0,0,1,0,.16S14.15,7,14.14,7Zm1.15,1.51a.53.53,0,0,1,0-.16c0-.06,0-.07,0,0a.56.56,0,0,1,0,.15C15.31,8.5,15.29,8.51,15.29,8.47Zm-.68.7a.44.44,0,0,0,0-.14c0-.08,0-.08,0,0a.17.17,0,0,1,0,.13S14.61,9.2,14.61,9.17Zm.05.19s0-.08,0-.06,0,0,0,.09,0,0,0,0Zm0,.18s0-.07,0-.06a.14.14,0,0,1,0,.09s0,0,0,0Zm.05.2c0-.06,0-.09,0-.05a.11.11,0,0,1,0,.11S14.75,9.81,14.75,9.74Zm0,.21s0-.07,0-.06a.14.14,0,0,1,0,.09s0,0,0,0Zm.08.18c0,.09,0,.09.1,0s.13-.23.24-.82a6.29,6.29,0,0,1,.31-1c.39-1,.52-1.37.55-1.48s-.14.21-.25.51-.14.34-.1.14-.06,0-.19.36a1.87,1.87,0,0,1-.13.34.63.63,0,0,1,0-.23.66.66,0,0,0,.05-.24,4.47,4.47,0,0,0-.32,1,4,4,0,0,1-.13.44,1,1,0,0,0-.07.52c0,.13,0,.21,0,.24s-.11,0-.11-.2a5.78,5.78,0,0,0-.24-1.2,28.11,28.11,0,0,0-1-3.75,3.51,3.51,0,0,0,.14.56,3,3,0,0,1,.14.57,3.48,3.48,0,0,1-.17-.49l-.15-.53,0,.23a.89.89,0,0,0,0,.34l0,.11V5.42c0-.07.07.07.15.31s.15.42.18.32,0-.09,0,0a.57.57,0,0,1,0,.18c0,.06-.05,0-.09-.11a.62.62,0,0,0-.07-.18s.21,1,.51,2.07c.13.45.29,1.12.37,1.48.2,1,.19.92.23.73s0-.12,0-.07Zm2.48-.3c.06-.36.14-.83.18-1s.08-.46.09-.55.1-.62.13-.8,0-.12,0,0-.46,2.36-.52,2.88,0,.2.14-.46ZM16,9.24l.11-.09s0,0-.06.09-.09.09-.11.09S16,9.29,16,9.24Zm-.79,1.06c.06-.08.12-.14.13-.12s0,.08-.1.15l-.13.12.1-.15Zm-.38.78c.17-.29.2-.33.39-.62s.65-.93.89-1.22.16-.21.11-.16-.13,0,0-.14a.6.6,0,0,0,.14-.21c0-.06-.16.11-.49.49l-.16.18.13-.18.28-.39.16-.2-.17.16a15.55,15.55,0,0,0-1.56,2.08c0,.1,0,.06.15-.15a2.77,2.77,0,0,1,.77-.89s0,.06-.1.13a4.93,4.93,0,0,0-.69.89c-.16.31-.07.28.15,0a2.8,2.8,0,0,1,.24-.33s0,0-.24.42-.23.4-.17.4a1.65,1.65,0,0,0,.14-.21Zm.11.22c0-.18,0-.2-.05-.11s0,.33,0,.33A.66.66,0,0,0,15,11.3Zm-1.13.56A.83.83,0,0,1,14,11.6c.13-.2.13-.22.07-.36a3.49,3.49,0,0,1-.12-.43c0-.15-.11-.46-.16-.7a12.42,12.42,0,0,1-.22-2.17c0-.58,0-.94.13-1s.15.09.2.58A16.57,16.57,0,0,0,14.32,10c.17.64.22.75.26.61.12-.4,0-.9-.72-3.69a11.68,11.68,0,0,0-.43-1.35s0,0-.06.11c-.06.3-.29,1.71-.32,1.95s-.1.63-.18,1.1c-.23,1.25-.25,1.38-.21,1.43s.45.78.89,1.61c.13.23.17.28.22.23a.17.17,0,0,0,.07-.11Zm1.15-.2c0-.09,0-.1-.07-.05s0,.06,0,0,0,0,0,0a.73.73,0,0,0,.06.32l.08.28,0-.2a1.52,1.52,0,0,0,0-.32Zm-3.91.44s-.05,0,0,0,0,.07,0,0,0,0,0-.08Zm1.38-1.48c0-.06,0-.07,0,0s0,.06,0,.08,0,0-.06-.06Zm.18.32c0-.06,0-.07,0,0s0,.06,0,.08,0,0-.06-.06Zm.27.12c0-.07-.06-.13-.05-.13s.06.06.1.13.06.14,0,.14A.44.44,0,0,1,12.91,11.06Zm-.07.23s0-.09,0-.09,0,0,.07.09,0,.09,0,.09S12.87,11.34,12.84,11.29Zm.14.23s0-.09,0-.09a.18.18,0,0,1,.07.09c0,.05,0,.09,0,.09A.18.18,0,0,1,13,11.52Zm.11.22a.06.06,0,0,1,0-.07s0,0,.05.05,0,.1,0,0Zm.3.14c0-.05,0-.09,0-.09s0,0,.07.09,0,.1,0,.1-.05-.05-.07-.1Zm0,.25c0-.07,0-.07,0,0s0,.07,0,.08,0,0-.05,0Zm.14.32c0-.06,0-.1,0-.09s.09-.07,0-.21L13.47,12l.09.11c0,.06.1.1.1.07a10.35,10.35,0,0,0-.57-1c-.1-.17-.31-.54-.45-.82a17.49,17.49,0,0,0-1.81-2.68,9.35,9.35,0,0,0-1.09-1.1l-.13-.08.16.2c.09.11.27.34.4.52l.43.55a15,15,0,0,1,1.2,1.86L12,10c.56,1,.74,1.31,1.06,1.94.2.41.35.67.38.65a.15.15,0,0,0,0-.14Zm-.24.74.13-.45-.26-.53c-.19-.36-.28-.5-.29-.44s0,.48.1,1,.12.92.12,1,0,.14,0,0,.1-.31.16-.56Zm5.84-3s.05-.07.06-.06,0,0,0,.08-.05,0,0,0Zm-.2.21c0-.08.08-.23.08-.16a.19.19,0,0,1,0,.14s0,0,0,0Zm-.13.44a.53.53,0,0,1,0-.16c0-.06,0-.07,0,0a.53.53,0,0,1,0,.16C18.79,10.87,18.78,10.88,18.78,10.84Zm-.07.17s0-.07.05-.06,0,.05,0,.08-.05,0,0,0Zm-.59,1.15a.31.31,0,0,1,.09-.14s0,.06-.05.14a.48.48,0,0,1-.09.13S18.08,12.23,18.12,12.16Zm-.09.37a2.61,2.61,0,0,1,.19-.27l.1-.13-.09.16a2,2,0,0,1-.19.28l-.09.11Zm-.25.13a1.4,1.4,0,0,1,.23-.3s0,.09-.14.24a1.67,1.67,0,0,1-.23.31S17.68,12.81,17.78,12.66Zm-.3.44a.33.33,0,0,1,.1-.12s-.07.17-.13.21,0,0,0-.09Zm.21,0a1.51,1.51,0,0,1,.16-.22s-.07.16-.19.3-.08.08,0-.08Zm-.19.49s.1-.15.21-.31.2-.26.2-.24a2.62,2.62,0,0,1-.41.55Zm-.12.28c0-.07,0-.08,0-.05s0,0,0-.08.1-.11.12-.11a4.39,4.39,0,0,0,.71-1,14.1,14.1,0,0,0,.68-1.44,4.3,4.3,0,0,1,.22-.53c0-.07.13-.3.21-.53.14-.42.31-.88.43-1.15,0-.08.05-.15,0-.15a5.27,5.27,0,0,0-.43.88c-.08.2-.15.35-.17.34a5.67,5.67,0,0,1,.66-1.38s0,0,0-.08,0-.09.06-.09.07,0,.1-.09.05-.1,0,0-.09.06,0-.12.09-.12.11-.11,0,0,0,0,0-.07,0-.06A.07.07,0,0,0,20.24,8a.48.48,0,0,1,.16-.22c.1-.1.14-.15.1-.17s-.33.23-.33.3a.85.85,0,0,1-.15.23,3,3,0,0,0-.28.44c-.07.14-.14.24-.16.23s0,0,0,0,0,.07,0,0-.05,0,0,0a1,1,0,0,1-.12.39,4.69,4.69,0,0,0-.21.52,1.2,1.2,0,0,1-.1.22s0,0,0,0,.08-.22,0-.11a.25.25,0,0,0,0,.2c0,.05,0,.07,0,.06s-.1.11-.17.3a10.87,10.87,0,0,1-1.23,2.39,1.38,1.38,0,0,0-.22.38s0,.11,0,.19a1.76,1.76,0,0,0-.16.58c0,.11,0,.11.07,0l.12-.17ZM13.19,14s0,0,0,.06,0,.06,0,0a.13.13,0,0,0,0-.09Zm3.23.14a3.19,3.19,0,0,1,.31-.39,5.48,5.48,0,0,0,.07-1.09,11.09,11.09,0,0,0-.07-1.83c-.05-.42-.1-.85-.13-.95s-.05-.34-.07-.51a1.11,1.11,0,0,0-.06-.3c-.11,0-.51.48-1,1.27l-.33.48V12.5l.42,1.07L16,14.73c0,.09,0,.08.1,0s.19-.31.33-.51Zm-.27.9a.12.12,0,0,1,0-.08s0,0,0,0a.1.1,0,0,1,0,.08S16.15,15.1,16.15,15.08Zm.37-.32a.94.94,0,0,0,.2-.36c0-.05-.09,0-.23.25s-.29.41-.24.27.14-.21.28-.41a2.77,2.77,0,0,0,.25-.4c0-.07-.12,0-.18.13s-.07.1-.09.08a.05.05,0,0,0-.07,0s0,0,0,0,.05,0,0,0a.08.08,0,0,1-.07.07.15.15,0,0,0-.09,0s0,0,0,0,.07,0,0,.17-.09.11-.12.09,0,0,0,0,0,.11,0,.17a.33.33,0,0,0-.05.21l0,.1.07-.11.29-.4Zm-2,.42s0,0,0,.06,0,.06,0,0,0-.07,0-.08Zm.34-.73a2.91,2.91,0,0,0-.09-1.13l-.25-.67a2.84,2.84,0,0,0-.19-.45,2.43,2.43,0,0,0-.16.3l-.14.3.26.69a14.93,14.93,0,0,1,.52,1.84l0,0s0-.41,0-.9ZM16.6,15c.13-.16.18-.36.1-.36a3.91,3.91,0,0,0-.46.66.44.44,0,0,0,0,.2c0,.1,0,.09.14-.12A2.75,2.75,0,0,1,16.6,15ZM15.42,16.1a1.23,1.23,0,0,1,.11-.33l.11-.24-.16-.42c-.15-.38-.17-.41-.21-.31a2.35,2.35,0,0,0,0,.57c0,.25,0,.64,0,.87v.41l.07-.23a2.31,2.31,0,0,0,.06-.32Zm1.29-.55,0-.55-.1.12a2.18,2.18,0,0,0-.2.33l-.12.23.14.43a3.5,3.5,0,0,1,.14.51,4.92,4.92,0,0,0,.11-1.07Zm3.9,1.4s0,0,0,.06,0,.07,0,0a.1.1,0,0,0,0-.09Zm-4.08.85c-.11-.43-.16-.58-.16-.47a4.68,4.68,0,0,0,.12.5,4.94,4.94,0,0,1,.11.55c0,.08,0,.07,0,0a2.27,2.27,0,0,0-.1-.57Zm-2.21-3a.39.39,0,0,1,0-.13s0,0,.05,0a.66.66,0,0,1,0,.13S14.33,14.82,14.32,14.78Zm.09.27a.35.35,0,0,1,0-.13s0,0,0,.06,0,.11,0,.12S14.42,15.09,14.41,15.05Zm.3,1.23c0-.07,0-.11,0-.08a.33.33,0,0,1,0,.14S14.71,16.36,14.71,16.28Zm0,.34c0-.06,0-.09,0-.05a.11.11,0,0,1,0,.11S14.75,16.68,14.75,16.62Zm.31.26c0-.05,0-.08,0-.06a.11.11,0,0,1,0,.08s0,0,0,0Zm-.17-.24a2,2,0,0,1,0-.37,2.33,2.33,0,0,1,.11.67s0-.1-.07-.3Zm.08.51s0-.07,0-.06a.14.14,0,0,1,0,.09s0,0,0,0Zm-.13.09a1.68,1.68,0,0,1,0-.42,2.25,2.25,0,0,1,.08.37,1.39,1.39,0,0,1,0,.41A1.45,1.45,0,0,1,14.84,17.24Zm.11.68a.68.68,0,0,1,0-.24s0,.08.05.19a.49.49,0,0,1,0,.24S15,18,15,17.92Zm.11.11a4.17,4.17,0,0,0,0-.5c0-.13,0-.2,0-.13a.49.49,0,0,0,.06.16s0-.06,0-.28,0-.29,0-.26a18.58,18.58,0,0,0,0-2.17,2.69,2.69,0,0,0-.08-.81C15,13.89,15,14,15,14.9a7.31,7.31,0,0,0,0,1.36.93.93,0,0,1,0,.38c-.05.05-.07,0-.11-.29s-.08-.32-.12-.2-.05,0-.1-.19l-.07-.27,0,.23c0,.2,0,.21,0,.06a.81.81,0,0,1,0-.31c0-.11,0-.14,0-.1s-.06,0-.08-.12a2,2,0,0,1,0-.6s.07.26.15.59a3.45,3.45,0,0,0,.19.59s0,0,0-.08,0-.24-.1-.44a9.78,9.78,0,0,0-.57-2s0-.06,0-.2,0,0,0,0,0,0,0-.07,0-.09,0-.08,0,0-.05,0a0,0,0,0,0-.06,0s0,.06,0,.1a9.62,9.62,0,0,1,.5,1.56,1.1,1.1,0,0,1-.12-.33c-.24-.81-.46-1.37-.46-1.15a5.87,5.87,0,0,0,.31.95,1.16,1.16,0,0,1,.09.3,4.56,4.56,0,0,1-.33-.86c0-.14-.1-.24-.12-.22a.61.61,0,0,0,.07.31c.1.25.26.78.61,2.07A15.7,15.7,0,0,1,15,18.29c0,.15,0,.16.07.08a1.37,1.37,0,0,0,0-.34Zm.81.12a2.16,2.16,0,0,1,.42-.42c.06,0,.06-.07,0-.38a3.65,3.65,0,0,0-.3-.82,9,9,0,0,0-.47,1.76l0,.27.15-.14a3.25,3.25,0,0,0,.26-.27Zm-.4.78.07-.08s.06,0,.06,0,0,.06-.06.08S15.47,18.94,15.47,18.93Zm.24-.09c.09-.13.09-.14,0-.2s-.07-.07,0,0,.37-.21.48-.48l.1-.23-.42.42a3.78,3.78,0,0,0-.4.45l.1-.06c0-.06.09-.07.09,0s0,0,0,0,.05,0,.05,0-.08.11-.11,0-.22.13-.24.29v.15l.11-.11a2.5,2.5,0,0,0,.22-.24Zm-1.18.36a1,1,0,0,1,.28-.21c.14,0,.17-.16.09-.56,0-.2-.1-.56-.13-.78a16.23,16.23,0,0,0-.47-2.17L14,14.3c-.08-.31-.21-.62-.24-.55a6.44,6.44,0,0,0-.25,1.52,3.76,3.76,0,0,0,.08.71c.13.58.27,1.32.3,1.58s.07.42.12.65.1.56.13.73c.08.51.09.56.15.51l.27-.25ZM19.47,6.8c.05-.07.06-.11,0-.09s-.16.21-.12.21a.56.56,0,0,0,.09-.12Zm-.25.39c0-.05,0-.09,0-.09s0,0-.07.09,0,.09,0,.09S19.2,7.24,19.22,7.19Zm-.31.44s.06-.09.09-.08,0,0,0,0a2.8,2.8,0,0,1,.65-1.06.06.06,0,0,0,.07,0s0,0,0,0-.05,0-.05,0a.12.12,0,0,1,0-.08s.05,0,.05,0,0,0,0,0,.05,0,.05,0a.68.68,0,0,1-.13.21,3.88,3.88,0,0,0-.23.33c-.06.09-.12.16-.15.14s0,0,0,0,0,.16-.13.31a1.47,1.47,0,0,0-.16.31s0,0-.05,0,0,0,0,0,0,.09,0,.09-.05,0,0-.09Zm-.14.31a.25.25,0,0,1,.05-.11s0,0,0,0a.37.37,0,0,1,0,.11S18.77,8,18.77,7.94Zm0,.19c0-.05,0-.1,0-.11s0,0,0,0,.05,0,.09-.12.09-.15.09-.11a.75.75,0,0,1-.08.22c-.07.13-.09.14-.12.08ZM18.3,9.42a1.71,1.71,0,0,1,.07-.18c0-.05,0,0,0,0a.75.75,0,0,1-.07.18s0,0,0-.05Zm-1.56.1c0-.07,0-.09,0-.06a.11.11,0,0,1,0,.11s0,0,0-.05Zm.05.29c0-.07,0-.11,0-.08a.33.33,0,0,1,0,.14S16.79,9.89,16.79,9.81Zm1.26.27a.37.37,0,0,1,0-.11s.05-.05.05,0a.25.25,0,0,1-.05.11S18.05,10.11,18.05,10.08Zm-1.22.05c0-.07,0-.11,0-.08a.21.21,0,0,1,0,.14s0,0,0-.06Zm0,.23s0-.07,0-.06a.14.14,0,0,1,0,.09s0,0,0,0Zm.05.25c0-.06,0-.09,0-.06a.24.24,0,0,1,0,.12S16.92,10.67,16.92,10.61Zm.1.09c0-.09,0-.12,0-.08a.43.43,0,0,1,0,.16s0,0,0-.08Zm-.1.14q0-.11,0-.06a.21.21,0,0,1,0,.11S16.92,10.9,16.92,10.84ZM17,12.07c0-.22,0-.3,0-.2a2.54,2.54,0,0,1,0,.39C17,12.37,17,12.28,17,12.07Zm.08.7c0-.1,0-.14,0-.1a.54.54,0,0,1,0,.18c0,.06,0,0,0-.08Zm-2,.77a1.75,1.75,0,0,1-.07-.26s0,.06.09.2a.79.79,0,0,1,.07.26s0-.08-.09-.2Zm.34.85a3.66,3.66,0,0,1-.14-.35,1.49,1.49,0,0,1,.16.3,2.39,2.39,0,0,1,.14.35A1.13,1.13,0,0,1,15.43,14.39Zm1.15,3.13c0-.28-.5-1.6-.74-2.21a3.1,3.1,0,0,1-.19-.53,15,15,0,0,1,.62,1.55,6.61,6.61,0,0,1,.36,1.29s0,0-.05-.1Zm.14.65c0-.13,0-.25,0-.26a.63.63,0,0,1,.05.22,1.19,1.19,0,0,1,0,.25S16.73,18.3,16.72,18.17Zm.12.25c0-.55.05-1.25.07-1.55.05-.65.09-1.27.12-2.16a6,6,0,0,1,.11-1c0-.18.09-.41.11-.52a21.47,21.47,0,0,1,.93-3c.09-.22.18-.47.2-.54a3.53,3.53,0,0,1,.19-.45c.08-.19.16-.4.18-.47a11.52,11.52,0,0,1,.59-1.43,3.76,3.76,0,0,1,.59-.9c.59-.68.75-.95.24-.41a1.12,1.12,0,0,1-.29.26,2.41,2.41,0,0,1,.41-.45,3.42,3.42,0,0,0,.41-.45c-.06,0-.75.6-.83.78s-.08.12-.1.1-.19.13-.46.57c-.13.21-.25.39-.27.41a5.63,5.63,0,0,0-.45,1c-.08.22-.19.51-.25.63a15,15,0,0,0-.61,1.62c-.1.34-.25.84-.34,1.12a4.73,4.73,0,0,0-.16.58.85.85,0,0,1-.09.25l-.08.16v-.33c0-.22,0-.32,0-.27s0,0,.06-.73a1.75,1.75,0,0,0,0-.48,1.37,1.37,0,0,1,0-.2c0-.08-.06-.44-.12-.8s-.19-1.22-.3-1.92c-.51-3.5-.5-3.44-.47-4a3.83,3.83,0,0,1,.05-.56s0,0,0,0-.2.56-.23,1.12a11.38,11.38,0,0,0,.2,2.39c.06.33.12.71.13.84s.06.39.09.59c.07.37.14.87.27,1.87,0,.3.1.68.13.84a55.17,55.17,0,0,1-.07,5.78c0,.34,0,.71,0,.83.05.41,0,.23-.12-.22a10.58,10.58,0,0,0-.46-1.63c0-.07-.18-.47-.32-.89s-.31-.87-.38-1a3.8,3.8,0,0,1-.23-.59l-.16-.46c-.05-.11-.29-.82-.47-1.37l-.13-.41a8.36,8.36,0,0,1-.3-1.1c0-.17-.1-.5-.16-.73s-.11-.62-.14-.86a5.53,5.53,0,0,0-.18-1.12,3.81,3.81,0,0,0,0,1.31,8.44,8.44,0,0,0,.21,1.68,25.38,25.38,0,0,0,.79,2.57c.15.42.33.91.4,1.09a2,2,0,0,0,.17.39.23.23,0,0,1,.06.15,8,8,0,0,0,.4,1.13c0,.06.07.17.1.27s.07.15.09.11,0,0,0,0a6.65,6.65,0,0,0,.25.74c.13.36.29.79.34.95a8.28,8.28,0,0,1,.25,1.43.51.51,0,0,1-.06-.22c0-.21-.05-.13-.05.46v.71l.08-.23a4.19,4.19,0,0,0,.11-1.23Zm-6-8.78-.09-.1.1.09c.1.08.13.11.09.11l-.1-.1Zm.22,0c-.36-.51-.39-.56-.3-.47a4.82,4.82,0,0,1,.5.71,2,2,0,0,1-.2-.24Zm.32.46c-.09-.12-.12-.19-.07-.16s.16.21.13.21a.12.12,0,0,1-.06-.05Zm-.76,1.11c0-.06,0-.07,0,0s0,.07,0,.08,0,0-.06-.06Zm.21.44a1,1,0,0,1-.14-.29.93.93,0,0,1,.17.26,1.16,1.16,0,0,1,.13.29A1.06,1.06,0,0,1,10.86,11.65Zm.38.48c0-.11,0-.14,0-.05s0,.09,0,.11,0,0,0-.06Zm1.34.26c0-.07,0-.09,0-.06a.21.21,0,0,1,0,.11s0,0,0,0ZM11.53,13a.47.47,0,0,1,0-.16s0,0,.07.13a.3.3,0,0,1,0,.16S11.56,13.05,11.53,13Zm1.86.82a3.43,3.43,0,0,1,.18-.55c.1-.26.2-.52.23-.58s0-.09.06-.08a1,1,0,0,1-.09.29c-.07.15-.18.43-.25.63s-.13.33-.13.29Zm-.13.69a1.84,1.84,0,0,1,.06-.34c0-.15.06-.22.06-.16S13.26,14.59,13.26,14.48Zm-1.17-.31a4.47,4.47,0,0,1-.47-1s.07.11.16.3a7.75,7.75,0,0,0,.36.7,1.81,1.81,0,0,1,.2.36,1.66,1.66,0,0,1-.25-.38Zm1.12.52c0-.08,0-.12,0-.08a.19.19,0,0,1,0,.13S13.21,14.76,13.21,14.69Zm-.93,0c0-.05-.07-.1-.06-.12s.06,0,.1.09.07.15,0,0Zm.6.86a.92.92,0,0,1-.11-.22,1.56,1.56,0,0,1,.25.43s-.08-.09-.14-.21Zm.4.85c0-.12,0-.15,0-.06s0,.1,0,.11,0,0-.05,0Zm.07.7c0-.06,0-.08,0-.05a.21.21,0,0,1,0,.11s0,0,0-.06Zm.76,2.5a2.3,2.3,0,0,0,0-.28c-.05-.21-.15-.79-.25-1.46,0-.26-.1-.59-.14-.76a13.69,13.69,0,0,1-.31-1.82,5.94,5.94,0,0,1,.44-2.18c.09-.23.17-.48.19-.54s.12-.38.16-.35,0,0,0-.05,0-.07,0,0,.05,0,0,0a.11.11,0,0,1,0-.12.16.16,0,0,0,0-.13s-.1.11-.19.3a1.72,1.72,0,0,1-.19.34,2,2,0,0,1,.15-.39c.19-.4.19-.5,0-.16s-.18.22,0-.1c.08-.15.11-.23.07-.18a4.89,4.89,0,0,0-.48,1c0,.12,0,.23-.09.21a2.43,2.43,0,0,0-.27.77s0,0,.07-.12.08-.13,0,.19c0,.17-.07.22-.08.16s0,0,0,0a2.92,2.92,0,0,1,0,.54c-.06.45-.12.44-.15,0s-.12-1.17-.23-2c-.06-.43-.11-.85-.12-.93a1,1,0,0,0-.08-.31L12.53,11v.23a2.32,2.32,0,0,0,.06.46c.08.27.09.35,0,.2s-.07-.1-.09-.09a2,2,0,0,1-.29-.43c-.14-.25-.35-.6-.47-.78-.28-.44-.29-.45-.23-.42s.63,1,.75,1.2.17.24.17.17a22.58,22.58,0,0,0-1.53-2.42A18.41,18.41,0,0,0,9.6,7.71,3.67,3.67,0,0,0,8.84,7a2.13,2.13,0,0,1-.31-.12.44.44,0,0,0-.17-.07,3.85,3.85,0,0,0,.33.27,8.51,8.51,0,0,1,1.84,2.12,8.07,8.07,0,0,0,.8,1.1,2.67,2.67,0,0,0-.3-.48s0-.07,0,0a2.41,2.41,0,0,1,.43.68s0,0,0,0,.07,0,.09.06.19.29.36.52a4.86,4.86,0,0,1,.6,1s0,0-.07,0-.07-.08,0,0,.07.11.1.1,0,0,0,.09a1.4,1.4,0,0,0,0,.29c0,.15,0,.16.07.08s0-.05,0,.06,0,.14,0,.12.05,0,.05.07,0,.09,0,.07,0,.09,0,.22A17.39,17.39,0,0,0,13,15S13,15,13,15s0,.27.07.24.06,0,.07.12,0,.13.06.11.08.14.14.34c.1.41.05.47-.08.09-.05-.14-.13-.32-.17-.41-.19-.36-.49-.9-.6-1.07a12.28,12.28,0,0,1-1-2.26,4.75,4.75,0,0,0-.59-1.2s0,0,0-.06a7.06,7.06,0,0,0-1-1.47C9.62,9.23,9.24,9,9.19,9a1.86,1.86,0,0,0,.25.36,8.09,8.09,0,0,1,1,1.63c.37.71.56,1,.6,1s.13.17.1.24,0,.06,0,0a1.69,1.69,0,0,1,.23.55,9.85,9.85,0,0,0,.4,1,1.15,1.15,0,0,1,.16.45s0,0,0,0,0,0,0,.05,0,.08,0,.08.15.12.12.17a1.34,1.34,0,0,0,.21.39A5.23,5.23,0,0,1,13,16.2c.05.13.1.23.12.21s.06,0,.08.1.06.25,0,.09l-.06-.14,0,.16c0,.27.22.8.25.73s0,0,0,0,0,.33.07.3a2.29,2.29,0,0,1,.17.75,4.82,4.82,0,0,0,.12.71c.07.3.14.6.15.66l0,.11.08-.11a.4.4,0,0,0,.09-.19Zm-.3,1c0-.11,0-.11,0,0a1.22,1.22,0,0,0-.09.27c0,.09,0,.08,0,0a1.07,1.07,0,0,0,.09-.27Zm.66-.75c0-.08.22-.34.25-.31a.56.56,0,0,1-.11.2c-.08.09-.14.14-.14.11Zm-.55,1.26a3.45,3.45,0,0,1,.77-1.37.63.63,0,0,0,.21-.47l0-.29-.13.08a2.89,2.89,0,0,0-.67.75c-.14.28-.12.29,0,0a2.59,2.59,0,0,1,.5-.54c.05,0,0,.07-.17.22a3.62,3.62,0,0,0-.44.61c-.09.17-.19.3-.2.28s0,0,0,.05a.61.61,0,0,1,0,.3.71.71,0,0,0-.06.29s0,0,.07-.14a4.34,4.34,0,0,1,.44-.89c.13-.18.11,0,0,.17a3.52,3.52,0,0,0-.43,1.12c0,.29,0,.22.1-.2Zm1.55.07a10.9,10.9,0,0,0,.17-1.82v-.29l-.12.12c-.18.17-.24.68-.2,1.71,0,.45,0,.81,0,.8a4.8,4.8,0,0,0,.11-.52Zm-.77.57a5.51,5.51,0,0,1,.07-.69c0-.25.06-.63.06-.84v-.38l-.15.13a.63.63,0,0,0-.25.63c.16,1.26.27,1.74.27,1.15Zm1.77-.69a16.73,16.73,0,0,0,0-3c-.06-.22-.07-.24-.1-.15a3.23,3.23,0,0,1-.48.83c-.17.21-.22.32-.13.32s.14.17.2.43l.06.23.05-.32a2.22,2.22,0,0,1,.29-.87c.09-.09.09-.08.06.21a19,19,0,0,0-.11,3.68c.06.15.06.14.09-.31,0-.26.06-.74.09-1.07Zm-1.2.87a3.09,3.09,0,0,0,0-.53c0-.24,0-.24-.05-.06a5.36,5.36,0,0,1-.07.63c-.09.6-.09.69,0,.43a1.62,1.62,0,0,0,.11-.47Zm-.67,1.08a17.33,17.33,0,0,0-.23-2.13l-.06-.37-.09.13c-.11.18-.11.24.18,1.81a6.72,6.72,0,0,1,.1.75c0,.45.1.34.1-.19Zm-.2.23c0-.32-.17-1.23-.3-1.88l0-.25-.06.17c-.13.37-.1.54.38,2.23.05.17.06.06,0-.27Zm1.6.29c0-.06,0,0,0,.1s0,.16,0,.11A.74.74,0,0,0,16,23.58Zm-1.46.16s0,0,0,.06,0,.07,0,0a.09.09,0,0,0,0-.09ZM15.43,17a.58.58,0,0,1,0-.18c0-.11,0,0,0,.16s0,.1,0,0Zm0,.21c0-.06,0-.09,0-.06a.24.24,0,0,1,0,.12S15.38,17.23,15.38,17.17Zm0,.27c0-.06,0-.09,0-.05a.21.21,0,0,1,0,.11S15.34,17.51,15.34,17.44ZM14.8,23.5a26.16,26.16,0,0,0,.42-3.71,13.12,13.12,0,0,1,.36-2.41c.06-.25.12-.52.14-.61a.35.35,0,0,1,.07-.2s0-.07,0-.13,0-.09,0-.08,0-.24,0-.35-.06-.06-.13.18c-.11.4-.15.51-.15.42a1.63,1.63,0,0,1,.11-.44,1.18,1.18,0,0,0,.08-.42c0-.06-.09.13-.28.92A21.69,21.69,0,0,0,15,19.56c0,.5-.11,1.36-.16,1.91-.09,1.09-.18,2.27-.17,2.42s0,.09,0,0,.07-.23.12-.39Zm-.24.43,0,0a0,0,0,0,0,0,.05s0,0,0,0S14.56,23.94,14.56,23.93Zm-3.34.41a.22.22,0,0,1-.1-.13s-.06-.1-.13-.14-.14-.05-.14,0a1.29,1.29,0,0,0,.42.39s0-.05,0-.08Zm9-11.72a1.45,1.45,0,0,1,.18-.23l.18-.21-.16.24c-.16.23-.21.27-.2.2Zm-.55.79a1.83,1.83,0,0,1,.35-.5,1.11,1.11,0,0,1-.16.28C19.81,13.33,19.72,13.43,19.72,13.41ZM18.5,15.24a2.94,2.94,0,0,1,.16-.38A16.74,16.74,0,0,1,19.82,13a6.6,6.6,0,0,1-.62,1,7.34,7.34,0,0,0-.48.82,2.69,2.69,0,0,1-.22.4Zm-.06.52a.65.65,0,0,1,.09-.23l.06-.11,0,.11a1.36,1.36,0,0,1-.09.23l-.06.11ZM18,16.87a.46.46,0,0,1,.06-.16c0-.06.06-.09.06-.06a.37.37,0,0,1-.06.15C18,16.87,18,16.9,18,16.87Zm-.09.25A.17.17,0,0,1,18,17c.05-.09.05,0,0,.11s0,.07,0,0Zm-.1.25a.25.25,0,0,1,.05-.11s0-.05,0,0a.37.37,0,0,1,0,.11s-.05,0-.05,0Zm-.11.3a1.71,1.71,0,0,1,.07-.18s0,0,0,0a.47.47,0,0,1-.07.19s0,0,0,0ZM17.6,18a.37.37,0,0,1,0-.14c.05-.08.05,0,0,.12s0,.06,0,0Zm-.09.36a.86.86,0,0,1,0-.18c0-.09,0-.09,0,0a.58.58,0,0,1,0,.18C17.53,18.39,17.51,18.4,17.51,18.35ZM17,19.57a2.32,2.32,0,0,1,.2-.57,1.32,1.32,0,0,1-.09.33c-.06.18-.11.29-.11.24Zm-.18.65a.53.53,0,0,1,0-.16c0-.06,0-.06,0,0a.53.53,0,0,1,0,.16C16.85,20.26,16.83,20.26,16.83,20.22Zm-.32,3.53c0-.37,0-.86,0-1.07s0-.08,0,.53,0,.89,0,.83a1.32,1.32,0,0,0,.07-.41c0-.64.11-1.62.18-2.43a6,6,0,0,1,.56-2.28c.07-.17.23-.62.36-1,.25-.74.54-1.58.65-1.87,0-.1.13-.32.19-.5A10.75,10.75,0,0,1,19.43,14c.24-.38.35-.58.22-.39l-.31.41a6.78,6.78,0,0,0-.48.85c-.28.58-.36.68-.14.2a5.23,5.23,0,0,1,.6-1.09l.27-.39c.05-.07.1-.13.13-.13a2.34,2.34,0,0,0,.31-.37l.46-.6a.87.87,0,0,0,.17-.27.07.07,0,0,1,0-.06c.06,0,.16-.16.14-.18a2.39,2.39,0,0,0-.57.52c-.14.15-.2.24-.14.21s.12-.05.13,0-.12.21-.17.18-.07,0-.11.07-.1.08-.11.07a3.59,3.59,0,0,0-.74.89,9.13,9.13,0,0,0-.47.84,26.33,26.33,0,0,0-1.13,2.87c0,.18-.16.55-.25.82s-.25.7-.33.94-.19.5-.22.6a1.18,1.18,0,0,0-.08.39,4.07,4.07,0,0,1,0,.47,37.48,37.48,0,0,0-.18,3.8s0,0,0-.07a6.52,6.52,0,0,0,.05-.8Zm-.4-.39c0-.06,0-.08,0-.05a.21.21,0,0,1,0,.11S16.11,23.43,16.11,23.36Zm0,1.8c0-.53,0-.53,0-.18s0,.35.06.2a27.22,27.22,0,0,0-.06-3,12.93,12.93,0,0,1,0-1.78c0-.61.06-1.18.07-1.27s0-.14,0-.09A7.29,7.29,0,0,0,16,20.49a9.2,9.2,0,0,0-.06,1.8l0,1,0-1.23,0-1.23V22c0,.69,0,1.07.05.93l0-.23V23c0,.15,0,.26,0,.26s0,.11,0,.26,0,.24,0,.17,0,.11,0,.43v.53l0-.44c0-.4,0-.41-.06-.21a5.43,5.43,0,0,0,0,.65,1.53,1.53,0,0,1,0,.46.19.19,0,0,0,0,.08s0,0,0,0,0,.16,0,.43c0,.46,0,.48.06.3a4.17,4.17,0,0,0,.07-.73Zm-4.72-10a1.27,1.27,0,0,0-.06-.18c0-.05,0,0,.05,0a.3.3,0,0,1,.05.18s0,0,0,0ZM12.08,17s0-.07,0-.06a.07.07,0,0,1,0,.09s0,0,0,0Zm.09.29a.3.3,0,0,1,0-.16s0,0,.06.13a.37.37,0,0,1,0,.16S12.2,17.38,12.17,17.3Zm.27.53s0-.07,0-.06a.09.09,0,0,1,0,.09s0,0,0,0Zm-.14-.12a.46.46,0,0,1,0-.2s0,.06.07.16a.64.64,0,0,1,0,.21S12.33,17.81,12.3,17.71Zm7.78.42a.08.08,0,0,1,.05-.07s0,0,0,0-.07.09-.07,0Zm-7.64,0c0-.06,0-.09,0-.06a.13.13,0,0,1,0,.12S12.44,18.23,12.44,18.17Zm.13.16s0-.07,0-.06a.14.14,0,0,1,0,.09s0,0,0,0Zm7.33.23a.24.24,0,0,1,.05-.12s0,0,0,0a.34.34,0,0,1,0,.12S19.9,18.58,19.9,18.56Zm-7.39-.1a.28.28,0,0,1,0-.14s0,0,0,.11a.28.28,0,0,1,0,.14S12.52,18.53,12.51,18.46Zm-1.41.09c0-.07,0-.07,0,0a.09.09,0,0,1,0,.09s0,0-.06-.06Zm8.71.24a.24.24,0,0,1,.05-.12s0-.05,0,0a.3.3,0,0,1,0,.11S19.81,18.81,19.81,18.79Zm-7.21,0a.3.3,0,0,1,0-.12s0,0,0,.05a.24.24,0,0,1,0,.13S12.61,18.83,12.6,18.78Zm-1.37.09a.38.38,0,0,1-.05-.18s.05.06.09.16.05.25,0,0Zm1.55.11c-.08-.2-.14-.38-.11-.35a1.74,1.74,0,0,1,.19.5.43.43,0,0,1-.08-.15Zm.13.76a.38.38,0,0,1,0-.14s0,0,0,.1a.23.23,0,0,1,0,.14S12.93,19.81,12.91,19.74Zm.12.37c0-.05,0-.07,0-.06a.07.07,0,0,1,0,.09s0,0,0,0Zm5.83.62a.1.1,0,0,1,.05-.08s0,0,0,.05-.06.09-.06,0Zm-3.07,0c0-.06,0-.09,0-.06a.13.13,0,0,1,0,.12S15.79,20.83,15.79,20.77Zm-.11.58c0-.12,0-.23,0-.2s.05,0,.06-.12l0-.15V21a1.06,1.06,0,0,1,0,.27c0,.1,0,.11-.06,0Zm-.12.26s0-.07,0-.06a.14.14,0,0,1,0,.09S15.56,21.67,15.56,21.61ZM13,22.47c0-.11,0-.14,0,0s0,.1,0,.11,0,0-.05-.06Zm2.37.17a1.12,1.12,0,0,1,.06-.23c0-.09.07-.13.07-.09a.75.75,0,0,1-.07.22C15.41,22.63,15.38,22.67,15.38,22.64Zm-1.92.4a5.32,5.32,0,0,0-.26-.58c-.18-.34-.23-.46-.11-.3a4.71,4.71,0,0,1,.43.91c.07.26,0,.24-.06,0Zm1.65.28a1.58,1.58,0,0,1,.13-.34c.08-.15.13-.23.11-.17s-.24.59-.24.51Zm-.09.25a.25.25,0,0,1,0-.11s0-.05,0,0a.34.34,0,0,1,0,.12s0,0,0,0Zm-.09.23c0-.05,0-.07,0-.06a.07.07,0,0,1,0,.09s0,0,0,0Zm-1.38-.05c-.1-.22-.09-.26,0-.05a.6.6,0,0,1,.08.19s-.06-.05-.1-.14Zm3.41.43a.27.27,0,0,1,.05-.13c0-.09,0,0,0,.11s0,.07-.05,0Zm-2.67.12q0-.07,0-.06a.14.14,0,0,1,0,.09S14.3,24.36,14.29,24.3Zm-.56-.1a.79.79,0,0,1-.06-.23s.05.08.1.19a.79.79,0,0,1,.06.23S13.78,24.31,13.73,24.2Zm.47.24c0-.05,0-.08,0-.06a.13.13,0,0,1,0,.09s0,0,0,0Zm.05.25q0-.11,0-.06a.21.21,0,0,1,0,.11S14.25,24.75,14.25,24.69Zm0,.25q0-.07,0-.06a.14.14,0,0,1,0,.09S14.3,25,14.29,24.94Zm-.38-.12a.87.87,0,0,1-.06-.34,1.2,1.2,0,0,1,.1.3,1.73,1.73,0,0,1,.06.34A.85.85,0,0,1,13.91,24.82Zm.13.52a.37.37,0,0,1,0-.14s0,0,.05.1,0,.13,0,.15,0,0-.05-.11Zm.12.36a.79.79,0,0,0,0-.13c0-.08,0-.08,0,0s0,.11,0,.14S14.16,25.74,14.16,25.7Zm2.08.17a.53.53,0,0,1,0-.16c0-.06,0-.06,0,0a.53.53,0,0,1,0,.16C16.26,25.91,16.24,25.91,16.24,25.87Zm-2,.18a.77.77,0,0,1,0-.26.61.61,0,0,1,.07.22.9.9,0,0,1,0,.25S14.28,26.17,14.25,26.05Zm.32.37c0-.07,0-.09,0-.06a.21.21,0,0,1,0,.11S14.57,26.48,14.57,26.42Zm1.47,1a10.56,10.56,0,0,1,.65-2.57c.22-.62.23-.52,0,.12a11.4,11.4,0,0,0-.61,2.28,2.21,2.21,0,0,1,0,.35c0,.14,0,.09,0-.18ZM16,28h.28l0-.36c0-.2.08-.63.13-1a5,5,0,0,0,.09-.6,6.79,6.79,0,0,0-.35,1.76c0,.07,0,0,0-.21a7.05,7.05,0,0,1,.48-2.11s0,0,0,0a1.57,1.57,0,0,1,.21-.63.43.43,0,0,0,.07-.23,8,8,0,0,1,.48-1.34c.12-.3.23-.58.25-.61a8.38,8.38,0,0,0-.47.93c0,.11-.05.11,0,0a6.3,6.3,0,0,1,.56-1.16s.11-.12.2-.28a6.32,6.32,0,0,1,.36-.54,12.38,12.38,0,0,0,1.14-1.56,3.78,3.78,0,0,1,.21-.38,7.82,7.82,0,0,0,.57-1.38s-.06.06-.11.2a17.42,17.42,0,0,1-1,1.85c-.09.12-.09.11,0-.07A9.19,9.19,0,0,0,19.79,19s0,0-.07.1A11.13,11.13,0,0,1,19,20.27s0-.07.07-.15c.15-.25.36-.63.53-1,.11-.19.18-.29.2-.25s.25-.39.34-.68c0-.07.05-.09.07,0s0,0,.06-.05a.24.24,0,0,0,0-.17c0-.06,0-.05,0,0s0,.1,0,0,0-.1,0-.14.06,0,.08,0,.29-.62.26-.7a1,1,0,0,0-.12.29,1,1,0,0,1-.12.31,4,4,0,0,1,.28-.87.34.34,0,0,0,.06-.2c0-.09,0-.15,0-.14s-.19.46-.4,1-.5,1.17-.63,1.41a14.2,14.2,0,0,1-1,1.54,6.43,6.43,0,0,0-1.31,2c-.11.26-.27.64-.37.85s-.19.48-.23.59-.13.46-.22.76a6.18,6.18,0,0,0-.36,1.4c0,.06,0,.08,0,.06s0,0,0,0-.09.09-.1,0a3.07,3.07,0,0,0-.08.79,1.73,1.73,0,0,1-.14.85c0,.05,0,0,0-.06a48.26,48.26,0,0,0,.09-5.33l0-.52-.11.39a3.69,3.69,0,0,0-.1,1.32c0,.51,0,1,0,1.09.05.52.07,3,0,3.1s-.05.1-.07-.09,0-.93-.06-1.82,0-1.72,0-1.85,0-.35,0-.5V23.3l-.1.27a11.78,11.78,0,0,0-.06,3,4.75,4.75,0,0,1,0,1.35s0-.19,0-.67,0-.72,0-.79,0-.46-.05-.89c0-.65,0-.73-.07-.52a13.41,13.41,0,0,0-.08,2.2c.05.69,0,.84,0,.54a13.27,13.27,0,0,1,0-2.85,13.93,13.93,0,0,1,.43-2,12.49,12.49,0,0,0,.31-1.31c.12-.69.15-1,.1-1s0,0,0,0a2.1,2.1,0,0,0-.1-1.15s0,.17,0,.53,0,.52,0,.5,0,0,0,.16,0,.17,0,.09,0,0-.07.22-.05.43-.07.53a1,1,0,0,0,0,.34l0,.16,0-.19a1,1,0,0,0,0-.3l0-.1.06.1c0,.09,0,.18,0,.46s-.09.33-.12.26,0-.2,0-.12.05.06,0,0-.07-.34-.08-.24a8.34,8.34,0,0,1-.37,1.15,4.94,4.94,0,0,0-.33,1.31c0,.14,0,.24,0,.22a1,1,0,0,0,0,.29,5.52,5.52,0,0,1-.06.68,2,2,0,0,0,0,.44c0,.08,0,.09,0,0s-.07-.15-.05-.63A6,6,0,0,0,14.11,23l-.18-.63c0-.18-.12-.47-.18-.64s-.17-.58-.25-.89c-.28-1-.34-1.19-.53-1.78-.09-.31-.17-.59-.17-.62a6.28,6.28,0,0,0-.25-.68c-.13-.35-.33-.91-.45-1.25a10.3,10.3,0,0,0-.8-1.84.78.78,0,0,1-.15-.28c-.07-.16-.16-.29-.19-.29s-.06,0-.06,0a0,0,0,0,0,0,.05s0,0,0,.07,0,.06,0,.05.16.21.37.72c.05.12.1.21.12.19a1.84,1.84,0,0,1,.24.55l.31.83c.06.13.09.25.07.27s-.09-.07-.24-.54a6.15,6.15,0,0,0-.3-.75c-.09-.18-.14-.28-.13-.23S12,16.87,12,17c.33.88,1.52,5,2,7.11.12.51.28,1.13.34,1.37a2.15,2.15,0,0,1,.13.8,10.19,10.19,0,0,1-.31-1.17c0-.14-.09-.32-.11-.41s-.14-.5-.25-.91c-.27-1-.26-1-.31-1a.23.23,0,0,1,0-.17c0-.1,0-.13,0-.09s0,0,0,0,0-.09,0-.07,0,0,0-.05,0-.07,0-.05-.11-.14-.07-.2-.06-.25-.1-.22a.11.11,0,0,0,0,.1s.05.08,0,.1-.1-.12-.19-.29c-.17-.33-.19-.46,0-.15.05.1.11.17.12.16s-.22-.39-.26-.37-.11-.08-.21-.21c-.26-.37-.23-.22.05.27S13,22,13,22a4,4,0,0,1-.28-.44l-.33-.55c0-.06,0-.1,0-.08s.06,0,0-.16a3.58,3.58,0,0,1-.24-.34,3.29,3.29,0,0,1-.41-.77,2.12,2.12,0,0,1,.18.3,8.11,8.11,0,0,0,.77,1.13c.09.12.18.22.19.21s-.15-.29-.35-.63-.36-.64-.36-.65a3.82,3.82,0,0,0-.2-.33A20.35,20.35,0,0,1,10.61,17a2.07,2.07,0,0,0-.21-.45,2.1,2.1,0,0,0,0,.38,7.63,7.63,0,0,0,.45,1.51,15.75,15.75,0,0,0,.93,1.84c0,.08.35.65.66,1.27a9.24,9.24,0,0,0,.6,1.09s0,0,0,0a.34.34,0,0,0,.07.25c.07.13.09.15.07.06s0,0,.11.18a2.58,2.58,0,0,1,.13.34s0,0,0,0-.06-.1-.07-.09a.41.41,0,0,0,.05.19,5,5,0,0,1,.18.63c.15.61.52,1.91.75,2.63a3.17,3.17,0,0,1,.22.94c0,.27.09.31.66.27.27,0,.62,0,.77,0Zm-4.29-3c0-.08,0-.08,0,0a.18.18,0,0,1,.08.08s0,0-.1-.06Zm2.43,2.57L14,27.4l.1.08a.51.51,0,0,1,.11.11S14.21,27.6,14.13,27.5Zm.39.46c0-.14-.36-.58-.48-.58s0,0,0-.05a.15.15,0,0,0,0-.08s0,0,0,0,0,0,0,0-.09-.11-.08-.13,0,0,0,0-.16,0-.13-.05-.12-.22-.18-.22a3.8,3.8,0,0,1-.74-.7s0,0,0,0a.09.09,0,0,0,.07.06s-.11-.22-.26-.39l-.29-.41c-.48-.68-1-1.18-1-1.1s0,.05.1.1a3.29,3.29,0,0,1,.78.91c.19.28.4.57.47.65s.11.15.08.15a.92.92,0,0,1-.21-.24c-.21-.3-.27-.36-.23-.25s0,.1-.06,0,0-.09,0-.06.05,0,.05,0a.18.18,0,0,0-.14-.12.13.13,0,0,1-.07,0s0,0,0,0,0,0,0,0,0-.06-.07-.05a.17.17,0,0,1-.11-.07c0-.07,0-.08,0,0s.08.05.08,0a3.9,3.9,0,0,0-.54-.68c-.16-.15-.25-.12-.11,0s.11.12.11.15,0,0,0,0,0,0,0,0a1.43,1.43,0,0,0,.29.46s.15.23.29.48a3.64,3.64,0,0,0,1.37,1.59,3.91,3.91,0,0,1,.55.46c.23.25.3.25.09,0a5.08,5.08,0,0,0-.73-.68,2.62,2.62,0,0,1-.4-.43l-.14-.21.15.16a2.43,2.43,0,0,1,.24.28,2.27,2.27,0,0,0,.34.3,6.14,6.14,0,0,1,.54.51c.29.31.37.37.37.27Zm2,0s0,0,0,.06,0,.07,0,0a.14.14,0,0,0,0-.09Zm-3.22.36c-1.49-.05,0-.12,2.5-.12a2.75,2.75,0,0,0,.6,0c0-.08-.18-.11-.55-.1l-2,.08c-.19,0-.3,0-.26,0a1.57,1.57,0,0,0-.56,0,2.43,2.43,0,0,0-.64,0c-.06.1-.09,0-.07-.19a1.32,1.32,0,0,0-.06-.47,1.19,1.19,0,0,1-.06-.28c.05-.05.17.4.17.62s0,.22.05.22,0-.11,0-.24c0-.31.08-.46.09-.17a1.26,1.26,0,0,1,0,.28c0,.05,0,.08.11.1s.21,0,.2-.23,0-.18,0-.16,0,0,0-.07a.2.2,0,0,1,.07-.2c.07-.08.08-.09.06,0s0,.17-.05.27,0,.25,0,.32.1.16.14,0,.11-.19.07,0,.11.15.15,0,0-.14.07-.06,0,.09.07,0c.09-.26.1-.27.1-.05s0,.23.05.24,0,0,0-.07,0-.1.05-.1,0,0,0,.08.05.09.18.1.18,0,.18,0a3.47,3.47,0,0,0-.67-.59,3.29,3.29,0,0,1-1-.91,2.55,2.55,0,0,1-.22-.37,2.39,2.39,0,0,0-.2-.38,7.24,7.24,0,0,0-.9-1.18c-.33-.37-.37-.43-.33-.51s.05-.05.16,0a2.76,2.76,0,0,1,1.3,1.14,8.91,8.91,0,0,0,1.48,1.78,9.59,9.59,0,0,0,.74.7,8.72,8.72,0,0,0-.28-.92c-.16-.5-.36-1.2-.46-1.56a18.67,18.67,0,0,0-.61-2c-.25-.6-1.2-2.51-1.54-3.1a10,10,0,0,1-1-2.28c0-.19-.12-.49-.18-.68a2.67,2.67,0,0,1-.08-.57c0-.19,0-.22.1-.22s.12.06.18.25a13.83,13.83,0,0,0,.66,1.59c.14.29.32.66.39.82s.19.39.25.5l.52.89.53.91.27.47c.07.13.14.24.14.24a14.86,14.86,0,0,0-.4-1.52c-.13-.41-.4-1.27-.52-1.72s-.62-2-.84-2.64A10.51,10.51,0,0,0,11,14.61c-.2-.43-.24-.68-.1-.68a3,3,0,0,1,.68,1,15.59,15.59,0,0,1,.69,1.71c.56,1.54.65,1.78,1,2.85.16.55.32,1.06.35,1.13s0,.14.17-.21l.12-.35-.08-.4c-.25-1.23-.58-2.57-.82-3.31A6.34,6.34,0,0,0,12.29,15a6.67,6.67,0,0,1-1-1.85,7.24,7.24,0,0,0-.57-1.29c-.07-.1-.29-.52-.5-.92A9.53,9.53,0,0,0,9.12,9.14.45.45,0,0,1,9,8.93c0-.06.33,0,.52.14a4.5,4.5,0,0,1,.78.86l.13.18s.2.31.42.66a6.66,6.66,0,0,1,.67,1.32c.1.31.54,1.39.73,1.76.09.19.26.48.36.64l.19.29,0-.18-.14-1a5,5,0,0,0-1.45-3.33,6.09,6.09,0,0,1-.64-.86l-.18-.3A14.89,14.89,0,0,0,9.05,7.54a3.84,3.84,0,0,0-.58-.47c-.31-.21-.41-.33-.27-.33A4.75,4.75,0,0,1,9,7.05a12.88,12.88,0,0,1,2.06,2.23c.23.3.83,1.21,1.11,1.68a1.09,1.09,0,0,0,.2.29c.06,0,0-.48-.1-.62s-.24-.42-.43-.77l-.58-1a21.17,21.17,0,0,0-1.55-2,1.66,1.66,0,0,1-.29-.37c0-.22.38,0,.85.48S11.61,8.46,12,9.06c.08.11.08.11.06-.14s0-.42-.07-.62-.08-.38-.17-.43-.09-.06-.08-.08,0,0,0-.08a.12.12,0,0,1,0-.11s0,0,0,0,0,0,0,0,0,0,0-.07a.09.09,0,0,1,0-.1s0,0,0,0-.12-.14-.11-.21a.37.37,0,0,0,0-.15c0-.07,0-.11,0-.11s0,0,0-.09,0-.09,0-.11,0,0,0,0-.08,0-.06-.09,0-.1,0-.12,0,0,0-.09.08-.06,0-.06-.08,0-.06-.07,0-.07,0-.07,0,0,0-.08a1.68,1.68,0,0,0,0-.27c0-.16,0-.2,0-.21s.07,0,0,0-.08,0-.08-.14,0-.14,0-.14a0,0,0,0,0,0-.05s0,0,0,0,0-.08,0-.21,0-.21,0-.18.06.05.11.05.08,0,0,0a.13.13,0,0,1-.1-.07c0-.08.05-.35.11-.35s0-.08,0-.21,0-.2.05-.2.07,0,.07.17a1.92,1.92,0,0,1,0,.2s0,0,.08.06a.14.14,0,0,1,.09.11.1.1,0,0,0,0,.1.22.22,0,0,1,.06.13.35.35,0,0,0,0,.17s0,.08,0,.1a0,0,0,0,0,0,.06s.07.17.11.54a.42.42,0,0,0,0,.12A1.24,1.24,0,0,1,12.1,6c0,.12,0,.34.06.47l.07.52a1.76,1.76,0,0,0,0,.3,0,0,0,0,1,0,.07s0,.05,0,.09,0,.12,0,.25a2,2,0,0,0,0,.64l.06.43,0-.25A20.38,20.38,0,0,1,13.07,5a1.56,1.56,0,0,0,.09-.34,13.62,13.62,0,0,0-1-2.4C12,1.84,12,1.73,12,1.73a5.43,5.43,0,0,1,1.21,1.86c.18.44.14.49.55-.56.31-.8.32-.82.38-.8s0,.6-.25,1.43l-.28.85.11.35c.15.48.52,1.84.8,2.95.13.5.25,1,.27,1a9.85,9.85,0,0,0,0-1.31c0-1.41,0-1.41-.14-1.53s-.09-.12-.08-.13a.27.27,0,0,0-.05-.16c0-.07-.05-.13,0-.13s0,0,0-.06,0-.06,0,0,0,0,0-.06a1,1,0,0,0,0-.16s0-.08,0-.08,0,0,0-.08a1.74,1.74,0,0,1,0-.82.06.06,0,0,0,0-.08.06.06,0,0,1,0-.08A6.3,6.3,0,0,0,14.53,3c0-.14,0-.26.05-.26s0,0,0,0,0-.13,0-.25,0-.21,0-.23,0,0,.05,0,.08-.12.1-.3c0-.34.13-.33.15,0,0,.14,0,.26,0,.26s.14.21.16.33a.29.29,0,0,0,0,.1,10.84,10.84,0,0,1,.06,1.71A4.33,4.33,0,0,1,15.12,6a4.51,4.51,0,0,0-.06,1.35V8.67l.12-.43c.07-.24.24-.75.39-1.14C16,6,16,5.88,16,5.6a8.19,8.19,0,0,1,0-1.85A1.35,1.35,0,0,1,16.24,3c.08-.1.08-.1.11,0a4.76,4.76,0,0,1,0,.59,4.76,4.76,0,0,0,0,.7c0,.11,0,.28,0,.38s.05.17.23-.38.27-.79.66-1.77c.2-.51.44-.88.57-.88s.09,0,.09,0-.17.52-.37,1.1S17.06,4.16,17,4.56s-.24.88-.31,1.1l-.13.39.08.58c0,.32.11.74.14.93a3.36,3.36,0,0,0,.06.35s.07,0,.12-.1a2.35,2.35,0,0,1,.38-.31c.2-.13.27-.21.27-.29s0-.09,0-.08-.09-.16-.09-.42,0-.25.06-.26,0,0,0,0,0-.14,0-.32a1.18,1.18,0,0,0,0-.22q0-.15.06-.15s.06,0,.06,0,0,0,0,0,0-.35.07-.42.05,0,0,0-.07,0,0-.09a0,0,0,0,1,.07,0s.14,0,.16,0,0,0-.12-.06-.12,0-.09-.11a.76.76,0,0,0,0-.21s0-.09,0-.07.06-.07,0-.22,0-.08.05-.08,0,0,0-.06a.31.31,0,0,1,0-.17A.62.62,0,0,0,18,4a.94.94,0,0,1,.23-.38.61.61,0,0,0,.12-.28c0-.23.07-.28.15-.18s0,.11,0,.25,0,.21,0,.27a.57.57,0,0,1,.08.35c0,.41-.05.84-.07,1s0,.22,0,.32a3.14,3.14,0,0,1-.12.62.82.82,0,0,0-.06.25c0,.1-.07.35-.12.56s-.09.39-.09.4a.37.37,0,0,0,.18,0c.14,0,.18,0,.18,0s-.11.2-.39.38a1.33,1.33,0,0,0-.28.23,17,17,0,0,0-.34,1.72,11.14,11.14,0,0,0-.2,1.89c0,.1,0,.09.07-.09.12-.38.54-1.66.68-2a14.49,14.49,0,0,1,1.07-2.39,2.05,2.05,0,0,0,.26-.33,6,6,0,0,1,1.27-1.26c.16,0,.26,0,.26,0a7.35,7.35,0,0,1-.76,1,1.92,1.92,0,0,0-.24.28,1.36,1.36,0,0,1-.16.23,8.1,8.1,0,0,0-.85,1.81c-.1.28-.22.6-.27.71a3.64,3.64,0,0,0-.23.59,3.72,3.72,0,0,1-.17.44,23,23,0,0,0-.76,2.39,5.22,5.22,0,0,0,.67-1,12.47,12.47,0,0,0,.65-1.48,7,7,0,0,1,1.39-2.57c.25-.27.32-.32.45-.32s.14,0,.14,0a1,1,0,0,1-.11.17,10.78,10.78,0,0,0-1.28,2.61,10.86,10.86,0,0,1-1.57,3.19l-.5.71-.14.2,0,.95c0,.53-.05,1.13-.08,1.34S17,17.44,17,18s0,1-.05,1,0,0,0,0a3.47,3.47,0,0,0,.34-1c.12-.43.47-1.41.87-2.41A11.68,11.68,0,0,1,19,13.93s.13-.18.23-.32a4.76,4.76,0,0,1,.31-.41l.4-.47a5,5,0,0,1,.86-.88c.13-.07.25,0,.25,0a3.69,3.69,0,0,1-.54.76,20.85,20.85,0,0,0-1.41,2.16,4.74,4.74,0,0,0-.28.59c0,.12-.13.37-.21.57s-.16.43-.18.5-.11.34-.21.6-.19.53-.22.63c-.13.39-.47,1.35-.67,1.86-.12.3-.23.63-.26.74s-.27,2.81-.27,3.09,0,.1.14-.17.22-.52.31-.77.21-.49.24-.54a12,12,0,0,1,.87-1.15,15.71,15.71,0,0,0,1-1.39,16.42,16.42,0,0,0,.8-1.67c.07-.17.15-.38.19-.45l.16-.46c.12-.4.19-.48.27-.34s0,.77-.41,1.87a10,10,0,0,1-1.16,2.4,2,2,0,0,0-.24.38,1.82,1.82,0,0,1-.25.3,7.48,7.48,0,0,0-1.6,3.23,15.91,15.91,0,0,0-.62,2.56c0,.31-.07.62-.07.68s.09.07.1-.11,0-.17,0,0,.11,0,.07-.3,0-.27,0-.29,0,0,0,.07a1.12,1.12,0,0,0,0,.31l0,.21.06-.19a.54.54,0,0,1,.11-.22s0,0,0,0a2.82,2.82,0,0,0-.1.31c-.11.38-.17.53-.22.5s0,0,0,0,.13.06.24,0,.1-.14,0-.17,0-.05,0-.14l.06-.12.08.09.08.1.07-.11a1.57,1.57,0,0,0,.09-.23c0-.08,0-.12.06-.11a.46.46,0,0,1,0,.18c0,.08-.06.21-.08.28s0,.12-.07.07S17,28,17,28s-.05.14.14.14.18,0,.18-.11a1.38,1.38,0,0,1,.16-.52,1.6,1.6,0,0,1-.05.29c0,.15-.07.29-.07.3a1.09,1.09,0,0,0,.4,0c.64,0,.4,0-.4.06l-1.69.06c-1.32,0-1.44,0-2.31,0Zm6,.09s0-.05.07-.05.06,0,0,.05a.08.08,0,0,1-.07,0A0,0,0,0,1,19.36,28.38Zm-2.58,0s.07-.05.19-.05.51,0,.9,0,.62,0,.45,0a6.55,6.55,0,0,1-1.54.05Zm-1.44.07.57-.05.59,0h.1l-.18,0a6,6,0,0,1-1.08,0Zm1.61.17a4.17,4.17,0,0,1,.5,0c.14,0,0,0-.24,0s-.39,0-.26,0Zm-.88,0a.54.54,0,0,1,.18,0c.05,0,0,0-.08,0S16,28.68,16.07,28.66Zm-.22,0s0,0,0,0,.1.07,0,.07-.05,0-.07-.05Zm-2,.08a7.3,7.3,0,0,1,.89-.06c.47,0,.89,0,.93-.05s.08,0,.08,0,0,.05-.12.05l-1,0a7.54,7.54,0,0,1-.82,0Zm1,.12s.05,0,.08,0,0,0,0,0-.08,0-.06,0Zm-.25,0a.19.19,0,0,1,.13,0s0,0-.05,0S14.56,28.86,14.6,28.85Zm.61,0a.54.54,0,0,1,.18,0s0,0-.08,0S15.16,28.9,15.21,28.89Zm-1.6,0s.16,0,.41,0a1.78,1.78,0,0,1,.43,0,4,4,0,0,1-.84,0Zm-.64,0a2.41,2.41,0,0,1,.38,0c.11,0,0,0-.19,0s-.3,0-.19,0Z" transform="translate(-8.13 -1.63)"/></g></g></svg>