<svg id="Layer_1" data-name="Layer 1" xmlns="http://www.w3.org/2000/svg" xmlns:xlink="http://www.w3.org/1999/xlink" viewBox="0 0 30 30"><defs><style>.cls-1{fill:none;}.cls-2{clip-path:url(#clip-path);}.cls-3{clip-path:url(#clip-path-2);}.cls-4{fill:#fff;}.cls-5{clip-path:url(#clip-path-4);}.cls-6{fill:#964a25;}</style><clipPath id="clip-path" transform="translate(-100 -46.71)"><rect class="cls-1" x="100" y="46.71" width="30" height="30"/></clipPath><clipPath id="clip-path-2" transform="translate(-100 -46.71)"><rect class="cls-1" x="100" y="46.71" width="30" height="37.5"/></clipPath><clipPath id="clip-path-4" transform="translate(-100 -46.71)"><rect class="cls-1" x="105.85" y="47.96" width="18" height="27.75"/></clipPath></defs><g id="Religion"><g class="cls-2"><g class="cls-3"><rect class="cls-4" width="30" height="30"/></g><g class="cls-2"><rect class="cls-4" width="30" height="30"/></g><g class="cls-5"><path class="cls-6" d="M121.38,50.4q-.07-.26-.21,0c-.06.11-.07.11-.16,0s-.1-.13-.19,0-.1.11-.19,0-.12-.07-.2,0-.12.07-.18,0-.09-.1-.17,0-.09.09-.17,0-.11-.09-.18,0-.09.11-.18,0-.1-.13-.19,0-.09.12-.19,0-.09-.13-.19,0-.09.13-.1,0a.54.54,0,0,1,.09-.26c.09-.12.1-.12.2,0s.12.1.2,0,.09-.11.17,0,.1.09.16,0,.1-.06.19,0,.14.06.2,0,.09-.09.17,0,.08.11.17,0,.09-.12.19,0,.11.13.17,0,.17-.14.22,0l0,.14.12-.16c.1-.13.13-.14.19-.06.17.26.2.34.13.41s-.08,0-.11-.07Zm-3.16-.24c0-.12-.12-.23-.15-.23s-.08.23-.11.51-.07.63-.1.79-.06.29.18.54l.24.25,0-.81a3,3,0,0,0-.08-1.05Zm0,2.57a.44.44,0,0,1,0-.21.68.68,0,0,0-.25-.65l-.25-.28.12-.87a5.08,5.08,0,0,1,.17-.93c.09-.09.24,0,.34.19a6,6,0,0,1,.1,1.5c0,1.14,0,1.32-.07,1.32a.19.19,0,0,1-.14-.07Zm2.21-.11a4.17,4.17,0,0,0,0-.44v-.33l-.27,0a.73.73,0,0,0-.31,0,2.77,2.77,0,0,0,0,.48v.44h.28c.21,0,.29,0,.31-.11Zm-.74.2a3.54,3.54,0,0,1,0-1c0-.08.14-.1.48-.1h.43v.44c0,.72,0,.73-.47.73a1.58,1.58,0,0,1-.44,0Zm3-1.78c0-.09,0-.15.06-.17s.12-.17-.06-.34a.53.53,0,0,1-.16-.27.29.29,0,0,0-.08-.19c-.09-.09-.34-.1-.4,0s0,.06.11,0,.11,0,.07,0-.1.35,0,.62.09.21.11.06a.22.22,0,0,1,.14-.19c.1,0,.1,0,0,.11s-.06.16,0,.3.2.22.14,0Zm.79.72c.08-.06.08-.09,0-.21a3.81,3.81,0,0,1-.29-.4c-.2-.31-.31-.31-.31,0s-.07.28-.27.08-.13-.12-.09,0a1,1,0,0,1,0,.17.86.86,0,0,0,.2.26.51.51,0,0,0,.42.2.84.84,0,0,0,.33-.06Zm-.63.71c.07-.18,0-.59-.06-.59a2.41,2.41,0,0,0-.26.71c0,.16.24.07.32-.12Zm.25.43a12.12,12.12,0,0,0-1.32-.1c-.13,0-.14,0-.07-.1a.2.2,0,0,1,.21-.06c.28.07.47-.07.58-.45l.11-.34-.26-.53a3.77,3.77,0,0,1-.3-.8.6.6,0,0,0-.16-.35c-.16-.1-.15-.14,0-.23s.73,0,.73.25a.64.64,0,0,0,.17.31,3.14,3.14,0,0,1,.59.76.45.45,0,0,0,.16.23c.23.22.2.31-.14.41s-.3.11-.39.41-.1.31,0,.41.19.21.09.21a.15.15,0,0,1-.08,0ZM110.82,51c0-.38-.12-2-.16-2.21s0-.14-.06-.13a20.39,20.39,0,0,0-.41,2.45c0,.21,0,.21.32.21h.31V51Zm.51.9c-.12-.08-.36-.08-.41,0s.07.07.23.07S111.4,51.93,111.33,51.88Zm-.51.2c-.94-.06-.9-.06-.85-.13s.1-.05.18,0a1.23,1.23,0,0,0,.49-.1.92.92,0,0,1,1,.06c.09.12.08.28,0,.25l-.78-.05Zm-.2,3c.14,0,.15-.06.11-.45a1.07,1.07,0,0,1,.27-1c.22-.23.3-.27.78-.36l.85-.15c.25,0,.29-.06.19-.1a2.11,2.11,0,0,0-1.2.08c-.41.15-.63.12-.26,0a3.33,3.33,0,0,1,1.47-.19c.43,0,.45,0,.68-.16s.35-.45.22-.54a2,2,0,0,0-.53-.06,3.68,3.68,0,0,1-1.65-.31,2.45,2.45,0,0,0-.76-.23c-.76-.09-.71,0-.76-.65a7,7,0,0,0-.28-2.15,20.48,20.48,0,0,0-.45,2.11,4.08,4.08,0,0,0,0,1.66,2.07,2.07,0,0,0,.31.43l.22.24V54a5.89,5.89,0,0,0,0,.94.82.82,0,0,0,.77.11Zm1.47-.05s0-.1-.12-.12-.13,0-.13.11a.38.38,0,0,0,0,.19c.06.06.21-.08.21-.18Zm-3.42-.12a.08.08,0,0,0-.14,0s0,.11,0,.21l.12.14,0-.14a.28.28,0,0,0,0-.21Zm2.15.37c.05,0-.11-.06-.44-.06s-.61,0-.43.12a1.9,1.9,0,0,0,.87-.06Zm0,.37c.3-.12.17-.18-.36-.16s-.56,0-.56.15.7.09.92,0Zm1.44.11a1.24,1.24,0,0,0,.35-.67c-.07-.18-.27-.1-.44.17s-.2.37-.14.54.09.13.23,0Zm-3.5,0a1.39,1.39,0,0,0-.21-.52c-.16-.28-.23-.35-.38-.35s-.17,0-.17.06a2.35,2.35,0,0,0,.71,1s0-.08,0-.17Zm2.09.31a.23.23,0,0,0,.18-.2c0-.14,0-.14-.28-.09a2.83,2.83,0,0,1-.57,0q-.47,0-.24.21a1.32,1.32,0,0,0,.91.05Zm.07.49c.39-.14.31-.48-.09-.36a2.38,2.38,0,0,1-.58,0c-.32,0-.38,0-.4.1s.11.31.49.3a2.39,2.39,0,0,0,.58-.08Zm1-.27a6.75,6.75,0,0,0-.42-1.89c-.19-.4-.45-.67-.55-.57a1.24,1.24,0,0,0,0,.86l.1.36.11.43c.05.2.11.56.14.8l0,.44.33,0,.32,0,0-.39Zm-2.22-1.22c0-.91,0-1.7,0-1.78a.63.63,0,0,0-.19-.31l-.18-.18-.1.19a5.89,5.89,0,0,0-.34,2.4l0,1.32h.84V55.06Zm-3.43,1.29a3.72,3.72,0,0,1,.06-.73c.18-.49.7-.74,1.79-.88.69-.08.63,0,.72-.81a3.47,3.47,0,0,1,.35-1.17c0-.06,0-.18,0-.43a2.29,2.29,0,0,1-.1-.56.62.62,0,0,0,0-.21l-.37.1A3.38,3.38,0,0,0,107,52.89a3.68,3.68,0,0,0-.59,1.18,5.37,5.37,0,0,0-.33,2c0,.75,0,.79.1.79s.1-.11.1-.55Zm5.13,4.32c0-.28.12-.66.16-.83a8.48,8.48,0,0,0,.19-1c.06-.36.12-.7.13-.75s-.14-.11-1.79-.14c-1,0-1.84,0-1.87,0a2.31,2.31,0,0,0,.18.58,7.8,7.8,0,0,1,.31,1c.14.62.16.67.24.67s.55.22,1.12.48a11.2,11.2,0,0,0,1.15.49c.08,0,.12-.11.18-.52Zm0,1.15c0-.14-.13-.5-.18-.5s-.14.41-.06.5.24.11.24,0Zm-.41-.21c0-.31,0-.31-.35-.49a15.67,15.67,0,0,0-1.69-.77s-.08.15-.1.34,0,.38,0,.43.22.27.86.53a3.54,3.54,0,0,0,1.3.28.82.82,0,0,0,0-.32Zm5.9.63s0-1.71,0-3.73V54.83l.18-.18.19-.18.07.25a4.46,4.46,0,0,1,.11.55c0,.16.08.28.11.26a1.58,1.58,0,0,0-.06-.86,2.89,2.89,0,0,0-.69-1c-.23-.15-.19,0,.07.28a1.17,1.17,0,0,1,.27.34.56.56,0,0,1-.18.23l-.18.16,0,2.41c-.08,4.46-.06,5.39.11,5.11Zm.54.86a1.47,1.47,0,0,0-.66-.35s.1.13.27.22.39.21.39.13Zm-.06.26a2.31,2.31,0,0,0-.75-.44c-.06.06.15.25.4.37s.35.14.35.07Zm-.13.26a1.19,1.19,0,0,0-.38-.26c-.31-.17-.37-.19-.32-.09a1,1,0,0,0,.33.26C117.16,63.68,117.23,63.7,117.23,63.62Zm-.19.22a1.68,1.68,0,0,0-.51-.3c-.14,0,0,.1.18.21s.33.13.33.09Zm-9.44,1.55a2.19,2.19,0,0,0-.12-1.07c-.15-.34-.15-1,0-3.52,0-.8.07-2,.07-2.69s0-1.24,0-1.25.07,0,.12.15l.27.52.18.33h3.82l.25-.45a2,2,0,0,1,.3-.46c.08,0,.13.24.15.77A15,15,0,0,0,113,60a11.78,11.78,0,0,0,1.47,1.82c.28.28,1,.94,1.28,1.21l.36.32c.11.09.16.11.21.05s.06-.1,0-.17,0-.15.06-.36a.7.7,0,0,1,.23-.31,1.06,1.06,0,0,1,.48.16,1.09,1.09,0,0,0,.48.16c.07,0,.05-.06-.09-.1a2.46,2.46,0,0,1-.42-.22,1,1,0,0,0-.37-.15,1.26,1.26,0,0,1-.86-.56,4.56,4.56,0,0,1-.43-.59,5.86,5.86,0,0,0-1.06-1.13s-.11-.09-.19-.2-.14-.32-.19-1.19a11.55,11.55,0,0,0-.12-1.28c0-.16-.09-.57-.12-.92-.07-.77-.22-1.14-.57-1.34a1.3,1.3,0,0,0-.32-.15,1.23,1.23,0,0,0-.28.35c-.12.18-.29.42-.38.53s-.16.23-.12.53l0,.35h-.48c-.36,0-.48,0-.51-.09s-.09-.08-.18-.06a3.64,3.64,0,0,1-.59,0,1.92,1.92,0,0,0-.53.07,2.21,2.21,0,0,1-.58,0l-.51,0v-.3c0-.27,0-.33-.29-.59a3.38,3.38,0,0,1-.46-.63c-.14-.29-.19-.35-.34-.35a2,2,0,0,0-1,.46l-.19.2,0,2.55a39.23,39.23,0,0,0,.06,5,5.87,5.87,0,0,1,.06,1.55,1.26,1.26,0,0,0,0,.54,1.11,1.11,0,0,0,.7,0,.24.24,0,0,0,.07-.17c0-.07,0-.13.07-.13s.07.09.06.21c0,.3,0,.37.06.37s.07-.07.08-.16Zm-.58.14s-.06-.08-.13-.09-.15,0-.09.21.06.09.13,0a.24.24,0,0,0,.09-.15Zm5.45,1.27c0-.06-.33-1.73-.51-2.55-.07-.34-.16-.78-.19-1s-.09-.45-.12-.56a4,4,0,0,1-.09-.43l0-.25H111a3.54,3.54,0,0,1-.68,0,7.65,7.65,0,0,1-1.31-.49c-.18-.09-.28-.11-.33-.07a9.85,9.85,0,0,0,0,1.9,3.89,3.89,0,0,1,0,.78c0,.2-.15.83-.26,1.4s-.21,1.11-.22,1.19l0,.14,1.61,0a14.16,14.16,0,0,0,2.77-.07ZM107,66.63v-.49h.22a.44.44,0,0,0,.26-.06s-.05-.07-.19-.07-.22,0-.19-.07a.07.07,0,0,1,.09,0c.09.06.22-.35.14-.43s-.1,0-.2.2-.14.26-.26.18a.44.44,0,0,1-.16-.25.31.31,0,0,0-.13-.21c-.14-.06-.1.33,0,.48l.14.13h-.27c-.16,0-.25,0-.23.07a.65.65,0,0,0,.32.06h.29v.49c0,.28,0,.49.06.49s.06-.21.06-.49Zm-.36,7.11c.07-.4.17-.94.24-1.18a9.38,9.38,0,0,0,.31-2.25,10.3,10.3,0,0,1,.25-1.92c.11-.47.28-1.27.39-1.79a9.52,9.52,0,0,1,.54-1.87,3.4,3.4,0,0,0,.16-.55,4.59,4.59,0,0,0,0-1.43c-.09-.16-.16.16-.16.67a1.72,1.72,0,0,1-.07.66,12.4,12.4,0,0,0-.31,1.28c-.12.63-.31,1.42-.4,1.76a21.45,21.45,0,0,0-1.22,6.49c0,.78,0,.93,0,.9s.13-.29.2-.77Zm10.16,1.06c.11,0,.17,0,.22.18s.06.15.07,0a.9.9,0,0,0-.12-.35c-.11-.22-.11-.42-.07-5.44,0-4,0-5.21,0-5.25a69.8,69.8,0,0,0-.16,7.23c0,3.16,0,3.28-.14,3.44a.71.71,0,0,0-.12.37v.2l.09-.21c.07-.16.13-.21.25-.21Zm-.47.24a.84.84,0,0,1,.1-.42c.1-.15.12-1,.18-7.51l0-3.24-.19-.12c-.19-.12-1.49-1.3-1.9-1.71-.13-.13-.41-.45-.64-.71l-.65-.75a1.63,1.63,0,0,1-.31-.53,17.6,17.6,0,0,1-.44-2.42c0-.19,0-.34,0-.32a3.38,3.38,0,0,0-.48,1.21,11,11,0,0,1-.28,1.45,10.53,10.53,0,0,0-.22,1.42s.08.36.16.68.21.82.27,1.11.14.69.19.91.18.83.29,1.37.22,1.11.26,1.27a9.92,9.92,0,0,1,.12,1.14,11.38,11.38,0,0,0,.15,1.39,15.1,15.1,0,0,1,.29,1.95,10.48,10.48,0,0,0,.49,2.6,3,3,0,0,0,2,1.35c.66.2.65.2.65-.12Zm-8.31.25c.3-.17.35-.17,1.14,0a3.49,3.49,0,0,0,1.76,0c0-.06-.05-.09-.23-.09a2.21,2.21,0,0,1-.88-.31,2.36,2.36,0,0,1-1.17-.92c-.18-.27-.19-.3-.16-.74a3.15,3.15,0,0,1,.11-.66c.06-.19.24-1.33.51-3.26a7.15,7.15,0,0,1,.28-1.3c.43-1.12.45-1.07-.47-1.07h-.75l-.07.21a21.16,21.16,0,0,0-.51,3.09c0,.42-.07,1.26-.07,1.87a18,18,0,0,1-.1,1.92c-.13,1.09-.13,1.18,0,1.28s.29.11.6-.07Zm5.41.09a1.46,1.46,0,0,1,.85,0,5.47,5.47,0,0,0,1.78,0s-.1-.09-.38-.16a3.22,3.22,0,0,1-2.12-1.48,15.44,15.44,0,0,1-.5-2.9,14.23,14.23,0,0,0-.2-1.43,13.6,13.6,0,0,1-.2-1.61c0-.58-.06-.78-.14-.83a5.17,5.17,0,0,0-1.58,0,1.13,1.13,0,0,0,.09.26,5.7,5.7,0,0,1,.12,1.22,9.69,9.69,0,0,0,.13,1.37,8.43,8.43,0,0,0,.58,1.75,10,10,0,0,1,.82,3.39c0,.28.1.49.31.43l.44-.11Zm-.78.12c-.11-.12-.13-.2-.1-.44a9.48,9.48,0,0,0-.77-3.26,6.11,6.11,0,0,1-.52-1.44,15.35,15.35,0,0,1-.29-2.35,1.55,1.55,0,0,0-.16-.8l-.14-.23-.42,0c-.4,0-.42,0-.44.18a1.46,1.46,0,0,1-.11.36,2,2,0,0,0-.13.39,1.35,1.35,0,0,1-.11.28,3.93,3.93,0,0,0-.24,1.22l-.09.65-.13.84c-.06.4-.14.94-.19,1.21a5.68,5.68,0,0,0-.2,1.56,2,2,0,0,0,.35.53,2.09,2.09,0,0,0,.91.63,5.38,5.38,0,0,0,.9.31c.31,0,.44.17.3.31a5.37,5.37,0,0,1-2,0c-.53-.16-.82-.15-1.05,0a.5.5,0,0,1-.65,0c-.22-.16-.25-.33-.15-1,0-.33.11-1.43.15-2.45s.09-2,.12-2.27c.06-.54.23-1.64.31-2,0-.16.14-.66.22-1.11s.18-.86.19-.93,0-.11,0-.11-.07.11-.09.24c-.07.4-.49,2.29-.62,2.82a9.73,9.73,0,0,0-.18,1.57,9.39,9.39,0,0,1-.28,2.24,7.26,7.26,0,0,0-.29,1.43c-.08.61-.17.76-.38.7s-.15-.13-.14-.41a20.41,20.41,0,0,1,.43-4c0-.22.1-.45.11-.52s.1-.39.19-.7c.26-.85.79-2.95,1-4,.08-.37.18-.81.23-1a3.12,3.12,0,0,0,.09-.77,1.82,1.82,0,0,1,.1-.69,8,8,0,0,0,.37-2.17,3.52,3.52,0,0,0-.2-1.19,10.61,10.61,0,0,0-.81-1.88s0,.92-.06,2-.06,2.4-.09,2.87a5.16,5.16,0,0,0,.12,2.18c.22.49.15,1.18-.12,1.25s-.18.18,0,.18.1.07.1.2,0,.19-.26.19h-.25v1l-.21,0-.2,0V66.3l-.3,0c-.29,0-.3,0-.3-.21s0-.19.14-.19.14,0,.12-.44c0-.24,0-.68,0-1a2.8,2.8,0,0,0,0-1.08,29.77,29.77,0,0,1-.11-4.14c0-2.31,0-2.21-.14-2.21s-.25-.21-.16-1.2a7.55,7.55,0,0,1,.38-2,3.77,3.77,0,0,1,2.28-2.32l.48-.16,0-.35c.05-.33.25-1.37.45-2.35.11-.52.2-.72.26-.57s.14.79.23,1.59c0,.33.07.6.08.6s.09-.47.19-1.07c.16-1,.24-1.27.32-1.18a15.71,15.71,0,0,1,.27,2.42l0,.89.23,0a2.9,2.9,0,0,1,.59.23,2.12,2.12,0,0,0,1.17.24,4.62,4.62,0,0,1,.89.09c.14.09.09.33-.1.57a2.14,2.14,0,0,1-1.44.67c-1.2.2-1.31.28-1,.64a2.84,2.84,0,0,1,.43.81,4.71,4.71,0,0,0,.48.12,3.39,3.39,0,0,1,1.25.46,2,2,0,0,1,.4,1.2c0,.34.1.9.16,1.24s.09.84.1,1.1c0,.79.07,1,.35,1.27a6.46,6.46,0,0,1,1.12,1.23c.33.5.73.95.85.95s.09-.06.11-.14,0-1.79.07-3.79l0-3.64.16-.15a.47.47,0,0,0,.16-.21,1.22,1.22,0,0,0-.26-.29c-.28-.27-.29-.28-.15-.44s.28-.08.62.29a2.2,2.2,0,0,1,.58,1.41v.42h-.21c-.21,0-.21,0-.23-.32s-.09-.65-.19-.56a28.09,28.09,0,0,0-.09,3.8l0,3.74.17.14a1.13,1.13,0,0,0,.39.17c.27.06.35.21.16.34a1.84,1.84,0,0,0-.42.75.26.26,0,0,1-.15.16c-.11,0-.12.15-.16,1.7,0,.92,0,3.29,0,5.26,0,3.19,0,3.61.1,3.74a1,1,0,0,1,0,.84c-.12.25-.22.19-.22-.13s0-.48-.17-.39a.7.7,0,0,0-.08.4c0,.34,0,.38-.16.2s-.09-.1-.19,0a4.11,4.11,0,0,1-2.08,0l-.49-.13-.39.13c-.49.17-.53.17-.69,0Z" transform="translate(-100 -46.71)"/></g></g></g></svg>